<?xml version="1.0" standalone="no"?>
<!DOCTYPE svg PUBLIC "-//W3C//DTD SVG 20010904//EN"
 "http://www.w3.org/TR/2001/REC-SVG-20010904/DTD/svg10.dtd">
<svg version="1.0" xmlns="http://www.w3.org/2000/svg"
 width="310.000000pt" height="310.000000pt" viewBox="0 0 310.000000 310.000000"
 preserveAspectRatio="xMidYMid meet">
<metadata>
Created by potrace 1.11, written by Peter Selinger 2001-2013
</metadata>
<g transform="translate(0.000000,310.000000) scale(0.100000,-0.100000)"
fill="#000000" stroke="none">
<path d="M0 1550 l0 -1550 1550 0 1550 0 0 1550 0 1550 -1550 0 -1550 0 0
-1550z m1373 703 c140 -197 260 -367 267 -379 11 -18 7 -28 -31 -82 -24 -34
-49 -61 -55 -59 -9 1 -586 798 -628 866 -5 8 21 11 93 11 l99 0 255 -357z
m1237 348 c0 -5 -165 -240 -367 -523 -202 -282 -367 -522 -367 -533 -1 -11
157 -240 350 -510 192 -269 360 -505 373 -523 l22 -32 -99 0 -100 0 -373 522
c-205 288 -373 532 -373 543 0 11 168 255 373 543 l373 522 94 0 c52 0 94 -4
94 -9z m-1834 -113 c43 -62 147 -208 231 -325 152 -212 415 -583 428 -603 4
-6 -53 -95 -127 -198 -73 -103 -244 -341 -378 -529 l-245 -343 -89 0 c-69 0
-86 3 -79 13 6 6 151 210 323 452 172 242 337 473 367 512 29 40 53 77 53 83
0 5 -145 214 -323 463 -177 248 -344 482 -370 520 l-48 67 89 0 89 0 79 -112z
m833 -1168 c23 -33 41 -66 39 -73 -2 -7 -124 -183 -273 -390 l-269 -377 -99 0
c-74 0 -96 3 -91 12 16 25 579 815 606 851 17 20 33 37 37 37 5 0 27 -27 50
-60z"/>
</g>
</svg>
