<?xml version="1.0" encoding="UTF-8"?>
<svg width="25px" height="25px" viewBox="0 0 25 25" version="1.1" xmlns="http://www.w3.org/2000/svg" xmlns:xlink="http://www.w3.org/1999/xlink">
    <!-- Generator: Sketch 43.1 (39012) - http://www.bohemiancoding.com/sketch -->
    <title>LinkedIn</title>
    <desc>Created with Sketch.</desc>
    <defs></defs>
    <g id="Desktop" stroke="none" stroke-width="1" fill="none" fill-rule="evenodd">
        <g id="5.0_Manifesto-Nathan's-Bio" transform="translate(-522.000000, -8148.000000)" fill="#2C41C6">
            <g id="Bios" transform="translate(203.000000, 7740.000000)">
                <g id="Social-Links" transform="translate(274.000000, 408.000000)">
                    <path d="M54.265,7.32625 C54.265,8.1 53.6825,8.71875 52.74875,8.71875 L52.73125,8.71875 C51.83125,8.71875 51.25,8.1 51.25,7.32625 C51.25,6.535 51.85,5.93375 52.76625,5.93375 C53.6825,5.93375 54.2475,6.535 54.265,7.32625 L54.265,7.32625 Z M51.40875,17.88125 L54.08875,17.88125 L54.08875,9.82 L51.40875,9.82 L51.40875,17.88125 Z M63.75,13.25875 L63.75,17.88125 L61.07125,17.88125 L61.07125,13.5675 C61.07125,12.485 60.68375,11.745 59.71375,11.745 C58.97375,11.745 58.53375,12.24375 58.33875,12.725 C58.26875,12.8975 58.25,13.1375 58.25,13.38 L58.25,17.88125 L55.57125,17.88125 C55.57125,17.88125 55.60625,10.57625 55.57125,9.82 L58.25,9.82 L58.25,10.96125 C58.6075,10.4125 59.24375,9.63 60.66625,9.63 C62.42875,9.63 63.75,10.7825 63.75,13.25875 L63.75,13.25875 Z M57.5,23.75 C51.29625,23.75 46.25,18.7025 46.25,12.5 C46.25,6.29625 51.29625,1.25 57.5,1.25 C63.70375,1.25 68.75,6.29625 68.75,12.5 C68.75,18.7025 63.70375,23.75 57.5,23.75 L57.5,23.75 Z M57.5,0 C50.59625,0 45,5.595 45,12.5 C45,19.4025 50.59625,25 57.5,25 C64.40375,25 70,19.4025 70,12.5 C70,5.595 64.40375,0 57.5,0 L57.5,0 Z" id="LinkedIn"></path>
                </g>
            </g>
        </g>
    </g>
</svg>