<svg xmlns="http://www.w3.org/2000/svg" viewBox="0 0 496 400"><defs><style>.cls-1{isolation:isolate;}.cls-10,.cls-11,.cls-12,.cls-19,.cls-2,.cls-25,.cls-26,.cls-27,.cls-30,.cls-31,.cls-32,.cls-6{fill:none;}.cls-2{stroke:#dadada;}.cls-10,.cls-11,.cls-12,.cls-14,.cls-16,.cls-17,.cls-19,.cls-2,.cls-25,.cls-26,.cls-27,.cls-30,.cls-31,.cls-32,.cls-6,.cls-8{stroke-miterlimit:10;}.cls-3{fill:#dadada;}.cls-4{fill:#3c3c3b;}.cls-5{fill:#999;}.cls-16,.cls-6{stroke:#3c3c3b;}.cls-7{fill:gray;}.cls-23,.cls-8{fill:#b9e2d4;}.cls-11,.cls-12,.cls-8{stroke:#51b793;}.cls-9{fill:#dcf1e9;mix-blend-mode:multiply;}.cls-10{stroke:#00796c;}.cls-11,.cls-12,.cls-27,.cls-30{stroke-linecap:round;}.cls-12{stroke-dasharray:0 2.07;}.cls-13{fill:#00796c;}.cls-14{fill:#fdc9a7;}.cls-14,.cls-25{stroke:#fa7822;}.cls-15{fill:#fee4d3;}.cls-16,.cls-22{fill:#fff;}.cls-17{fill:#fdf178;}.cls-17,.cls-19{stroke:#fac02f;}.cls-18{fill:#fef7b2;}.cls-20{fill:#b1bbda;}.cls-21{fill:#2c41c6;}.cls-24{fill:#51b793;}.cls-26,.cls-30{stroke:#2c41c6;}.cls-27{stroke:#de2a50;}.cls-28{fill:#ee94a7;}.cls-29{fill:#de2a50;}.cls-31{stroke:gray;}.cls-32{stroke:#4d4d4d;}</style></defs><title>client-card-issuer</title><g class="cls-1"><g id="Illustrations"><path class="cls-2" d="M315.87,54.45a160.78,160.78,0,0,1,70.87,64.61"/><path class="cls-2" d="M370.3,278.6a144.94,144.94,0,0,1-121.91,66.28"/><path class="cls-2" d="M389,235.9A144.09,144.09,0,0,1,383.1,254"/><path class="cls-2" d="M279.87,57.88A145.17,145.17,0,0,1,393.61,199.67"/><path class="cls-2" d="M210,59.58a145.37,145.37,0,0,1,38.37-5.12"/><path class="cls-2" d="M104.19,182.46A144.56,144.56,0,0,1,136.6,107a145.47,145.47,0,0,1,62-43.79"/><path class="cls-2" d="M170.42,322.18a145,145,0,0,1-67.23-122.52"/><path class="cls-2" d="M148,54.45a176.66,176.66,0,0,1,186.79-8.7"/><path class="cls-2" d="M75.29,165A176.28,176.28,0,0,1,130,68.78"/><path class="cls-2" d="M148,344.88A177.23,177.23,0,0,1,88.3,274.07c-10.53-22.61-17.19-49.61-17.19-76.19"/><path class="cls-2" d="M318.23,361.81a175.92,175.92,0,0,1-69.84,14.36A178.46,178.46,0,0,1,229,375.11"/><path class="cls-2" d="M377.35,79.16A176.54,176.54,0,0,1,393.62,300"/><path class="cls-2" d="M189.91,366.21q-7.15-2.52-14.19-5.7-2.75-1.24-5.44-2.57"/><path class="cls-2" d="M148.3,324.61a160.9,160.9,0,0,1-37.68-43.37"/><path class="cls-2" d="M217.73,356.83a159.14,159.14,0,0,1-55.64-22.3"/><path class="cls-2" d="M244.68,359.72q-5.07-.12-10.07-.54"/><path class="cls-2" d="M396.08,261.57a160.66,160.66,0,0,1-84.34,85.17"/><path class="cls-2" d="M402.8,157.22a160.27,160.27,0,0,1,5.69,42.45q0,2.81-.1,5.6"/><path class="cls-2" d="M173.43,58.18a159.39,159.39,0,0,1,75-18.6"/><path class="cls-2" d="M88.3,199.67A159.39,159.39,0,0,1,120,104"/><path class="cls-2" d="M119.14,294.16a160.92,160.92,0,0,1-28.71-68.31"/><path class="cls-2" d="M363.67,310.82a160.66,160.66,0,0,1-109.44,48.88"/><path class="cls-2" d="M407.7,216a160.27,160.27,0,0,1-10.06,41.63q-1,2.62-2.12,5.19"/><path class="cls-2" d="M289.7,45a161.88,161.88,0,0,1,16.63,5.45"/><path class="cls-3" d="M204.37,71.67a2,2,0,1,1-2,2,2,2,0,0,1,2-2m0-1a3,3,0,1,0,3,3,3,3,0,0,0-3-3Z"/><path class="cls-4" d="M158.37,57.67a2,2,0,1,1-2,2,2,2,0,0,1,2-2m0-1a3,3,0,1,0,3,3,3,3,0,0,0-3-3Z"/><path class="cls-3" d="M153.37,60.67h0Z"/><path class="cls-3" d="M302.37,76.67a2,2,0,1,1-2,2,2,2,0,0,1,2-2m0-1a3,3,0,1,0,3,3,3,3,0,0,0-3-3Z"/><path class="cls-5" d="M135.87,256.67a2.5,2.5,0,1,1-2.5,2.5,2.5,2.5,0,0,1,2.5-2.5m0-1a3.5,3.5,0,1,0,3.5,3.5,3.5,3.5,0,0,0-3.5-3.5Z"/><line class="cls-6" x1="55.61" y1="107.83" x2="58.87" y2="102.01"/><line class="cls-6" x1="62.81" y1="100.71" x2="83.08" y2="107.53"/><path class="cls-4" d="M60.37,97.67a2,2,0,1,1-2,2,2,2,0,0,1,2-2m0-1a3,3,0,1,0,3,3,3,3,0,0,0-3-3Z"/><path class="cls-4" d="M85.37,106.67a2,2,0,1,1-2,2,2,2,0,0,1,2-2m0-1a3,3,0,1,0,3,3,3,3,0,0,0-3-3Z"/><path class="cls-4" d="M54.37,107.67a2,2,0,1,1-2,2,2,2,0,0,1,2-2m0-1a3,3,0,1,0,3,3,3,3,0,0,0-3-3Z"/><line class="cls-6" x1="370.87" y1="34.17" x2="361.87" y2="43.17"/><line class="cls-6" x1="357.87" y1="43.17" x2="348.87" y2="38.17"/><path class="cls-4" d="M360.37,42.67a2,2,0,1,1-2,2,2,2,0,0,1,2-2m0-1a3,3,0,1,0,3,3,3,3,0,0,0-3-3Z"/><path class="cls-4" d="M346.37,34.67a2,2,0,1,1-2,2,2,2,0,0,1,2-2m0-1a3,3,0,1,0,3,3,3,3,0,0,0-3-3Z"/><path class="cls-4" d="M372.37,30.67a2,2,0,1,1-2,2,2,2,0,0,1,2-2m0-1a3,3,0,1,0,3,3,3,3,0,0,0-3-3Z"/><path class="cls-3" d="M458.57,266h0a2.5,2.5,0,1,1-.94.18,2.49,2.49,0,0,1,.94-.18m0-1a3.5,3.5,0,1,0,3.25,2.19,3.49,3.49,0,0,0-3.25-2.19Z"/><path class="cls-4" d="M383.05,176.21h0a2,2,0,0,1,1.82,1.17,2,2,0,0,1-1.82,2.83,2,2,0,0,1-1.82-1.17,2,2,0,0,1,1.82-2.83m0-1a3,3,0,1,0,2.73,1.76,3,3,0,0,0-2.73-1.76Z"/><path class="cls-4" d="M361,187.68h0a2,2,0,0,1,1.82,1.17,2,2,0,0,1-1.82,2.83,2,2,0,0,1-1.82-1.17,2,2,0,0,1,1.82-2.83m0-1a3,3,0,1,0,2.73,1.76,3,3,0,0,0-2.73-1.76Z"/><line class="cls-6" x1="85.49" y1="206.64" x2="96.68" y2="211.37"/><line class="cls-6" x1="98.53" y1="215.01" x2="96.95" y2="226.91"/><path class="cls-4" d="M99,210.36h0a2,2,0,1,1-.75.15,2,2,0,0,1,.75-.15m0-1a3,3,0,1,0,2.78,1.88A3,3,0,0,0,99,209.36Z"/><path class="cls-4" d="M96.49,227.61h0a2,2,0,1,1-.75.15,2,2,0,0,1,.75-.15m0-1a3,3,0,1,0,2.78,1.88,3,3,0,0,0-2.78-1.88Z"/><path class="cls-4" d="M83.17,203.55h0a2,2,0,1,1-.75.15,2,2,0,0,1,.75-.15m0-1A3,3,0,1,0,86,204.43a3,3,0,0,0-2.78-1.88Z"/><path class="cls-7" d="M319.87,102.67h0a2.51,2.51,0,0,1,2,1,2.5,2.5,0,0,1-2,4,2.5,2.5,0,0,1-1.47-4.52,2.48,2.48,0,0,1,1.46-.48m0-1a3.5,3.5,0,1,0,2.84,1.45,3.48,3.48,0,0,0-2.84-1.45Z"/><path class="cls-7" d="M217.87,8.67h0a2.51,2.51,0,0,1,2,1,2.5,2.5,0,0,1-2,4,2.5,2.5,0,0,1-1.47-4.52,2.48,2.48,0,0,1,1.46-.48m0-1a3.5,3.5,0,1,0,2.84,1.45,3.48,3.48,0,0,0-2.84-1.45Z"/><line class="cls-6" x1="220.87" y1="323.17" x2="225.87" y2="316.17"/><line class="cls-6" x1="229.87" y1="314.17" x2="249.16" y2="321.69"/><path class="cls-4" d="M251.37,320.67a2,2,0,1,1-2,2,2,2,0,0,1,2-2m0-1a3,3,0,1,0,3,3,3,3,0,0,0-3-3Z"/><path class="cls-4" d="M219.37,322.67a2,2,0,1,1-2,2,2,2,0,0,1,2-2m0-1a3,3,0,1,0,3,3,3,3,0,0,0-3-3Z"/><rect class="cls-8" x="317.66" y="318.89" width="62.86" height="24.84" rx="4.14" ry="4.14" transform="translate(-70.94 96.36) rotate(-14.28)"/><path class="cls-9" d="M319.7,331.12h61.72a0,0,0,0,1,0,0v8.4a3.53,3.53,0,0,1-3.53,3.53H323.23a3.53,3.53,0,0,1-3.53-3.53v-8.4a0,0,0,0,1,0,0Z" transform="translate(-72.32 96.9) rotate(-14.28)"/><line class="cls-10" x1="373.91" y1="320.21" x2="376.19" y2="329.19"/><line class="cls-10" x1="369.5" y1="321.33" x2="371.79" y2="330.31"/><line class="cls-10" x1="326.65" y1="340.83" x2="351.01" y2="334.63"/><line class="cls-10" x1="327.61" y1="344.61" x2="341.15" y2="341.16"/><line class="cls-11" x1="358.79" y1="316.02" x2="358.79" y2="316.02"/><line class="cls-12" x1="359.3" y1="318.03" x2="364.66" y2="339.09"/><line class="cls-11" x1="364.91" y1="340.09" x2="364.91" y2="340.09"/><path class="cls-13" d="M327.44,328.31h0a2.5,2.5,0,1,1-.62.08,2.5,2.5,0,0,1,.62-.08m0-1a3.5,3.5,0,1,0,3.39,2.64,3.51,3.51,0,0,0-3.39-2.64Z"/><rect class="cls-8" x="327.78" y="325.21" width="62.86" height="24.84" rx="4.14" ry="4.14" transform="translate(-28.6 33.27) rotate(-5.1)"/><path class="cls-9" d="M328.88,337.61H390.6a0,0,0,0,1,0,0V346a3.53,3.53,0,0,1-3.53,3.53H332.41a3.53,3.53,0,0,1-3.53-3.53v-8.4a0,0,0,0,1,0,0Z" transform="translate(-29.12 33.34) rotate(-5.1)"/><line class="cls-10" x1="385.48" y1="330.63" x2="386.31" y2="339.86"/><line class="cls-10" x1="380.95" y1="331.04" x2="381.78" y2="340.27"/><line class="cls-10" x1="335.54" y1="343.45" x2="360.58" y2="341.21"/><line class="cls-10" x1="335.89" y1="347.33" x2="349.8" y2="346.09"/><line class="cls-11" x1="371.23" y1="324.09" x2="371.23" y2="324.09"/><line class="cls-12" x1="371.41" y1="326.15" x2="373.34" y2="347.8"/><line class="cls-11" x1="373.43" y1="348.83" x2="373.43" y2="348.83"/><path class="cls-13" d="M337.92,331.18h0a2.5,2.5,0,0,1,.22,5h-.23a2.52,2.52,0,0,1-2.49-2.28,2.5,2.5,0,0,1,2.27-2.71h.23m0-1h-.32a3.5,3.5,0,0,0,.31,7h.32a3.5,3.5,0,0,0-.31-7Z"/><polygon class="cls-14" points="113.58 312.13 93.16 316.12 82.64 281.4 110.26 276 113.58 312.13"/><polygon class="cls-15" points="112.86 311.68 102.26 313.81 107.13 276.67 109.61 276.13 112.86 311.68"/><polygon class="cls-16" points="110.17 274.64 82.21 280.1 82.44 283.38 111.19 277.76 110.17 274.64"/><polygon class="cls-6" points="85.45 276.39 83.63 276.75 84.19 279.65 91.21 278.28 85.45 276.39"/><rect class="cls-17" x="256" y="20.22" width="32.17" height="40" transform="translate(7.99 -36.61) rotate(7.81)"/><polygon class="cls-18" points="272.09 59.95 253.96 57.48 259.26 18.73 265.19 19.54 272.09 59.95"/><path class="cls-19" d="M266,19.21c.8-5.83,4.55-10.13,8.38-9.6s6.29,5.68,5.49,11.5"/><path class="cls-19" d="M269.7,19.71c.8-5.83,4.55-10.13,8.38-9.6s6.29,5.68,5.49,11.5"/><rect class="cls-20" x="362.37" y="102.64" width="60" height="40.06" rx="0.69" ry="0.69"/><path class="cls-21" d="M421.68,103.14a.19.19,0,0,1,.19.19V142a.19.19,0,0,1-.19.19H363.06a.19.19,0,0,1-.19-.19V103.33a.19.19,0,0,1,.19-.19h58.62m0-1H363.06a1.19,1.19,0,0,0-1.19,1.19V142a1.19,1.19,0,0,0,1.19,1.19h58.62a1.19,1.19,0,0,0,1.19-1.19V103.33a1.19,1.19,0,0,0-1.19-1.19Z"/><path class="cls-20" d="M358.23,142.07H427a.09.09,0,0,1,.09.09V146a.09.09,0,0,1-.09.09H358.23a.09.09,0,0,1-.09-.09v-3.81A.1.1,0,0,1,358.23,142.07Z"/><path class="cls-21" d="M426.63,142.57v3h-68v-3h68m.4-1H358.23a.6.6,0,0,0-.6.6V146a.6.6,0,0,0,.6.6H427a.6.6,0,0,0,.6-.6v-3.81a.6.6,0,0,0-.6-.6Z"/><rect class="cls-22" x="365.37" y="106.17" width="54" height="33" rx="0.66" ry="0.66"/><path class="cls-21" d="M418.71,106.67a.16.16,0,0,1,.16.16V138.5a.16.16,0,0,1-.16.16H366a.16.16,0,0,1-.16-.16V106.83a.16.16,0,0,1,.16-.16h52.67m0-1H366a1.16,1.16,0,0,0-1.16,1.16V138.5a1.16,1.16,0,0,0,1.16,1.16h52.67a1.16,1.16,0,0,0,1.16-1.16V106.83a1.16,1.16,0,0,0-1.16-1.16Z"/><rect class="cls-23" x="380.87" y="126.94" width="23" height="5"/><path class="cls-24" d="M403.37,127.44v4h-22v-4h22m1-1h-24v6h24v-6Z"/><polyline class="cls-25" points="387.92 118.29 391.07 121.44 399.19 113.32"/><rect class="cls-26" x="161.8" y="150.28" width="170.95" height="104.31" rx="9.87" ry="9.87" transform="translate(-43.97 70.9) rotate(-15)"/><path class="cls-21" d="M191.74,227l-1.25,4,3.25,3-.87.23-2.69-2.54-1.06,3.55-.85.23,1.31-4.22-3.1-2.86.88-.23,2.52,2.4,1-3.34Z"/><path class="cls-21" d="M199.52,224.9l-1.25,4,3.25,3-.87.23L198,229.62l-1.06,3.55-.85.23,1.31-4.22-3.1-2.86.88-.24,2.52,2.4,1-3.34Z"/><path class="cls-21" d="M207.3,222.82l-1.25,4,3.25,3-.87.23-2.69-2.54-1.06,3.54-.85.23,1.31-4.22-3.1-2.86.88-.23,2.52,2.4,1-3.35Z"/><path class="cls-21" d="M215.08,220.73l-1.25,4,3.25,3-.87.23-2.69-2.54L212.47,229l-.85.23,1.31-4.22-3.1-2.86.88-.23,2.52,2.4,1-3.35Z"/><path class="cls-21" d="M227.13,217.51l-1.25,4,3.25,3-.87.23-2.69-2.54-1.06,3.54-.85.23,1.31-4.22-3.1-2.86.88-.24,2.52,2.4,1-3.35Z"/><path class="cls-21" d="M234.91,215.42l-1.25,4,3.25,3-.87.23-2.69-2.54-1.06,3.54-.85.23,1.31-4.22-3.1-2.86.88-.23,2.52,2.4,1-3.35Z"/><path class="cls-21" d="M242.69,213.33l-1.25,4,3.25,3-.87.23L241.14,218l-1.06,3.54-.85.23,1.31-4.22-3.1-2.86.88-.24,2.52,2.4,1-3.34Z"/><path class="cls-21" d="M250.47,211.25l-1.25,4,3.25,3-.87.23L248.92,216l-1.06,3.55-.85.23,1.31-4.22-3.1-2.86.88-.24,2.52,2.4,1-3.34Z"/><path class="cls-21" d="M262.52,208l-1.25,4,3.25,3-.87.23L261,212.74l-1.06,3.54-.85.23,1.31-4.22-3.1-2.86.88-.23,2.52,2.4,1-3.35Z"/><path class="cls-21" d="M270.3,205.94l-1.25,4,3.25,3-.87.23-2.69-2.54-1.06,3.55-.85.23,1.31-4.22-3.1-2.86.88-.24,2.52,2.4,1-3.34Z"/><path class="cls-21" d="M278.08,203.85l-1.25,4,3.25,3-.87.23-2.69-2.54-1.06,3.54-.85.23,1.31-4.22-3.1-2.86.88-.24,2.52,2.4,1-3.34Z"/><path class="cls-21" d="M285.86,201.77l-1.25,4,3.25,3L287,209l-2.69-2.54L283.25,210l-.85.23,1.31-4.22-3.1-2.86.88-.23,2.52,2.4,1-3.35Z"/><path class="cls-21" d="M295.3,206.27a3.7,3.7,0,0,1-1.55-2.53l0-.08c-.63-2.34,0-4.11,1.58-4.54a2.71,2.71,0,0,1,1.87.18l-.24.71a2.07,2.07,0,0,0-1.48-.19c-1.17.31-1.47,1.78-1,3.5a2,2,0,0,1,1.46-1.42,2.13,2.13,0,0,1,2.7,1.59v0a2.31,2.31,0,0,1-1.6,2.94A2.22,2.22,0,0,1,295.3,206.27Zm2.55-2.52v0a1.47,1.47,0,0,0-1.87-1.14,1.53,1.53,0,0,0-1.09,1.94v0a1.57,1.57,0,0,0,1.95,1.23A1.55,1.55,0,0,0,297.85,203.75Z"/><path class="cls-21" d="M302.58,204.32a3.7,3.7,0,0,1-1.55-2.53l0-.08c-.63-2.34,0-4.11,1.58-4.54a2.71,2.71,0,0,1,1.87.18l-.24.71a2.07,2.07,0,0,0-1.48-.19c-1.17.31-1.47,1.78-1,3.5a2,2,0,0,1,1.46-1.42,2.13,2.13,0,0,1,2.7,1.59v0a2.31,2.31,0,0,1-1.6,2.94A2.22,2.22,0,0,1,302.58,204.32Zm2.55-2.52v0a1.47,1.47,0,0,0-1.87-1.14,1.53,1.53,0,0,0-1.09,1.94v0a1.57,1.57,0,0,0,1.95,1.23A1.55,1.55,0,0,0,305.13,201.8Z"/><path class="cls-21" d="M308.31,196.57l-1,.71-.31-.62,1.31-.95.56-.15,1.9,7.09-.75.2Z"/><path class="cls-21" d="M316.54,199.35l-3.23.87-.29-.52,2.11-5.83.66-.18,1.3,4.84.94-.25.17.63-.94.25.44,1.63L317,201Zm-.17-.63-1-3.65-1.54,4.32Z"/><path class="cls-21" d="M195.79,244.17l-1.13,3.64,3,2.74-.79.21-2.45-2.31-1,3.22-.77.21,1.19-3.84-2.82-2.6.8-.21,2.29,2.18.91-3Z"/><path class="cls-21" d="M202.22,242.45l-1.13,3.64,3,2.74-.79.21-2.45-2.31-1,3.22-.77.21,1.19-3.84-2.82-2.6.8-.21,2.29,2.18.91-3Z"/><path class="cls-21" d="M206.69,240.38l.6-.16L206,249.49l-.6.16Z"/><path class="cls-21" d="M213.51,239.43l-1.14,3.64,3,2.74-.79.21-2.45-2.31-1,3.22-.77.21,1.19-3.84-2.82-2.6.8-.21,2.29,2.18.91-3Z"/><path class="cls-21" d="M219.94,237.7l-1.14,3.64,3,2.74-.79.21L218.53,242l-1,3.22-.77.21,1.19-3.84-2.82-2.6.8-.21,2.29,2.18.91-3Z"/><path class="cls-21" d="M232.27,234.16l-1.14,3.64,3,2.74-.79.21-2.44-2.31-1,3.22-.77.21,1.19-3.84-2.82-2.6.8-.21,2.29,2.18.91-3Z"/><path class="cls-21" d="M238.7,232.44l-1.14,3.64,3,2.74-.79.21-2.44-2.31-1,3.22-.77.21,1.19-3.84-2.82-2.6.8-.21,2.3,2.18.91-3Z"/><path class="cls-21" d="M243.17,230.37l.6-.16-1.33,9.28-.6.16Z"/><path class="cls-21" d="M250,229.42l-1.14,3.64,3,2.74L251,236l-2.45-2.31-1,3.22-.77.21L248,233.3l-2.82-2.6.8-.21,2.29,2.18.91-3Z"/><path class="cls-21" d="M256.42,227.69l-1.14,3.64,3,2.74-.79.21L255,232l-1,3.22-.77.21,1.19-3.84-2.82-2.6.8-.21,2.29,2.18.91-3Z"/><rect class="cls-26" x="179.22" y="190.93" width="25.14" height="21.58" rx="5.02" ry="5.02" transform="translate(-45.67 56.51) rotate(-15)"/><path class="cls-27" d="M296.36,178.18a8.18,8.18,0,0,0-2.24-8.38"/><path class="cls-27" d="M301.15,179.06a12.11,12.11,0,0,0-3.32-12.4"/><path class="cls-27" d="M306,179.75a15.74,15.74,0,0,0-4.32-16.13"/><path class="cls-27" d="M310.95,181a20.46,20.46,0,0,0-5.62-21"/><path class="cls-26" d="M196.59,200.43c1.54,5.75.94,10.92-2,11.71s-6.05-3.38-7.59-9.13-.94-10.92,2-11.71S195,194.67,196.59,200.43Z"/><line class="cls-26" x1="195.61" y1="197.34" x2="203.09" y2="195.34"/><line class="cls-26" x1="197.28" y1="203.59" x2="204.76" y2="201.59"/><line class="cls-26" x1="178.81" y1="201.84" x2="186.29" y2="199.84"/><line class="cls-26" x1="180.48" y1="208.09" x2="187.96" y2="206.09"/><path class="cls-4" d="M227.37,311.67a2,2,0,1,1-2,2,2,2,0,0,1,2-2m0-1a3,3,0,1,0,3,3,3,3,0,0,0-3-3Z"/><line class="cls-6" x1="363.34" y1="188.6" x2="380.68" y2="179.29"/><circle class="cls-28" cx="128.37" cy="85.67" r="6.5"/><path class="cls-29" d="M128.37,79.67a6,6,0,1,1-6,6,6,6,0,0,1,6-6m0-1a7,7,0,1,0,7,7,7,7,0,0,0-7-7Z"/><path class="cls-28" d="M116.87,119.17v-12.5a10.51,10.51,0,0,1,10.5-10.5h2a10.51,10.51,0,0,1,10.5,10.5v12.5Z"/><path class="cls-29" d="M129.37,96.67a10,10,0,0,1,10,10v12h-22v-12a10,10,0,0,1,10-10h2m0-1h-2a11,11,0,0,0-11,11v13h24v-13a11,11,0,0,0-11-11Z"/><line class="cls-26" x1="147.86" y1="82.83" x2="155.86" y2="74.83"/><line class="cls-26" x1="147.74" y1="122.48" x2="155.74" y2="130.48"/><line class="cls-26" x1="108.21" y1="82.71" x2="100.21" y2="74.71"/><polyline class="cls-30" points="108.21 75.34 108.21 82.71 100.84 82.71"/><polyline class="cls-30" points="155.1 122.48 147.74 122.48 147.74 129.84"/><line class="cls-26" x1="108.09" y1="122.36" x2="100.09" y2="130.36"/><polyline class="cls-30" points="100.72 122.36 108.09 122.36 108.09 129.72"/><polyline class="cls-30" points="147.86 75.46 147.86 82.83 155.22 82.83"/><path class="cls-3" d="M116.37,164.67a2,2,0,1,1-2,2,2,2,0,0,1,2-2m0-1a3,3,0,1,0,3,3,3,3,0,0,0-3-3Z"/><path class="cls-3" d="M67.37,234.67a2,2,0,1,1-2,2,2,2,0,0,1,2-2m0-1a3,3,0,1,0,3,3,3,3,0,0,0-3-3Z"/><path class="cls-4" d="M57.37,176.67a2,2,0,1,1-2,2,2,2,0,0,1,2-2m0-1a3,3,0,1,0,3,3,3,3,0,0,0-3-3Z"/><path class="cls-4" d="M139.37,364.67a2,2,0,1,1-2,2,2,2,0,0,1,2-2m0-1a3,3,0,1,0,3,3,3,3,0,0,0-3-3Z"/><path class="cls-3" d="M274.37,301.67a2,2,0,1,1-2,2,2,2,0,0,1,2-2m0-1a3,3,0,1,0,3,3,3,3,0,0,0-3-3Z"/><path class="cls-4" d="M320.37,288.67a2,2,0,1,1-2,2,2,2,0,0,1,2-2m0-1a3,3,0,1,0,3,3,3,3,0,0,0-3-3Z"/><path class="cls-3" d="M334.37,374.67a2,2,0,1,1-2,2,2,2,0,0,1,2-2m0-1a3,3,0,1,0,3,3,3,3,0,0,0-3-3Z"/><path class="cls-4" d="M415.37,312.67a2,2,0,1,1-2,2,2,2,0,0,1,2-2m0-1a3,3,0,1,0,3,3,3,3,0,0,0-3-3Z"/><path class="cls-4" d="M387.37,220.67a2,2,0,1,1-2,2,2,2,0,0,1,2-2m0-1a3,3,0,1,0,3,3,3,3,0,0,0-3-3Z"/><line class="cls-6" x1="252.01" y1="90.04" x2="240.6" y2="87.41"/><line class="cls-6" x1="238.13" y1="83.68" x2="238.66" y2="71.52"/><path class="cls-4" d="M238.37,84.67h0a2,2,0,1,1-1,.25,2,2,0,0,1,1-.25m0-1A3,3,0,1,0,241,85.21a3,3,0,0,0-2.63-1.55Z"/><path class="cls-4" d="M238.37,66.67h0a2,2,0,1,1-1.32.5,2,2,0,0,1,1.32-.5m0-1a3,3,0,1,0,2.25,1,3,3,0,0,0-2.25-1Z"/><path class="cls-4" d="M254.37,88.67h0a2,2,0,1,1-1,.25,2,2,0,0,1,1-.25m0-1A3,3,0,1,0,257,89.21a3,3,0,0,0-2.63-1.55Z"/><line class="cls-2" x1="123.37" y1="51.17" x2="135.37" y2="51.17"/><line class="cls-2" x1="130.37" y1="55.17" x2="139.37" y2="55.17"/><line class="cls-2" x1="137.37" y1="51.17" x2="139.37" y2="51.17"/><ellipse class="cls-2" cx="127.37" cy="55.17" rx="1"/><ellipse class="cls-2" cx="124.37" cy="55.17" rx="1"/><line class="cls-31" x1="447.37" y1="168.17" x2="435.37" y2="168.17"/><line class="cls-6" x1="440.37" y1="164.17" x2="431.37" y2="164.17"/><line class="cls-2" x1="433.37" y1="168.17" x2="431.37" y2="168.17"/><ellipse class="cls-31" cx="443.37" cy="164.17" rx="1"/><ellipse class="cls-2" cx="446.37" cy="164.17" rx="1"/><line class="cls-31" x1="250.37" y1="291.17" x2="262.37" y2="291.17"/><line class="cls-6" x1="257.37" y1="295.17" x2="266.37" y2="295.17"/><line class="cls-2" x1="264.37" y1="291.17" x2="266.37" y2="291.17"/><ellipse class="cls-31" cx="254.37" cy="295.17" rx="1"/><ellipse class="cls-2" cx="251.37" cy="295.17" rx="1"/><line class="cls-2" x1="56.37" y1="158.17" x2="31.37" y2="158.17"/><line class="cls-31" x1="41.37" y1="154.17" x2="23.37" y2="154.17"/><line class="cls-31" x1="28.37" y1="158.17" x2="23.37" y2="158.17"/><ellipse class="cls-2" cx="47.37" cy="154.17" rx="2"/><ellipse class="cls-6" cx="54.37" cy="154.17" rx="2"/><line class="cls-2" x1="367.37" y1="209.17" x2="392.37" y2="209.17"/><line class="cls-31" x1="382.37" y1="213.17" x2="400.37" y2="213.17"/><line class="cls-31" x1="395.37" y1="209.17" x2="400.37" y2="209.17"/><ellipse class="cls-2" cx="376.37" cy="213.17" rx="2"/><ellipse class="cls-6" cx="369.37" cy="213.17" rx="2"/><line class="cls-2" x1="167.37" y1="98.17" x2="187.37" y2="98.17"/><line class="cls-2" x1="179.37" y1="102.17" x2="194.37" y2="102.17"/><line class="cls-2" x1="190.37" y1="98.17" x2="194.37" y2="98.17"/><ellipse class="cls-2" cx="174.87" cy="102.17" rx="1.5"/><ellipse class="cls-2" cx="168.87" cy="102.17" rx="1.5"/><line class="cls-2" x1="174.37" y1="329.17" x2="194.37" y2="329.17"/><line class="cls-31" x1="186.37" y1="333.17" x2="201.37" y2="333.17"/><line class="cls-31" x1="197.37" y1="329.17" x2="201.37" y2="329.17"/><ellipse class="cls-32" cx="181.87" cy="333.17" rx="1.5"/><ellipse class="cls-31" cx="175.87" cy="333.17" rx="1.5"/></g></g></svg>