<svg id="Illustrations" xmlns="http://www.w3.org/2000/svg" viewBox="0 0 496 400"><defs><style>.cls-1{fill:none;stroke:#dadada;stroke-miterlimit:10;}.cls-2{fill:#dadada;}</style></defs><title>client-cta</title><path class="cls-1" d="M346.38,73.56a160.74,160.74,0,0,1,54.76,78.71"/><path class="cls-1" d="M349.72,304.15a144.91,144.91,0,0,1-133.54,37.57"/><path class="cls-1" d="M377.46,266.69A144.05,144.05,0,0,1,367.66,283"/><path class="cls-1" d="M310.52,68.92a145.14,145.14,0,0,1,79.43,163.45"/><path class="cls-1" d="M242,55.09a145.34,145.34,0,0,1,38.55,3.52"/><path class="cls-1" d="M111.62,151.4A144.53,144.53,0,0,1,160,85,145.44,145.44,0,0,1,230.14,56.1"/><path class="cls-1" d="M145.19,302.31A145,145,0,0,1,106.82,168"/><path class="cls-1" d="M182.77,36.34a176.62,176.62,0,0,1,184,32.95"/><path class="cls-1" d="M87.32,128A176.24,176.24,0,0,1,162,46.31"/><path class="cls-1" d="M118.35,319.48a177.19,177.19,0,0,1-42.54-82.29c-5.25-24.38-5.76-52.18.14-78.09"/><path class="cls-1" d="M280.5,373.73a175.88,175.88,0,0,1-71.27-1.5,178.42,178.42,0,0,1-18.69-5.33"/><path class="cls-1" d="M400.83,111.29A176.5,176.5,0,0,1,367.7,330.2"/><path class="cls-1" d="M154.43,349.55q-6.41-4-12.57-8.7-2.41-1.82-4.74-3.71"/><path class="cls-1" d="M123.09,299.77A160.86,160.86,0,0,1,96,249.13"/><path class="cls-1" d="M183.63,346.57a159.11,159.11,0,0,1-49.29-34.08"/><path class="cls-1" d="M209.26,355.37q-4.92-1.24-9.69-2.76"/><path class="cls-1" d="M378.63,293.27a160.62,160.62,0,0,1-101.11,64.32"/><path class="cls-1" d="M408.32,193a160.23,160.23,0,0,1-3.87,42.64q-.62,2.74-1.34,5.44"/><path class="cls-1" d="M206.68,45.6a159.36,159.36,0,0,1,77.21-1.51"/><path class="cls-1" d="M92.32,164.66a159.35,159.35,0,0,1,52.11-86.2"/><path class="cls-1" d="M101.42,263.61a160.88,160.88,0,0,1-12.83-73"/><path class="cls-1" d="M336.11,334.09a160.62,160.62,0,0,1-117.53,23.37"/><path class="cls-1" d="M400.06,251.4a160.23,160.23,0,0,1-19,38.35q-1.57,2.33-3.21,4.59"/><path class="cls-1" d="M323,58.53a161.84,161.84,0,0,1,15,9"/><path class="cls-2" d="M205,312.26a2,2,0,1,1-2,2,2,2,0,0,1,2-2m0-1a3,3,0,1,0,3,3,3,3,0,0,0-3-3Z"/><circle class="cls-1" cx="322.91" cy="26.3" r="2.61" transform="matrix(0.64, -0.77, 0.77, 0.64, 97.18, 258.7)"/><path class="cls-2" d="M67.23,147.67a2,2,0,1,1-1.86,1.25,2,2,0,0,1,1.86-1.25m0-1a3,3,0,1,0,1.12.22,3,3,0,0,0-1.12-.22Z"/><path class="cls-2" d="M458.58,116a2,2,0,1,1-1.86,1.25,2,2,0,0,1,1.86-1.25m0-1a3,3,0,1,0,1.12.22,3,3,0,0,0-1.12-.22Z"/><path class="cls-2" d="M356.91,353.22a2,2,0,1,1-2,2,2,2,0,0,1,2-2m0-1a3,3,0,1,0,3,3,3,3,0,0,0-3-3Z"/><path class="cls-2" d="M310.48,303.8a2,2,0,1,1-1.86,1.27,2,2,0,0,1,1.86-1.27m0-1a3,3,0,1,0,1.1.21,3,3,0,0,0-1.1-.21Z"/><circle class="cls-1" cx="155.22" cy="15.88" r="2.61" transform="translate(12.85 79.74) rotate(-30)"/><line class="cls-1" x1="253.37" y1="313.17" x2="265.37" y2="313.17"/><line class="cls-1" x1="260.37" y1="317.17" x2="269.37" y2="317.17"/><line class="cls-1" x1="267.37" y1="313.17" x2="269.37" y2="313.17"/><ellipse class="cls-1" cx="257.37" cy="317.17" rx="1"/><ellipse class="cls-1" cx="254.37" cy="317.17" rx="1"/><line class="cls-1" x1="438.37" y1="215.17" x2="450.37" y2="215.17"/><line class="cls-1" x1="445.37" y1="219.17" x2="454.37" y2="219.17"/><line class="cls-1" x1="452.37" y1="215.17" x2="454.37" y2="215.17"/><ellipse class="cls-1" cx="442.37" cy="219.17" rx="1"/><ellipse class="cls-1" cx="439.37" cy="219.17" rx="1"/><line class="cls-1" x1="114.37" y1="334.17" x2="126.37" y2="334.17"/><line class="cls-1" x1="121.37" y1="330.17" x2="130.37" y2="330.17"/><line class="cls-1" x1="128.37" y1="334.17" x2="130.37" y2="334.17"/><ellipse class="cls-1" cx="118.37" cy="330.17" rx="1"/><ellipse class="cls-1" cx="115.37" cy="330.17" rx="1"/><line class="cls-1" x1="59.37" y1="180.17" x2="34.37" y2="180.17"/><line class="cls-1" x1="44.37" y1="176.17" x2="26.37" y2="176.17"/><line class="cls-1" x1="31.37" y1="180.17" x2="26.37" y2="180.17"/><ellipse class="cls-1" cx="50.37" cy="176.17" rx="2"/><ellipse class="cls-1" cx="57.37" cy="176.17" rx="2"/></svg>