<svg id="Illustrations" xmlns="http://www.w3.org/2000/svg" viewBox="0 0 496 400"><defs><style>.cls-1,.cls-10,.cls-11,.cls-12,.cls-17,.cls-19,.cls-21,.cls-24,.cls-25,.cls-29,.cls-3,.cls-30,.cls-31,.cls-4,.cls-6,.cls-7{fill:none;}.cls-1{stroke:#dadada;}.cls-1,.cls-10,.cls-11,.cls-12,.cls-17,.cls-19,.cls-21,.cls-24,.cls-25,.cls-29,.cls-30,.cls-31,.cls-4,.cls-6,.cls-7{stroke-miterlimit:10;}.cls-2{fill:#2c41c6;}.cls-10,.cls-3,.cls-4{stroke:#2c41c6;}.cls-3{stroke-linejoin:round;}.cls-5{fill:#fff;}.cls-6{stroke:#de2a50;}.cls-10,.cls-11,.cls-12,.cls-17,.cls-25,.cls-6{stroke-linecap:round;}.cls-7{stroke:#3c3c3b;}.cls-8{fill:#3c3c3b;}.cls-9{fill:#dadada;}.cls-11{stroke:#fac02f;}.cls-12{stroke:#fa7822;}.cls-13{fill:#ee94a7;}.cls-14{fill:#de2a50;}.cls-15{fill:#f2f2f2;}.cls-16{fill:#fa7822;}.cls-17{stroke:#fdc9a7;}.cls-18{fill:#b9e2d4;}.cls-19{stroke:#97d4be;}.cls-20{fill:#51b793;}.cls-21{stroke:#51b793;}.cls-22{fill:#fdf59f;}.cls-23{fill:#fac02f;}.cls-24,.cls-25{stroke:#bd0fe1;}.cls-26{fill:#b1bbda;}.cls-27{fill:#a8dbc9;}.cls-28{fill:gray;}.cls-29{stroke:#50504f;}.cls-30{stroke:gray;}.cls-31{stroke:#b3b3b3;}</style></defs><title>client-government</title><path class="cls-1" d="M346.38,73.56a160.74,160.74,0,0,1,54.76,78.71"/><path class="cls-1" d="M349.72,304.15a144.91,144.91,0,0,1-133.54,37.57"/><path class="cls-1" d="M377.46,266.69A144.05,144.05,0,0,1,367.66,283"/><path class="cls-1" d="M310.52,68.92a145.14,145.14,0,0,1,79.43,163.45"/><path class="cls-1" d="M242,55.09a145.34,145.34,0,0,1,38.55,3.52"/><path class="cls-1" d="M111.62,151.4A144.53,144.53,0,0,1,160,85,145.44,145.44,0,0,1,230.14,56.1"/><path class="cls-1" d="M145.19,302.31A145,145,0,0,1,106.82,168"/><path class="cls-1" d="M182.77,36.34a176.62,176.62,0,0,1,184,32.95"/><path class="cls-1" d="M87.32,128A176.24,176.24,0,0,1,162,46.31"/><path class="cls-1" d="M118.35,319.48a177.19,177.19,0,0,1-42.54-82.29c-5.25-24.38-5.76-52.18.14-78.09"/><path class="cls-1" d="M280.5,373.73a175.88,175.88,0,0,1-71.27-1.5,178.42,178.42,0,0,1-18.69-5.33"/><path class="cls-1" d="M400.83,111.29A176.5,176.5,0,0,1,367.7,330.2"/><path class="cls-1" d="M154.43,349.55q-6.41-4-12.57-8.7-2.41-1.82-4.74-3.71"/><path class="cls-1" d="M123.09,299.77A160.86,160.86,0,0,1,96,249.13"/><path class="cls-1" d="M183.63,346.57a159.11,159.11,0,0,1-49.29-34.08"/><path class="cls-1" d="M209.26,355.37q-4.92-1.24-9.69-2.76"/><path class="cls-1" d="M378.63,293.27a160.62,160.62,0,0,1-101.11,64.32"/><path class="cls-1" d="M408.32,193a160.23,160.23,0,0,1-3.87,42.64q-.62,2.74-1.34,5.44"/><path class="cls-1" d="M206.68,45.6a159.36,159.36,0,0,1,77.21-1.51"/><path class="cls-1" d="M92.32,164.66a159.35,159.35,0,0,1,52.11-86.2"/><path class="cls-1" d="M101.42,263.61a160.88,160.88,0,0,1-12.83-73"/><path class="cls-1" d="M336.11,334.09a160.62,160.62,0,0,1-117.53,23.37"/><path class="cls-1" d="M400.06,251.4a160.23,160.23,0,0,1-19,38.35q-1.57,2.33-3.21,4.59"/><path class="cls-1" d="M323,58.53a161.84,161.84,0,0,1,15,9"/><circle class="cls-2" cx="261.8" cy="176.16" r="1"/><circle class="cls-2" cx="266.55" cy="176.16" r="1"/><circle class="cls-2" cx="271.3" cy="176.16" r="1"/><line class="cls-3" x1="278.57" y1="199.49" x2="262.57" y2="199.49"/><line class="cls-3" x1="278.57" y1="202.66" x2="262.57" y2="202.66"/><line class="cls-3" x1="278.57" y1="205.83" x2="262.57" y2="205.83"/><line class="cls-3" x1="272.47" y1="208.99" x2="262.57" y2="208.99"/><path class="cls-2" d="M277.31,186.17v8h-14v-8h14m1-1h-16v10h16v-10Z"/><circle class="cls-4" cx="324.18" cy="180.95" r="7.02"/><path class="cls-4" d="M302,225.19H285.76V206a16.25,16.25,0,0,1,32.5,0v19.17Z"/><polyline class="cls-3" points="294.04 173.2 257.39 173.2 257.39 179.13 293.52 179.13"/><polyline class="cls-3" points="310.77 179.13 314.89 179.13 314.89 173.2 310.25 173.2"/><polyline class="cls-3" points="314.81 195 314.81 173.2 310.05 173.2"/><polyline class="cls-3" points="294.04 173.2 257.39 173.2 257.39 218.32 285.66 218.32"/><path class="cls-2" d="M198.31,187.17v24h-4v-24h4m1-1h-6v26h6v-26Z"/><path class="cls-2" d="M200.31,212.14v2h-8v-2h8m1-1h-10v4h10v-4Z"/><path class="cls-2" d="M212.31,187.17v24h-4v-24h4m1-1h-6v26h6v-26Z"/><path class="cls-2" d="M214.31,212.2v2h-8v-2h8m1-1h-10v4h10v-4Z"/><path class="cls-2" d="M184.31,187.17v24h-4v-24h4m1-1h-6v26h6v-26Z"/><path class="cls-2" d="M186.31,212.14v2h-8v-2h8m1-1h-10v4h10v-4Z"/><path class="cls-2" d="M170.31,187.17v24h-4v-24h4m1-1h-6v26h6v-26Z"/><path class="cls-2" d="M172.31,212.14v2h-8v-2h8m1-1h-10v4h10v-4Z"/><rect class="cls-5" x="162.81" y="183.67" width="53" height="3"/><path class="cls-2" d="M215.31,184.17v2h-52v-2h52m1-1h-54v4h54v-4Z"/><path class="cls-4" d="M164.31,184.07c0-7.73,11.19-14,25-14s25,6.27,25,14"/><line class="cls-4" x1="159.81" y1="214.67" x2="218.81" y2="214.67"/><line class="cls-4" x1="159.81" y1="217.67" x2="218.8" y2="217.67"/><line class="cls-4" x1="159.81" y1="220.67" x2="218.8" y2="220.67"/><line class="cls-6" x1="233.11" y1="197.01" x2="225.5" y2="197.01"/><line class="cls-6" x1="238.67" y1="197.11" x2="236.37" y2="197.11"/><polyline class="cls-6" points="227.57 194.45 225.2 197.01 227.57 199.56"/><line class="cls-6" x1="243.1" y1="197.11" x2="240.8" y2="197.11"/><line class="cls-6" x1="240.03" y1="190.84" x2="246.66" y2="190.84"/><polyline class="cls-6" points="244.33 188.19 246.99 190.84 244.33 193.5"/><line class="cls-6" x1="242.44" y1="203.38" x2="249.06" y2="203.38"/><polyline class="cls-6" points="246.74 200.72 249.4 203.38 246.74 206.03"/><line class="cls-6" x1="240.47" y1="203.38" x2="239.32" y2="203.38"/><line class="cls-6" x1="236.82" y1="203.38" x2="233.7" y2="203.38"/><line class="cls-6" x1="234.25" y1="190.84" x2="228.17" y2="190.84"/><line class="cls-6" x1="238.46" y1="190.84" x2="237.03" y2="190.84"/><line class="cls-6" x1="231.85" y1="203.38" x2="230.02" y2="203.38"/><line class="cls-7" x1="434.81" y1="330.67" x2="424.81" y2="321.67"/><line class="cls-7" x1="421.81" y1="320.67" x2="409.81" y2="327.67"/><path class="cls-8" d="M423.62,318.4A1.61,1.61,0,1,1,422,320a1.61,1.61,0,0,1,1.61-1.61m0-1a2.61,2.61,0,1,0,2.61,2.61,2.61,2.61,0,0,0-2.61-2.61Z"/><path class="cls-8" d="M408.57,327.22a1.61,1.61,0,1,1-1.61,1.61,1.61,1.61,0,0,1,1.61-1.61m0-1a2.61,2.61,0,1,0,2.61,2.61,2.61,2.61,0,0,0-2.61-2.61Z"/><path class="cls-8" d="M435.86,330.54a1.61,1.61,0,1,1-1.61,1.61,1.61,1.61,0,0,1,1.61-1.61m0-1a2.61,2.61,0,1,0,2.61,2.61,2.61,2.61,0,0,0-2.61-2.61Z"/><path class="cls-9" d="M458.58,115.47a2.5,2.5,0,1,1-2.32,1.56,2.49,2.49,0,0,1,2.32-1.56m0-1a3.5,3.5,0,1,0,1.31.26,3.5,3.5,0,0,0-1.31-.26Z"/><circle class="cls-7" cx="413.18" cy="40.26" r="2.61"/><path class="cls-8" d="M383.06,206.63a2,2,0,0,1,1.82,2.83,2,2,0,0,1-1.82,1.17,2,2,0,0,1-1.82-2.83,2,2,0,0,1,1.82-1.17m0-1a3,3,0,1,0,1.24.27,3,3,0,0,0-1.24-.27Z"/><path class="cls-8" d="M361,195.16a2,2,0,0,1,1.82,2.83,2,2,0,0,1-1.82,1.17,2,2,0,0,1-1.82-2.83,2,2,0,0,1,1.82-1.17m0-1a3,3,0,1,0,1.24.27,3,3,0,0,0-1.24-.27Z"/><line class="cls-7" x1="123.78" y1="180.94" x2="135.08" y2="175.94"/><line class="cls-7" x1="136.75" y1="172.39" x2="135.3" y2="160.29"/><path class="cls-8" d="M137.3,172.93a2,2,0,1,1-1.85,1.25,2,2,0,0,1,1.85-1.25m0-1a3,3,0,1,0,1.12.22,3,3,0,0,0-1.12-.22Z"/><path class="cls-8" d="M134.78,155.67a2,2,0,1,1-1.86,1.25,2,2,0,0,1,1.86-1.25m0-1a3,3,0,1,0,1.12.22,3,3,0,0,0-1.12-.22Z"/><path class="cls-8" d="M121.46,179.73A2,2,0,1,1,119.6,181a2,2,0,0,1,1.85-1.25m0-1a3,3,0,1,0,1.12.22,3,3,0,0,0-1.12-.22Z"/><path class="cls-9" d="M175.36,96.09a2,2,0,1,1-2,2,2,2,0,0,1,2-2m0-1a3,3,0,1,0,3,3,3,3,0,0,0-3-3Z"/><line class="cls-7" x1="252.81" y1="311.67" x2="241.24" y2="313.48"/><line class="cls-7" x1="238.81" y1="316.67" x2="237.11" y2="328.7"/><path class="cls-8" d="M238.8,312.31a2,2,0,0,1,1.62,3.17,2,2,0,0,1-1.62.83,2,2,0,0,1-1.62-3.17,2,2,0,0,1,1.62-.83m0-1a3,3,0,1,0,1.76.57,3,3,0,0,0-1.76-.57Z"/><path class="cls-8" d="M237.1,329.66a2,2,0,0,1,1.62,3.17,2,2,0,0,1-1.62.83,2,2,0,0,1-1.62-3.17,2,2,0,0,1,1.62-.83m0-1a3,3,0,1,0,1.76.57,3,3,0,0,0-1.76-.57Z"/><path class="cls-8" d="M255.81,309.52a2,2,0,0,1,1.62,3.17,2,2,0,0,1-1.62.83,2,2,0,0,1-1.62-3.17,2,2,0,0,1,1.62-.83m0-1a3,3,0,1,0,1.76.57,3,3,0,0,0-1.76-.57Z"/><line class="cls-7" x1="363.34" y1="197.85" x2="380.68" y2="207.16"/><line class="cls-10" x1="336" y1="356.21" x2="325.92" y2="356.21"/><line class="cls-10" x1="360.59" y1="356.21" x2="357.88" y2="356.21"/><polyline class="cls-10" points="328.66 353.08 325.52 356.21 328.66 359.35"/><line class="cls-10" x1="365.82" y1="356.21" x2="363.11" y2="356.21"/><line class="cls-11" x1="357.85" y1="348.82" x2="365.66" y2="348.82"/><polyline class="cls-11" points="362.93 345.69 366.06 348.82 362.93 351.96"/><line class="cls-12" x1="361.56" y1="363.6" x2="369.38" y2="363.6"/><polyline class="cls-12" points="366.64 360.47 369.77 363.61 366.64 366.74"/><line class="cls-12" x1="359.24" y1="363.6" x2="357.88" y2="363.6"/><line class="cls-12" x1="336.68" y1="363.6" x2="333" y2="363.6"/><line class="cls-11" x1="340.16" y1="348.82" x2="333" y2="348.82"/><line class="cls-11" x1="356" y1="348.82" x2="354.32" y2="348.82"/><line class="cls-12" x1="330.81" y1="363.6" x2="328.66" y2="363.6"/><path class="cls-13" d="M346.82,349.57a3.66,3.66,0,1,1,3.5-3.67,3.59,3.59,0,0,1-3.5,3.67Z"/><path class="cls-14" d="M346.82,341.76v1a3.16,3.16,0,1,1-3,3.17,3.09,3.09,0,0,1,3-3.17v-1m0,0h0a4.16,4.16,0,0,0,0,8.31h0a4.16,4.16,0,0,0,0-8.31Z"/><path class="cls-13" d="M339.61,359.82a7.12,7.12,0,0,1,7.09-7.15h.72a7.14,7.14,0,0,1,7.15,7.09l0,7.85-15,.06Z"/><path class="cls-14" d="M347.45,352.17v1a6.63,6.63,0,0,1,6.62,6.59l0,7.35-14,.05,0-7.34a6.62,6.62,0,0,1,6.59-6.65h.72l0-1m0,0h-.75a7.62,7.62,0,0,0-7.59,7.66l0,8.34,16-.06,0-8.35a7.62,7.62,0,0,0-7.62-7.59Z"/><path class="cls-15" d="M408.45,90.67a13.15,13.15,0,0,0-6.79-18.34l-4.85,12.23"/><path class="cls-16" d="M396.82,63.56a21,21,0,1,1-21,21,21,21,0,0,1,21-21m0-1a22,22,0,1,0,22,22,22,22,0,0,0-22-22Z"/><ellipse class="cls-17" cx="396.82" cy="67.71" ry="1.75"/><ellipse class="cls-17" cx="408.73" cy="72.65" ry="1.75"/><ellipse class="cls-17" cx="413.66" cy="84.56" ry="1.75"/><ellipse class="cls-17" cx="408.73" cy="96.47" ry="1.75"/><ellipse class="cls-17" cx="396.82" cy="101.4" ry="1.75"/><ellipse class="cls-17" cx="384.91" cy="96.47" ry="1.75"/><ellipse class="cls-17" cx="379.97" cy="84.56" ry="1.75"/><ellipse class="cls-17" cx="384.91" cy="72.65" ry="1.75"/><ellipse class="cls-17" cx="402.93" cy="68.86" ry="1.75"/><ellipse class="cls-17" cx="412.24" cy="77.78" ry="1.75"/><ellipse class="cls-17" cx="412.52" cy="90.67" ry="1.75"/><ellipse class="cls-17" cx="403.6" cy="99.98" ry="1.75"/><ellipse class="cls-17" cx="390.71" cy="100.25" ry="1.75"/><ellipse class="cls-17" cx="381.4" cy="91.34" ry="1.75"/><ellipse class="cls-17" cx="381.12" cy="78.45" ry="1.75"/><ellipse class="cls-17" cx="390.04" cy="69.14" ry="1.75"/><path class="cls-18" d="M396.81,84.56v-13a13.45,13.45,0,0,1,4.85.77Z"/><line class="cls-1" x1="396.81" y1="84.56" x2="408.43" y2="90.86"/><line class="cls-19" x1="396.81" y1="84.56" x2="396.81" y2="71.55"/><circle class="cls-20" cx="396.81" cy="84.56" r="0.98"/><line class="cls-21" x1="396.81" y1="84.56" x2="401.66" y2="72.33"/><circle class="cls-22" cx="105.31" cy="64.17" r="4.5"/><path class="cls-23" d="M105.31,60.17a4,4,0,1,1-4,4,4,4,0,0,1,4-4m0-1a5,5,0,1,0,5,5,5,5,0,0,0-5-5Z"/><path class="cls-22" d="M95.81,90.67v-10a9,9,0,0,1,9-9h.94a9,9,0,0,1,9,9v10Z"/><path class="cls-23" d="M105.78,72.17a8.54,8.54,0,0,1,8.53,8.53v9.47h-18V80.7a8.54,8.54,0,0,1,8.53-8.53h.94m0-1h-.94a9.53,9.53,0,0,0-9.53,9.53V91.17h20V80.7a9.53,9.53,0,0,0-9.53-9.53Z"/><line class="cls-24" x1="121.87" y1="59.93" x2="128.1" y2="53.7"/><line class="cls-24" x1="121.88" y1="94.43" x2="127.88" y2="100.43"/><line class="cls-24" x1="87.37" y1="59.71" x2="81.37" y2="53.71"/><polyline class="cls-25" points="87.37 54.19 87.37 59.71 81.84 59.71"/><polyline class="cls-25" points="127.41 94.44 121.88 94.44 121.88 99.96"/><line class="cls-24" x1="87.26" y1="94.33" x2="81.26" y2="100.33"/><polyline class="cls-25" points="81.74 94.33 87.27 94.33 87.27 99.86"/><polyline class="cls-25" points="121.87 54.2 121.87 59.93 127.61 59.93"/><path class="cls-26" d="M92.13,325,43,312.09a.1.1,0,0,1-.07-.12l17.45-66.56a.1.1,0,0,1,.09-.07l49.17,12.89a.1.1,0,0,1,.07.12L92.25,324.91a.1.1,0,0,1-.09.07Z"/><path class="cls-2" d="M60.75,245.94l48.36,12.68L91.87,324.4,43.5,311.71l17.25-65.78m-.29-1.09a.6.6,0,0,0-.58.44L42.43,311.85a.6.6,0,0,0,.42.73L92,325.47l.15,0a.6.6,0,0,0,.58-.44l17.45-66.56a.6.6,0,0,0-.42-.73L60.61,244.87l-.15,0Z"/><path class="cls-5" d="M91.77,314.55,48.42,303.18l-.07-.12L61.75,252a.09.09,0,0,1,.09-.07l43.37,11.37.07.12L91.88,314.48a.1.1,0,0,1-.09.07Z"/><path class="cls-2" d="M62.13,252.5l42.56,11.16L91.5,314,48.94,302.8l13.19-50.3m-.29-1.09a.6.6,0,0,0-.58.44L47.87,302.94a.6.6,0,0,0,.42.73L91.64,315l.15,0a.6.6,0,0,0,.58-.44l13.39-51.08a.6.6,0,0,0-.42-.73L62,251.43l-.15,0Z"/><path class="cls-2" d="M69,312.22h0a1,1,0,0,1,.25,0,1,1,0,0,1-.25,2,1,1,0,0,1-.26,0,1,1,0,0,1,.25-2m0-1a2,2,0,1,0,.51.07,2,2,0,0,0-.51-.07Z"/><line class="cls-10" x1="83.28" y1="254.43" x2="86.76" y2="255.34"/><circle class="cls-27" cx="80.11" cy="270.66" r="1" transform="translate(-202.01 279.5) rotate(-75.31)"/><path class="cls-27" d="M79.1,272.53h0a2,2,0,0,1,2,2v2a0,0,0,0,1,0,0h-4a0,0,0,0,1,0,0v-2A2,2,0,0,1,79.1,272.53Z" transform="translate(72.22 -11.09) rotate(14.69)"/><path class="cls-20" d="M79.35,267.56h0a6,6,0,0,1,1.53.2,6,6,0,0,1-1.52,11.81,6,6,0,0,1-1.53-.2,6,6,0,0,1,1.52-11.81m0-1a7,7,0,1,0,1.78.23,7,7,0,0,0-1.78-.23Z"/><ellipse class="cls-21" cx="75.98" cy="286.44" ry="12" transform="translate(-220.37 287.28) rotate(-75.31)"/><ellipse class="cls-21" cx="75.09" cy="289.8" ry="12" transform="matrix(0.25, -0.97, 0.97, 0.25, -224.28, 288.94)"/><ellipse class="cls-21" cx="74.21" cy="293.16" ry="12" transform="matrix(0.25, -0.97, 0.97, 0.25, -228.18, 290.59)"/><ellipse class="cls-21" cx="73.33" cy="296.52" ry="12" transform="matrix(0.25, -0.97, 0.97, 0.25, -232.09, 292.25)"/><polyline class="cls-21" points="80.12 301.88 72.63 299.92 64.79 297.86"/><circle class="cls-4" cx="302.01" cy="176.88" r="8.85"/><path class="cls-4" d="M314.69,195.38a12.84,12.84,0,0,1,9.49-4.18h0a12.87,12.87,0,0,1,12.87,12.87v15.22H318.67"/><path class="cls-9" d="M323.31,24.17a2,2,0,1,1-2,2,2,2,0,0,1,2-2m0-1a3,3,0,1,0,3,3,3,3,0,0,0-3-3Z"/><path class="cls-8" d="M176.31,8.17a2,2,0,1,1-2,2,2,2,0,0,1,2-2m0-1a3,3,0,1,0,3,3,3,3,0,0,0-3-3Z"/><path class="cls-9" d="M66.31,148.17a2,2,0,1,1-2,2,2,2,0,0,1,2-2m0-1a3,3,0,1,0,3,3,3,3,0,0,0-3-3Z"/><path class="cls-9" d="M116.31,218.17a2,2,0,1,1-2,2,2,2,0,0,1,2-2m0-1a3,3,0,1,0,3,3,3,3,0,0,0-3-3Z"/><path class="cls-8" d="M58.31,207.17a2,2,0,1,1-2,2,2,2,0,0,1,2-2m0-1a3,3,0,1,0,3,3,3,3,0,0,0-3-3Z"/><path class="cls-9" d="M206.31,312.17a2,2,0,1,1-2,2,2,2,0,0,1,2-2m0-1a3,3,0,1,0,3,3,3,3,0,0,0-3-3Z"/><path class="cls-8" d="M161.31,322.17a2,2,0,1,1-2,2,2,2,0,0,1,2-2m0-1a3,3,0,1,0,3,3,3,3,0,0,0-3-3Z"/><path class="cls-9" d="M310.31,304.17a2,2,0,1,1-2,2,2,2,0,0,1,2-2m0-1a3,3,0,1,0,3,3,3,3,0,0,0-3-3Z"/><path class="cls-8" d="M399.31,162.17a2,2,0,1,1-2,2,2,2,0,0,1,2-2m0-1a3,3,0,1,0,3,3,3,3,0,0,0-3-3Z"/><path class="cls-28" d="M351.41,277.24a2.5,2.5,0,1,1-2.32,1.56,2.49,2.49,0,0,1,2.32-1.56m0-1a3.5,3.5,0,1,0,1.31.26,3.5,3.5,0,0,0-1.31-.26Z"/><path class="cls-9" d="M319.4,93.69a2,2,0,1,1-1.85,1.25,2,2,0,0,1,1.85-1.25m0-1a3,3,0,1,0,1.12.22,3,3,0,0,0-1.12-.22Z"/><line class="cls-1" x1="201.31" y1="284.67" x2="176.31" y2="284.67"/><line class="cls-29" x1="186.31" y1="288.67" x2="168.31" y2="288.67"/><line class="cls-30" x1="173.31" y1="284.67" x2="168.31" y2="284.67"/><ellipse class="cls-1" cx="192.31" cy="288.67" rx="2"/><ellipse class="cls-7" cx="199.31" cy="288.67" rx="2"/><line class="cls-31" x1="360.31" y1="128.67" x2="335.31" y2="128.67"/><line class="cls-1" x1="345.31" y1="132.67" x2="327.31" y2="132.67"/><line class="cls-30" x1="332.31" y1="128.67" x2="327.31" y2="128.67"/><ellipse class="cls-1" cx="351.31" cy="132.67" rx="2"/><ellipse class="cls-7" cx="358.31" cy="132.67" rx="2"/><line class="cls-1" x1="463.31" y1="141.67" x2="438.31" y2="141.67"/><line class="cls-1" x1="448.31" y1="145.67" x2="430.31" y2="145.67"/><line class="cls-1" x1="435.31" y1="141.67" x2="430.31" y2="141.67"/><ellipse class="cls-1" cx="454.31" cy="145.67" rx="2"/><ellipse class="cls-1" cx="461.31" cy="145.67" rx="2"/><line class="cls-1" x1="19.31" y1="228.67" x2="44.31" y2="228.67"/><line class="cls-1" x1="34.31" y1="232.67" x2="52.31" y2="232.67"/><line class="cls-1" x1="47.31" y1="228.67" x2="52.31" y2="228.67"/><ellipse class="cls-1" cx="28.31" cy="232.67" rx="2"/><ellipse class="cls-1" cx="21.31" cy="232.67" rx="2"/><line class="cls-30" x1="115.31" y1="328.67" x2="127.31" y2="328.67"/><line class="cls-7" x1="122.31" y1="332.67" x2="131.31" y2="332.67"/><line class="cls-1" x1="129.31" y1="328.67" x2="131.31" y2="328.67"/><ellipse class="cls-30" cx="119.31" cy="332.67" rx="1"/><ellipse class="cls-1" cx="116.31" cy="332.67" rx="1"/><line class="cls-1" x1="448.31" y1="222.67" x2="436.31" y2="222.67"/><line class="cls-7" x1="441.31" y1="218.67" x2="432.31" y2="218.67"/><line class="cls-30" x1="434.31" y1="222.67" x2="432.31" y2="222.67"/><ellipse class="cls-30" cx="444.31" cy="218.67" rx="1"/><ellipse class="cls-1" cx="447.31" cy="218.67" rx="1"/><line class="cls-1" x1="253.37" y1="70.17" x2="241.37" y2="70.17"/><line class="cls-1" x1="246.37" y1="66.17" x2="237.37" y2="66.17"/><line class="cls-1" x1="239.37" y1="70.17" x2="237.37" y2="70.17"/><ellipse class="cls-1" cx="249.37" cy="66.17" rx="1"/><ellipse class="cls-1" cx="252.37" cy="66.17" rx="1"/><line class="cls-31" x1="187.31" y1="58.67" x2="169.31" y2="58.67"/><line class="cls-1" x1="179.31" y1="54.67" x2="161.31" y2="54.67"/><line class="cls-30" x1="166.31" y1="58.67" x2="161.31" y2="58.67"/><ellipse class="cls-1" cx="185.31" cy="54.67" rx="2"/></svg>