<svg id="Illustrations" xmlns="http://www.w3.org/2000/svg" xmlns:xlink="http://www.w3.org/1999/xlink" viewBox="0 0 496 400"><defs><style>.cls-1,.cls-17{fill:#fff;}.cls-1,.cls-10{stroke:#2c41c6;}.cls-1,.cls-10,.cls-12,.cls-13,.cls-14,.cls-15,.cls-16,.cls-2,.cls-23,.cls-24,.cls-26,.cls-27,.cls-8,.cls-9{stroke-miterlimit:10;}.cls-10,.cls-12,.cls-13,.cls-14,.cls-15,.cls-16,.cls-2,.cls-23,.cls-24,.cls-26,.cls-27,.cls-8,.cls-9{fill:none;}.cls-2{stroke:#dadada;}.cls-3{fill:#fdc9a7;}.cls-4{fill:#fa7822;}.cls-5{fill:#00796c;}.cls-6{fill:#b9e2d4;}.cls-7{fill:#51b793;}.cls-8{stroke:#51b793;}.cls-9{stroke:#fa7822;}.cls-11{fill:#2c41c6;}.cls-12{stroke:#3b56a3;}.cls-13,.cls-16{stroke:#de2a50;}.cls-14{stroke:#95a0e2;}.cls-15{stroke:#fac02f;}.cls-16{stroke-linecap:round;}.cls-18{clip-path:url(#clip-path);}.cls-19{fill:#abb3e8;}.cls-20{fill:#dadada;}.cls-21{fill:#b3b3b3;}.cls-22{fill:#3c3c3b;}.cls-23{stroke:#3c3c3b;}.cls-24{stroke:#999;}.cls-25{fill:gray;}.cls-26{stroke:gray;}.cls-27{stroke:#ccc;}</style><clipPath id="clip-path"><path class="cls-1" d="M342,351.24l.14-14.56a17.91,17.91,0,0,0-7.67,1.8A8.65,8.65,0,0,0,342,351.24Z"/></clipPath></defs><title>client-bank</title><path class="cls-2" d="M316.87,58.45a160.78,160.78,0,0,1,70.87,64.61"/><path class="cls-2" d="M371.3,282.6a144.94,144.94,0,0,1-121.91,66.28"/><path class="cls-2" d="M390,239.9A144.09,144.09,0,0,1,384.1,258"/><path class="cls-2" d="M280.87,61.88A145.17,145.17,0,0,1,394.61,203.67"/><path class="cls-2" d="M211,63.58a145.37,145.37,0,0,1,38.37-5.12"/><path class="cls-2" d="M105.19,186.46A144.56,144.56,0,0,1,137.6,111a145.47,145.47,0,0,1,62-43.79"/><path class="cls-2" d="M171.42,326.18a145,145,0,0,1-67.23-122.52"/><path class="cls-2" d="M149,58.45a176.66,176.66,0,0,1,186.79-8.7"/><path class="cls-2" d="M76.29,169A176.28,176.28,0,0,1,131,72.78"/><path class="cls-2" d="M149,348.88A177.23,177.23,0,0,1,89.3,278.07c-10.53-22.61-17.19-49.61-17.19-76.19"/><path class="cls-2" d="M319.23,365.81a175.92,175.92,0,0,1-69.84,14.36A178.46,178.46,0,0,1,230,379.11"/><path class="cls-2" d="M378.35,83.16A176.54,176.54,0,0,1,394.62,304"/><path class="cls-2" d="M190.91,370.21q-7.15-2.52-14.19-5.7-2.75-1.24-5.44-2.57"/><path class="cls-2" d="M149.3,328.61a160.9,160.9,0,0,1-37.68-43.37"/><path class="cls-2" d="M218.73,360.83a159.14,159.14,0,0,1-55.64-22.3"/><path class="cls-2" d="M245.68,363.72q-5.07-.12-10.07-.54"/><path class="cls-2" d="M397.08,265.57a160.66,160.66,0,0,1-84.34,85.17"/><path class="cls-2" d="M403.8,161.22a160.27,160.27,0,0,1,5.69,42.45q0,2.81-.1,5.6"/><path class="cls-2" d="M174.43,62.18a159.39,159.39,0,0,1,75-18.6"/><path class="cls-2" d="M89.3,203.67A159.39,159.39,0,0,1,121,108"/><path class="cls-2" d="M120.14,298.16a160.92,160.92,0,0,1-28.71-68.31"/><path class="cls-2" d="M364.67,314.82a160.66,160.66,0,0,1-109.44,48.88"/><path class="cls-2" d="M408.7,220a160.27,160.27,0,0,1-10.06,41.63q-1,2.62-2.12,5.19"/><path class="cls-2" d="M290.7,49a161.88,161.88,0,0,1,16.63,5.45"/><path class="cls-3" d="M328.17,319.19A7.5,7.5,0,1,1,333.5,317a7.51,7.51,0,0,1-5.33,2.22Z"/><path class="cls-4" d="M328.18,303.69v1a7,7,0,1,1-5,2.07,7,7,0,0,1,5-2.07l0-1m0,0h0a8,8,0,0,0,0,16h0a8,8,0,0,0,0-16Z"/><path class="cls-3" d="M314.93,335.08a12.86,12.86,0,0,1,12.8-12.91H329A12.89,12.89,0,0,1,341.86,335l.07,16.09-26.93.11Z"/><path class="cls-4" d="M329,322.67h0A12.38,12.38,0,0,1,341.36,335l.07,15.59-25.93.11-.07-15.58a12.36,12.36,0,0,1,12.31-12.41H329m0-1h-1.27a13.36,13.36,0,0,0-13.3,13.41l.07,16.58,27.93-.12L342.36,335A13.36,13.36,0,0,0,329,321.67Z"/><rect class="cls-5" x="143.43" y="43.67" width="40" height="22"/><rect class="cls-6" x="141.93" y="42.17" width="39" height="21"/><path class="cls-7" d="M180.43,42.67v20h-38v-20h38m1-1h-40v22h40v-22Z"/><path class="cls-7" d="M161.43,45.56a7,7,0,1,1-7,7,7,7,0,0,1,7-7m0-1a8,8,0,1,0,8,8,8,8,0,0,0-8-8Z"/><path class="cls-8" d="M145.54,41.67a4.11,4.11,0,0,1-4.11,4.11"/><path class="cls-8" d="M177.32,41.67a4.11,4.11,0,0,0,4.11,4.11"/><path class="cls-8" d="M145.6,63.67a4.11,4.11,0,0,0-4.11-4.11"/><path class="cls-8" d="M177.32,63.67a4.11,4.11,0,0,1,4.11-4.11"/><path class="cls-9" d="M164.49,74.58c2,0,2,2,4,2s2-2,4-2,2,2,4,2,2-2,4-2,2,2,4,2"/><path class="cls-9" d="M133.21,30c1.87,0,1.87,2,3.75,2s1.87-2,3.75-2,1.88,2,3.75,2,1.88-2,3.75-2"/><path class="cls-10" d="M188.55,37.73c2.17,0,2.17,2,4.33,2s2.17-2,4.33-2,2.17,2,4.33,2"/><path class="cls-11" d="M168.43,30.67a1,1,0,1,1-1,1,1,1,0,0,1,1-1m0-1a2,2,0,1,0,2,2,2,2,0,0,0-2-2Z"/><path class="cls-11" d="M135.93,68.67a1.5,1.5,0,1,1-1.5,1.5,1.5,1.5,0,0,1,1.5-1.5m0-1a2.5,2.5,0,1,0,2.5,2.5,2.5,2.5,0,0,0-2.5-2.5Z"/><path class="cls-4" d="M205.93,60.67a.5.5,0,1,1-.5.5.5.5,0,0,1,.5-.5m0-1a1.5,1.5,0,1,0,1.5,1.5,1.5,1.5,0,0,0-1.5-1.5Z"/><path class="cls-11" d="M118.93,41.67a.5.5,0,1,1-.5.5.5.5,0,0,1,.5-.5m0-1a1.5,1.5,0,1,0,1.5,1.5,1.5,1.5,0,0,0-1.5-1.5Z"/><path class="cls-11" d="M135.93,87.67a.5.5,0,1,1-.5.5.5.5,0,0,1,.5-.5m0-1a1.5,1.5,0,1,0,1.5,1.5,1.5,1.5,0,0,0-1.5-1.5Z"/><circle class="cls-9" cx="181.7" cy="26.39" r="2.28"/><ellipse class="cls-9" cx="153.93" cy="15.17" ry="2.83"/><ellipse class="cls-9" cx="153.93" cy="15.17" ry="2.83"/><ellipse class="cls-10" cx="194.65" cy="86.4" ry="2.11"/><ellipse class="cls-10" cx="194.65" cy="86.4" ry="2.11"/><ellipse class="cls-10" cx="199.7" cy="52.45" ry="2.11"/><ellipse class="cls-10" cx="199.7" cy="52.45" ry="2.11"/><line class="cls-9" x1="183.29" y1="24.75" x2="180.06" y2="27.97"/><line class="cls-10" x1="137.26" y1="68.83" x2="134.6" y2="71.5"/><path class="cls-4" d="M173.93,89.67a1.5,1.5,0,1,1-1.5,1.5,1.5,1.5,0,0,1,1.5-1.5m0-1a2.5,2.5,0,1,0,2.5,2.5,2.5,2.5,0,0,0-2.5-2.5Z"/><line class="cls-9" x1="175.26" y1="89.83" x2="172.6" y2="92.5"/><ellipse class="cls-9" cx="126.93" cy="58.17" ry="2.83"/><ellipse class="cls-9" cx="126.93" cy="58.17" ry="2.83"/><path class="cls-10" d="M326.73,141.43l-70,135.41s-3.57,6.71-8.67,8.79-9.06,2-15.62.33-68.64-18-68.64-18-7.21-2.09-8.62-6.72c-1.48-4.84-.32-5.89,1.27-8.54s81-125.12,81-125.12,4-6.55,8.67-7.39a29.36,29.36,0,0,1,11.9-.3c5.72.75,63.23,9.86,65.33,10.23s5.42,3.21,4.76,6.85A15.75,15.75,0,0,1,326.73,141.43Z"/><path class="cls-10" d="M323.95,130.3s9.17,2.28,7.72,9.85a24.66,24.66,0,0,1-1.81,5.32L263.5,276.11s-4.63,10.16-9.32,13.16a20.65,20.65,0,0,1-14.75,3.18c-5.24-.78-74.63-19.31-74.63-19.31s-6.76-1.8-9.48-5.87c-2-3-2.55-5.9-.67-10.85"/><polygon class="cls-10" points="319.81 144.46 239.44 132 168.18 242.26 258.07 264.62 319.81 144.46"/><path class="cls-10" d="M195.92,267.6c1.17,4.06,6.53,6,11.7,4.48,4.9-1.47,7.83-5.6,6.77-9.29s-5.8-5.82-10.81-4.71C198.3,259.25,194.75,263.53,195.92,267.6Z"/><line class="cls-10" x1="212.47" y1="200.04" x2="263.03" y2="209.81"/><line class="cls-10" x1="215.04" y1="195.41" x2="271.02" y2="206.23"/><line class="cls-10" x1="272.67" y1="150.3" x2="292.3" y2="153.38"/><line class="cls-10" x1="270.59" y1="154.44" x2="290.21" y2="157.52"/><line class="cls-10" x1="268.65" y1="158.87" x2="282.39" y2="161.12"/><line class="cls-10" x1="261.83" y1="176.65" x2="281.46" y2="179.72"/><line class="cls-10" x1="259.75" y1="180.78" x2="279.38" y2="183.86"/><line class="cls-12" x1="257.82" y1="185.22" x2="271.55" y2="187.46"/><line class="cls-10" x1="287.63" y1="134.51" x2="270.64" y2="132"/><path class="cls-12" d="M239.55,154.26c1.48,5.12,8.22,7.6,14.73,5.64,6.18-1.85,9.86-7.05,8.53-11.69-.82-2.85-3.39-5-6.72-5.85"/><path class="cls-13" d="M252.87,158.14c5.32-1.57,8.59-5.7,7.56-9.29-.64-2.21-2.78-3.8-5.6-4.41"/><path class="cls-12" d="M242.35,184.57c6.09-1.83,9.73-7,8.41-11.53-.87-3-3.7-5.19-7.31-5.93"/><path class="cls-13" d="M234.16,170.72c-2.8,1.83-4.33,4.73-3.53,7.53,1.12,3.89,6.24,5.77,11.19,4.29,4.69-1.41,7.49-5.36,6.48-8.88-.67-2.32-2.85-4-5.63-4.57"/><line class="cls-14" x1="194.87" y1="228.13" x2="249.74" y2="241.2"/><line class="cls-14" x1="197.94" y1="223.16" x2="253.04" y2="235.68"/><line class="cls-14" x1="201.02" y1="218.19" x2="256.34" y2="230.16"/><line class="cls-14" x1="204.1" y1="213.22" x2="259.64" y2="224.64"/><path class="cls-10" d="M200,227.53l8.77-1,3.77,3.88,7.05-7.8,3,8.06,7.41-6.19s3.58,5.57,4.33,5.46,14.38-7.45,18.24-9.53"/><polygon class="cls-11" points="251.67 222.89 252.37 220.59 250.07 219.9 251.34 219.22 253.63 219.91 252.94 222.21 251.67 222.89"/><polyline class="cls-10" points="206.99 208 191.71 232.98 247.25 246.37"/><line class="cls-13" x1="76.43" y1="285.21" x2="84.43" y2="285.12"/><line class="cls-13" x1="87.43" y1="285.21" x2="95.43" y2="285.12"/><line class="cls-13" x1="98.43" y1="285.21" x2="106.43" y2="285.12"/><line class="cls-13" x1="109.43" y1="285.21" x2="117.43" y2="285.12"/><ellipse class="cls-15" cx="80.43" cy="278.67" ry="4.09"/><ellipse class="cls-15" cx="80.43" cy="278.67" ry="4.09"/><ellipse class="cls-15" cx="80.43" cy="278.67" ry="4"/><ellipse class="cls-15" cx="80.43" cy="278.67" ry="4"/><ellipse class="cls-15" cx="91.43" cy="278.67" ry="4"/><ellipse class="cls-15" cx="91.43" cy="278.67" ry="4"/><ellipse class="cls-15" cx="91.43" cy="278.67" ry="4"/><ellipse class="cls-15" cx="91.43" cy="278.67" ry="4"/><ellipse class="cls-15" cx="102.43" cy="278.67" ry="4"/><ellipse class="cls-15" cx="102.43" cy="278.67" ry="4"/><ellipse class="cls-15" cx="102.43" cy="278.67" ry="4"/><ellipse class="cls-15" cx="102.43" cy="278.67" ry="4"/><ellipse class="cls-15" cx="113.43" cy="278.67" ry="4"/><ellipse class="cls-15" cx="113.43" cy="278.67" ry="4"/><ellipse class="cls-15" cx="113.43" cy="278.67" ry="4"/><ellipse class="cls-15" cx="113.43" cy="278.67" ry="4"/><path class="cls-16" d="M62.85,270.34a6.56,6.56,0,0,1,3.35-1,5.76,5.76,0,0,1,6,5.49V276"/><path class="cls-16" d="M72.3,281.55v1.19a5.76,5.76,0,0,1-5.89,5.63,6.56,6.56,0,0,1-3.37-.89"/><path class="cls-16" d="M60.39,281.74,60.31,275a5.13,5.13,0,0,1,1.07-3.34"/><path class="cls-16" d="M61.78,286.43a5.48,5.48,0,0,1-1.31-3.19"/><path class="cls-16" d="M62.32,276.56v-1.19a4,4,0,0,1,7.94-.09l.08,7.05"/><path class="cls-16" d="M69.73,284.52a4.13,4.13,0,0,1-3.34,1.73A4,4,0,0,1,62.65,284a3.16,3.16,0,0,1-.27-1.23v-1.19"/><path class="cls-16" d="M69.57,284.74a4.15,4.15,0,0,1-3.17,1.51,4.23,4.23,0,0,1-.79-.06"/><path class="cls-16" d="M64.58,283.41l-.09-7.67a1.8,1.8,0,0,1,3.57,0l0,2.58"/><line class="cls-16" x1="72.26" y1="278.03" x2="72.3" y2="281.61"/><line class="cls-16" x1="62.38" y1="282.47" x2="62.34" y2="278.54"/><line class="cls-16" x1="68.11" y1="280.26" x2="68.15" y2="283.15"/><line class="cls-16" x1="66.29" y1="276.58" x2="66.37" y2="283.87"/><path class="cls-1" d="M349.74,338.63a8.65,8.65,0,1,1-15.31-.15,30.18,30.18,0,0,0-8.8,6.42s7.26,8.45,16.31,8.54,16.47-8.22,16.47-8.22A30.18,30.18,0,0,0,349.74,338.63Z"/><path class="cls-1" d="M342,351.24a8.65,8.65,0,0,0,7.78-12.61,16.6,16.6,0,0,0-15.31-.15A8.65,8.65,0,0,0,342,351.24Z"/><path class="cls-17" d="M342,351.24l.14-14.56a17.91,17.91,0,0,0-7.67,1.8A8.65,8.65,0,0,0,342,351.24Z"/><g class="cls-18"><line class="cls-1" x1="351.14" y1="343.18" x2="327.91" y2="365.96"/><line class="cls-1" x1="351" y1="339.74" x2="327.77" y2="362.53"/><line class="cls-1" x1="350.86" y1="336.3" x2="327.63" y2="359.09"/><line class="cls-1" x1="350.72" y1="332.86" x2="327.49" y2="355.65"/><line class="cls-1" x1="350.59" y1="329.42" x2="327.35" y2="352.21"/><line class="cls-1" x1="350.45" y1="325.98" x2="327.22" y2="348.77"/></g><path class="cls-10" d="M342,351.24l.14-14.56a17.91,17.91,0,0,0-7.67,1.8A8.65,8.65,0,0,0,342,351.24Z"/><line class="cls-1" x1="342.02" y1="351.24" x2="342.02" y2="336.69"/><polygon class="cls-19" points="374.06 74.88 350.39 67.15 364.81 22.45 388.48 30.19 374.06 74.89 374.06 74.88"/><path class="cls-11" d="M365.13,23.09l22.74,7.43L373.74,74.25,351,66.82l14.13-43.74M364.81,22a.5.5,0,0,0-.48.34L349.89,67a.51.51,0,0,0,.34.63l23.66,7.73.17,0a.5.5,0,0,0,.48-.34L389,30.34a.51.51,0,0,0-.34-.63L365,22l-.17,0Z"/><polygon class="cls-17" points="356.04 59.45 366.7 26.38 384.67 32.23 374.01 65.29 373.99 65.31 356.04 59.45"/><path class="cls-11" d="M367,27l17,5.56L373.68,64.68l-17-5.56L367,27m-.31-1.13a.52.52,0,0,0-.49.36l-10.67,33a.52.52,0,0,0,.33.66l17.94,5.86.16,0a.52.52,0,0,0,.49-.36l10.67-33a.52.52,0,0,0-.33-.66l-17.94-5.86-.16,0Z"/><path class="cls-19" d="M363.62,68.59a2,2,0,1,1,1.89-1.38A2,2,0,0,1,363.62,68.59Z"/><path class="cls-11" d="M363.6,65.08h0a1.5,1.5,0,0,1,.46.07,1.51,1.51,0,0,1,1,1.9,1.49,1.49,0,0,1-1.88,1,1.51,1.51,0,0,1-1-1.9,1.49,1.49,0,0,1,1.42-1m0-1a2.51,2.51,0,1,0,.77.12,2.49,2.49,0,0,0-.77-.12Z"/><path class="cls-16" d="M370.3,37.82a5.29,5.29,0,0,1,2.5.16A4.58,4.58,0,0,1,376,43.58l-.28.9"/><path class="cls-16" d="M374.47,48.63l-.28.9a4.55,4.55,0,0,1-5.82,2.78,5.32,5.32,0,0,1-2.08-1.23"/><path class="cls-16" d="M365.73,44.83,367,40.75a4,4,0,0,1,1.61-2.24"/><path class="cls-16" d="M365.33,49.7a4.32,4.32,0,0,1-.21-2.72"/><path class="cls-16" d="M367.64,47.23l1.8-5.82a2.16,2.16,0,0,1,4.09,1.28l-.91,2.94"/><line class="cls-16" x1="375.1" y1="46.59" x2="374.46" y2="48.67"/><line class="cls-16" x1="372.13" y1="47.42" x2="371.5" y2="49.45"/><line class="cls-16" x1="371.24" y1="43.03" x2="369.17" y2="49.74"/><path class="cls-20" d="M148.43,315.67a2,2,0,1,1-2,2,2,2,0,0,1,2-2m0-1a3,3,0,1,0,3,3,3,3,0,0,0-3-3Z"/><path class="cls-20" d="M272.93,73.67h0a2.5,2.5,0,1,1-2.36,1.67,2.49,2.49,0,0,1,2.36-1.67m0-1a3.5,3.5,0,1,0,1.17.2,3.5,3.5,0,0,0-1.17-.2Z"/><path class="cls-21" d="M290,322.75h0a2.5,2.5,0,1,1-.94.18,2.49,2.49,0,0,1,.94-.18m0-1a3.5,3.5,0,1,0,3.25,2.19,3.49,3.49,0,0,0-3.25-2.19Z"/><path class="cls-22" d="M84.43,312.67h0a2,2,0,0,1,.83,3.82,2,2,0,0,1-.83.18,2,2,0,0,1-.83-3.82,2,2,0,0,1,.83-.18m0-1a3,3,0,1,0,2.73,1.76,3,3,0,0,0-2.73-1.76Z"/><line class="cls-23" x1="406.93" y1="143.17" x2="395.93" y2="139.17"/><line class="cls-23" x1="393.93" y1="135.17" x2="395.93" y2="123.17"/><path class="cls-22" d="M393.43,135.67h0a2,2,0,1,1-.75.15,2,2,0,0,1,.75-.15m0-1a3,3,0,1,0,2.78,1.88,3,3,0,0,0-2.78-1.88Z"/><path class="cls-22" d="M396.43,118.67h0a2,2,0,1,1-.75.15,2,2,0,0,1,.75-.15m0-1a3,3,0,1,0,2.78,1.88,3,3,0,0,0-2.78-1.88Z"/><path class="cls-22" d="M409.43,142.67h0a2,2,0,1,1-.75.15,2,2,0,0,1,.75-.15m0-1a3,3,0,1,0,2.78,1.88,3,3,0,0,0-2.78-1.88Z"/><line class="cls-24" x1="53.5" y1="174.54" x2="41.75" y2="174.54"/><line class="cls-24" x1="46.87" y1="171.28" x2="37.98" y2="171.28"/><line class="cls-2" x1="39.94" y1="174.54" x2="37.98" y2="174.54"/><ellipse class="cls-2" cx="49.28" cy="171.28" rx="0.9"/><ellipse class="cls-24" cx="52.59" cy="171.28" rx="0.9"/><path class="cls-20" d="M18.47,203.6a2,2,0,1,1-2,2,2,2,0,0,1,2-2m0-1a3,3,0,1,0,3,3,3,3,0,0,0-3-3Z"/><path class="cls-25" d="M130.93,243.67a2.5,2.5,0,1,1-2.5,2.5,2.5,2.5,0,0,1,2.5-2.5m0-1a3.5,3.5,0,1,0,3.5,3.5,3.5,3.5,0,0,0-3.5-3.5Z"/><line class="cls-23" x1="222.93" y1="330.17" x2="234.93" y2="332.17"/><line class="cls-23" x1="237.65" y1="335.43" x2="237.93" y2="347.17"/><path class="cls-22" d="M237.43,330.67h0a2,2,0,0,1,1.18,3.62,2,2,0,0,1-1.17.38,2,2,0,0,1-1.62-.83,2,2,0,0,1,1.62-3.17m0-1a3,3,0,1,0,2.43,1.24,3,3,0,0,0-2.43-1.24Z"/><path class="cls-22" d="M238.43,347.67h0a2,2,0,0,1,1.18,3.62,2,2,0,0,1-1.17.38,2,2,0,0,1-1.18-3.62,2,2,0,0,1,1.17-.38m0-1a3,3,0,1,0,2.43,1.24,3,3,0,0,0-2.43-1.24Z"/><path class="cls-22" d="M220.43,327.67h0a2,2,0,0,1,1.18,3.62,2,2,0,0,1-1.17.38,2,2,0,0,1-1.62-.83,2,2,0,0,1,1.62-3.17m0-1a3,3,0,1,0,2.43,1.24,3,3,0,0,0-2.43-1.24Z"/><line class="cls-23" x1="167.18" y1="172.61" x2="161.37" y2="169.57"/><line class="cls-23" x1="157.4" y1="170.54" x2="143.75" y2="186.6"/><path class="cls-22" d="M159.43,166.67a2,2,0,1,1-1,.29,2,2,0,0,1,1-.29m0-1A3,3,0,1,0,162,167.1a3,3,0,0,0-2.56-1.44Z"/><path class="cls-22" d="M142.43,186.67a2,2,0,1,1-1,.29,2,2,0,0,1,1-.29m0-1A3,3,0,1,0,145,187.1a3,3,0,0,0-2.56-1.44Z"/><path class="cls-22" d="M169.43,171.67a2,2,0,1,1-1,.29,2,2,0,0,1,1-.29m0-1A3,3,0,1,0,172,172.1a3,3,0,0,0-2.56-1.44Z"/><line class="cls-26" x1="304.93" y1="11.17" x2="329.93" y2="11.17"/><line class="cls-27" x1="319.93" y1="15.17" x2="337.93" y2="15.17"/><line class="cls-23" x1="332.93" y1="11.17" x2="337.93" y2="11.17"/><ellipse class="cls-2" cx="313.93" cy="15.17" rx="2"/><ellipse class="cls-23" cx="306.93" cy="15.17" rx="2"/><line class="cls-2" x1="189.43" y1="113.17" x2="209.43" y2="113.17"/><line class="cls-2" x1="201.43" y1="117.17" x2="216.43" y2="117.17"/><line class="cls-2" x1="212.43" y1="113.17" x2="216.43" y2="113.17"/><ellipse class="cls-2" cx="196.93" cy="117.17" rx="1.5"/><ellipse class="cls-2" cx="190.93" cy="117.17" rx="1.5"/><line class="cls-2" x1="420.43" y1="330.17" x2="400.43" y2="330.17"/><line class="cls-2" x1="408.43" y1="326.17" x2="393.43" y2="326.17"/><line class="cls-2" x1="397.43" y1="330.17" x2="393.43" y2="330.17"/><ellipse class="cls-2" cx="412.93" cy="326.17" rx="1.5"/><ellipse class="cls-2" cx="418.93" cy="326.17" rx="1.5"/><line class="cls-26" x1="336.43" y1="112.17" x2="324.43" y2="112.17"/><line class="cls-23" x1="329.43" y1="108.17" x2="320.43" y2="108.17"/><line class="cls-2" x1="322.43" y1="112.17" x2="320.43" y2="112.17"/><ellipse class="cls-26" cx="332.43" cy="108.17" rx="1"/><ellipse class="cls-2" cx="335.43" cy="108.17" rx="1"/><line class="cls-2" x1="446.43" y1="140.17" x2="458.43" y2="140.17"/><line class="cls-2" x1="453.43" y1="144.17" x2="462.43" y2="144.17"/><line class="cls-2" x1="460.43" y1="140.17" x2="462.43" y2="140.17"/><ellipse class="cls-2" cx="450.43" cy="144.17" rx="1"/><ellipse class="cls-2" cx="447.43" cy="144.17" rx="1"/><line class="cls-2" x1="315.43" y1="290.17" x2="327.43" y2="290.17"/><line class="cls-2" x1="322.43" y1="294.17" x2="331.43" y2="294.17"/><line class="cls-2" x1="329.43" y1="290.17" x2="331.43" y2="290.17"/><ellipse class="cls-2" cx="319.43" cy="294.17" rx="1"/><ellipse class="cls-2" cx="316.43" cy="294.17" rx="1"/><line class="cls-2" x1="166.43" y1="374.17" x2="141.43" y2="374.17"/><line class="cls-26" x1="151.43" y1="370.17" x2="133.43" y2="370.17"/><line class="cls-26" x1="138.43" y1="374.17" x2="133.43" y2="374.17"/><ellipse class="cls-2" cx="157.43" cy="370.17" rx="2"/><ellipse class="cls-23" cx="164.43" cy="370.17" rx="2"/><path class="cls-20" d="M138.43,120.67a2,2,0,1,1-2,2,2,2,0,0,1,2-2m0-1a3,3,0,1,0,3,3,3,3,0,0,0-3-3Z"/><path class="cls-22" d="M102.43,158.67a2,2,0,1,1-2,2,2,2,0,0,1,2-2m0-1a3,3,0,1,0,3,3,3,3,0,0,0-3-3Z"/><path class="cls-22" d="M91.43,102.67a2,2,0,1,1-2,2,2,2,0,0,1,2-2m0-1a3,3,0,1,0,3,3,3,3,0,0,0-3-3Z"/><path class="cls-20" d="M394.43,79.67a2,2,0,1,1-2,2,2,2,0,0,1,2-2m0-1a3,3,0,1,0,3,3,3,3,0,0,0-3-3Z"/><path class="cls-20" d="M370.43,161.67a2,2,0,1,1-2,2,2,2,0,0,1,2-2m0-1a3,3,0,1,0,3,3,3,3,0,0,0-3-3Z"/><path class="cls-20" d="M433.43,229.67a2,2,0,1,1-2,2,2,2,0,0,1,2-2m0-1a3,3,0,1,0,3,3,3,3,0,0,0-3-3Z"/><path class="cls-22" d="M453.43,204.67a2,2,0,1,1-2,2,2,2,0,0,1,2-2m0-1a3,3,0,1,0,3,3,3,3,0,0,0-3-3Z"/><line class="cls-23" x1="354.93" y1="222.17" x2="343.05" y2="209.21"/><path class="cls-22" d="M341.43,205.67a2,2,0,1,1-1.53.71,2,2,0,0,1,1.53-.71m0-1a3,3,0,1,0,1.93.71,3,3,0,0,0-1.93-.71Z"/><path class="cls-22" d="M356.43,221.67a2,2,0,1,1-1.53.71,2,2,0,0,1,1.53-.71m0-1a3,3,0,1,0,1.93.71,3,3,0,0,0-1.93-.71Z"/></svg>