<svg id="Illustrations" xmlns="http://www.w3.org/2000/svg" viewBox="0 0 496 400"><defs><style>.cls-1,.cls-10,.cls-12,.cls-18,.cls-20,.cls-23,.cls-24,.cls-25,.cls-26,.cls-27,.cls-28,.cls-29,.cls-6,.cls-7,.cls-8{fill:none;}.cls-1{stroke:#dadada;}.cls-1,.cls-10,.cls-12,.cls-18,.cls-20,.cls-23,.cls-24,.cls-25,.cls-26,.cls-27,.cls-28,.cls-29,.cls-6,.cls-7,.cls-8,.cls-9{stroke-miterlimit:10;}.cls-2{fill:#f2aab9;}.cls-3{fill:#de2a50;}.cls-4{fill:#2c41c6;}.cls-5{fill:#fac02f;}.cls-6{stroke:#6b7ad7;}.cls-7{stroke:#fac02f;}.cls-8{stroke:#de2a50;}.cls-9{fill:#6b7ad7;}.cls-20,.cls-9{stroke:#2c41c6;}.cls-10{stroke:#293271;}.cls-11{fill:#fdf38b;}.cls-11,.cls-13{opacity:0.8;}.cls-12{stroke:#fceb3e;}.cls-13{fill:#eb7f96;}.cls-14{fill:#293271;}.cls-15{fill:#abb3e8;}.cls-16{fill:#b9e2d4;}.cls-17{fill:#51b793;}.cls-18{stroke:#51b793;}.cls-19{fill:#fff;}.cls-21{fill:#dadada;}.cls-22{fill:#3c3c3b;}.cls-23{stroke:#b3b3b3;}.cls-24{stroke:#3c3c3b;}.cls-25{stroke:#999;}.cls-26{stroke:gray;}.cls-27{stroke:#4d4d4d;}.cls-28{stroke:#ccc;}.cls-29{stroke:#e6e6e6;}</style></defs><title>client-wearables</title><path class="cls-1" d="M105.48,134a160.43,160.43,0,0,1,65.92-69.38"/><path class="cls-1" d="M330.22,84.29a144.64,144.64,0,0,1,63.63,123"/><path class="cls-1" d="M288,64.71A143.78,143.78,0,0,1,305.94,71"/><path class="cls-1" d="M108.16,170A144.87,144.87,0,0,1,252,59.42"/><path class="cls-1" d="M108.43,239.71a145.07,145.07,0,0,1-4.33-38.39"/><path class="cls-1" d="M228.85,347.81a144.26,144.26,0,0,1-74.62-33.87,145.16,145.16,0,0,1-42.41-62.79"/><path class="cls-1" d="M369.61,284.6A144.68,144.68,0,0,1,246,349.17"/><path class="cls-1" d="M102,301.43A176.29,176.29,0,0,1,97.19,114.9"/><path class="cls-1" d="M210.87,376.28A175.91,175.91,0,0,1,116,319.75"/><path class="cls-1" d="M391.8,307.38a176.85,176.85,0,0,1-71.87,58.16c-22.77,10-49.85,16.14-76.37,15.59"/><path class="cls-1" d="M412.18,137.94a175.55,175.55,0,0,1,12.89,70,178.08,178.08,0,0,1-1.45,19.34"/><path class="cls-1" d="M131.39,73.17a176.17,176.17,0,0,1,220.67-11.7"/><path class="cls-1" d="M413.93,266.06q-2.66,7.08-6,14-1.3,2.72-2.68,5.38"/><path class="cls-1" d="M371.58,306.72a160.56,160.56,0,0,1-44,36.7"/><path class="cls-1" d="M408.58,211.28q-.22,5.06-.75,10"/><path class="cls-1" d="M313.76,58.22A160.32,160.32,0,0,1,397,144.11"/><path class="cls-1" d="M209.79,49.38a159.93,159.93,0,0,1,42.46-4.8q2.81.06,5.59.21"/><path class="cls-1" d="M106.28,276.19a159.05,159.05,0,0,1-17-75.17"/><path class="cls-1" d="M245.69,364a159.05,159.05,0,0,1-94.77-33.58"/><path class="cls-1" d="M340.6,335.19a160.58,160.58,0,0,1-68.74,27.24"/><path class="cls-1" d="M362.23,91.57a160.32,160.32,0,0,1,46.52,110.19"/><path class="cls-1" d="M268.51,45.7a159.93,159.93,0,0,1,41.33,10.89q2.6,1.07,5.13,2.22"/><path class="cls-1" d="M95.5,159.92a161.54,161.54,0,0,1,5.77-16.48"/><path class="cls-2" d="M102.52,71.28a7.13,7.13,0,1,1,14.25,0c0,12.83-14.25,21.25-14.25,21.25S88.27,84.26,88.27,71.28a7.13,7.13,0,1,1,14.25,0Z"/><path class="cls-3" d="M102.52,93a.5.5,0,0,1-.25-.07c-.15-.08-14.5-8.57-14.5-21.69a7.61,7.61,0,0,1,14.75-2.76,7.61,7.61,0,0,1,14.75,2.76c0,5.38-2.51,10.83-7.26,15.78a37.85,37.85,0,0,1-7.23,5.9A.51.51,0,0,1,102.52,93ZM95.4,64.55a6.69,6.69,0,0,0-6.62,6.74c0,11.6,11.85,19.48,13.75,20.67,1.89-1.2,13.75-9.21,13.75-20.67a6.63,6.63,0,1,0-13.25,0,.5.5,0,0,1-1,0A6.69,6.69,0,0,0,95.4,64.55Z"/><polygon class="cls-4" points="103.41 84.78 98.28 74 96.1 79.08 85.02 79.08 85.02 78.08 95.44 78.08 98.23 71.58 103.57 82.8 107.09 77.79 120.02 77.79 120.02 78.79 107.61 78.79 103.41 84.78"/><rect class="cls-5" x="102.02" y="103.15" width="1" height="6.32"/><rect class="cls-5" x="94.38" y="105.39" width="6.32" height="1" transform="matrix(0.17, -0.99, 0.99, 0.17, -23.07, 184.51)"/><rect class="cls-5" x="89.54" y="104.15" width="6.32" height="1" transform="translate(-36.56 157.91) rotate(-70.86)"/><rect class="cls-5" x="84.98" y="102.12" width="6.32" height="1" transform="translate(-44.21 130.61) rotate(-61.28)"/><rect class="cls-5" x="80.81" y="99.36" width="6.32" height="1" transform="translate(-46.45 103.77) rotate(-51.65)"/><rect class="cls-5" x="77.17" y="95.95" width="6.32" height="1" transform="translate(-43.93 78.68) rotate(-42.07)"/><rect class="cls-5" x="74.14" y="91.98" width="6.32" height="1" transform="translate(-37.57 55.97) rotate(-32.48)"/><rect class="cls-5" x="71.81" y="87.55" width="6.32" height="1" transform="translate(-28.41 36.23) rotate(-22.96)"/><rect class="cls-5" x="70.26" y="82.81" width="6.32" height="1" transform="translate(-17.23 19.17) rotate(-13.33)"/><rect class="cls-5" x="69.51" y="77.87" width="6.32" height="1" transform="translate(-5.04 5) rotate(-3.81)"/><rect class="cls-5" x="72.26" y="70.21" width="1" height="6.32" transform="translate(-7.59 138.34) rotate(-84.19)"/><rect class="cls-5" x="73.18" y="65.3" width="1" height="6.32" transform="translate(-11.87 121.34) rotate(-74.61)"/><rect class="cls-5" x="74.91" y="60.61" width="1" height="6.32" transform="translate(-14.23 105.21) rotate(-65.03)"/><rect class="cls-5" x="77.39" y="56.27" width="1" height="6.32" transform="translate(-15.24 89.88) rotate(-55.45)"/><rect class="cls-5" x="80.55" y="52.41" width="1" height="6.32" transform="translate(-15.27 75.05) rotate(-45.87)"/><rect class="cls-5" x="84.32" y="49.13" width="1" height="6.32" transform="translate(-14.5 60.34) rotate(-36.29)"/><rect class="cls-5" x="88.58" y="46.51" width="1" height="6.32" transform="translate(-12.82 45.33) rotate(-26.71)"/><rect class="cls-5" x="93.21" y="44.65" width="1" height="6.32" transform="translate(-9.92 29.72) rotate(-17.13)"/><rect class="cls-5" x="98.09" y="43.58" width="1" height="6.32" transform="translate(-5.28 13.35) rotate(-7.54)"/><rect class="cls-5" x="100.42" y="46" width="6.32" height="1" transform="translate(53.47 148.39) rotate(-87.99)"/><rect class="cls-5" x="105.38" y="46.6" width="6.32" height="1" transform="translate(40.59 143.96) rotate(-78.41)"/><rect class="cls-5" x="110.18" y="48.01" width="6.32" height="1" transform="translate(27.13 136.64) rotate(-68.8)"/><rect class="cls-5" x="114.67" y="50.2" width="6.32" height="1" transform="translate(13.99 126) rotate(-59.23)"/><rect class="cls-5" x="118.73" y="53.1" width="6.32" height="1" transform="translate(2.06 111.67) rotate(-49.59)"/><line class="cls-6" x1="392.23" y1="81.86" x2="452.23" y2="81.86"/><line class="cls-6" x1="392.23" y1="91.91" x2="452.23" y2="91.91"/><line class="cls-6" x1="392.23" y1="101.96" x2="452.23" y2="101.96"/><line class="cls-6" x1="392.23" y1="112.02" x2="452.23" y2="112.02"/><line class="cls-6" x1="392.23" y1="122.07" x2="452.23" y2="122.07"/><polyline class="cls-7" points="394.78 106.09 399.5 97.69 406.4 108.89 411.22 103.78 414.64 108.14 423.23 95.08 427.27 99.37 442.42 78.11"/><polyline class="cls-8" points="394.78 116.55 398.65 108.72 405.39 117.49 411.22 114.69 415.15 118.61 424.41 108.72 427.44 111.52 447.98 98.65"/><circle class="cls-3" cx="448.5" cy="98.17" r="1.5"/><circle class="cls-5" cx="442.42" cy="78.11" r="1.5"/><polygon class="cls-9" points="401 236.67 367.5 261.11 380.3 300.67 421.7 300.67 434.5 261.11 401 236.67"/><path class="cls-10" d="M400.85,250.94v0Z"/><line class="cls-10" x1="442.79" y1="258.61" x2="400.85" y2="271.94"/><line class="cls-10" x1="400.85" y1="271.94" x2="426.95" y2="307.88"/><line class="cls-10" x1="400.85" y1="271.94" x2="374.58" y2="307.96"/><line class="cls-10" x1="400.85" y1="271.94" x2="358.9" y2="258.63"/><polygon class="cls-11" points="400.85 246.63 371.25 262.55 384.63 294.18 414.86 290.49 425.55 264.08 400.85 246.63"/><polygon class="cls-12" points="400.85 246.63 371.25 262.55 384.63 294.18 414.86 290.49 425.55 264.08 400.85 246.63"/><polygon class="cls-13" points="400.85 254.98 390.44 268.64 390.44 285.75 413.17 288.89 416.92 266.69 400.85 254.98"/><circle class="cls-14" cx="400.85" cy="229.37" r="1.5"/><circle class="cls-14" cx="442.79" cy="258.63" r="1.5"/><circle class="cls-14" cx="426.95" cy="307.96" r="1.5"/><circle class="cls-14" cx="374.58" cy="307.96" r="1.5"/><circle class="cls-14" cx="358.91" cy="258.63" r="1.2"/><polygon class="cls-8" points="400.85 254.98 390.44 268.64 390.44 285.75 413.17 288.89 416.92 266.69 400.85 254.98"/><rect class="cls-15" x="84.5" y="310.17" width="7" height="19"/><path class="cls-4" d="M91,310.67v18H85v-18h6m1-1H84v20h8v-20Z"/><rect class="cls-16" x="95.5" y="305.17" width="7" height="24"/><path class="cls-17" d="M102,305.67v23H96v-23h6m1-1H95v25h8v-25Z"/><rect class="cls-15" x="106.5" y="294.17" width="7" height="35"/><path class="cls-4" d="M113,294.67v34h-6v-34h6m1-1h-8v36h8v-36Z"/><rect class="cls-16" x="117.5" y="307.17" width="7" height="22"/><path class="cls-17" d="M124,307.67v21h-6v-21h6m1-1h-8v23h8v-23Z"/><rect class="cls-15" x="128.5" y="298.17" width="7" height="31"/><path class="cls-4" d="M135,298.67v30h-6v-30h6m1-1h-8v32h8v-32Z"/><line class="cls-18" x1="80" y1="329.17" x2="140" y2="329.17"/><path class="cls-19" d="M467.45,244.66a1.5,1.5,0,0,0,0-3,1.5,1.5,0,0,0,0,3Z"/><path class="cls-8" d="M284.49,229.29s-.72,4.29-19.66,2.26"/><path class="cls-8" d="M284.6,233.53s-.64,3.82-16.62,2.55"/><path class="cls-8" d="M284.75,222.59s-.44,2.63-9.74,2.8"/><path class="cls-8" d="M290.59,268.3s-.44,2.63-9.74,2.8"/><path class="cls-20" d="M269.57,103.64,283.24,112s-2.28,16,1.27,27.1a229.54,229.54,0,0,0,12.16,29.51c3,6.08-1.39,9.37-1.39,9.37s-9.62,34.19-10.51,44.58.76,27.1,4.94,42.43a112.54,112.54,0,0,1,3.55,30.39s.51,6.08-22.16,9.12a95.69,95.69,0,0,1-41.16-3.67s-30.14-8-29.63-12.92,1.27-9.37,2.15-17,4.18-37.49,3.17-46.22-7.22-24.19-7.22-36-1.14-16.34,3.42-28.75,7.35-21.66,21.91-37l6.46-4.81a21.15,21.15,0,0,0,11.9.63A38.46,38.46,0,0,0,253.86,114s8.61-8.23,11.65-9.62S269.57,103.64,269.57,103.64Z"/><path class="cls-20" d="M269.57,103.55l13.68,8.36s-2.28,16,1.27,27.1a229.54,229.54,0,0,0,12.16,29.51c3,6.08-1.39,9.37-1.39,9.37s-9.62,34.19-10.51,44.58.76,27.1,4.94,42.43a112.54,112.54,0,0,1,3.55,30.39s.51,6.08-22.16,9.12a95.69,95.69,0,0,1-41.16-3.67s-30.14-8-29.63-12.92,1.27-9.37,2.15-17,4.18-37.49,3.17-46.22-7.22-24.19-7.22-36-1.14-16.34,3.42-28.75,7.35-21.66,21.91-37l6.46-4.81a21.15,21.15,0,0,0,11.9.63,38.46,38.46,0,0,0,11.78-4.81s8.61-8.23,11.65-9.62S269.57,103.55,269.57,103.55Z"/><path class="cls-20" d="M297.39,170.33s-.39,5.13-7,5.28c-5.32.12-10.8-.79-17.26-10.19s-12-20.09-10.12-32.06,4.67-14.48,7.84-18.09c2.68-3.06,8.55-5.29,12.44-3.36L279,109.3a13.35,13.35,0,0,0-10.22,4.31c-4.13,4.5-6.27,9.84-7.74,16.19a38.28,38.28,0,0,0,1,20.78c2.17,7,7.12,14.87,12.11,20.52a21.46,21.46,0,0,0,17.06,7.24C296.25,177.89,298,176.1,297.39,170.33Z"/><path class="cls-20" d="M253.86,113.94s-11.52,10.76-19.5,13-6.71-1.27-6.21-3,2-5.83,2-5.83"/><path class="cls-20" d="M293.25,288.61s.51,7.11-22.16,10.15a95.69,95.69,0,0,1-41.16-3.67S200.49,287,201,282"/><path class="cls-20" d="M256.42,179.9a18.33,18.33,0,0,1-14.4,5.92c-15.47-.24-17.42-3.17-26.51-4.09-10.15-1-15.35,3.31-17.25,1.07"/><path class="cls-8" d="M207.55,188.52c3.29-1.54,7.9-1.25,13.26,0"/><path class="cls-21" d="M379.5,62.67a1.5,1.5,0,1,1-1.5,1.5,1.5,1.5,0,0,1,1.5-1.5m0-1a2.5,2.5,0,1,0,2.5,2.5,2.5,2.5,0,0,0-2.5-2.5Z"/><path class="cls-21" d="M363,223.67a2,2,0,1,1-2,2,2,2,0,0,1,2-2m0-1a3,3,0,1,0,3,3,3,3,0,0,0-3-3Z"/><path class="cls-21" d="M146,136.67a2,2,0,1,1-2,2,2,2,0,0,1,2-2m0-1a3,3,0,1,0,3,3,3,3,0,0,0-3-3Z"/><line class="cls-1" x1="316" y1="273.17" x2="336" y2="273.17"/><line class="cls-1" x1="328" y1="277.17" x2="343" y2="277.17"/><line class="cls-1" x1="339" y1="273.17" x2="343" y2="273.17"/><ellipse class="cls-1" cx="323.5" cy="277.17" rx="1.5"/><ellipse class="cls-1" cx="317.5" cy="277.17" rx="1.5"/><circle class="cls-1" cx="260.04" cy="357.38" r="2.17" transform="matrix(0.33, -0.94, 0.94, 0.33, -163.6, 483.34)"/><path class="cls-22" d="M447,283.67a2,2,0,1,1-2,2,2,2,0,0,1,2-2m0-1a3,3,0,1,0,3,3,3,3,0,0,0-3-3Z"/><circle class="cls-23" cx="272.57" cy="16.17" r="3" transform="translate(13.83 103.41) rotate(-22.03)"/><line class="cls-24" x1="118.18" y1="231.12" x2="129.38" y2="235.91"/><line class="cls-24" x1="131.19" y1="239.49" x2="129.59" y2="251.59"/><path class="cls-22" d="M131.69,234.91h0a2,2,0,1,1-.75.15,2,2,0,0,1,.75-.15m0-1a3,3,0,1,0,2.78,1.88,3,3,0,0,0-2.78-1.88Z"/><path class="cls-22" d="M129.17,252.17h0a2,2,0,1,1-.75.15,2,2,0,0,1,.75-.15m0-1a3,3,0,1,0,2.78,1.88,3,3,0,0,0-2.78-1.88Z"/><path class="cls-22" d="M115.85,228.11h0a2,2,0,1,1-.75.15,2,2,0,0,1,.75-.15m0-1a3,3,0,1,0,2.78,1.88,3,3,0,0,0-2.78-1.88Z"/><line class="cls-25" x1="472" y1="200.17" x2="484" y2="200.17"/><line class="cls-25" x1="479" y1="204.17" x2="488" y2="204.17"/><line class="cls-1" x1="486" y1="200.17" x2="488" y2="200.17"/><ellipse class="cls-1" cx="476" cy="204.17" rx="1"/><ellipse class="cls-25" cx="473" cy="204.17" rx="1"/><path class="cls-21" d="M338,376.67a2,2,0,1,1-2,2,2,2,0,0,1,2-2m0-1a3,3,0,1,0,3,3,3,3,0,0,0-3-3Z"/><path class="cls-21" d="M151.91,288a2,2,0,1,1-2,2,2,2,0,0,1,2-2m0-1a3,3,0,1,0,3,3,3,3,0,0,0-3-3Z"/><line class="cls-1" x1="156" y1="388.17" x2="181" y2="388.17"/><line class="cls-26" x1="171" y1="392.17" x2="189" y2="392.17"/><line class="cls-26" x1="184" y1="388.17" x2="189" y2="388.17"/><ellipse class="cls-27" cx="165" cy="392.17" rx="2"/><ellipse class="cls-26" cx="158" cy="392.17" rx="2"/><line class="cls-24" x1="364.14" y1="165.71" x2="370.5" y2="168.17"/><line class="cls-24" x1="374.5" y1="168.17" x2="387.62" y2="151.36"/><path class="cls-22" d="M373,167.67a2,2,0,1,1-1,.29,2,2,0,0,1,1-.29m0-1a3,3,0,1,0,2.56,1.44,3,3,0,0,0-2.56-1.44Z"/><path class="cls-22" d="M389,147.67a2,2,0,1,1-1,.29,2,2,0,0,1,1-.29m0-1a3,3,0,1,0,2.56,1.44,3,3,0,0,0-2.56-1.44Z"/><path class="cls-22" d="M362,162.67a2,2,0,1,1-1,.29,2,2,0,0,1,1-.29m0-1a3,3,0,1,0,2.56,1.44,3,3,0,0,0-2.56-1.44Z"/><path class="cls-21" d="M433.62,176.71a1.5,1.5,0,1,1-1.39.94,1.49,1.49,0,0,1,1.39-.94m0-1a2.5,2.5,0,1,0,.94.18,2.5,2.5,0,0,0-.94-.18Z"/><path class="cls-21" d="M24,205.72a1,1,0,1,1-.93.63,1,1,0,0,1,.93-.63m0-1a2,2,0,1,0,.75.15,2,2,0,0,0-.75-.15Z"/><path class="cls-22" d="M97,178.67a2,2,0,1,1-2,2,2,2,0,0,1,2-2m0-1a3,3,0,1,0,3,3,3,3,0,0,0-3-3Z"/><circle class="cls-24" cx="222.5" cy="75.17" r="2" transform="translate(31.02 211.16) rotate(-54.05)"/><line class="cls-24" x1="221" y1="319.17" x2="204.5" y2="326.17"/><path class="cls-22" d="M202,325.67a2,2,0,1,1-1,.29,2,2,0,0,1,1-.29m0-1a3,3,0,1,0,2.57,1.45,3,3,0,0,0-2.57-1.45Z"/><path class="cls-22" d="M223,315.67a2,2,0,1,1-1,.29,2,2,0,0,1,1-.29m0-1a3,3,0,1,0,2.57,1.45,3,3,0,0,0-2.57-1.45Z"/><line class="cls-1" x1="141" y1="28.17" x2="166" y2="28.17"/><line class="cls-1" x1="158" y1="32.17" x2="173" y2="32.17"/><line class="cls-1" x1="169" y1="28.17" x2="173" y2="28.17"/><ellipse class="cls-1" cx="153.5" cy="32.17" rx="1.5"/><ellipse class="cls-1" cx="145" cy="32.17" rx="4"/><line class="cls-1" x1="200" y1="84.17" x2="212" y2="84.17"/><line class="cls-1" x1="207" y1="88.17" x2="216" y2="88.17"/><line class="cls-1" x1="214" y1="84.17" x2="216" y2="84.17"/><ellipse class="cls-1" cx="204" cy="88.17" rx="1"/><ellipse class="cls-1" cx="201" cy="88.17" rx="1"/><line class="cls-28" x1="57" y1="287.17" x2="45" y2="287.17"/><line class="cls-28" x1="50" y1="283.17" x2="41" y2="283.17"/><line class="cls-27" x1="43" y1="287.17" x2="41" y2="287.17"/><ellipse class="cls-29" cx="53" cy="283.17" rx="1"/><ellipse class="cls-26" cx="56" cy="283.17" rx="1"/><line class="cls-26" x1="327" y1="11.17" x2="352" y2="11.17"/><line class="cls-28" x1="342" y1="15.17" x2="360" y2="15.17"/><line class="cls-24" x1="355" y1="11.17" x2="360" y2="11.17"/><ellipse class="cls-1" cx="336" cy="15.17" rx="2"/><ellipse class="cls-24" cx="329" cy="15.17" rx="2"/></svg>