<svg id="Illustrations" xmlns="http://www.w3.org/2000/svg" viewBox="0 0 496 400"><defs><style>.cls-1,.cls-10,.cls-12,.cls-14,.cls-2,.cls-24,.cls-25,.cls-26,.cls-27,.cls-28,.cls-3,.cls-32,.cls-33,.cls-34,.cls-36,.cls-37,.cls-38,.cls-4,.cls-5,.cls-6,.cls-8{fill:none;}.cls-1,.cls-22,.cls-34{stroke:#de2a50;}.cls-1,.cls-10,.cls-12,.cls-14,.cls-2,.cls-24,.cls-25,.cls-26,.cls-27,.cls-28,.cls-3,.cls-32,.cls-33,.cls-34,.cls-35,.cls-36,.cls-37,.cls-38,.cls-4,.cls-5,.cls-6,.cls-8{stroke-miterlimit:10;}.cls-2,.cls-35{stroke:#dadada;}.cls-3,.cls-33,.cls-4,.cls-5,.cls-6{stroke:#51b793;}.cls-24,.cls-25,.cls-26,.cls-27,.cls-28,.cls-3,.cls-33,.cls-34,.cls-4,.cls-5,.cls-6{stroke-linecap:round;}.cls-4{stroke-dasharray:0 2.65;}.cls-5{stroke-dasharray:0 3.26;}.cls-6{stroke-dasharray:0 3.39;}.cls-7{fill:#51b793;}.cls-8{stroke:#fa7822;}.cls-9{fill:#dadada;}.cls-10{stroke:#3c3c3b;}.cls-11,.cls-35{fill:#3c3c3b;}.cls-12{stroke:#b1b1b1;}.cls-13{fill:#b1b1b1;}.cls-14,.cls-28{stroke:#5667d1;}.cls-15{fill:#de2a50;}.cls-16{fill:#fcb17f;}.cls-17{fill:#fa7822;}.cls-18{fill:#fff;}.cls-19{fill:#b9e2d4;}.cls-20{fill:#abb3e8;}.cls-21{fill:#2c41c6;}.cls-22{fill:#eb7f96;}.cls-23{fill:#fdf38b;}.cls-23,.cls-24,.cls-36{stroke:#fac02f;}.cls-25{stroke:#fcd36e;}.cls-26,.cls-32{stroke:#2c41c6;}.cls-27{stroke:#95a0e2;}.cls-29{fill:#fddf97;}.cls-30{fill:#fac02f;}.cls-31{fill:#95a0e2;}.cls-33,.cls-34,.cls-36{stroke-width:4px;}.cls-37{stroke:#50504f;}.cls-38{stroke:gray;}</style></defs><title>client-data-startup</title><path class="cls-1" d="M229.28,205.15c-.8,5-3.76,18.41-12.85,18.41-10,0-12.28-13.09-13.18-18.35"/><path class="cls-1" d="M230.55,205.15c-.88,6.34-4.13,23.41-14.1,23.41-10.94,0-13.47-16.65-14.46-23.34"/><path class="cls-2" d="M346.38,72.56a160.74,160.74,0,0,1,54.76,78.71"/><path class="cls-2" d="M349.72,303.15a144.91,144.91,0,0,1-133.54,37.57"/><path class="cls-2" d="M377.46,265.69A144.05,144.05,0,0,1,367.66,282"/><path class="cls-2" d="M310.52,67.92a145.14,145.14,0,0,1,79.43,163.45"/><path class="cls-2" d="M242,54.09a145.34,145.34,0,0,1,38.55,3.52"/><path class="cls-2" d="M111.62,150.4A144.53,144.53,0,0,1,160,84,145.44,145.44,0,0,1,230.14,55.1"/><path class="cls-2" d="M145.19,301.31A145,145,0,0,1,106.82,167"/><path class="cls-2" d="M182.77,35.34a176.62,176.62,0,0,1,184,32.95"/><path class="cls-2" d="M87.32,127A176.24,176.24,0,0,1,162,45.31"/><path class="cls-2" d="M118.35,318.48a177.19,177.19,0,0,1-42.54-82.29c-5.25-24.38-5.76-52.18.14-78.09"/><path class="cls-2" d="M280.5,372.73a175.88,175.88,0,0,1-71.27-1.5,178.42,178.42,0,0,1-18.69-5.33"/><path class="cls-2" d="M400.83,110.29A176.5,176.5,0,0,1,367.7,329.2"/><path class="cls-2" d="M154.43,348.55q-6.41-4-12.57-8.7-2.41-1.82-4.74-3.71"/><path class="cls-2" d="M123.09,298.77A160.86,160.86,0,0,1,96,248.13"/><path class="cls-2" d="M183.63,345.57a159.11,159.11,0,0,1-49.29-34.08"/><path class="cls-2" d="M209.26,354.37q-4.92-1.24-9.69-2.76"/><path class="cls-2" d="M378.63,292.27a160.62,160.62,0,0,1-101.11,64.32"/><path class="cls-2" d="M408.32,192a160.23,160.23,0,0,1-3.87,42.64q-.62,2.74-1.34,5.44"/><path class="cls-2" d="M206.68,44.6a159.36,159.36,0,0,1,77.21-1.51"/><path class="cls-2" d="M92.32,163.66a159.35,159.35,0,0,1,52.11-86.2"/><path class="cls-2" d="M101.42,262.61a160.88,160.88,0,0,1-12.83-73"/><path class="cls-2" d="M336.11,333.09a160.62,160.62,0,0,1-117.53,23.37"/><path class="cls-2" d="M400.06,250.4a160.23,160.23,0,0,1-19,38.35q-1.57,2.33-3.21,4.59"/><path class="cls-2" d="M323,57.53a161.84,161.84,0,0,1,15,9"/><line class="cls-3" x1="67.13" y1="257.54" x2="67.13" y2="257.54"/><line class="cls-4" x1="69.78" y1="257.54" x2="76.39" y2="257.54"/><line class="cls-3" x1="77.72" y1="257.54" x2="77.72" y2="257.54"/><line class="cls-5" x1="77.72" y1="254.28" x2="77.72" y2="246.12"/><line class="cls-3" x1="77.72" y1="244.49" x2="77.72" y2="244.49"/><line class="cls-6" x1="81.11" y1="244.49" x2="86.19" y2="244.49"/><line class="cls-3" x1="87.89" y1="244.49" x2="87.89" y2="244.49"/><polygon class="cls-7" points="85.89 246.19 87.59 244.49 85.89 242.8 87.33 242.8 89.03 244.49 87.33 246.19 85.89 246.19"/><line class="cls-8" x1="97.26" y1="223.04" x2="97.26" y2="240"/><polyline class="cls-8" points="57.81 253.04 57.81 223.04 116.81 223.04 116.81 226.96"/><path class="cls-9" d="M57.31,122.17a2,2,0,1,1-2,2,2,2,0,0,1,2-2m0-1a3,3,0,1,0,3,3,3,3,0,0,0-3-3Z"/><line class="cls-10" x1="294.81" y1="18.67" x2="298.48" y2="12.97"/><line class="cls-10" x1="302.81" y1="11.67" x2="322.81" y2="18.67"/><path class="cls-11" d="M300.31,9.17a2,2,0,1,1-2,2,2,2,0,0,1,2-2m0-1a3,3,0,1,0,3,3,3,3,0,0,0-3-3Z"/><path class="cls-11" d="M325.31,18.17a2,2,0,1,1-2,2,2,2,0,0,1,2-2m0-1a3,3,0,1,0,3,3,3,3,0,0,0-3-3Z"/><path class="cls-11" d="M293.31,19.17a2,2,0,1,1-2,2,2,2,0,0,1,2-2m0-1a3,3,0,1,0,3,3,3,3,0,0,0-3-3Z"/><line class="cls-12" x1="333.38" y1="150.33" x2="341.75" y2="159.18"/><line class="cls-12" x1="345.81" y1="159.67" x2="356.42" y2="153.32"/><path class="cls-13" d="M343.31,159.17a2,2,0,1,1-2,2,2,2,0,0,1,2-2m0-1a3,3,0,1,0,3,3,3,3,0,0,0-3-3Z"/><path class="cls-13" d="M358.31,150.17a2,2,0,1,1-2,2,2,2,0,0,1,2-2m0-1a3,3,0,1,0,3,3,3,3,0,0,0-3-3Z"/><path class="cls-13" d="M331.31,146.17a2,2,0,1,1-2,2,2,2,0,0,1,2-2m0-1a3,3,0,1,0,3,3,3,3,0,0,0-3-3Z"/><line class="cls-10" x1="366.88" y1="262.78" x2="363.35" y2="257.22"/><line class="cls-10" x1="359.5" y1="256.01" x2="339.35" y2="262.75"/><path class="cls-11" d="M337.31,261.17a2,2,0,1,1-2,2,2,2,0,0,1,2-2m0-1a3,3,0,1,0,3,3,3,3,0,0,0-3-3Z"/><path class="cls-11" d="M368.31,263.17a2,2,0,1,1-2,2,2,2,0,0,1,2-2m0-1a3,3,0,1,0,3,3,3,3,0,0,0-3-3Z"/><line class="cls-10" x1="246.31" y1="317.5" x2="223.16" y2="330"/><circle class="cls-10" cx="221.03" cy="331.3" r="3" transform="translate(-139.32 161.7) rotate(-31.09)"/><circle class="cls-10" cx="248.53" cy="316.24" r="3" transform="translate(-127.59 173.74) rotate(-31.09)"/><path class="cls-11" d="M362.31,253.17a2,2,0,1,1-2,2,2,2,0,0,1,2-2m0-1a3,3,0,1,0,3,3,3,3,0,0,0-3-3Z"/><line class="cls-14" x1="257.31" y1="103.17" x2="301.31" y2="103.17"/><line class="cls-14" x1="257.31" y1="94.17" x2="301.31" y2="94.17"/><line class="cls-14" x1="257.31" y1="85.17" x2="301.31" y2="85.17"/><line class="cls-14" x1="257.31" y1="76.17" x2="301.31" y2="76.17"/><polyline class="cls-1" points="259.15 108.86 265.57 99.65 269.28 105.18 277.63 84.15 285.4 96.28 296.62 70.07"/><polygon class="cls-15" points="297.62 73.32 296.46 70.42 293.57 71.58 294.31 69.86 297.2 68.7 298.36 71.6 297.62 73.32"/><rect class="cls-16" x="80.49" y="210.29" width="14" height="8"/><path class="cls-17" d="M94,210.78v7H81v-7H94m1-1H80v9H95v-9Z"/><rect class="cls-18" x="110.31" y="227.17" width="14" height="8"/><path class="cls-17" d="M123.81,227.67v7h-13v-7h13m1-1h-15v9h15v-9Z"/><rect class="cls-18" x="90.31" y="227.17" width="14" height="8"/><path class="cls-17" d="M103.81,227.67v7h-13v-7h13m1-1h-15v9h15v-9Z"/><rect class="cls-18" x="70.31" y="227.17" width="14" height="8"/><path class="cls-17" d="M83.81,227.67v7h-13v-7h13m1-1h-15v9h15v-9Z"/><rect class="cls-19" x="50.31" y="253.17" width="14" height="8"/><path class="cls-7" d="M63.81,253.67v7h-13v-7h13m1-1h-15v9h15v-9Z"/><rect class="cls-18" x="50.31" y="227.17" width="14" height="8"/><path class="cls-17" d="M63.81,227.67v7h-13v-7h13m1-1h-15v9h15v-9Z"/><rect class="cls-20" x="90.26" y="240.17" width="14" height="8"/><path class="cls-21" d="M103.76,240.67v7h-13v-7h13m1-1h-15v9h15v-9Z"/><rect class="cls-18" x="50.81" y="240.17" width="14" height="8"/><path class="cls-17" d="M64.31,240.67v7h-13v-7h13m1-1h-15v9h15v-9Z"/><line class="cls-8" x1="77.31" y1="223.04" x2="77.31" y2="226.96"/><line class="cls-8" x1="87.49" y1="218.78" x2="87.49" y2="223.04"/><path class="cls-22" d="M431.2,238.76l2-.64v-5.21h-2v-2.77h2v-2.86a6.39,6.39,0,0,1,1.63-4.76A5.7,5.7,0,0,1,438.9,221a6.25,6.25,0,0,1,5.3,2.61l-2.3,2.1A3.51,3.51,0,0,0,439,224a2.34,2.34,0,0,0-1.74.67,3.58,3.58,0,0,0-.84,2.66v2.77h5.74v2.77h-5.74V238h7.68v2.86H431.2Z"/><path class="cls-23" d="M134.6,52.94a13.33,13.33,0,0,0-5.3-2.78v9.14c6.23,2.37,8.7,5.15,8.7,9.7v.09c0,4.83-3.49,8.17-8.6,8.82v4.64h-3.72V77.9A16.57,16.57,0,0,1,116,73.49l3-3.94a13.42,13.42,0,0,0,6.79,3.67V63.66c-6-2.27-8.56-4.78-8.56-9.51v0c0-4.69,3.44-8,8.46-8.68V42.54h3.72v2.92a14.36,14.36,0,0,1,8,3.48Zm-8.84,5V50a3.76,3.76,0,0,0-3.35,3.76v0C122.41,55.58,123.16,56.7,125.76,57.95Zm3.53,7v8.31c2.28-.46,3.53-1.95,3.53-3.94v-.09C132.83,67.46,132,66.21,129.3,65Z"/><line class="cls-24" x1="330.01" y1="348.05" x2="337.87" y2="348.05"/><line class="cls-25" x1="325.53" y1="348.05" x2="327.72" y2="348.05"/><line class="cls-24" x1="321.17" y1="348.05" x2="323.36" y2="348.05"/><polyline class="cls-24" points="334.18 343.83 338.4 348.05 334.18 352.27"/><line class="cls-26" x1="330.32" y1="356.18" x2="319.79" y2="356.18"/><line class="cls-27" x1="334.18" y1="356.18" x2="332.6" y2="356.18"/><line class="cls-28" x1="340.36" y1="356.18" x2="336.29" y2="356.18"/><polyline class="cls-26" points="323.48 351.96 319.26 356.18 323.48 360.4"/><path class="cls-29" d="M304.31,339.67a5.5,5.5,0,1,1,5.5-5.52,5.51,5.51,0,0,1-5.5,5.52Z"/><path class="cls-30" d="M304.31,328.17v1a5,5,0,1,1-5,5,5,5,0,0,1,5-5l0-1m0,0h0a6,6,0,0,0,0,12h0a6,6,0,0,0,0-12Z"/><path class="cls-29" d="M293.81,354.08a10.37,10.37,0,0,1,10.33-10.42h.2A10.4,10.4,0,0,1,314.75,354l.05,12.58-20.95.09Z"/><path class="cls-30" d="M304.38,343.17v1a9.89,9.89,0,0,1,9.87,9.83l.05,12.08-19.95.08-.05-12.08a9.88,9.88,0,0,1,9.83-9.91h.2l0-1m0,0h-.25a10.87,10.87,0,0,0-10.83,10.92l.05,13.08,21.95-.09L315.25,354a10.87,10.87,0,0,0-10.87-10.83Z"/><path class="cls-31" d="M355.31,339.67a5.5,5.5,0,1,1,3.91-1.63,5.51,5.51,0,0,1-3.91,1.63Z"/><path class="cls-21" d="M355.31,328.17v1a5,5,0,1,1-3.55,1.48,5,5,0,0,1,3.55-1.48l0-1m0,0h0a6,6,0,0,0,0,12h0a6,6,0,0,0,0-12Z"/><path class="cls-31" d="M344.81,353.69a10,10,0,0,1,9.93-10h1a10,10,0,0,1,10,9.93l.05,13-20.95.09Z"/><path class="cls-21" d="M355.78,343.17v1a9.49,9.49,0,0,1,9.47,9.43l.05,12.48-19.95.08-.05-12.48a9.48,9.48,0,0,1,9.43-9.51h1l0-1m0,0h-1a10.47,10.47,0,0,0-10.43,10.52l.06,13.48,21.95-.09-.06-13.48a10.47,10.47,0,0,0-10.47-10.43Z"/><path class="cls-9" d="M282.81,289.17a3.5,3.5,0,1,1-3.5,3.5,3.5,3.5,0,0,1,3.5-3.5m0-1a4.5,4.5,0,1,0,4.5,4.5,4.5,4.5,0,0,0-4.5-4.5Z"/><path class="cls-32" d="M253.33,172.73s-2.24,2.18-2.24-14.74c0-10.51,10.3-15.45,20.95-15.45,17,0,19.17,7.63,20.34,11.65,1.65,5.67.65,18.63-1.36,17.5"/><path class="cls-32" d="M280.88,195.44l1.43,5.54s-3.81,5.28-10.28,5.28S261.76,201,261.76,201l1.48-5.71"/><line class="cls-32" x1="239.06" y1="207.98" x2="261.76" y2="200.97"/><polyline class="cls-32" points="282.31 200.97 305.98 208.26 305.98 248.64 254.9 248.64"/><path class="cls-32" d="M306,208.26s6.55,1,9.75,13.87a127.61,127.61,0,0,1,3.35,26.51H306"/><path class="cls-32" d="M256.9,164.82c7.71,0,27.18-7.22,29.59-8.13h.45c.73.73,4.24,11.75,4.06,16s-2.91,12.91-6.55,18.65-8.6,7-12.29,7-8.64-1.31-12.29-7-6.37-14.36-6.55-18.65,2.4-12,3.13-12.77S253.21,164.82,256.9,164.82Z"/><path class="cls-32" d="M285.74,201.88c-.92,1.3-5.86,7.67-13.7,7.67s-12.67-6.23-13.67-7.62"/><path class="cls-32" d="M230.55,205.15a119.66,119.66,0,0,1,11.81,4.18c4.33,2,9.64,6.66,11.36,18.32a125.16,125.16,0,0,1,1.47,21l-35.53.05H213.9l-36.38.06a125.16,125.16,0,0,1,1.41-21c1.69-11.66,7-16.39,11.31-18.36A117.52,117.52,0,0,1,202,205.22"/><path class="cls-32" d="M187.6,210.86s5.26,6,5.31,37.85"/><path class="cls-32" d="M245,210.77s-5.24,6-5.2,37.87"/><path class="cls-32" d="M225.4,198.2l10.83.93a105.32,105.32,0,0,0,4.07-23.4c.87-16.33-10.35-26.1-24.37-26.1a25.85,25.85,0,0,0-19.11,8.83c-2.91,3.39-5.16,8.18-4.39,16.86,1.44,10.85,2.06,18.84,4.23,24.64l11-1.29"/><path class="cls-32" d="M232.84,174.29a118.72,118.72,0,0,1-22.14,1.25c-.38,0-1.4-8-1.76-8-.6,0-.54,7.92-1.11,7.9-3.48-.17-6.28-.43-8-.64-.29,0-1.83-7.64-1.67-6.43,0,14.72,4.48,23.59,8,27.41h0l1,.94c.43.42.86.78,1.28,1.13s.58.46.86.68l.6.44c.28.2.55.37.82.54l.57.35.77.43.52.27.71.33.44.18.64.25.35.12.55.18.25.07.44.11.17,0,.23,0a17.31,17.31,0,0,0,1.93-.62l.3-.11c.58-.23,1.14-.49,1.68-.77l.44-.23c.53-.29,1-.59,1.54-.92l.39-.28c.41-.28.8-.57,1.19-.88l.42-.33c.51-.42,1-.85,1.47-1.3h0c5.68-5.46,8.71-19.62,8.71-27.26,0,0,.11-1.82-.36.31A28.86,28.86,0,0,1,232.84,174.29Z"/><polyline class="cls-32" points="201.99 205.22 206.74 204.26 208.13 197.54"/><polyline class="cls-32" points="224.76 197.29 226.15 204.26 230.54 205.15"/><path class="cls-33" d="M417,97.85a17.34,17.34,0,0,0,1.88-17.33"/><path class="cls-34" d="M403,70.19a17.37,17.37,0,0,0-14,27.66"/><circle class="cls-35" cx="403.02" cy="87.75" r="2.51"/><path class="cls-36" d="M418.92,80.52q-.25-.57-.55-1.12t-.56-1A17.37,17.37,0,0,0,403,70.19"/><rect class="cls-1" x="282.31" y="227.67" width="16.5" height="4"/><path class="cls-1" d="M282.31,231.67h16.5a0,0,0,0,1,0,0v7.91a3.59,3.59,0,0,1-3.59,3.59H285.9a3.59,3.59,0,0,1-3.59-3.59v-7.91A0,0,0,0,1,282.31,231.67Z"/><rect class="cls-11" x="410.26" y="77.06" width="1.74" height="18.04" transform="translate(415.56 -333.94) rotate(78.78)"/><path class="cls-9" d="M129.31,195.17a2,2,0,1,1-2,2,2,2,0,0,1,2-2m0-1a3,3,0,1,0,3,3,3,3,0,0,0-3-3Z"/><path class="cls-11" d="M96.31,174.17a2,2,0,1,1-2,2,2,2,0,0,1,2-2m0-1a3,3,0,1,0,3,3,3,3,0,0,0-3-3Z"/><path class="cls-9" d="M222.31,69.17a2,2,0,1,1-2,2,2,2,0,0,1,2-2m0-1a3,3,0,1,0,3,3,3,3,0,0,0-3-3Z"/><path class="cls-9" d="M348.31,116.17a2,2,0,1,1-2,2,2,2,0,0,1,2-2m0-1a3,3,0,1,0,3,3,3,3,0,0,0-3-3Z"/><path class="cls-11" d="M360.31,75.17a2,2,0,1,1-2,2,2,2,0,0,1,2-2m0-1a3,3,0,1,0,3,3,3,3,0,0,0-3-3Z"/><path class="cls-9" d="M434.31,172.17a2,2,0,1,1-2,2,2,2,0,0,1,2-2m0-1a3,3,0,1,0,3,3,3,3,0,0,0-3-3Z"/><path class="cls-11" d="M380.31,188.17a2,2,0,1,1-2,2,2,2,0,0,1,2-2m0-1a3,3,0,1,0,3,3,3,3,0,0,0-3-3Z"/><path class="cls-11" d="M160.31,277.17a2,2,0,1,1-2,2,2,2,0,0,1,2-2m0-1a3,3,0,1,0,3,3,3,3,0,0,0-3-3Z"/><path class="cls-11" d="M148.31,357.17a2,2,0,1,1-2,2,2,2,0,0,1,2-2m0-1a3,3,0,1,0,3,3,3,3,0,0,0-3-3Z"/><path class="cls-9" d="M393.81,242.17a2.5,2.5,0,1,1-2.5,2.5,2.5,2.5,0,0,1,2.5-2.5m0-1a3.5,3.5,0,1,0,3.5,3.5,3.5,3.5,0,0,0-3.5-3.5Z"/><path class="cls-9" d="M155.81,113.17a2.5,2.5,0,1,1-2.5,2.5,2.5,2.5,0,0,1,2.5-2.5m0-1a3.5,3.5,0,1,0,3.5,3.5,3.5,3.5,0,0,0-3.5-3.5Z"/><line class="cls-2" x1="400.31" y1="39.67" x2="375.31" y2="39.67"/><line class="cls-37" x1="385.31" y1="43.67" x2="367.31" y2="43.67"/><line class="cls-38" x1="372.31" y1="39.67" x2="367.31" y2="39.67"/><ellipse class="cls-2" cx="391.31" cy="43.67" rx="2"/><ellipse class="cls-10" cx="398.31" cy="43.67" rx="2"/><line class="cls-38" x1="206.31" y1="87.67" x2="194.31" y2="87.67"/><line class="cls-10" x1="199.31" y1="83.67" x2="190.31" y2="83.67"/><line class="cls-2" x1="192.31" y1="87.67" x2="190.31" y2="87.67"/><ellipse class="cls-38" cx="202.31" cy="83.67" rx="1"/><ellipse class="cls-2" cx="205.31" cy="83.67" rx="1"/><line class="cls-2" x1="148.37" y1="156.17" x2="136.37" y2="156.17"/><line class="cls-2" x1="141.37" y1="152.17" x2="132.37" y2="152.17"/><line class="cls-2" x1="134.37" y1="156.17" x2="132.37" y2="156.17"/><ellipse class="cls-2" cx="144.37" cy="152.17" rx="1"/><ellipse class="cls-2" cx="147.37" cy="152.17" rx="1"/><line class="cls-2" x1="186.31" y1="308.67" x2="211.31" y2="308.67"/><line class="cls-38" x1="201.31" y1="312.67" x2="219.31" y2="312.67"/><line class="cls-38" x1="214.31" y1="308.67" x2="219.31" y2="308.67"/><ellipse class="cls-2" cx="195.31" cy="312.67" rx="2"/><ellipse class="cls-10" cx="188.31" cy="312.67" rx="2"/></svg>