<svg xmlns="http://www.w3.org/2000/svg" xmlns:xlink="http://www.w3.org/1999/xlink" viewBox="0 0 784 244"><defs><style>.cls-1{fill:none;}.cls-2{fill:url(#New_Gradient_Swatch);}.cls-3{fill:url(#linear-gradient);}.cls-4,.cls-5{fill:#3c9;}.cls-12,.cls-4,.cls-6,.cls-8{opacity:0.3;}.cls-6,.cls-7{fill:#2c41c6;}.cls-8,.cls-9{fill:#e9404b;}.cls-10,.cls-11{fill:#fff032;}.cls-10,.cls-14{opacity:0.2;}.cls-12,.cls-13{fill:#fa7822;}.cls-14,.cls-15{fill:#bd0fe1;}</style><linearGradient id="New_Gradient_Swatch" x1="1656.75" y1="1420.19" x2="2254.26" y2="822.68" gradientTransform="matrix(-0.65, -0.76, -0.76, 0.65, 2502.75, 1184.32)" gradientUnits="userSpaceOnUse"><stop offset="0" stop-color="#fff032"/><stop offset="1" stop-color="#e9404b"/></linearGradient><linearGradient id="linear-gradient" x1="-33.4" y1="653.71" x2="597.07" y2="23.24" gradientUnits="userSpaceOnUse"><stop offset="0" stop-color="#3c9"/><stop offset="1" stop-color="#2c41c6"/></linearGradient></defs><title>contact-globe</title><g id="Layer_1" data-name="Layer 1"><path class="cls-1" d="M306.81,114.33a2.42,2.42,0,0,1-2.32-.44l-15.13,15.67L315,133.62Z"/><path class="cls-1" d="M308.44,112.18l53.85,7.2L357.22,82l-49,29A2.41,2.41,0,0,1,308.44,112.18Z"/><path class="cls-1" d="M367,140.53a1.91,1.91,0,0,1,.16.23l31.46-16.16-35.9-4.8,2.72,20.07A1.93,1.93,0,0,1,367,140.53Z"/><path class="cls-1" d="M435.4,105.69a1.94,1.94,0,0,1-.08-1.21l-72.15-26-5.62,3.32,5.1,37.62,36.49,4.88Z"/><path class="cls-1" d="M355.1,77.19A1.9,1.9,0,0,1,355,77l-51.82,29.24,1.89,3.57a2.41,2.41,0,0,1,2.81.63,2.38,2.38,0,0,1,.14.21l49.16-29-.51-3.77A1.93,1.93,0,0,1,355.1,77.19Z"/><path class="cls-1" d="M284.46,71,303,106l51.81-29.24a1.92,1.92,0,0,1-.17-.75Z"/><path class="cls-1" d="M303.62,112.18a2.3,2.3,0,0,1,1.13-2.19l-1.89-3.56-13.54,7.64Z"/><path class="cls-1" d="M462,62.18a1.83,1.83,0,0,1-.75-1.12l-15.05,2.16,13,3.73Z"/><path class="cls-1" d="M439.12,105.13l42.94,7.67,22.3-14.36L475.29,71.93l-15.9-4.56-21.08,36a1.89,1.89,0,0,1,.8,1.74Z"/><path class="cls-1" d="M435.93,103.5l.16-.11L415.78,67.59l-45.15,6.49-7.07,4.17,71.88,25.89A1.92,1.92,0,0,1,435.93,103.5Z"/><path class="cls-1" d="M476.06,72.15l28.61,26.09L522.19,87a2.41,2.41,0,0,1-.24-1.65Z"/><path class="cls-1" d="M521.47,74.35l2.4,9.08a2.4,2.4,0,0,1,2.82,2.76l36.2,8.74,9-7.22a2.4,2.4,0,0,1-.4-1.74Z"/><path class="cls-1" d="M409.53,53.07a2.1,2.1,0,0,1-.92,1.17l7.36,13,28.56-4.1Z"/><path class="cls-1" d="M569.7,138.78l-24.9-28.92-13.25,10.59a1.93,1.93,0,0,1,.22,1.67Z"/><path class="cls-1" d="M572.13,88l-8.81,7,20.05,4.84-8.25-11.45A2.41,2.41,0,0,1,572.13,88Z"/><path class="cls-1" d="M365.08,139.91l-2.74-20.16-53.95-7.21a2.33,2.33,0,0,1-1.26,1.66l8.25,19.49,48.26,7.63a1.9,1.9,0,0,1,1.44-1.41Z"/><path class="cls-1" d="M575.48,88.19l-.07.05L583.9,100,605,105.11l-29.1-17.37A2.4,2.4,0,0,1,575.48,88.19Z"/><polygon class="cls-1" points="621.47 114.96 606 105.72 584.22 100.46 610.73 137.22 621.47 114.96"/><path class="cls-1" d="M304.23,113.65l0,0a2.39,2.39,0,0,1-.53-1.09l-15.17,2-19.37,10.93a1.93,1.93,0,0,1,.17.92l19.63,3.11Z"/><path class="cls-1" d="M369.71,74.21,358.5,75.83a1.94,1.94,0,0,1-.05.59l4.69,1.69Z"/><path class="cls-1" d="M357.83,77.39a1.92,1.92,0,0,1-.83.41l.49,3.63,5.24-3.1-4.42-1.59A1.92,1.92,0,0,1,357.83,77.39Z"/><path class="cls-1" d="M288.63,129.81l-19.39-3.07a1.9,1.9,0,0,1-1.23,1.35l4.65,18.26Z"/><path class="cls-1" d="M269,125.17l18.61-10.5L266,117.53l1.23,6.81a1.78,1.78,0,0,1,1.76.83Z"/><path class="cls-1" d="M315.54,134.06l14.84,35.07,33.51-26.3a1.93,1.93,0,0,1-.31-1.18Z"/><path class="cls-1" d="M438,103.21l21-35.95-13.68-3.92-29.2,4.2,20.24,35.67A1.93,1.93,0,0,1,438,103.21Z"/><path class="cls-1" d="M190.07,207.14l-.76-2.19L188,206.22a1.93,1.93,0,0,1,.43,1Z"/><path class="cls-1" d="M164.74,138.17a1.91,1.91,0,0,1,.24.6l1.23-.15-.43-1.24Z"/><path class="cls-1" d="M257.47,70.71l8.43,46.48,22.48-3,14.31-8.08L284,70.95l-25.19-1.79a1.89,1.89,0,0,1-1.39,1.55Z"/><path class="cls-1" d="M165.3,132.75a2.4,2.4,0,0,1-.62.38l1.29,3.69,9.77-7.32-9.6,1.27A2.41,2.41,0,0,1,165.3,132.75Z"/><path class="cls-1" d="M189.45,204.3l76.43-76.8a1.92,1.92,0,0,1-.4-.83l-98.79,12.24Z"/><path class="cls-1" d="M166.08,137.17l.49,1.41,98.87-12.25a1.9,1.9,0,0,1,1.41-1.92l-1.24-6.82-89.18,11.83Z"/><path class="cls-1" d="M187.79,206l1.39-1.39L166.34,139l-1.31.16a1.87,1.87,0,0,1-1.14,1.82l22.21,64.64A1.93,1.93,0,0,1,187.79,206Z"/><path class="cls-1" d="M348.53,212.93,330.23,169.7l-41.61,32.65a1.93,1.93,0,0,1,.31,1.18Z"/><path class="cls-1" d="M528.39,120.35,504.63,98.68l-22.06,14.21,45.5,8.12A1.93,1.93,0,0,1,528.39,120.35Z"/><path class="cls-1" d="M214.95,206.14l57.43-59.49-4.71-18.48a1.93,1.93,0,0,1-1.54-.42l-76.55,76.92.85,2.46Z"/><path class="cls-1" d="M285.75,201.93a1.93,1.93,0,0,1,.62-.35L272.48,147l-57,59.07,69.63-2.82A1.93,1.93,0,0,1,285.75,201.93Z"/><path class="cls-1" d="M288.41,202.07l41.68-32.71-15-35.36-26.07-4.12-16.29,16.88,13.94,54.74A1.93,1.93,0,0,1,288.41,202.07Z"/><path class="cls-1" d="M362.35,215.11l20.93-19.31L366,143.67a1.93,1.93,0,0,1-1.85-.55l-33.58,26.36L348.94,213Z"/><path class="cls-1" d="M465,61.21a1.92,1.92,0,0,1-.29.56l10.78,9.83L522,85a2.35,2.35,0,0,1,1.48-1.45l-2.44-9.26Z"/><path class="cls-1" d="M431.11,50.33l30.26,9.53a1.92,1.92,0,0,1,3-.74l12.67-12.8Z"/><path class="cls-1" d="M464.41,62.08a1.93,1.93,0,0,1-2.08.28l-2.75,4.69,15.13,4.34L464.45,62Z"/><path class="cls-1" d="M526.61,86.54a2.4,2.4,0,0,1-.6,1l18.82,21.87,17.7-14.16Z"/><path class="cls-1" d="M528.67,120a1.93,1.93,0,0,1,2.65.13l13.23-10.58L525.75,87.74a2.41,2.41,0,0,1-3.27-.36l-.09-.13L504.94,98.48l23.69,21.61Z"/><path class="cls-1" d="M258.83,68.4a1.93,1.93,0,0,1,.05.41l25,1.78-4.79-9Z"/><path class="cls-1" d="M279.41,61.43l4.86,9.18,70.4,5A1.91,1.91,0,0,1,356.91,74L363,52l-54.34-.48Z"/><path class="cls-1" d="M363.34,52l-6.09,22.1a1.87,1.87,0,0,1,1.2,1.36l12.06-1.73,34.6-20.44a2.4,2.4,0,0,1-.25-.92Z"/><path class="cls-1" d="M405.29,53.61l-33.86,20,44.17-6.35L408.3,54.41a2.42,2.42,0,0,1-2.87-.6A2.39,2.39,0,0,1,405.29,53.61Z"/><path class="cls-1" d="M406.19,50.08a2.4,2.4,0,0,1,3.47,1.77l19.66-1.72-28.43-9Z"/><path class="cls-1" d="M409.68,52.2a2.42,2.42,0,0,1,0,.53L445.39,63l15.83-2.28a1.94,1.94,0,0,1,0-.51l-31.07-9.79Z"/><path class="cls-1" d="M390.21,218.41a1.92,1.92,0,0,1,.49-.3l-7.29-21.94-20.61,19,26.8,4.23A1.92,1.92,0,0,1,390.21,218.41Z"/><path class="cls-1" d="M161.65,132.17,86.59,170.63l-4.73,4.87a2,2,0,0,1,.21.3l72.82-33.07,7.26-10a1.94,1.94,0,0,1-.5-.59Z"/><polygon class="cls-1" points="268.58 224.79 251.82 244 298.68 244 293 224.53 268.58 224.79"/><path class="cls-1" d="M351.45,225.29a2.4,2.4,0,0,1-.57-1.38l-57.51.61L299,244h37.49l15.09-18.53A2.39,2.39,0,0,1,351.45,225.29Z"/><path class="cls-1" d="M199,225.53a2.41,2.41,0,0,1-1.23,2l7.74,16.5h45.82l16.75-19.2Z"/><polygon class="cls-1" points="185.58 244 203 244 195.51 227.55 185.58 244"/><path class="cls-1" d="M196,227.73,203.39,244h1.76l-7.67-16.36A2.42,2.42,0,0,1,196,227.73Z"/><path class="cls-1" d="M355.63,224.28a2.32,2.32,0,0,1-1.34,1.63l6.77,18.1h4.17l16.61-15.41Z"/><path class="cls-1" d="M194.77,227a2.41,2.41,0,0,1-.48-.89L172,231l-8.18,13h21.34l10-16.64A2.41,2.41,0,0,1,194.77,227Z"/><polygon class="cls-1" points="462.6 244 475.54 244 450.59 239.9 462.6 244"/><path class="cls-1" d="M465,169.26l0,0-71.81,49.69a1.93,1.93,0,0,1,.19,1.41l55.23,18.88L477.7,244h11.88l-22.73-74.12A1.93,1.93,0,0,1,465,169.26Z"/><polygon class="cls-1" points="382.27 228.66 365.74 244 397.79 244 394.18 230.62 382.27 228.66"/><polygon class="cls-1" points="394.57 230.68 398.16 244 461.51 244 448.5 239.55 394.57 230.68"/><path class="cls-1" d="M93.23,233.32l0-.06-7.44,4.92L81.51,244h8.76l3.62-10.19A1.92,1.92,0,0,1,93.23,233.32Z"/><path class="cls-1" d="M23.77,230a2.41,2.41,0,0,1-1.69,3.92L22.16,244h9.75l26.75-46.67Z"/><path class="cls-1" d="M21.35,233.85,18.2,244h3.61l-.07-10.09A2.44,2.44,0,0,1,21.35,233.85Z"/><polygon class="cls-1" points="69.66 187.03 59.54 196.51 32.32 244 42.31 244 70.3 194.31 69.66 187.03"/><polygon class="cls-1" points="112.58 244 163.42 244 171.53 231.07 112.58 244"/><polygon class="cls-1" points="17.43 244 17.83 244 19.84 237.5 17.43 244"/><polygon class="cls-1" points="42.71 244 74.63 244 70.35 194.94 42.71 244"/><path class="cls-1" d="M93.28,227.25,80.7,178.66a1.94,1.94,0,0,1-1.1-.14l-8.94,15.87L75,244h1.34l9.18-6.07Z"/><path class="cls-1" d="M94.22,233.93,90.64,244h10.62l-5.77-10.19A1.93,1.93,0,0,1,94.22,233.93Z"/><path class="cls-1" d="M185.39,209a2,2,0,0,1-.29-.28,1.92,1.92,0,0,1-.34-.6L96.6,231.73a1.93,1.93,0,0,1-.64,1.8l-.16.12L101.67,244h9.26l60.86-13.35Z"/><polygon class="cls-1" points="76.96 244 81.08 244 84.91 238.74 76.96 244"/><path class="cls-1" d="M474.18,170.89l-6-2.1a1.84,1.84,0,0,1-1,1L489.94,244H507.6l4.61-3.28Z"/><path class="cls-1" d="M351.9,225.69,337,244h23.69L354,226A2.42,2.42,0,0,1,351.9,225.69Z"/><polygon class="cls-1" points="731.83 238.17 737.75 244 755.72 244 753.49 240.19 731.83 238.17"/><path class="cls-1" d="M67.68,181.26,24.91,228.44l34.35-32.15,8.56-14.94Z"/><path class="cls-1" d="M70,186.73l.61,7,8.69-15.43-.18-.15Z"/><polygon class="cls-1" points="508.2 244 513.99 244 512.38 241.03 508.2 244"/><path class="cls-1" d="M70.75,181.19a2.4,2.4,0,0,1-1.2.55l.4,4.55,8.92-8.34a1.92,1.92,0,0,1,1.82-3.09l.34-1.37-9.64,4.94A2.41,2.41,0,0,1,70.75,181.19Z"/><path class="cls-1" d="M759.75,242.91l.16,1.09h.41l-.42-1.13Z"/><path class="cls-1" d="M68.12,181.53l-8,13.93,9.49-8.88-.42-4.83A2.42,2.42,0,0,1,68.12,181.53Z"/><path class="cls-1" d="M164.53,137.89l1.13-.85-1.32-3.79a2.41,2.41,0,0,1-1.9-.28l-6.9,9.46,5.73-2.6a1.93,1.93,0,0,1,3.26-1.94Z"/><path class="cls-1" d="M160.46,96.57l3.19,31.94a2.41,2.41,0,0,1,1.9.83v0l78.27-56.83L162,94.35a1.91,1.91,0,0,1-1.54,2.22Z"/><path class="cls-1" d="M706.74,163.59l-33.86-21.91,7.91,7.75a1.93,1.93,0,0,1,3,2.21Z"/><polygon class="cls-1" points="286.87 47.55 366.19 31.32 336.85 33.56 286.87 47.55"/><path class="cls-1" d="M276.07,50.58a2.41,2.41,0,0,1,0,.32l32.46.29,57.66-19.51L282.09,48.89Z"/><path class="cls-1" d="M757.39,242.13a2.4,2.4,0,0,1-.58-1.63l-2.9-.27,2.2,3.77h3.45l-.16-1A2.41,2.41,0,0,1,757.39,242.13Z"/><path class="cls-1" d="M567.06,204.36a1.93,1.93,0,0,1-.7.38L574.41,244h56.71l-63.77-39.94A1.93,1.93,0,0,1,567.06,204.36Z"/><path class="cls-1" d="M567.56,202.1a1.94,1.94,0,0,1,0,1.66L631.77,244h2.17l-31.43-61.58Z"/><path class="cls-1" d="M564.33,204.15h0l-6,4.27L524.57,244h49.48l-8-39.18A1.93,1.93,0,0,1,564.33,204.15Z"/><polygon class="cls-1" points="512.67 240.83 514.39 244 524.09 244 556.82 209.48 512.67 240.83"/><path class="cls-1" d="M718.11,236.9a1.92,1.92,0,0,1-.63,1.11h0l4.21,6h15.58l-6-5.88Z"/><polygon class="cls-1" points="613.57 176.2 602.81 182.25 634.33 244 655.87 244 637.41 185.91 613.57 176.2"/><path class="cls-1" d="M716.7,238.41l.9,5.59h1.16l-2-5.59Z"/><path class="cls-1" d="M717,238.29l2.09,5.71h2.12l-4.07-5.78Z"/><polygon class="cls-1" points="671.87 199.95 637.84 186.08 656.24 244 691.31 244 701.47 224.53 671.87 199.95"/><path class="cls-1" d="M714.63,235.45l-12.88-10.69-10,19.24h9l13.7-6.76A1.93,1.93,0,0,1,714.63,235.45Z"/><path class="cls-1" d="M714.75,237.81a1.92,1.92,0,0,1-.18-.25L701.51,244h15.72l-.89-5.53A1.93,1.93,0,0,1,714.75,237.81Z"/><path class="cls-1" d="M389.54,219.75l-27.07-4.27-7.3,6.73a2.41,2.41,0,0,1,.52,1.72l26.47,4.35,7.79-7.23A1.93,1.93,0,0,1,389.54,219.75Z"/><path class="cls-1" d="M705.26,215.7a2.41,2.41,0,0,1-.46-2.33l-31.85-13,28.68,23.81,4.19-8A2.39,2.39,0,0,1,705.26,215.7Z"/><path class="cls-1" d="M392.14,221.69l2.32,8.62,52,8.56-53.26-18.2a1.87,1.87,0,0,1-1.09,1Z"/><path class="cls-1" d="M708.68,216a2.41,2.41,0,0,1-.51.33l7.48,18.41a1.92,1.92,0,0,1,2.5,1.85l12.73,1.19-22.18-21.8Z"/><path class="cls-1" d="M706.14,216.33l-4.23,8.1,12.94,10.74.1-.11a1.93,1.93,0,0,1,.38-.25l-7.49-18.4A2.42,2.42,0,0,1,706.14,216.33Z"/><path class="cls-1" d="M632.54,167.49a1.92,1.92,0,0,1-.51.31l5.67,17.85L671,199.21l-38.33-31.82Z"/><path class="cls-1" d="M705.46,212.34,661.54,157.2l-28.37,8.44a1.93,1.93,0,0,1-.3,1.48l39.18,32.53L704.93,213A2.42,2.42,0,0,1,705.46,212.34Z"/><polygon class="cls-1" points="757.6 238.39 713.63 171.34 742.76 221.15 757.6 238.39"/><path class="cls-1" d="M753.7,239.86l3.15.29a2.4,2.4,0,0,1,.68-1.31l-13.78-16Z"/><path class="cls-1" d="M707.79,164.54,683.67,152a1.93,1.93,0,0,1-.24.3l25.41,29.52.83-13.89a2.4,2.4,0,0,1-1.9-3.35Z"/><polygon class="cls-1" points="707.86 163.89 612.8 82.83 671.62 140.45 707.86 163.89"/><path class="cls-1" d="M629.81,167.29a1.9,1.9,0,0,1-.12-.17L614,176l23.31,9.5-5.58-17.57A1.93,1.93,0,0,1,629.81,167.29Z"/><path class="cls-1" d="M741.49,219.67l-30.42-52a2.4,2.4,0,0,1-1,.24l-.85,14.25Z"/><path class="cls-1" d="M451.39,133.46l-25.76,23.76,39,10.13a1.83,1.83,0,0,1,1-1.09L453.7,134A2.41,2.41,0,0,1,451.39,133.46Z"/><path class="cls-1" d="M468.11,167a1.93,1.93,0,0,1,.22,1.47l5.6,2-3-5.5Z"/><polygon class="cls-1" points="474.68 171.07 512.5 240.52 558.07 208.16 563.62 202.31 474.68 171.07"/><path class="cls-1" d="M454,133.92l11.91,32.21a1.93,1.93,0,0,1,2,.58l2.86-2.09Z"/><path class="cls-1" d="M464.55,167.68,425.32,157.5,383.69,195.9,391,218a1.93,1.93,0,0,1,1.91.61l0,0,71.81-49.69A1.93,1.93,0,0,1,464.55,167.68Z"/><path class="cls-1" d="M625.94,108.33a2.42,2.42,0,0,1,.28,2.74l43.92,28.42-59.51-58.3,0,0a2.42,2.42,0,0,1-.35.25l12.94,26.21A2.41,2.41,0,0,1,625.94,108.33Z"/><path class="cls-1" d="M563.9,202.52l-4.35,4.58,4.57-3.24A1.93,1.93,0,0,1,563.9,202.52Z"/><path class="cls-1" d="M629.45,165.41l-26.35-11.58-6.18,12.8a2.37,2.37,0,0,1,1.09,2.84l15.54,6.33,16-9A1.93,1.93,0,0,1,629.45,165.41Z"/><path class="cls-1" d="M594.18,170.6,565.33,201a1.93,1.93,0,0,1,1.94.61,1.88,1.88,0,0,1,.12.17l35-19.68-5.7-11.17A2.41,2.41,0,0,1,594.18,170.6Z"/><path class="cls-1" d="M597.29,170.56a2.41,2.41,0,0,1-.33.23l5.69,11.15L613.16,176l-15.28-6.23A2.41,2.41,0,0,1,597.29,170.56Z"/><path class="cls-1" d="M593.87,170.31a2.41,2.41,0,0,1-.54-2l-48.09-12.48,19.82,45,28.86-30.44Z"/><polygon class="cls-1" points="499.58 143.96 471.22 164.72 474.42 170.61 563.88 202.03 564.8 201.06 544.81 155.7 499.58 143.96"/><path class="cls-1" d="M709.15,182.66l-1.74,29.07a2.4,2.4,0,0,1,1.52,4l22.49,22.1,21.84,2-10.8-18.46Z"/><path class="cls-1" d="M257.37,41.71a2.16,2.16,0,0,1-1.31-1L188.32,79,257,56.35Z"/><path class="cls-1" d="M161.91,94l82.72-22.06L256.9,63l.14-6.32-70.3,23.12-24.88,14Z"/><polygon class="cls-1" points="157.64 90.45 93.34 140.97 138.92 109.22 157.64 90.45"/><path class="cls-1" d="M272.13,49.22a2.39,2.39,0,0,1,3.66.6L282,48.55,335.05,33.7l-74.58,5.69a2.41,2.41,0,0,1-.3,1.17L272,49.36S272.07,49.26,272.13,49.22Z"/><path class="cls-1" d="M271.65,52.33a2.39,2.39,0,0,1-.18-.35l-14.08,4.63-.14,6.17Z"/><path class="cls-1" d="M582.16,84.44l40,24.08a2.18,2.18,0,0,1,.75-.69L609.94,81.61A2.39,2.39,0,0,1,606.69,80Z"/><path class="cls-1" d="M158.41,95.63a1.94,1.94,0,0,1,3.15-2.22,1.9,1.9,0,0,1,.12.17L185,80.41l-22.85,7.51a2.41,2.41,0,0,1-3.92,2.41l-17.71,17.74Z"/><path class="cls-1" d="M367.32,142.44a1.83,1.83,0,0,1-1,1.11l17.28,52,41.35-38.15Z"/><path class="cls-1" d="M70.75,177.52,83.1,165.14l4.54-18.21-.26-.1L70.49,177.33Z"/><path class="cls-1" d="M137.51,110.63l-47,32.78A2.41,2.41,0,0,1,88,147l-4.4,17.65Z"/><path class="cls-1" d="M67.33,180.93a2.42,2.42,0,0,1,2.85-3.77l16.89-30.51h0L24.61,228.24,67.42,181Z"/><path class="cls-1" d="M271.75,49.63,260,40.87a2.44,2.44,0,0,1-.35.37,2.41,2.41,0,0,1-1.93.55l-.32,14.44,14-4.59A2.42,2.42,0,0,1,271.75,49.63Z"/><path class="cls-1" d="M510.69,42.38c0-.06,0-.12.06-.17L492.5,34.26v0l10.45,6.63Z"/><path class="cls-1" d="M507.31,43.68,514.17,48l-.7-2.66a2.39,2.39,0,0,1-2.83-2Z"/><path class="cls-1" d="M606.62,79.64a2.43,2.43,0,0,1,.09-.95L515.22,44l0,.08L581.7,84.16Z"/><path class="cls-1" d="M502,40.73l-9.7-6.15a2.4,2.4,0,0,1-3.51.39l-2.71,2.74Z"/><path class="cls-1" d="M565.45,80.55l-50.56-36a2.25,2.25,0,0,1-1.07.75l.8,3Z"/><path class="cls-1" d="M370.9,30.79l23.64.43-5.89-9.88a2.42,2.42,0,0,1-2.92-.58s-.07-.1-.1-.15l-14.93,9.44A1.92,1.92,0,0,1,370.9,30.79Z"/><path class="cls-1" d="M367,30.91a1.93,1.93,0,0,1,3.4-1.24l.06.09,14.93-9.43a2.38,2.38,0,0,1-.14-.32l-46.7,13.07Z"/><path class="cls-1" d="M485.66,37.63l2.87-2.9h0a2.4,2.4,0,0,1-.57-1.45L460,32.77Z"/><polygon class="cls-1" points="384.64 19.82 262.52 38.88 336.79 33.21 384.64 19.82"/><path class="cls-1" d="M455.89,32.34l-66-12.53a2.41,2.41,0,0,1-.76,1.21,2.38,2.38,0,0,1-.2.14l6,10.07Z"/><polygon class="cls-1" points="487.34 32.91 394.17 20.26 457.98 32.38 487.34 32.91"/><path class="cls-1" d="M158.88,96.18,87.35,169.84l74.14-38a2.39,2.39,0,0,1,1.81-3.32L160.11,96.6A1.92,1.92,0,0,1,158.88,96.18Z"/><path class="cls-1" d="M576.17,85.53a2.42,2.42,0,0,1-.1,1.91l30.06,17.95,15.67,3.79a2.41,2.41,0,0,1,.14-.36L581.63,84.53Z"/><path class="cls-1" d="M623.22,112.15l-1.29,2.67,11.16,6.66-7.63-9.58A2.41,2.41,0,0,1,623.22,112.15Z"/><path class="cls-1" d="M621.72,109.52,607.15,106l14.47,8.64L622.9,112a2.36,2.36,0,0,1-1.17-2.48Z"/><path class="cls-1" d="M626,111.37a2.44,2.44,0,0,1-.29.31L634,122l46.54,27.78.06-.08-9.15-9Z"/><path class="cls-1" d="M706,211.95,682.6,152.77a1.9,1.9,0,0,1-2.34-1.14l-18.36,5.46,43.83,55A2.42,2.42,0,0,1,706,211.95Z"/><path class="cls-1" d="M707.06,211.71l1.76-29.43-25.65-29.79a1.94,1.94,0,0,1-.25.15l23.45,59.17A2.4,2.4,0,0,1,707.06,211.71Z"/><path class="cls-1" d="M521.37,74,571.6,85.64a2.4,2.4,0,0,1,.25-.53l-1-.74L514.74,48.81Z"/><path class="cls-1" d="M510.63,42.73l-6.88-1.31,3.07,1.95,3.8-.33A2.41,2.41,0,0,1,510.63,42.73Z"/><path class="cls-1" d="M571,84.07l1.09.69a2.35,2.35,0,0,1,3.65,0,2.43,2.43,0,0,1,.29.42l5.15-.93-64.3-38.73Z"/><polygon class="cls-1" points="485.78 38.01 477.98 45.88 506.24 43.42 502.81 41.24 485.78 38.01"/><path class="cls-1" d="M506.73,43.73l-29.13,2.54-13,13.09a1.92,1.92,0,0,1,.43,1.51l55.93,13L514.3,48.53Z"/><path class="cls-1" d="M680.16,151.29a1.94,1.94,0,0,1,.15-1.22l-45.73-27.3,27.09,34Z"/><path class="cls-1" d="M451.14,133.2a2.41,2.41,0,0,1-.53-1.65l-51.41-6.88L367.3,141.07a1.93,1.93,0,0,1,.11,1l57.81,15Z"/><path class="cls-1" d="M528.28,122.51a1.93,1.93,0,0,1-.27-1.16l-45.87-8.19-27,17.37a2.41,2.41,0,0,1,.25,1.59l44.1,11.45Z"/><path class="cls-1" d="M499.14,143.85l-43.82-11.37a2.18,2.18,0,0,1-1,1.25L471,164.41Z"/><path class="cls-1" d="M390.18,221.31l-7.59,7,11.49,1.89-2.28-8.47A1.93,1.93,0,0,1,390.18,221.31Z"/><polygon class="cls-1" points="395.16 31.59 400.61 40.72 430.23 50.05 477.43 45.93 485.36 37.93 457.95 32.73 395.16 31.59"/><path class="cls-1" d="M451.66,129.72l-13.63-23a1.87,1.87,0,0,1-2.46-.71l-35.81,18.4,50.92,6.81a2.4,2.4,0,0,1,.78-1.34A2.36,2.36,0,0,1,451.66,129.72Z"/><path class="cls-1" d="M454.87,130.12l.09.13,26.67-17.17-42.57-7.6a1.93,1.93,0,0,1-.61,1l-.13.09,13.63,23A2.42,2.42,0,0,1,454.87,130.12Z"/><path class="cls-1" d="M530.55,123.35a1.94,1.94,0,0,1-2.07-.55l-28.54,20.89,44.68,11.6Z"/><path class="cls-1" d="M630,164.56,610.78,137.9l-7.54,15.62,26.34,11.57A1.92,1.92,0,0,1,630,164.56Z"/><polygon class="cls-1" points="610.55 137.58 583.69 100.33 562.97 95.32 545.07 109.64 570.44 139.11 602.92 153.38 610.55 137.58"/><path class="cls-1" d="M596.6,166.49l6.18-12.79-31.81-14,23.3,27.07A2.41,2.41,0,0,1,596.6,166.49Z"/><path class="cls-1" d="M593.42,168A2.4,2.4,0,0,1,594,167L570.22,139.4l-38.59-17a1.92,1.92,0,0,1-.43.54,2,2,0,0,1-.32.23l14.18,32.19Z"/><path class="cls-1" d="M632.75,164.76a1.92,1.92,0,0,1,.32.55l28.23-8.4-27.59-34.64-11.94-7.13L611,137.54l19.34,26.82A1.93,1.93,0,0,1,632.75,164.76Z"/><path class="cls-1" d="M163.56,141.06a1.93,1.93,0,0,1-1.45-.22L96,230.61a1.65,1.65,0,0,1,.53.77l88.15-23.6a1.88,1.88,0,0,1,1.11-2.09Z"/><path class="cls-1" d="M161.63,140.45a1.94,1.94,0,0,1-.21-.31L155.13,143,93.66,227.33l.73,2.82a1.93,1.93,0,0,1,1.31.26l66.12-89.78A1.93,1.93,0,0,1,161.63,140.45Z"/><path class="cls-1" d="M188.49,207.56a1.91,1.91,0,0,1-1,1.58l6.91,15.18a2.32,2.32,0,0,1,1.22-1.15l-5.46-15.68Z"/><path class="cls-1" d="M187.2,209.29a1.94,1.94,0,0,1-1.51-.1l-13.41,21.36,21.94-4.81a2.43,2.43,0,0,1,0-.93Z"/><path class="cls-1" d="M86.34,237.37,93,233a1.92,1.92,0,0,1,1.06-2.74l-.66-2.54Z"/><path class="cls-1" d="M85.61,171.13l-4.17,2.13L81,174.93a1.91,1.91,0,0,1,.58.32Z"/><path class="cls-1" d="M154.47,143.3,82.22,176.12A1.92,1.92,0,0,1,81,178.57l12.5,48.32Z"/><path class="cls-1" d="M288.89,203.87a1.88,1.88,0,0,1-1.17,1.32l5.54,19,57.61-.61a2.37,2.37,0,0,1,1.31-2l-3.49-8.26Z"/><path class="cls-1" d="M349.1,213.37l3.41,8.05a2.41,2.41,0,0,1,2.42.53l7.09-6.54Z"/><path class="cls-1" d="M285.88,205l-17,19.48,24-.26-5.51-18.89A1.93,1.93,0,0,1,285.88,205Z"/><path class="cls-1" d="M285.54,204.66a1.93,1.93,0,0,1-.45-1l-70,2.83-16.69,17.29,0,0a2.4,2.4,0,0,1,.57,1.38l69.4-.74,17.2-19.71Z"/><path class="cls-1" d="M190.56,207.48,196,223.06a2.41,2.41,0,0,1,2.17.48l16.44-17Z"/><path class="cls-1" d="M165.77,129.65a2.39,2.39,0,0,1,.31.79l10.22-1.36,79-59.21a1.91,1.91,0,0,1-.17-.35l-10.35,2.76Z"/><path class="cls-1" d="M255.52,70.14,177,129l88.54-11.75-8.42-46.46A1.93,1.93,0,0,1,255.52,70.14Z"/><path class="cls-1" d="M275,53.1l4.25,8,28.32-9.59-31.44-.28A2.3,2.3,0,0,1,275,53.1Z"/><path class="cls-1" d="M276,50.24l1.24-.35-1.28.26Z"/><path class="cls-1" d="M71,177.77a2.41,2.41,0,0,1,.23.33L81.14,173l1.8-7.21L71,177.77Z"/><path class="cls-1" d="M367.21,31.72,309.65,51.2l53.42.47,5.22-18.93a1.82,1.82,0,0,1-1.08-1Z"/><path class="cls-1" d="M271.87,52.63v0L257.25,63.22l-.08,3.7a1.87,1.87,0,0,1,1.55,1.14l20.19-6.83-4.22-8A2.41,2.41,0,0,1,271.87,52.63Z"/><path class="cls-1" d="M139.15,109.49,83.42,165.32l-1.87,7.49,4.82-2.47,72.25-74.4h0Z"/><path class="cls-1" d="M370.23,32.4a1.93,1.93,0,0,1-1.6.43l-5.19,18.84,41.42.37a2.41,2.41,0,0,1,.83-1.64,2.37,2.37,0,0,1,.2-.14L400.37,41l-29.62-9.33A1.92,1.92,0,0,1,370.23,32.4Z"/><path class="cls-1" d="M370.89,31.14a1.93,1.93,0,0,1,0,.2l29.25,9.22-5.36-9Z"/><path class="cls-1" d="M255,69.17a1.92,1.92,0,0,1,1.77-2.25l.07-3.44-11.31,8.21Z"/><path class="cls-2" d="M19.84,237.5l-2,6.5h.37l3.15-10.15a2.44,2.44,0,0,0,.39.06L21.81,244h.35l-.07-10.09A2.41,2.41,0,0,0,23.77,230l34.89-32.65L31.91,244h.41l27.22-47.49L69.66,187l.63,7.28L42.31,244h.4l27.64-49.06L74.63,244H75l-4.32-49.61,8.94-15.87a1.94,1.94,0,0,0,1.1.14l12.58,48.59L85.5,237.93,76.32,244H77l7.95-5.26L81.08,244h.44l4.24-5.81,7.44-4.92,0,.06a1.92,1.92,0,0,0,.66.49L90.27,244h.37l3.58-10.07a1.93,1.93,0,0,0,1.27-.12L101.26,244h.4L95.8,233.64l.16-.12a1.93,1.93,0,0,0,.64-1.8l88.15-23.6a1.92,1.92,0,0,0,.34.6,2,2,0,0,0,.29.28l-13.59,21.65L110.93,244h1.64l59-12.93L163.42,244h.42L172,231l22.27-4.89a2.31,2.31,0,0,0,.93,1.28l-10,16.64h.41l9.93-16.45L203,244h.39L196,227.73a2.42,2.42,0,0,0,1.49-.08L205.15,244h.39l-7.74-16.5a2.41,2.41,0,0,0,1.23-2l69.09-.74L251.36,244h.46l16.76-19.21,24.42-.26L298.68,244H299l-5.68-19.47,57.51-.61a2.12,2.12,0,0,0,.75,1.55L336.54,244H337l14.91-18.31A2.42,2.42,0,0,0,354,226l6.72,18h.38l-6.77-18.1a2.32,2.32,0,0,0,1.34-1.63l26.2,4.31L365.23,244h.52l16.53-15.34,11.91,2L397.79,244h.36l-3.59-13.32,53.93,8.87,13,4.45h1.08l-12-4.1,25,4.1h2.16l-29.11-4.79-55.23-18.88a1.93,1.93,0,0,0-.19-1.41L465,169.23l0,0a1.93,1.93,0,0,0,1.86.62L489.58,244h.37l-22.76-74.22a1.84,1.84,0,0,0,1-1l6,2.1,38,69.83L507.6,244h.61l4.18-3,1.61,3h.4l-1.73-3.17,44.15-31.35L524.09,244h.49l33.73-35.57,6-4.27h0a1.93,1.93,0,0,0,1.69.66l8,39.18h.36l-8.05-39.26a1.9,1.9,0,0,0,1-.68L631.11,244h.65l-64.24-40.24a1.94,1.94,0,0,0,0-1.66l35-19.68L633.94,244h.39l-31.52-61.75,10.76-6.06,23.84,9.72L655.87,244h.37l-18.4-57.92,34,13.87,29.6,24.57L691.31,244h.4l10-19.24,12.88,10.69a1.93,1.93,0,0,0-.21,1.79L700.72,244h.8l13.06-6.45a1.86,1.86,0,0,0,1.78.92l.89,5.53h.36l-.9-5.59h0l2,5.59h.38L717,238.29l.14-.07,4.07,5.78h.43l-4.21-6h0a1.92,1.92,0,0,0,.63-1.11l13.16,1.23,6,5.88h.5l-5.93-5.83,21.66,2,2.23,3.81h.41l-2.2-3.77,2.9.27a2.4,2.4,0,0,0,2.6,2.46l.16,1h.34l-.16-1.09.15,0,.42,1.13H761l-.63-1.34a2.42,2.42,0,0,0-2.36-4.23l-46.58-71,.11-.08a2.42,2.42,0,0,0-3.16-3.67l-.13.14L611,80.81a2.42,2.42,0,1,0-4.14-2.45l-91.5-34.67a2.42,2.42,0,0,0-4.46-1.81l-18.25-7.94a2.41,2.41,0,1,0-4.64-1.3L390,19.34a2.42,2.42,0,1,0-4.82,0L260.41,38.86a2.4,2.4,0,0,0-.51-1,2.42,2.42,0,0,0-4,2.61L186.6,79.52l-24.54,8.07a2.4,2.4,0,0,0-.39-.66,2.42,2.42,0,0,0-3.83,2.93L90.18,143a2.42,2.42,0,1,0-3.39,3.43l-63.58,83a2.41,2.41,0,1,0-2.33,4.21L17.05,244h.38Zm39.42-41.21L24.91,228.44l42.77-47.18.14.09Zm.88-.82,8-13.93a2.42,2.42,0,0,0,1.08.23l.42,4.83Zm10.47-1.7-.61-7,9.12-8.53.18.15Zm10.08-18.92a1.92,1.92,0,0,0-1.82,3.09L70,186.28l-.4-4.55a2.4,2.4,0,0,0,1.84-3.32L81,173.48ZM162,94.35l81.84-21.83-78.27,56.83v0a2.41,2.41,0,0,0-1.9-.83l-3.19-31.94A1.91,1.91,0,0,0,162,94.35ZM366.23,31.67,308.58,51.19l-32.46-.29a2.41,2.41,0,0,0,0-.32l6-1.69ZM286.87,47.55l50-14,29.33-2.24Zm396.65,102.1a1.94,1.94,0,0,0-2.72-.21l-7.91-7.75,33.86,21.91-22.9-11.95A1.93,1.93,0,0,0,683.52,149.65Zm-522.25-9.82-5.73,2.6,6.9-9.46a2.41,2.41,0,0,0,1.9.28l1.32,3.79-1.13.85a1.93,1.93,0,0,0-3.26,1.94Zm-6.38,2.9L82.07,175.8a2,2,0,0,0-.21-.3l4.73-4.87,75.07-38.46a1.94,1.94,0,0,0,.5.59Zm417-55-9,7.22-36.2-8.74a2.4,2.4,0,0,0-2.82-2.76l-2.4-9.08,50,11.63A2.4,2.4,0,0,0,571.92,87.72Zm12,12.3-8.49-11.77.07-.05a2.4,2.4,0,0,0,.4-.45L605,105.11Zm22.1,5.7L621.47,115l-10.75,22.26-26.51-36.76Zm-22.62-5.83L563.32,95l8.81-7a2.41,2.41,0,0,0,3,.45Zm-51.83,20.57,13.25-10.59,24.9,28.92-37.93-16.66A1.93,1.93,0,0,0,531.55,120.45ZM363.63,141.32l-48.26-7.63-8.25-19.49a2.33,2.33,0,0,0,1.26-1.66l53.95,7.21,2.74,20.16a1.9,1.9,0,0,0-1.44,1.41Zm.26,1.52-33.51,26.3-14.84-35.07,48,7.6A1.93,1.93,0,0,0,363.89,142.84Zm-95.26-15.11a1.93,1.93,0,0,0,.61-1l19.39,3.07-16,16.54L268,128.09A1.93,1.93,0,0,0,268.63,127.73Zm-1.43-3.39L266,117.53l21.6-2.86L269,125.17a1.78,1.78,0,0,0-1.76-.83Zm2.1,2.05a1.93,1.93,0,0,0-.17-.92l19.37-10.93,15.17-2a2.39,2.39,0,0,0,.53,1.09l0,0-15.3,15.85Zm93.44-48.06-5.24,3.1L357,77.8a1.88,1.88,0,0,0,1.32-1.06Zm-4.3-1.92a1.94,1.94,0,0,0,.05-.59l11.22-1.61-6.58,3.89Zm3.85,43-53.85-7.2a2.41,2.41,0,0,0-.25-1.22l49-29Zm-5.12-37.76-49.16,29a2.38,2.38,0,0,0-.14-.21,2.41,2.41,0,0,0-2.81-.63l-1.89-3.57L355,77a1.9,1.9,0,0,0,.12.17,1.93,1.93,0,0,0,1.55.66ZM303,106,284.46,71l70.18,5a1.92,1.92,0,0,0,.17.75Zm1.74,4a2.3,2.3,0,0,0-1.13,2.19l-14.3,1.9,13.54-7.64Zm-.26,3.9a2.42,2.42,0,0,0,2.32.44L315,133.62l-25.61-4.05Zm58.22,5.9,35.9,4.8-31.46,16.16a1.83,1.83,0,0,0-1.72-.89Zm0-.36-5.1-37.62,5.62-3.32,72.15,26a1.94,1.94,0,0,0,.08,1.21l-36.26,18.63Zm.91-41.18,7.07-4.17,45.15-6.49,20.31,35.79-.16.11a1.92,1.92,0,0,0-.49.65Zm45-24a2.1,2.1,0,0,0,.92-1.17l35,10L416,67.21Zm7.55,13.3,29.2-4.2L459,67.27l-21,35.95a1.93,1.93,0,0,0-1.62,0Zm30.06-4.32,15.05-2.16a1.83,1.83,0,0,0,.75,1.12L459.23,67Zm13.18,4.15,15.9,4.56,29.07,26.51-22.3,14.36-42.94-7.67a1.89,1.89,0,0,0-.8-1.74ZM522.19,87,504.67,98.24,476.06,72.15l45.89,13.16A2.41,2.41,0,0,0,522.19,87ZM504.63,98.68l23.76,21.67a1.93,1.93,0,0,0-.33.66l-45.5-8.12Zm.31-.2,17.44-11.23.09.13a2.41,2.41,0,0,0,3.27.36l18.82,21.85-13.23,10.58a1.93,1.93,0,0,0-2.65-.13l0,0Zm21.07-11a2.4,2.4,0,0,0,.6-1l35.93,8.68-17.7,14.16Zm-2.49-4A2.35,2.35,0,0,0,522,85L475.47,71.61l-10.78-9.83a1.92,1.92,0,0,0,.29-.56l56.11,13ZM474.71,71.39l-15.13-4.34,2.75-4.69a1.93,1.93,0,0,0,2.08-.28l0,0ZM464.38,59.12a1.92,1.92,0,0,0-3,.74l-30.26-9.53,45.94-4Zm-3.12,1.08a1.94,1.94,0,0,0,0,.51L445.39,63,409.63,52.73a2.42,2.42,0,0,0,0-.53l20.51-1.79Zm-51.6-8.35a2.4,2.4,0,0,0-3.47-1.77l-5.31-8.9,28.43,9Zm-1.35,2.56,7.29,12.85-44.17,6.35,33.86-20a2.39,2.39,0,0,0,.14.21A2.42,2.42,0,0,0,408.3,54.41ZM370.51,73.74l-12.06,1.73a1.87,1.87,0,0,0-1.2-1.36L363.34,52l41.52.37a2.4,2.4,0,0,0,.25.92Zm-13.6.28a1.91,1.91,0,0,0-2.24,1.59l-70.4-5-4.86-9.18,29.23-9.89L363,52Zm-73.06-3.45-25-1.78a1.93,1.93,0,0,0-.05-.41l20.24-6.85Zm-25-1.42L284,70.95l18.64,35.18-14.31,8.08-22.48,3-8.43-46.48a1.89,1.89,0,0,0,1.39-1.55Zm8,55.25a1.9,1.9,0,0,0-1.41,1.92l-98.87,12.25-.49-1.41,10.35-7.76,89.18-11.83Zm-1,3.1-76.43,76.8-22.77-65.38,98.79-12.24A1.92,1.92,0,0,0,265.88,127.51Zm-99.66,11.12-1.23.15a1.91,1.91,0,0,0-.24-.6l1-.78Zm-.26-1.8-1.29-3.69a2.35,2.35,0,0,0,1.45-2.35l9.6-1.27Zm-1.6,3.83a1.92,1.92,0,0,0,.66-1.53l1.31-.16,22.84,65.62L187.79,206a1.93,1.93,0,0,0-1.69-.39l-22.21-64.64A1.92,1.92,0,0,0,164.36,140.66ZM189.31,205l.76,2.19-1.59.06a1.93,1.93,0,0,0-.43-1Zm.28-.28,76.55-76.92a1.93,1.93,0,0,0,1.54.42l4.71,18.48-57.43,59.49-24.51,1ZM272.48,147l13.89,54.53a1.91,1.91,0,0,0-1.28,1.73l-69.63,2.82Zm.29-.3,16.29-16.87L315.13,134l15,35.36-41.68,32.71a1.93,1.93,0,0,0-1.71-.58Zm57.47,22.95,18.29,43.23-59.58-9.4a1.93,1.93,0,0,0-.31-1.18Zm.29-.23,33.58-26.36a1.93,1.93,0,0,0,1.85.55l17.33,52.13-20.93,19.31L348.94,213Zm52.88,26.7,7.29,21.94a1.86,1.86,0,0,0-1.1,1.3l-26.8-4.23Zm-17.12-52.61a1.83,1.83,0,0,0,1-1.11l57.59,15-41.35,38.15Zm1.13-1.45a1.93,1.93,0,0,0-.11-1l31.91-16.39,51.41,6.88a2.41,2.41,0,0,0,.53,1.65l-25.92,23.91Zm83.26-10.9-50.92-6.81L435.56,106a1.87,1.87,0,0,0,2.46.71l13.63,23a2.36,2.36,0,0,0-.2.14A2.4,2.4,0,0,0,450.67,131.2Zm-12.35-24.68.13-.09a1.93,1.93,0,0,0,.61-1l42.57,7.6L455,130.25l-.09-.13a2.42,2.42,0,0,0-2.91-.58Zm16.29,27a2.4,2.4,0,0,0,.7-1.06l43.82,11.37L471,164.41l-16.71-30.68A2.4,2.4,0,0,0,454.61,133.53Zm.79-1.4a2.41,2.41,0,0,0-.25-1.59l27-17.37L528,121.35a1.93,1.93,0,0,0,.27,1.16L499.5,143.58Zm73.08-9.33a1.94,1.94,0,0,0,2.07.55l14.07,31.94-44.68-11.6Zm2.39.41a2,2,0,0,0,.32-.23,1.92,1.92,0,0,0,.43-.54l38.59,17L594,167a2.4,2.4,0,0,0-.58.93L545.06,155.4ZM571,139.72l31.81,14-6.18,12.79a2.41,2.41,0,0,0-2.33.31Zm-.53-.61-25.37-29.47L563,95.32l20.72,5,26.86,37.25-7.63,15.8Zm40.35-1.21L630,164.56a1.92,1.92,0,0,0-.42.53l-26.34-11.57Zm.17-.36,10.82-22.41,11.94,7.13L661.3,156.9l-28.23,8.4a1.91,1.91,0,0,0-2.77-.95Zm23.62-14.76,45.73,27.3a1.94,1.94,0,0,0-.15,1.22l-18.49,5.5Zm45.68,28.85a1.9,1.9,0,0,0,2.34,1.14L706,211.95a2.42,2.42,0,0,0-.31.18l-43.83-55Zm2.66,1a1.94,1.94,0,0,0,.25-.15l25.65,29.79-1.76,29.43a2.4,2.4,0,0,0-.69.1Zm-2.37-2.95-.06.08L634,122l-8.21-10.31a2.44,2.44,0,0,0,.29-.31l45.37,29.36Zm-47.46-28.21-11.16-6.66,1.29-2.67a2.41,2.41,0,0,0,2.25-.25Zm-11.47-6.85L607.15,106l14.57,3.52A2.36,2.36,0,0,0,622.9,112Zm.18-5.46-15.67-3.79L576.07,87.44a2.42,2.42,0,0,0,.1-1.91l5.46-1,40.31,24.28A2.41,2.41,0,0,0,621.8,109.17ZM576,85.19a2.42,2.42,0,0,0-3.7-.67,2.4,2.4,0,0,0-.23.24L571,84.07,516.87,45.53l64.3,38.73Zm-4.18-.09a2.4,2.4,0,0,0-.25.53L521.37,74l-6.63-25.15L570.8,84.36ZM521,73.87l-55.93-13a1.92,1.92,0,0,0-.43-1.51l13-13.09,29.13-2.54,7.57,4.8ZM503.74,41.42l6.88,1.31a2.41,2.41,0,0,0,0,.31l-3.8.33Zm2.49,2L478,45.89l7.8-7.87,17,3.23Zm-28.8,2.51-47.2,4.12-29.62-9.33-5.45-9.13,62.78,1.14,27.42,5.2ZM400.1,40.56l-29.25-9.22a1.93,1.93,0,0,0,0-.2l23.86.43Zm.27.46,5.51,9.25a2.37,2.37,0,0,0-.2.14,2.41,2.41,0,0,0-.83,1.64l-41.42-.37,5.19-18.84a1.9,1.9,0,0,0,2.12-1.15Zm-37.3,10.65-53.42-.47,57.56-19.48a1.82,1.82,0,0,0,1.08,1ZM276,50.24l0-.09,1.28-.26Zm.14,1,31.44.28-28.32,9.59-4.25-8a2.3,2.3,0,0,0,1.13-1.85Zm2.78,10-20.19,6.83a1.87,1.87,0,0,0-1.55-1.14l.08-3.7,14.61-10.61v0a2.41,2.41,0,0,0,2.81.63Zm-13.35,56L177,129l78.51-58.84a1.93,1.93,0,0,0,1.61.63Zm-8.73-50.31A1.92,1.92,0,0,0,255,69.17l-9.47,2.52,11.31-8.21Zm-1.68,2.59a1.91,1.91,0,0,0,.17.35l-79,59.21-10.22,1.36a2.39,2.39,0,0,0-.31-.79l79-57.38Zm-91.84,59a2.39,2.39,0,0,0-1.81,3.32l-74.14,38,71.53-73.66a1.92,1.92,0,0,0,1.23.42Zm-76.93,41.8-4.82,2.47,1.87-7.49,55.73-55.84,19.47-13.57h0ZM81.14,173l-9.91,5.08a2.41,2.41,0,0,0-.23-.33h0l11.94-12Zm.3.24,4.17-2.13-4,4.12a1.91,1.91,0,0,0-.58-.32Zm-.4,5.31a1.92,1.92,0,0,0,1.17-2.46l72.26-32.82L93.55,226.89Zm12.39,52A1.94,1.94,0,0,0,93,233l-6.65,4.4,7.05-9.67.66,2.54A1.93,1.93,0,0,0,93.44,230.59Zm2.26-.18a1.93,1.93,0,0,0-1.31-.26l-.73-2.82L155.13,143l6.29-2.86a1.57,1.57,0,0,0,.4.48ZM185.3,206a1.93,1.93,0,0,0-.64,1.8l-88.15,23.6a1.65,1.65,0,0,0-.53-.77l66.12-89.78a1.93,1.93,0,0,0,1.45.22l22.21,64.64A1.92,1.92,0,0,0,185.3,206Zm8.92,19.74-21.94,4.81,13.41-21.36a1.94,1.94,0,0,0,1.51.1l7.07,15.52A2.43,2.43,0,0,0,194.22,225.74Zm.81-2.18a2.41,2.41,0,0,0-.6.78l-6.91-15.18a1.91,1.91,0,0,0,1-1.58l1.7-.07,5.46,15.68A2.4,2.4,0,0,0,195,223.55Zm3.13,0a2.41,2.41,0,0,0-2.17-.48l-5.42-15.58,24-1Zm70.26.91-69.4.74a2.4,2.4,0,0,0-.57-1.38l0,0,16.69-17.29,70-2.83a1.93,1.93,0,0,0,.45,1l.07.07Zm.47,0,17-19.48a1.93,1.93,0,0,0,1.5.33l5.51,18.89Zm82.82-2.56a2.41,2.41,0,0,0-.83,1.69l-57.61.61-5.54-19a1.88,1.88,0,0,0,1.17-1.32l59.8,9.44,3.49,8.26A2.41,2.41,0,0,0,351.7,221.88Zm.8-.46-3.41-8.05,12.93,2L354.93,222A2.41,2.41,0,0,0,352.5,221.42Zm29.65,6.86-26.47-4.35a2.41,2.41,0,0,0-.52-1.72l7.3-6.73,27.07,4.27a1.93,1.93,0,0,0,.4,1.31Zm.44.07,7.59-7a1.93,1.93,0,0,0,1.62.47l2.28,8.47Zm10.64-7.69,53.26,18.2-52-8.56-2.32-8.62a1.87,1.87,0,0,0,1.09-1Zm-.28-2,0,0A1.93,1.93,0,0,0,391,218l-7.35-22.09,41.64-38.41,39.22,10.18a1.93,1.93,0,0,0,.22,1.26Zm72.23-52.11a1.92,1.92,0,0,0-.55.82l-39-10.13,25.76-23.76a2.41,2.41,0,0,0,2.32.56l11.91,32.23A1.92,1.92,0,0,0,465.19,166.52Zm.76-.4L454,133.92l16.72,30.7-2.86,2.09A1.93,1.93,0,0,0,465.95,166.13Zm2.38,2.34a1.93,1.93,0,0,0-.22-1.47l2.82-2.07,3,5.5Zm89.75,39.7L512.5,240.52l-37.82-69.45,88.94,31.24Zm1.49-1.06,4.35-4.58a1.93,1.93,0,0,0,.22,1.34Zm4.32-5.07-89.46-31.43-3.21-5.89L499.58,144l45.23,11.74,20,45.37Zm-18.64-46.22,48.09,12.48a2.41,2.41,0,0,0,.54,2l0,0-28.86,30.44Zm22.14,46a1.88,1.88,0,0,0-.12-.17,1.93,1.93,0,0,0-1.94-.61l28.85-30.42a2.41,2.41,0,0,0,2.47.35l5.7,11.17Zm35.27-19.85L597,170.79a2.28,2.28,0,0,0,.92-1L613.16,176Zm10.9-6.13L598,169.47a2.37,2.37,0,0,0-1.09-2.84l6.18-12.8,26.35,11.58a1.93,1.93,0,0,0,.07,1.4Zm.41.17,15.73-8.86a1.9,1.9,0,0,0,.12.17,1.93,1.93,0,0,0,1.88.62l5.58,17.57Zm23.74,9.67L632,167.8a1.92,1.92,0,0,0,.51-.31l.1-.11L671,199.21Zm-4.83-18.53a1.93,1.93,0,0,0,.3-1.48l28.37-8.44,43.92,55.14a2.42,2.42,0,0,0-.53.7l-32.87-13.39Zm68.76,57.09L673,200.39l31.85,13a2.36,2.36,0,0,0,1,2.8ZM715,235.07l-.1.11-12.94-10.74,4.23-8.1a2.42,2.42,0,0,0,1.7.09l7.49,18.4A1.93,1.93,0,0,0,715,235.07Zm3.19,1.47a1.92,1.92,0,0,0-2.5-1.85l-7.48-18.41a2.41,2.41,0,0,0,.51-.33l0,0,22.18,21.8Zm13.28,1.24-22.49-22.1a2.4,2.4,0,0,0-1.52-4l1.74-29.07,33.32,38.7,10.8,18.46Zm25.42,2.37-3.15-.29-10-17,13.78,16A2.4,2.4,0,0,0,756.85,240.15Zm.75-1.76-14.84-17.24-29.13-49.81Zm-46.54-70.73,30.42,52-32.3-37.52L710,167.9A2.4,2.4,0,0,0,711.07,167.66Zm-1.38.22-.83,13.89-25.41-29.52a1.93,1.93,0,0,0,.24-.3l24.11,12.58a2.4,2.4,0,0,0,1.9,3.35Zm-1.83-4-36.23-23.45L612.8,82.83ZM610.61,81.21l0,0,59.51,58.3-43.92-28.42a2.41,2.41,0,0,0-3-3.39L610.26,81.46A2.42,2.42,0,0,0,610.61,81.21ZM607.19,81a2.41,2.41,0,0,0,2.74.65l12.94,26.21a2.18,2.18,0,0,0-.75.69l-40-24.08L606.69,80A2.4,2.4,0,0,0,607.19,81ZM515.22,44l91.5,34.67a2.43,2.43,0,0,0-.09.95L581.7,84.16,515.18,44.1Zm-.61.82a2.42,2.42,0,0,0,.28-.29l50.56,36L514.61,48.31l-.8-3A2.41,2.41,0,0,0,514.61,44.84Zm-3.42-.26a2.41,2.41,0,0,0,2.28.79l.7,2.66-6.86-4.35,3.34-.29A2.4,2.4,0,0,0,511.19,44.58ZM492.5,34.26l18.25,7.94c0,.06,0,.11-.06.17l-7.75-1.47-10.45-6.63Zm-3.71.71a2.4,2.4,0,0,0,3.51-.39l9.7,6.15-15.92-3Zm-.27-.25h0l-2.87,2.9L460,32.77l27.91.51A2.4,2.4,0,0,0,488.52,34.72Zm-1.18-1.81L458,32.38,394.17,20.26ZM389.14,21a2.41,2.41,0,0,0,.76-1.21l66,12.53-60.94-1.11-6-10.07A2.38,2.38,0,0,0,389.14,21Zm-3.42-.26a2.42,2.42,0,0,0,2.92.58l5.89,9.88-23.64-.43a1.92,1.92,0,0,0-.21-.74l14.93-9.44S385.69,20.72,385.73,20.77Zm-.44-.76a2.38,2.38,0,0,0,.14.32L370.5,29.76l-.06-.09a1.93,1.93,0,0,0-3.4,1.24l-28.45,2.17Zm-.65-.18L336.79,33.21l-74.27,5.67ZM260.48,39.39l74.58-5.69L282,48.55l-6.22,1.27a2.39,2.39,0,0,0-3.66-.6c-.05,0-.09.1-.14.15l-11.81-8.8A2.41,2.41,0,0,0,260.48,39.39Zm-2.76,2.39a2.41,2.41,0,0,0,1.93-.55,2.44,2.44,0,0,0,.35-.37l11.76,8.76a2.42,2.42,0,0,0-.39,2l-14,4.59ZM271.48,52a2.39,2.39,0,0,0,.18.35l-14.4,10.45.14-6.17ZM256.06,40.74a2.16,2.16,0,0,0,1.31,1L257,56.35,188.32,79ZM186.74,79.84,257,56.72,256.9,63l-12.27,8.91L161.91,94l-.05-.12ZM158.26,90.34a2.41,2.41,0,0,0,3.92-2.41L185,80.41,161.68,93.58a1.9,1.9,0,0,0-.12-.17,1.94,1.94,0,0,0-3.15,2.22l-17.86,12.45Zm-.62.12-18.73,18.76L93.34,141ZM90,146.47a2.42,2.42,0,0,0,.5-3.07l47-32.78-53.92,54L88,147A2.41,2.41,0,0,0,90,146.47Zm-2.33.46L83.1,165.14,70.75,177.52l-.26-.19,16.89-30.51Zm-.57-.28h0L70.18,177.16a2.42,2.42,0,0,0-2.85,3.77l.09.08L24.61,228.24Z"/><path class="cls-1" d="M549.45,117a2,2,0,0,1,1.49-1l-.69-17.88L510,98.2Z"/><path class="cls-1" d="M581.41,96.5,549.68,73.83l.93,23.9L581,97.64A2.53,2.53,0,0,1,581.41,96.5Z"/><polygon class="cls-1" points="530.99 60.48 482.73 64.77 475.39 81.76 509.2 97.83 550.23 97.72 549.29 73.55 530.99 60.48"/><path class="cls-1" d="M469.3,95.86a2.54,2.54,0,0,1,1.36,2.07l37.69-.1L475.24,82.1Z"/><path class="cls-1" d="M346.83,108.3a2,2,0,0,1,1.79,1.07l76.56-32.89L390.62,58.91l-40-6.65L339.31,80.73l7.19,27.61A2,2,0,0,1,346.83,108.3Z"/><path class="cls-1" d="M391.83,59.11l33.79,17.19,18.15-7.8a2,2,0,0,1-.11-.62c0-.05,0-.1,0-.15Z"/><path class="cls-1" d="M346.14,108.43l-7.06-27.12-11,27.91,16.78.84A2,2,0,0,1,346.14,108.43Z"/><path class="cls-1" d="M445.72,69.91a2,2,0,0,1-1.79-1.07l-17.87,7.68,23.68,12-3.8-18.67Z"/><path class="cls-1" d="M378,120.11l-29.26-9a2,2,0,0,1-1.29,1.17l3.08,14.58Z"/><path class="cls-1" d="M452.42,101.79,449.83,89,425.61,76.7l-76.85,33a2,2,0,0,1,.11.62,2.05,2.05,0,0,1,0,.43l29.85,9.16Z"/><path class="cls-1" d="M450.25,89.23l2.54,12.47,12.83-3.16a2.41,2.41,0,0,1,.16-1.42Z"/><path class="cls-1" d="M447.63,68.57,475,81.6l7.25-16.8-34.54,3.07A2,2,0,0,1,447.63,68.57Z"/><path class="cls-1" d="M446.3,69.82l3.85,19,15.79,8a2.5,2.5,0,0,1,3-1.09l5.95-13.77-27.43-13A2,2,0,0,1,446.3,69.82Z"/><path class="cls-1" d="M461.89,147.57l.57,5.88.66-6.63A2,2,0,0,1,461.89,147.57Z"/><path class="cls-1" d="M239.43,103l-3-18.22L201.29,98.16a2.34,2.34,0,0,1,0,1.29L225,106.67l13-1.6s0,0,0-.06A2,2,0,0,1,239.43,103Z"/><path class="cls-1" d="M460.93,143.62l-8.43-41.47-73.13,18,80.26,24.64A2,2,0,0,1,460.93,143.62Z"/><path class="cls-1" d="M181.4,112.06l14.53-1.8,2.15-9a2.54,2.54,0,0,1-1.15-.76Z"/><path class="cls-1" d="M198.86,101.44a2.55,2.55,0,0,1-.42,0l-2.11,8.81L224,106.78l-22.82-7A2.55,2.55,0,0,1,198.86,101.44Z"/><path class="cls-1" d="M586.84,122l-3.08-21.67-.17,0A2.55,2.55,0,0,1,581,98l-30.43.08.69,17.87a2,2,0,0,1,1.94,2s0,0,0,.06Z"/><path class="cls-1" d="M467.68,100.63a2.54,2.54,0,0,1-2-1.73l-12.84,3.16,8.44,41.49.22,0a2,2,0,0,1,1.82,1.12Z"/><path class="cls-1" d="M238.31,106.22a2,2,0,0,1-.37-.79l-12.13,1.5,8.74,2.67Z"/><path class="cls-1" d="M327.65,109.2l11.27-28.5L331.14,50.8a2,2,0,0,1-2-.79l-87.41,54.08a2,2,0,0,1,.21.83Z"/><path class="cls-1" d="M241.57,103.77,329,49.7h0l-92.16,35,3,18.3h.14A2,2,0,0,1,241.57,103.77Z"/><polygon class="cls-1" points="234.24 109.89 224.91 107.04 196.23 110.6 185.96 153.4 234.24 109.89"/><path class="cls-1" d="M619.71,79.92,552.63,59.74l-1.31-.32a2.53,2.53,0,0,1-.26.56l44,32Z"/><path class="cls-1" d="M240.25,107a1.92,1.92,0,0,1-1.69-.52L235,109.73l6.43,2Z"/><path class="cls-1" d="M350.2,52.2,332.78,49.3a2,2,0,0,1-1.28,1.4l7.66,29.41Z"/><path class="cls-1" d="M178.93,181.1l6.39-26.62-29,26.15a2,2,0,0,1,.39,1Z"/><path class="cls-1" d="M154.67,179.8a2,2,0,0,1,1.39.55l29.41-26.51,10.37-43.2-15,1.86L148,136.8l6.51,43Z"/><path class="cls-1" d="M315.22,136.16a2.48,2.48,0,0,1-.13-1.55l-73.17-22.36,13.34,54.3Z"/><polygon class="cls-1" points="254.92 166.72 241.5 112.11 234.65 110.02 185.81 154.04 179.31 181.09 228.84 179.93 254.92 166.72"/><path class="cls-1" d="M146.62,115.81a2,2,0,0,1,.2.53l33.83-4.19,16-11.9a2.53,2.53,0,0,1-.36-1l-28,2.14Z"/><path class="cls-1" d="M146,115.08a2.05,2.05,0,0,1,.45.42l21.18-14-14.75,1.13Z"/><path class="cls-1" d="M317.57,132.61a2.52,2.52,0,0,1,.77.13l9.17-23.18L242,105.28a2,2,0,0,1-1.35,1.64l1.2,4.9,73.38,22.43A2.55,2.55,0,0,1,317.57,132.61Z"/><path class="cls-1" d="M350.22,127.32l-30.14,7.42a2.36,2.36,0,0,1-.23,1.55L356.7,158Z"/><path class="cls-1" d="M196.3,98.89h0a2.54,2.54,0,0,1,3.87-2.19L222,65.82,169,101Z"/><path class="cls-1" d="M456.37,214.31h.07l5.83-58.95-.75-7.76h0a2,2,0,0,1-1.69-.89l-62.61,35.11,57.06,33.58A2.55,2.55,0,0,1,456.37,214.31Z"/><path class="cls-1" d="M396.85,181.61l62.8-35.21a2,2,0,0,1-.13-1.26l-80.84-24.82-28.09,6.91,6.54,31Z"/><path class="cls-1" d="M350.15,127l-3.08-14.59-.23,0a2,2,0,0,1-1.44-.59l-25.77,21.86a2.53,2.53,0,0,1,.36.72Z"/><path class="cls-1" d="M345.17,111.53a2,2,0,0,1-.37-1.1l-16.9-.85-9.22,23.29a2.56,2.56,0,0,1,.72.51Z"/><path class="cls-1" d="M355,43.14a2.53,2.53,0,0,1-.77-.13l-3.52,8.9,38.8,6.44L357.17,41.9A2.55,2.55,0,0,1,355,43.14Z"/><path class="cls-1" d="M531.1,60.09l15.26-1.36s0-.06,0-.09a2.54,2.54,0,0,1,.09-.63L512.48,46.79Z"/><path class="cls-1" d="M546.39,59.11l-14.83,1.32,17.71,12.66-.46-11.9A2.55,2.55,0,0,1,546.39,59.11Z"/><polygon class="cls-1" points="493.24 40.43 482.89 64.38 530.53 60.14 511.29 46.4 493.24 40.43"/><path class="cls-1" d="M432.26,37.61l12.79,28.33a2,2,0,0,1,.66-.12,2,2,0,0,1,2,1.68l34.75-3.09,10.41-24.1-13.93-4.61Z"/><path class="cls-1" d="M551.18,120a2,2,0,0,1-1.87-1.27l-35.2,10.82,40.11,27.64Z"/><path class="cls-1" d="M549.2,118.41a2.05,2.05,0,0,1,0-.42,2,2,0,0,1,.13-.71L509.12,98.2l-38.46.1a2.53,2.53,0,0,1-.34,1.11l43.41,29.92Z"/><path class="cls-1" d="M470.1,99.71a2.54,2.54,0,0,1-2,1h-.07l-4.36,44,49.57-15.24Z"/><path class="cls-1" d="M352.64,41.58l-19.85,6.74a2,2,0,0,1,.06.47c0,.05,0,.1,0,.15l17.51,2.91,3.55-9A2.56,2.56,0,0,1,352.64,41.58Z"/><path class="cls-1" d="M271.73,34,234.19,57.79a2,2,0,0,1,.19.54l94.38-9.52h0a2,2,0,0,1,.45-1.27l-10.06-9.65Z"/><path class="cls-1" d="M232.89,60.69l3.86,23.61,92.1-35c0-.05,0-.11,0-.16L234.42,58.7h0A2,2,0,0,1,232.89,60.69Z"/><path class="cls-1" d="M357.35,41.57l33.38,17,53,8.8a2,2,0,0,1,1-1.26L431.86,37.63l-74.32,3A2.55,2.55,0,0,1,357.35,41.57Z"/><path class="cls-1" d="M423.72,18.69l8.38,18.56,45.85-1.87L424.59,17.74A2,2,0,0,1,423.72,18.69Z"/><polygon class="cls-1" points="163.39 206.95 141.44 202.25 113.91 244 128.51 244 165.84 213.84 163.39 206.95"/><path class="cls-1" d="M367.44,200.24a2,2,0,0,1-1.27,1.06l8,42.7h9.36l49.79-18.67Z"/><path class="cls-1" d="M260.19,180a2,2,0,0,1-1.18,1.33L278.57,244h15.16l12.07-55.56Z"/><path class="cls-1" d="M174.54,210.22a2.54,2.54,0,0,1-2,1l-.28,0L169.85,224l7.08,20H204.2l8.13-9.76Z"/><path class="cls-1" d="M363.57,199.35c0-.07,0-.13,0-.19l-57.42-10.64L294.11,244h15.95l53.86-43.52A2,2,0,0,1,363.57,199.35Z"/><path class="cls-1" d="M258.24,181.48a2,2,0,0,1-1.16-.36l-44.18,53,15.5,9.85h49.79l-19.51-62.57A2,2,0,0,1,258.24,181.48Z"/><polygon class="cls-1" points="204.68 244 205.15 244 205.53 244 227.7 244 212.65 234.44 204.68 244"/><path class="cls-1" d="M365.62,201.39a2,2,0,0,1-1.47-.62L310.65,244h63.1l-7.94-42.63Z"/><path class="cls-1" d="M470.75,241.36l0,2.64h7.37l-6-3.48A2,2,0,0,1,470.75,241.36Z"/><path class="cls-1" d="M472.47,238.69a1.94,1.94,0,0,1-.08,1.51l6.51,3.8h9.78l-9.78-8.15Z"/><path class="cls-1" d="M558,202.78a2,2,0,0,1-1.78-1.06l-76.91,34,10,8.31h73.21L558,202.78Z"/><path class="cls-1" d="M468.89,240.53,463.07,244h7.35l0-2.63A2,2,0,0,1,468.89,240.53Z"/><polygon class="cls-1" points="433.79 225.53 384.54 244 397.79 244 398.16 244 452.54 244 453.99 233.23 433.79 225.53"/><path class="cls-1" d="M468.49,239.34a2,2,0,0,1,.08-.56l-14.23-5.42L452.92,244h9.42l6.36-3.78A2,2,0,0,1,468.49,239.34Z"/><path class="cls-1" d="M13.88,219.37l-.15,0L3.57,244H8.27l1.55-2.44Z"/><polygon class="cls-1" points="41.7 244 42.31 244 42.71 244 47.19 244 61.93 212.5 41.7 244"/><path class="cls-1" d="M61.83,211.49,22.09,244H41.26L62,211.66A2,2,0,0,1,61.83,211.49Z"/><polygon class="cls-1" points="8.7 244 9.37 244 9.64 242.53 8.7 244"/><path class="cls-1" d="M61.24,210.06a2,2,0,0,1,2-2h.05l1.55-13.44L30.32,210,10.17,241.69,9.75,244H21.5l40.09-32.8A2,2,0,0,1,61.24,210.06Z"/><path class="cls-1" d="M559.52,202a2,2,0,0,1-1.16.7L562.83,244h31.33l.56-17.69Z"/><polygon class="cls-1" points="166.17 244 176.54 244 169.72 224.78 166.17 244"/><polygon class="cls-1" points="165.97 214.22 129.1 244 163.42 244 163.83 244 165.79 244 169.47 224.08 165.97 214.22"/><path class="cls-1" d="M458.82,216.14l9.11-2-5.47-56.87-5.64,57.07A2.55,2.55,0,0,1,458.82,216.14Z"/><path class="cls-1" d="M65.28,209.63A2,2,0,0,1,64,212l9.23,32h.1l3.06-37.8Z"/><polygon class="cls-1" points="110.58 195.65 76.79 206.08 73.72 244 74.63 244 74.98 244 76.32 244 76.96 244 81.08 244 81.51 244 90.27 244 90.64 244 101.26 244 101.67 244 110.93 244 112.58 244 113.47 244 141.05 202.17 110.58 195.65"/><path class="cls-1" d="M63.29,212.1a2,2,0,0,1-.7-.13l-15,32H72.87l-9.2-31.94A2,2,0,0,1,63.29,212.1Z"/><path class="cls-1" d="M180,112.6l-33.18,4.11s0,0,0,.06a2,2,0,0,1-1.56,2L148,136.38Z"/><path class="cls-1" d="M693.65,167.4l10.77-1.91L677.64,149l12.21,16.87a2.53,2.53,0,0,1,3.81,1.54Z"/><path class="cls-1" d="M691.45,170.56l-.26,0a2.55,2.55,0,0,1-2.46-1.88l-15.29,3.05,25.43,39.62Z"/><path class="cls-1" d="M647.55,130.46a2,2,0,0,1-.38.38l9.12,14.2,32.87,21.45a2.56,2.56,0,0,1,.39-.4l-12.73-17.6Z"/><path class="cls-1" d="M656.78,145.81l16.45,25.62,15.43-3.08a2.22,2.22,0,0,1,.3-1.55Z"/><path class="cls-1" d="M559.37,61.38l60.83,18.3,3-1.45a2.38,2.38,0,0,1-.15-1.37Z"/><path class="cls-1" d="M147.64,136.63l-2.7-17.83h-.11a2,2,0,0,1-1.25-.44L79.89,186.76l.06.07Z"/><path class="cls-1" d="M549.18,61.16l.47,12.19,32,22.84a2.53,2.53,0,0,1,4.15.34l8.9-4.36-43.84-31.9A2.53,2.53,0,0,1,549.18,61.16Z"/><path class="cls-1" d="M319.74,37.91l9.74,9.34a2,2,0,0,1,3.2.71l19.86-6.74a2.53,2.53,0,0,1-.09-.63s0,0,0,0Z"/><path class="cls-1" d="M227,59.36l-3.57,5,7.13-4.73a2,2,0,0,1-.22-.61Z"/><path class="cls-1" d="M102.27,133.92,79.22,186.25a2.54,2.54,0,0,1,.4.26l63.69-68.38a2,2,0,0,1-.3-.43Z"/><polygon class="cls-1" points="69.34 156.1 53.21 174.07 30.68 209.47 64.94 194.15 69.34 156.1"/><path class="cls-1" d="M200.47,96.92a2.55,2.55,0,0,1,.69.89l35.23-13.38-3.87-23.68h-.14a2,2,0,0,1-1.59-.77l-7.93,5.26Z"/><polygon class="cls-1" points="736.23 186.37 768.58 244 770.1 244 754.7 211.32 736.23 186.37"/><polygon class="cls-1" points="678.28 244 691.31 244 691.71 244 700.72 244 701.51 244 704.8 244 701.99 228.52 678.28 244"/><path class="cls-1" d="M700.68,221.35l-70.55-39.62a2,2,0,0,1-1,.77l10.17,41.79L661.56,244h16l24.31-15.87Z"/><path class="cls-1" d="M707.29,226.88a2,2,0,0,1-1.6-.78l-3.36,2.2,2.85,15.7H711l-3.47-17.14Z"/><path class="cls-1" d="M707.87,226.79,711.35,244h14.79l-17.56-17.59A2,2,0,0,1,707.87,226.79Z"/><path class="cls-1" d="M598,188.21a2.54,2.54,0,0,1-1.68.72l-1.18,37.19L621,244H643.7l-4.75-19.51Z"/><polygon class="cls-1" points="644.08 244 655.87 244 656.24 244 661 244 639.43 224.91 644.08 244"/><polygon class="cls-1" points="770.51 244 778.88 244 755.83 212.85 770.51 244"/><polygon class="cls-1" points="594.54 244 620.39 244 595.09 226.56 594.54 244"/><polygon class="cls-1" points="755.02 211.13 779.35 244 782.84 244 732.67 163.71 755.02 211.13"/><polygon class="cls-1" points="759.32 244 759.57 244 759.91 244 760.32 244 761.04 244 768.15 244 735.92 186.58 759.32 244"/><path class="cls-1" d="M708.56,223.26a2,2,0,0,1,.28,2.89L726.67,244h31.19l-35.92-40.78Z"/><path class="cls-1" d="M734.63,185.93a2,2,0,0,1-1-.26l-11.5,17.23,36.2,41.1h.57l-23.71-58.17A2,2,0,0,1,734.63,185.93Z"/><path class="cls-1" d="M453.82,216.87a2.53,2.53,0,0,1,.27-1.14L396.85,182l-29.37,16.47a1.94,1.94,0,0,1,.1,1.38l66.22,25.24,20.14-7.55A2.53,2.53,0,0,1,453.82,216.87Z"/><polygon class="cls-1" points="677.07 148.21 704.97 165.4 716.01 163.44 671.75 114.13 648.67 95.85 647.76 107.7 677.07 148.21"/><path class="cls-1" d="M650.6,90.57a2.53,2.53,0,0,1-1.55.54h0l-.33,4.29,21.57,17.09Z"/><path class="cls-1" d="M593.71,187.11l-36,7.86.3,3.73a2,2,0,0,1,1.81,1.15Z"/><path class="cls-1" d="M646.66,87.64v0l-18.94-9.08c0,.06-.06.12-.1.17l6.52,5.17Z"/><polygon class="cls-1" points="725.74 156.41 651.31 90.8 672.01 113.86 725.74 156.41"/><path class="cls-1" d="M716.45,163.36l12.18-2.16a2.5,2.5,0,0,1,0-.25,2.54,2.54,0,0,1,.44-1.44l-55.56-44Z"/><path class="cls-1" d="M498,34.84a2.54,2.54,0,0,1-.08.62l46.81,15.27L531.34,28.07a2.52,2.52,0,0,1-3.54-1.46L498,34.39A2.56,2.56,0,0,1,498,34.84Z"/><path class="cls-1" d="M716.74,163.68l16.66,18.56a2,2,0,0,1,.73-.35l-2.78-18.43-.19,0a2.55,2.55,0,0,1-2.48-1.93Z"/><path class="cls-1" d="M440.06,18.54l53,15.42a2.54,2.54,0,0,1,4.8.07l29.85-7.77a2.56,2.56,0,0,1,0-.45s0,0,0,0Z"/><polygon class="cls-1" points="524.85 25.16 394.54 5.3 438.27 18.02 524.85 25.16"/><path class="cls-1" d="M628.93,82.31l-2.07-2.86a2.52,2.52,0,0,1-3.54-.88l-2.6,1.28Z"/><path class="cls-1" d="M633.19,83.59,627.4,79a2.56,2.56,0,0,1-.24.22l2.36,3.26Z"/><path class="cls-1" d="M623.16,76.31l0-.08L532.36,27.17a2.56,2.56,0,0,1-.69.72l13.6,23Z"/><path class="cls-1" d="M733.13,182.5l-16.82-18.73-10.86,1.93,27.55,17Z"/><path class="cls-1" d="M628.45,182.61a2,2,0,0,1-2-1.5l-27.77,5a2.24,2.24,0,0,1-.5,1.81l40.59,35.93-10-41.27A2,2,0,0,1,628.45,182.61Z"/><path class="cls-1" d="M628.5,127.35l-41.22-4.89,3.94,27.71,35.77,29a2,2,0,0,1,1.94-.56l14.19-41.69Z"/><path class="cls-1" d="M673,171.84l-42.58,8.51a2,2,0,0,1,0,.21,2,2,0,0,1-.18.84l70.29,39.47L699,212.35Z"/><path class="cls-1" d="M734.61,181.84A2,2,0,0,1,736,185.4l17.91,24.2-21.81-46.28a2.51,2.51,0,0,1-.35.11l2.78,18.42Z"/><path class="cls-1" d="M626.42,180.74c0-.06,0-.11,0-.17a2,2,0,0,1,.35-1.14l-35.45-28.72L596,183.85l.17,0a2.55,2.55,0,0,1,2.47,1.92Z"/><path class="cls-1" d="M593.86,187.45,559.92,200.2a1.93,1.93,0,0,1-.19,1.54l35,24.13,1.17-37A2.54,2.54,0,0,1,593.86,187.45Z"/><path class="cls-1" d="M672.83,171.51,656,145.31l-12.58-8.21-14.16,41.6A2,2,0,0,1,630.4,180Z"/><path class="cls-1" d="M705.42,224l-4.32-2.43,1.15,6.32,3.23-2.11a2,2,0,0,1-.06-1.79Z"/><path class="cls-1" d="M420.69,16.74a2,2,0,0,1,.07-.39L394.08,5.8a2.53,2.53,0,0,1-4,.8L379.59,16.84Z"/><path class="cls-1" d="M732.8,183l-27.9-17.19-11.18,2a2.5,2.5,0,0,1,0,.25,2.55,2.55,0,0,1-.73,1.8l28.89,32.79,11.45-17.15a2,2,0,0,1-.54-2.49Z"/><path class="cls-1" d="M701,221.11l4.59,2.58a2.05,2.05,0,0,1,.43-.45l-6.46-10.06Z"/><path class="cls-1" d="M691.82,170.5l7.58,41.71L706.35,223a2,2,0,0,1,1.91,0l13.43-20.12-29-32.87A2.53,2.53,0,0,1,691.82,170.5Z"/><path class="cls-1" d="M646.55,88,635,84.51l13.4,10.62.31-4.05A2.53,2.53,0,0,1,646.55,88Z"/><path class="cls-1" d="M110.56,114.18l2.92-6.62a2.54,2.54,0,0,1-.37-.24l-15.3,17.05Z"/><path class="cls-1" d="M81.22,142.31l-8.14,3.24a2.53,2.53,0,0,1,.13.76,2.56,2.56,0,0,1-2.55,2.56h-.11L69.84,155Z"/><polygon class="cls-1" points="169.27 67.26 117.72 103.4 138.75 91.65 169.27 67.26"/><polygon class="cls-1" points="111.79 108.24 74.38 143.1 96.06 125.77 111.79 108.24"/><path class="cls-1" d="M122.65,104.52,137,93.05l-20,11.18a2.52,2.52,0,0,1,.21.7Z"/><path class="cls-1" d="M122.14,104.93l-4.91.38h0a2.53,2.53,0,0,1-3.41,2.41l-2.63,6Z"/><path class="cls-1" d="M379.06,16.85,389.84,6.33a2.53,2.53,0,0,1-.52-1L326.82,17Z"/><path class="cls-1" d="M468,214.53l-9.07,2a2.35,2.35,0,0,1-.45,1.84l10.75,8.95Z"/><path class="cls-1" d="M69.41,155.46l.77-6.64a2.52,2.52,0,0,1-.73-.27l-15,23.61Z"/><path class="cls-1" d="M30.07,209.75l21.63-34L16.36,215.13a2.56,2.56,0,0,1,.4.56Z"/><polygon class="cls-1" points="68.61 149.18 18.55 212.13 52.91 173.85 68.61 149.18"/><path class="cls-1" d="M81.78,141.68l12.77-14.22L72.76,144.87a2.56,2.56,0,0,1,.18.33Z"/><path class="cls-1" d="M248.85,31.8l8,.65,12.9-4.84L248.82,31.5a2.49,2.49,0,0,1,0,.28Z"/><path class="cls-1" d="M286.82,24l8.86-5.6-.08-.15-21.77,8.16Z"/><polygon class="cls-1" points="293.7 18.61 250.29 30.85 271.72 26.86 293.7 18.61"/><path class="cls-1" d="M167.16,75.78l5.46-9.93a2.55,2.55,0,0,1-.48-.41L140.73,90.55Z"/><polygon class="cls-1" points="384.62 5.83 300.76 17.04 324.76 16.98 384.62 5.83"/><path class="cls-1" d="M322.73,17.36l-22.29.06a2.53,2.53,0,0,1-.58,1.44l2.41,2.31Z"/><path class="cls-1" d="M301.83,21.25l-2.22-2.12a2.53,2.53,0,0,1-3.75-.38l-8.08,5.12Z"/><path class="cls-1" d="M256,32.76l-7.19-.58A2.53,2.53,0,0,1,245,34l-2.81,4Z"/><path class="cls-1" d="M191,62.44l-14.48,1.24v0A2.54,2.54,0,0,1,173,66l-5.18,9.41Z"/><path class="cls-1" d="M191.83,62l26-14.53L176.46,63a2.51,2.51,0,0,1,.07.32Z"/><polygon class="cls-1" points="242.74 33.56 180.05 61.24 220.01 46.26 242.74 33.56"/><path class="cls-1" d="M241.55,38.18l3.13-4.43a2.55,2.55,0,0,1-.52-.56l-21.84,12.2Z"/><path class="cls-1" d="M29.7,210.32,16.92,216a2.53,2.53,0,0,1-2.39,3.42l-.28,0-3.9,21.29Z"/><path class="cls-1" d="M420.9,16a2,2,0,0,1,3.86.9l11.65,1L395.55,6Z"/><path class="cls-1" d="M497.81,35.81a2.53,2.53,0,0,1-.19.36l13.84,9.89,35.08,11.6A2.56,2.56,0,0,1,548,56.25l-3-5Z"/><path class="cls-1" d="M424.73,17.27l0,.11L479,35.33l13.9-.57a2.57,2.57,0,0,1,0-.45L438.2,18.39Z"/><path class="cls-1" d="M495.45,37.4a2.53,2.53,0,0,1-.84-.15l-1.22,2.84,16.89,5.58-12.87-9.2A2.54,2.54,0,0,1,495.45,37.4Z"/><path class="cls-1" d="M379.21,17.22,356.94,38.94a2.54,2.54,0,0,1,.4.62l63.4-22.15a2,2,0,0,1,0-.3Z"/><path class="cls-1" d="M492.92,35.14,480,35.66,493,40l1.24-2.87A2.54,2.54,0,0,1,492.92,35.14Z"/><path class="cls-1" d="M357.52,40.29l74.18-3-8.32-18.42a2,2,0,0,1-.66.12,2,2,0,0,1-1.86-1.2L357.45,39.92A2.54,2.54,0,0,1,357.52,40.29Z"/><path class="cls-1" d="M241.78,38.49,227.3,59l3-.26A2,2,0,0,1,234,57.48L271.11,34l-14.24-1.15Z"/><polygon class="cls-1" points="192.73 61.92 226.82 59.01 241.16 38.72 220.16 46.6 192.73 61.92"/><path class="cls-1" d="M302.61,21.49l16.7,16,33.17,2.68a2.54,2.54,0,0,1,4.2-1.52l22-21.46-53.88.14Z"/><path class="cls-1" d="M593.62,186.39a2.53,2.53,0,0,1,.36-1.29L554.65,158l3,36.61,36-7.85A2.52,2.52,0,0,1,593.62,186.39Z"/><polygon class="cls-1" points="286.93 24.41 272.25 33.7 318.72 37.46 302.16 21.57 286.93 24.41"/><polygon class="cls-1" points="257.69 32.52 271.63 33.65 285.97 24.59 271.82 27.22 257.69 32.52"/><path class="cls-1" d="M553.2,118.42a2,2,0,0,1-.3.72l37.89,30.69-3.9-27.41Z"/><polygon class="cls-1" points="123.31 104.47 152.61 102.23 166.83 76.39 138.98 91.95 123.31 104.47"/><path class="cls-1" d="M585.61,99.37a2.55,2.55,0,0,1-1.48,1l3.1,21.76,40.57,4.81Z"/><path class="cls-1" d="M643.92,128.81a2,2,0,0,1,.25-.62L595,92.43,586,96.87a2.48,2.48,0,0,1-.14,2.18L628.63,127Z"/><path class="cls-1" d="M595.64,183.89l-4.77-33.53-38.2-30.94a2,2,0,0,1-1.11.58l3.06,37.51,39.58,27.28A2.54,2.54,0,0,1,595.64,183.89Z"/><path class="cls-1" d="M548.36,56.14A2.5,2.5,0,0,1,551.42,59l1.3.39,68.13,16.57-75.3-24.56Z"/><polygon class="cls-1" points="557.27 194.68 554.26 157.71 513.66 129.73 463.66 145.1 463.52 146.51 550.36 196.18 557.27 194.68"/><polygon class="cls-1" points="463.48 146.91 462.64 155.37 468.29 214.08 549.82 196.3 463.48 146.91"/><polygon class="cls-1" points="633.98 84.22 629.88 82.98 647.42 107.23 648.32 95.57 633.98 84.22"/><path class="cls-1" d="M620.23,80.08,595.4,92.24l49,35.65a2,2,0,0,1,1.5-.7l1.49-19.39-18.09-25Z"/><path class="cls-1" d="M645.09,131.1a2,2,0,0,1-1.21-1.86s0,0,0-.06l-14.55-1.73,13.91,9.08Z"/><path class="cls-1" d="M646.86,131a1.93,1.93,0,0,1-1.42.18l-1.88,5.52,12,7.81Z"/><path class="cls-1" d="M646.25,127.22a2,2,0,0,1,1.49,2.92l28.5,17.56-28.52-39.43Z"/><polygon class="cls-1" points="167.44 76.05 153.06 102.19 168.23 101.04 222.59 64.98 226.54 59.4 191.94 62.36 167.44 76.05"/><path class="cls-1" d="M319.67,136.62a2.44,2.44,0,0,1-2.46,1.07l-11,50.46,57.41,10.64a2,2,0,0,1,1.36-1.4l-8.22-38.92Z"/><path class="cls-1" d="M454.06,217.93l-19.74,7.4L454,232.85l1.81-13.49A2.55,2.55,0,0,1,454.06,217.93Z"/><path class="cls-1" d="M315.65,136.84,260,178.37a2,2,0,0,1,.31,1.06c0,.07,0,.13,0,.19l45.62,8.46,11-50.47A2.54,2.54,0,0,1,315.65,136.84Z"/><path class="cls-1" d="M357.23,158.73l8.15,38.59.23,0a2,2,0,0,1,1.69.89l29.18-16.36Z"/><path class="cls-1" d="M229.7,179.91l26.5-.62a2,2,0,0,1,1.37-1.79L255,167.09Z"/><path class="cls-1" d="M315.39,136.48l-60,30.43,2.58,10.51a1.93,1.93,0,0,1,1.82.65l55.67-41.53Z"/><path class="cls-1" d="M110.86,114.42l-8.38,19,40.39-16.09a2,2,0,0,1-.09-.57,2,2,0,0,1,2.86-1.88l6.76-12.28-29.6,2.26Z"/><path class="cls-1" d="M550.84,196.46l5.44,3.11a2,2,0,0,1,1.32-.84l-.3-3.68Z"/><path class="cls-1" d="M458.21,218.64a2.54,2.54,0,0,1-1.83.78l-.16,0L454.4,233l14.31,5.46a2,2,0,0,1,1.45-1.11l-.92-9.51Z"/><path class="cls-1" d="M228.93,180.3l-54.08,27.41a2.5,2.5,0,0,1-.12,2.19l37.84,24,44.21-53.07a2,2,0,0,1-.58-1.21Z"/><path class="cls-1" d="M550.3,196.58l-82,17.87,1.27,13.19,9.35,7.79,77.08-34a1.95,1.95,0,0,1,.07-1.5Z"/><path class="cls-1" d="M470.53,237.29h0a2,2,0,0,1,1.78,1.06l6.25-2.76-8.92-7.43Z"/><path class="cls-1" d="M179.22,181.46l-6,24.82a2.54,2.54,0,0,1,1.41,1.11l53.4-27.07Z"/><path class="cls-1" d="M76.74,190.7,64.58,208.49a2,2,0,0,1,.59.79l11.27-3.48L77.64,191A2.52,2.52,0,0,1,76.74,190.7Z"/><path class="cls-1" d="M75.79,189.7l-10.5,4.7L63.7,208.05a2,2,0,0,1,.57.22l12.16-17.79A2.55,2.55,0,0,1,75.79,189.7Z"/><path class="cls-1" d="M78,191.05h0l-1.18,14.63,33-10.19-29.37-6.28A2.55,2.55,0,0,1,78,191.05Z"/><path class="cls-1" d="M152.63,181.85a2,2,0,0,1,1.56-2L147.71,137,80.18,187.13a2.33,2.33,0,0,1,.37,1.71l30,6.42,42.11-13A2.05,2.05,0,0,1,152.63,181.85Z"/><polygon class="cls-1" points="82.55 141.38 101.99 133.63 110.23 114.92 96.29 126.06 82.55 141.38"/><path class="cls-1" d="M69.77,155.62,65.33,194l10.3-4.61a2.53,2.53,0,0,1,3.25-3.27l22.9-52L82,142Z"/><path class="cls-1" d="M152.79,182.63l-41.47,12.8,30,6.41,12.13-18.4A2,2,0,0,1,152.79,182.63Z"/><path class="cls-1" d="M169.94,208.71a2.53,2.53,0,0,1,0-.36L163.81,207l2.33,6.56,4.26-3.44A2.54,2.54,0,0,1,169.94,208.71Z"/><path class="cls-1" d="M156.7,182a2,2,0,0,1-1.18,1.71l8.14,22.93,6.39,1.37a2.49,2.49,0,0,1,2.85-1.8l5.93-24.72Z"/><path class="cls-1" d="M166.28,214l3.33,9.38,2.25-12.18a2.54,2.54,0,0,1-1.22-.72Z"/><path class="cls-1" d="M154.68,183.89a2,2,0,0,1-1-.25l-12.05,18.28,21.58,4.62-8.06-22.71A2,2,0,0,1,154.68,183.89Z"/><path class="cls-3" d="M13.73,219.32l.15,0L9.82,241.56,8.27,244H8.7l.94-1.47L9.37,244h.38l.42-2.31L30.32,210l34.57-15.46L63.33,208h-.05a2,2,0,0,0-1.69,3.19L21.5,244h.59l39.74-32.51a2,2,0,0,0,.2.17L41.26,244h.44l20.23-31.5L47.19,244h.41l15-32a2,2,0,0,0,.7.13,2,2,0,0,0,.38,0L72.87,244h.39L64,212a2,2,0,0,0,1.26-2.32l11.12-3.43L73.35,244h.37l3.07-37.92,33.79-10.43,30.47,6.52L113.47,244h.44l27.53-41.75,21.95,4.69,2.45,6.9L128.51,244h.59L166,214.22l3.5,9.86L165.79,244h.38l3.55-19.22L176.54,244h.39l-7.08-20,2.37-12.82.28,0a2.54,2.54,0,0,0,2-1l37.8,24L204.2,244h.48l8-9.56,15,9.56h.69l-15.5-9.85,44.18-53a2,2,0,0,0,1.59.32L278.18,244h.39L259,181.32a2,2,0,0,0,1.18-1.33l45.61,8.45L293.73,244h.38l12.06-55.49,57.42,10.64c0,.06,0,.13,0,.19a2,2,0,0,0,.35,1.13L310.06,244h.59l53.5-43.24a2,2,0,0,0,1.47.62l.18,0L373.75,244h.38l-8-42.7a2,2,0,0,0,1.27-1.06l65.83,25.09L383.48,244h1.05l49.26-18.47,20.19,7.7L452.54,244h.38l1.43-10.64,14.23,5.42a1.92,1.92,0,0,0,.12,1.43L462.34,244h.72l5.82-3.47a2,2,0,0,0,1.49.83l0,2.63h.37l0-2.64a2,2,0,0,0,1.45-.84l6,3.48h.73l-6.51-3.8a1.94,1.94,0,0,0,.08-1.51l6.42-2.84,9.78,8.15h.58l-10-8.31,76.91-34a2,2,0,0,0,1.78,1.06h0L562.46,244h.37l-4.47-41.26a2,2,0,0,0,1.16-.7l35.21,24.27L594.17,244h.37l.55-17.44L620.39,244H621L595.1,226.12l1.18-37.19a2.54,2.54,0,0,0,1.68-.72l41,36.28L643.7,244h.38l-4.65-19.08L661,244h.56l-22.28-19.72-10.17-41.79a2,2,0,0,0,1-.77l70.55,39.62,1.23,6.78L677.61,244h.68L702,228.52,704.8,244h.38l-2.85-15.7,3.36-2.2a2,2,0,0,0,1.6.78l.21,0L711,244h.38l-3.48-17.21a2,2,0,0,0,.72-.38L726.14,244h.53l-17.82-17.86a2,2,0,0,0-.28-2.89l13.37-20L757.86,244h.5l-36.2-41.1,11.5-17.23a1.92,1.92,0,0,0,1.56.16L758.92,244h.4l-23.4-57.42L768.15,244h.43l-32.35-57.63,18.47,24.95L770.1,244h.41l-14.68-31.15L778.88,244h.46L755,211.13l-22.35-47.42L782.84,244h.44l-50.62-81a2.55,2.55,0,1,0-3.29-3.88l-78.3-69a2.55,2.55,0,1,0-4.24-2.8L627.9,78.21a2.55,2.55,0,0,0-4.52-2.3L532.54,26.84a2.55,2.55,0,1,0-4.81-1.61L394.32,4.89c0-.07,0-.13,0-.2a2.56,2.56,0,0,0-5.11,0s0,.1,0,.15L300.41,16.71a2.56,2.56,0,0,0-5,1L248.69,30.92a2.55,2.55,0,1,0-4.79,1.72L176.26,62.51A2.55,2.55,0,1,0,171.83,65l-55.19,38.69a2.54,2.54,0,1,0-4,3.2l-40.3,37.54a2.55,2.55,0,1,0-3.46,3.74L16,214.79a2.55,2.55,0,1,0-2.58,4.39L3.17,244h.4Zm17-9.85,22.53-35.4,16.13-18-4.4,38ZM623.16,78.23l-3,1.45-60.83-18.3L623,76.86a2.38,2.38,0,0,0,.15,1.37Zm65.5,90.12-15.43,3.08-16.45-25.62,32.18,21a2.22,2.22,0,0,0-.3,1.55Zm.07.36a2.55,2.55,0,0,0,2.46,1.88l.26,0,7.42,40.83-25.43-39.62Zm2.45-3.24a2.53,2.53,0,0,0-1.33.39L677.64,149l26.78,16.5-10.77,1.91A2.55,2.55,0,0,0,691.17,165.48Zm-1.63.61a2.56,2.56,0,0,0-.39.4L656.29,145l-9.12-14.2a2,2,0,0,0,.38-.38l29.26,18Zm-546-47.7a2,2,0,0,0,1.25.44h.11l2.7,17.83L80,186.84l-.06-.07Zm-64,68.13a2.54,2.54,0,0,0-.4-.26l23.05-52.33L143,117.7a2,2,0,0,0,.3.43Zm65.69-67.76a2,2,0,0,0,1.56-2s0,0,0-.06L180,112.6,148,136.38ZM230.79,60a2,2,0,0,0,1.59.77h.14l3.87,23.68L201.16,97.81a2.55,2.55,0,0,0-.69-.89l22.39-31.67Zm-7.34,4.42,3.57-5,3.34-.29a2,2,0,0,0,.22.61ZM352.53,41.22,332.67,48a2,2,0,0,0-3.2-.71l-9.74-9.34,32.71,2.65s0,0,0,0A2.53,2.53,0,0,0,352.53,41.22Zm242.15,51-8.9,4.36a2.53,2.53,0,0,0-4.15-.34l-32-22.84-.47-12.19a2.53,2.53,0,0,0,1.66-.88ZM551.07,60a2.53,2.53,0,0,0,.26-.56l1.31.32,67.08,20.18L595.06,92Zm.24,56-.69-17.87L581,98a2.55,2.55,0,0,0,2.54,2.36l.17,0L586.84,122l-33.6-4s0,0,0-.06A2,2,0,0,0,551.31,116Zm-89.8,27.56-.22,0-8.44-41.49L465.7,98.9a2.54,2.54,0,0,0,2,1.73l-4.35,44A2,2,0,0,0,461.51,143.52Zm1.61,3.3-.66,6.63-.57-5.88A2,2,0,0,0,463.12,146.83ZM237.91,105.06l-13,1.6-23.61-7.22a2.34,2.34,0,0,0,0-1.29l35.17-13.35,3,18.22a2,2,0,0,0-1.53,2S237.91,105,237.91,105.06ZM224,106.78l-27.72,3.43,2.11-8.81a2.49,2.49,0,0,0,2.79-1.59Zm-28.12,3.48-14.53,1.8,15.52-11.51a2.54,2.54,0,0,0,1.15.76Zm.3.34L224.91,107l9.32,2.85L186,153.4Zm29.59-3.66,12.13-1.5a2,2,0,0,0,.37.79l-3.76,3.39Zm12.74-.44a1.92,1.92,0,0,0,1.69.52l1.15,4.68-6.43-2Zm1.38-3.54h-.14l-3-18.3,92.16-35h0l-87.41,54.08A2,2,0,0,0,239.94,103ZM329.18,50a2,2,0,0,0,2,.79l7.79,29.91-11.27,28.5L242,104.92a2,2,0,0,0-.21-.83Zm2.32.69a2,2,0,0,0,1.28-1.4L350.2,52.2l-11,27.92Zm7.58,30.61,7.06,27.12a2,2,0,0,0-1.32,1.63L328,109.22Zm.23-.59,11.26-28.47,40,6.65,34.56,17.58-76.56,32.89a2,2,0,0,0-2.12-1ZM443.78,68.5l-18.15,7.8L391.83,59.11l51.85,8.61c0,.05,0,.1,0,.15A2,2,0,0,0,443.78,68.5Zm105.89,5.33L581.41,96.5a2.53,2.53,0,0,0-.36,1.15l-30.44.08ZM550.94,116a2,2,0,0,0-1.49,1L510,98.2l40.27-.1Zm-.71-18.25-41,.11L475.39,81.76l7.34-17L531,60.48l18.3,13.08Zm-41.88.11-37.69.1a2.54,2.54,0,0,0-1.36-2.07l5.94-13.76ZM475,81.6l-27.42-13a2,2,0,0,0,.13-.7L482.3,64.8Zm-.15.34L469,95.71a2.5,2.5,0,0,0-3,1.09l-15.79-8-3.85-19a2,2,0,0,0,1.17-.91Zm-9.29,16.6-12.83,3.16-2.54-12.47,15.52,7.89a2.41,2.41,0,0,0-.16,1.42Zm-15.87-10-23.68-12,17.87-7.68a2,2,0,0,0,1.79,1.07l.22,0Zm-101,22.57,29.26,9-27.48,6.76-3.08-14.58A2,2,0,0,0,348.72,111.12Zm.11-.35a2.05,2.05,0,0,0,0-.43,2,2,0,0,0-.11-.62l76.85-33L449.83,89l2.6,12.77-73.75,18.15Zm103.67-8.63,8.43,41.47a2,2,0,0,0-1.31,1.17l-80.26-24.64Zm15.56-1.48h.07a2.54,2.54,0,0,0,2-1l43.17,29.75L463.7,144.71Zm2.26-1.26a2.53,2.53,0,0,0,.34-1.11l38.46-.1,40.17,19.09a2,2,0,0,0-.13.71,2.05,2.05,0,0,0,0,.42l-35.48,10.91Zm79,19.37a2,2,0,0,0,1.87,1.27l3,37.2-40.11-27.64Zm0-45.69L531.56,60.43l14.83-1.32a2.55,2.55,0,0,0,2.42,2.07Zm-2.93-14.44s0,.06,0,.09L531.1,60.09l-18.61-13.3L546.43,58A2.54,2.54,0,0,0,546.35,58.64Zm-15.82,1.5-47.63,4.23,10.34-23.95,18.06,6Zm-48.06,4.27L447.72,67.5a2,2,0,0,0-2-1.68,2,2,0,0,0-.66.12L432.26,37.61l46.68-1.91,13.93,4.61ZM432.1,37.25l-8.38-18.56a2,2,0,0,0,.87-1l53.36,17.64Zm12.62,28.85a2,2,0,0,0-1,1.26l-53-8.8-33.38-17a2.55,2.55,0,0,0,.19-.91l74.32-3Zm-55.2-7.75-38.8-6.44,3.52-8.9a2.49,2.49,0,0,0,2.94-1.11Zm-39.18-6.5-17.51-2.91c0-.05,0-.1,0-.15a2,2,0,0,0-.06-.47l19.85-6.74a2.56,2.56,0,0,0,1.25,1.3Zm-21.13-4.32a2,2,0,0,0-.45,1.27h0l-94.38,9.52a2,2,0,0,0-.19-.54L271.73,34l47.42,3.84Zm-94.79,11.2h0l94.38-9.53c0,.06,0,.11,0,.16l-92.1,35-3.86-23.61A2,2,0,0,0,234.42,58.71Zm-34.25,38a2.54,2.54,0,0,0-3.87,2.19h0L169,101l53-35.16Zm-3.83,2.56a2.53,2.53,0,0,0,.36,1l-16,11.9-33.83,4.19a2,2,0,0,0-.2-.53l21.73-14.41ZM146.42,115.5a2.05,2.05,0,0,0-.45-.42l6.87-12.5,14.75-1.13Zm34.38-3,15-1.86-10.37,43.2-29.41,26.51a2,2,0,0,0-1.39-.55h-.11l-6.51-43Zm4.52,42-6.39,26.62-22.23.52a2,2,0,0,0-.39-1Zm.49-.44,48.84-44,6.86,2.1,13.42,54.6-26.07,13.22-49.53,1.15Zm56.11-41.8,73.17,22.36a2.48,2.48,0,0,0,.13,1.55l-60,30.39Zm73.28,22-73.38-22.43-1.2-4.9a2,2,0,0,0,1.35-1.64l85.54,4.28-9.17,23.18a2.52,2.52,0,0,0-.77-.13A2.55,2.55,0,0,0,315.19,134.25Zm12.7-24.67,16.9.85a2,2,0,0,0,.37,1.1L319.4,133.39a2.56,2.56,0,0,0-.72-.51Zm17.5,2.22a2,2,0,0,0,1.44.59l.23,0L350.15,127,320,134.38a2.53,2.53,0,0,0-.36-.72Zm-25.27,23.36a2.55,2.55,0,0,0,0-.42l30.14-7.42L356.7,158,319.85,136.3A2.53,2.53,0,0,0,320.13,135.16Zm30.46-7.93,28.09-6.91,80.84,24.82a2,2,0,0,0,.13,1.26l-62.8,35.21-39.72-23.38Zm109.24,19.49a2,2,0,0,0,1.69.89h0l.75,7.76-5.83,58.95h-.07a2.55,2.55,0,0,0-2.09,1.1l-57.06-33.58Zm2.63,10.56,5.47,56.87-9.11,2a2.55,2.55,0,0,0-2-1.79Zm-3.52,59.57a2.53,2.53,0,0,0,0-.35l9.07-2,1.23,12.77-10.75-8.95A2.54,2.54,0,0,0,458.93,216.86Zm3.71-61.48.84-8.47,86.34,49.39-81.53,17.78Zm.88-8.87.14-1.4,50-15.37,40.6,28,3,37-6.91,1.51Zm88-26.5a2,2,0,0,0,1.11-.58l38.2,30.94,4.77,33.53a2.54,2.54,0,0,0-1.44.9l-39.58-27.28Zm1.35-.87a2,2,0,0,0,.3-.72l33.69,4,3.9,27.41Zm31.23-18.82a2.55,2.55,0,0,0,1.48-1L627.8,126.9l-40.57-4.81Zm1.68-1.26a2.48,2.48,0,0,0,.14-2.18L595,92.43l49.15,35.76a2,2,0,0,0-.25.62L628.63,127Zm58.07,30.12s0,0,0,.06a2,2,0,0,0,1.21,1.86l-1.85,5.43-13.91-9.08Zm1.56,2a1.93,1.93,0,0,0,1.42-.18l8.67,13.5-12-7.81Zm2.3-1.08a2,2,0,0,0-1.49-2.92l1.46-19,28.52,39.43Zm-.32-22.91L629.88,83,634,84.22l14.33,11.35Zm0,.57-1.49,19.39a2,2,0,0,0-1.5.7l-49-35.65,24.83-12.17,9.06,2.73ZM552.72,59.38l-1.3-.39a2.54,2.54,0,0,0-3.06-2.84l-2.81-4.75,75.3,24.56ZM548,56.25a2.56,2.56,0,0,0-1.46,1.41l-35.08-11.6-13.84-9.89a2.53,2.53,0,0,0,.19-.36L545,51.21ZM510.27,45.67l-16.89-5.58,1.22-2.84a2.49,2.49,0,0,0,2.79-.78ZM493,40l-13-4.31,12.92-.53a2.54,2.54,0,0,0,1.35,2Zm-.13-5.21-13.9.57L424.7,17.38l0-.11,13.47,1.11,54.75,15.93A2.57,2.57,0,0,0,492.9,34.77ZM424.76,16.9a2,2,0,0,0-3.86-.9L395.55,6l40.86,11.89Zm-2,2.06a2,2,0,0,0,.66-.12l8.32,18.42-74.18,3a2.54,2.54,0,0,0-.07-.37l63.41-22.15A2,2,0,0,0,422.72,19Zm-65.38,20.6a2.54,2.54,0,0,0-.4-.62l22.27-21.73,41.48-.1a2,2,0,0,0,0,.3Zm-.66-.89a2.54,2.54,0,0,0-4.2,1.52l-33.17-2.68-16.7-16,22.19-4.13,53.88-.14Zm-38-1.22L272.25,33.7l14.68-9.29,15.23-2.84Zm-47.09-3.81-13.94-1.13,14.13-5.3L286,24.58Zm-.52.33L234,57.48a2,2,0,0,0-3.66,1.23l-3,.26,14.48-20.48,15.09-5.66ZM226.82,59l-34.09,2.91L220.16,46.6l21-7.88Zm-.28.4L222.59,65,168.23,101l-15.17,1.16L167.44,76l24.5-13.69Zm-73.92,42.82-29.3,2.24L139,91.95l27.85-15.56Zm-.21.39-6.76,12.28a2,2,0,0,0-2.77,2.45l-40.39,16.09,8.38-19,11.94-9.54Zm-50.41,31-19.44,7.74,13.74-15.31,13.94-11.14Zm-.21.49-22.9,52a2.53,2.53,0,0,0-3.25,3.27L65.33,194l4.44-38.35L82,142Zm-37.5,74.16a2,2,0,0,0-.57-.22l1.58-13.65,10.5-4.7a2.55,2.55,0,0,0,.65.78Zm12.17-2.48-11.27,3.48a2,2,0,0,0-.59-.79L76.74,190.7a2.52,2.52,0,0,0,.89.32Zm.38-.12L78,191.05h0a2.55,2.55,0,0,0,2.44-1.84l29.37,6.28Zm33.74-10.41-30-6.42a2.33,2.33,0,0,0-.37-1.71L147.71,137l6.48,42.82a2,2,0,0,0-1.51,2.4Zm30.71,6.57-30-6.41,41.47-12.8a2,2,0,0,0,.62.81Zm.39.08,12.05-18.28a1.93,1.93,0,0,0,1.46.18l8.06,22.71ZM163.81,207l6.16,1.32a2.36,2.36,0,0,0,.42,1.8l-4.26,3.44Zm5.79,16.31L166.28,214l4.36-3.52a2.54,2.54,0,0,0,1.22.72Zm2.89-17.2a2.55,2.55,0,0,0-2.44,1.84l-6.39-1.37-8.14-22.93A2,2,0,0,0,156.7,182l22.14-.52-5.93,24.72A2.54,2.54,0,0,0,172.49,206.15Zm.78.13,6-24.82,48.85-1.14-53.4,27.07A2.54,2.54,0,0,0,173.27,206.28ZM212.58,234l-37.84-24a2.5,2.5,0,0,0,.12-2.19l54.08-27.41,27.28-.64a2,2,0,0,0,.58,1.21ZM256.2,179.3l-26.5.62L255,167.09l2.56,10.42A2,2,0,0,0,256.2,179.3Zm3.54-1.22a1.93,1.93,0,0,0-1.82-.65l-2.58-10.51,60-30.43,0,.06Zm46.13,10-45.62-8.46c0-.06,0-.13,0-.19a2,2,0,0,0-.31-1.06l55.68-41.53a2.54,2.54,0,0,0,1.2.77Zm57.77,10.71-57.41-10.64,11-50.46a2.44,2.44,0,0,0,2.46-1.07l37.13,21.85L365,197.4A2,2,0,0,0,363.66,198.79Zm3.65-.61a2,2,0,0,0-1.69-.89l-.23,0-8.15-38.59,39.24,23.1Zm.27,1.7a1.94,1.94,0,0,0-.1-1.38L396.85,182l57.25,33.69a2.4,2.4,0,0,0-.16,1.85l-20.14,7.55Zm86.46,33-19.72-7.52,19.74-7.4a2.55,2.55,0,0,0,1.79,1.43Zm14.67,5.59L454.4,233l1.83-13.58.16,0a2.54,2.54,0,0,0,1.83-.78l11,9.19.92,9.51A2,2,0,0,0,468.71,238.44Zm3.61-.09a2,2,0,0,0-1.78-1.06h0l-.88-9.13,8.92,7.43Zm83.71-37-77.08,34-9.35-7.79-1.27-13.19,82-17.87,5.8,3.32a1.95,1.95,0,0,0-.07,1.5Zm.26-1.82-5.44-3.11L557.3,195l.3,3.68A2,2,0,0,0,556.28,199.57ZM554.65,158,594,185.1a2.3,2.3,0,0,0-.32,1.65l-36,7.85ZM558,198.7l-.3-3.73,36-7.86-33.92,12.74A2,2,0,0,0,558,198.7Zm36.76,27.17-35-24.13a1.93,1.93,0,0,0,.19-1.54l33.94-12.75a2.54,2.54,0,0,0,2,1.46Zm1.43-42-.17,0-4.71-33.14,35.45,28.72a2,2,0,0,0-.35,1.14c0,.06,0,.11,0,.17l-27.77,5A2.55,2.55,0,0,0,596.17,183.83Zm42.62,40L598.2,187.93a2.24,2.24,0,0,0,.5-1.81l27.77-5a2,2,0,0,0,2.26,1.47Zm-9.87-45.27a2,2,0,0,0-1.94.56l-35.77-29-3.94-27.71,41.22,4.89,14.62,9.54Zm.35.12,14.16-41.6L656,145.31l16.82,26.2L630.4,180A2,2,0,0,0,629.28,178.7Zm1,2.7a2,2,0,0,0,.18-.84,2,2,0,0,0,0-.21L673,171.84l26,40.51,1.55,8.52Zm71.94,46.51-1.15-6.32,4.32,2.43a2,2,0,0,0,.06,1.79Zm3.35-4.22L701,221.11l-1.44-7.93L706,223.23A2.05,2.05,0,0,0,705.6,223.68Zm2.65-.63a2,2,0,0,0-1.91,0l-6.95-10.82-7.58-41.71a2.53,2.53,0,0,0,.9-.44l29,32.88Zm13.64-20.44L693,169.82a2.55,2.55,0,0,0,.73-1.8,2.5,2.5,0,0,0,0-.25l11.18-2L732.8,183a2,2,0,0,0,.54,2.49Zm-16.45-36.93,10.86-1.93,16.82,18.73-.14.16Zm26.63-2.37,21.81,46.28L736,185.4a2,2,0,0,0-1.36-3.56h-.11l-2.78-18.42A2.51,2.51,0,0,0,732.07,163.32Zm-.91.18.19,0,2.78,18.43a2,2,0,0,0-.73.35l-16.66-18.56,11.95-2.12A2.55,2.55,0,0,0,731.16,163.49Zm-2.56-2.55a2.5,2.5,0,0,0,0,.25l-12.18,2.16-43-47.86,55.56,44A2.54,2.54,0,0,0,728.6,160.94Zm-2.86-4.54L672,113.86,651.31,90.8ZM649,91.11h0a2.53,2.53,0,0,0,1.55-.54l19.68,21.92L648.71,95.4Zm22.72,23L716,163.44l-11,2-27.9-17.19L647.76,107.7l.91-11.85ZM648.66,91.07l-.31,4.05L635,84.51,646.55,88a2.53,2.53,0,0,0,2.11,3.07ZM627.73,78.54l18.94,9.08v0l-12.5-3.76-6.52-5.17C627.67,78.66,627.7,78.6,627.73,78.54Zm-.33.46,5.79,4.59-3.67-1.11-2.36-3.26A2.56,2.56,0,0,0,627.4,79Zm-1.87.83a2.53,2.53,0,0,0,1.33-.39l2.07,2.86-8.21-2.47,2.6-1.28A2.54,2.54,0,0,0,625.53,79.83ZM532.36,27.17,623.2,76.23l0,.08L545.26,50.9l-13.6-23A2.56,2.56,0,0,0,532.36,27.17Zm-4.56-.55a2.52,2.52,0,0,0,3.54,1.46l13.39,22.65L497.92,35.46a2.3,2.3,0,0,0,0-1.07Zm-.1-.36L497.85,34a2.54,2.54,0,0,0-4.8-.07l-53-15.42,87.6,7.23s0,0,0,0A2.56,2.56,0,0,0,527.7,26.25Zm-2.85-1.09L438.27,18,394.54,5.3ZM390.1,6.59a2.53,2.53,0,0,0,4-.8l26.69,10.55a2,2,0,0,0-.07.39l-41.1.1Zm-.78-1.26a2.53,2.53,0,0,0,.52,1L379.06,16.85,326.82,17Zm-4.7.5L324.76,17l-24,.06ZM300.44,17.42l22.29-.06-20.46,3.81-2.41-2.31A2.53,2.53,0,0,0,300.44,17.42Zm-2.53,2.38a2.54,2.54,0,0,0,1.7-.66l2.22,2.13-14.05,2.62,8.08-5.12A2.54,2.54,0,0,0,297.91,19.79Zm-2.32-1.49.08.15L286.82,24l-13,2.42Zm-1.89.31-22,8.24-21.43,4Zm-24,9-12.9,4.84-8-.65v0a2.49,2.49,0,0,0,0-.28ZM246.3,34.34a2.55,2.55,0,0,0,2.51-2.17l7.19.58-13.83,5.19L245,34A2.53,2.53,0,0,0,246.3,34.34Zm-2.14-1.15a2.55,2.55,0,0,0,.52.56l-3.13,4.43-19.23,7.21Zm-1.43.37L220,46.26l-40,15Zm-24.9,13.91L191.83,62l-15.3,1.31a2.51,2.51,0,0,0-.07-.32ZM174,66.26a2.56,2.56,0,0,0,2.55-2.56v0L191,62.44l-23.27,13L173,66A2.53,2.53,0,0,0,174,66.26Zm-1.88-.82a2.55,2.55,0,0,0,.48.41l-5.46,9.93L140.73,90.55Zm-2.87,1.82L138.75,91.65l-21,11.75ZM137,93.05l-14.35,11.46-5.47.42a2.52,2.52,0,0,0-.21-.7Zm-22.32,14.82a2.56,2.56,0,0,0,2.55-2.56h0l4.91-.38-11,8.75,2.63-6A2.53,2.53,0,0,0,114.68,107.87Zm-1.57-.55a2.54,2.54,0,0,0,.37.24l-2.92,6.62L97.81,124.38Zm-1.32.92L96.06,125.77,74.38,143.1ZM94.54,127.46,81.78,141.68l-8.83,3.52a2.56,2.56,0,0,0-.18-.33ZM70.66,148.87a2.56,2.56,0,0,0,2.55-2.56,2.53,2.53,0,0,0-.13-.76l8.14-3.24L69.84,155l.71-6.13Zm-1.21-.31a2.52,2.52,0,0,0,.73.27l-.77,6.64-15,16.7Zm-.84.63-15.7,24.67L18.55,212.13ZM51.7,175.76l-21.63,34-13.3,6a2.56,2.56,0,0,0-.4-.56Zm-37.17,43.7A2.53,2.53,0,0,0,16.92,216l12.79-5.72L10.35,240.72l3.9-21.29Z"/><circle class="cls-4" cx="548.85" cy="58.66" r="15"/><circle class="cls-5" cx="548.85" cy="58.66" r="7.5"/><path class="cls-6" d="M645.85,109.5a20,20,0,1,0,20,20A20,20,0,0,0,645.85,109.5Zm0,30a10,10,0,1,1,10-10A10,10,0,0,1,645.85,139.5Z"/><circle class="cls-7" cx="645.85" cy="129.5" r="5.5"/><path class="cls-8" d="M461.44,129a16.5,16.5,0,1,0,16.5,16.5A16.5,16.5,0,0,0,461.44,129Zm0,25a8.5,8.5,0,1,1,8.5-8.5A8.5,8.5,0,0,1,461.44,154Z"/><circle class="cls-9" cx="461.44" cy="145.49" r="4.5"/><circle class="cls-10" cx="297.85" cy="17.43" r="15"/><circle class="cls-11" cx="297.85" cy="17.43" r="6"/><path class="cls-12" d="M198.44,81a18,18,0,1,0,18,18A18,18,0,0,0,198.44,81Zm0,27a9,9,0,1,1,9-9A9,9,0,0,1,198.44,108Z"/><circle class="cls-13" cx="198.44" cy="98.99" r="4.5"/><circle class="cls-14" cx="77.85" cy="188.77" r="15"/><circle class="cls-15" cx="77.85" cy="188.77" r="6"/></g></svg>