<svg id="Layer" xmlns="http://www.w3.org/2000/svg" viewBox="0 0 113.75 75"><defs><style>.cls-1{fill:none;stroke:#2c41c6;stroke-miterlimit:10;}</style></defs><title>manifesto-illustration-dopamine</title><polygon class="cls-1" points="55.81 47.62 55.81 34.09 44.1 27.33 32.39 34.09 32.39 47.62 44.1 54.38 55.81 47.62"/><line class="cls-1" x1="32.39" y1="34.09" x2="21.2" y2="28.67"/><line class="cls-1" x1="32.39" y1="47.58" x2="21.2" y2="53"/><polyline class="cls-1" points="55.81 34.06 67.97 27.36 79.72 35.4 86.81 31.11"/><line class="cls-1" x1="52.36" y1="35.05" x2="43.59" y2="29.99"/><line class="cls-1" x1="43.57" y1="51.58" x2="52.37" y2="46.58"/><line class="cls-1" x1="34.91" y1="35.79" x2="34.94" y2="45.91"/><path d="M10.58,30.84H9.92V27.09H5.45v3.75H4.79V23h.66v3.51H9.92V23h.67Z"/><path d="M18.35,27.36a4.51,4.51,0,0,1-.37,1.9,2.85,2.85,0,0,1-1.07,1.26,2.92,2.92,0,0,1-1.6.44,2.78,2.78,0,0,1-2.21-1,3.92,3.92,0,0,1-.84-2.64v-.81a4.5,4.5,0,0,1,.38-1.89,3,3,0,0,1,4.26-1.28A2.84,2.84,0,0,1,18,24.58a4.42,4.42,0,0,1,.39,1.84Zm-.66-.85A3.46,3.46,0,0,0,17,24.29a2.12,2.12,0,0,0-1.75-.8,2.12,2.12,0,0,0-1.74.8,3.48,3.48,0,0,0-.65,2.24v.82a3.46,3.46,0,0,0,.64,2.21,2.11,2.11,0,0,0,1.75.81,2.1,2.1,0,0,0,1.75-.8,3.55,3.55,0,0,0,.63-2.24Z"/><path d="M95.47,29.84h-.66l-4.5-6.69v6.69h-.67V22h.67l4.5,6.7V22h.66Z"/><path d="M103.25,29.84h-.67V26.09H98.12v3.75h-.66V22h.66v3.51h4.47V22h.67Z"/><path d="M107.54,33.5h-2.86v-.29l1.56-1.77a4.13,4.13,0,0,0,.54-.74,1.24,1.24,0,0,0,.15-.57.92.92,0,0,0-.25-.68,1,1,0,0,0-.7-.25,1,1,0,0,0-.74.29,1.06,1.06,0,0,0-.28.76h-.37a1.43,1.43,0,0,1,.17-.7,1.24,1.24,0,0,1,.49-.5,1.47,1.47,0,0,1,.73-.18,1.37,1.37,0,0,1,1,.33,1.16,1.16,0,0,1,.35.9,1.52,1.52,0,0,1-.2.7,5.2,5.2,0,0,1-.7.95l-1.27,1.44h2.4Z"/><path d="M10.58,57.48H9.92V53.73H5.45v3.75H4.79V49.66h.66v3.51H9.92V49.66h.67Z"/><path d="M18.35,54a4.51,4.51,0,0,1-.37,1.9,2.85,2.85,0,0,1-1.07,1.26,2.92,2.92,0,0,1-1.6.44,2.78,2.78,0,0,1-2.21-1A3.92,3.92,0,0,1,12.25,54v-.81a4.5,4.5,0,0,1,.38-1.89A3,3,0,0,1,16.89,50,2.84,2.84,0,0,1,18,51.21a4.42,4.42,0,0,1,.39,1.84Zm-.66-.85A3.46,3.46,0,0,0,17,50.93a2.12,2.12,0,0,0-1.75-.8,2.12,2.12,0,0,0-1.74.8,3.48,3.48,0,0,0-.65,2.24V54a3.46,3.46,0,0,0,.64,2.21,2.11,2.11,0,0,0,1.75.81,2.1,2.1,0,0,0,1.75-.8A3.55,3.55,0,0,0,17.69,54Z"/></svg>