<?xml version="1.0" encoding="UTF-8"?>
<svg width="28px" height="49px" viewBox="0 0 28 49" version="1.1" xmlns="http://www.w3.org/2000/svg" xmlns:xlink="http://www.w3.org/1999/xlink">
    <!-- Generator: Sketch 43.2 (39069) - http://www.bohemiancoding.com/sketch -->
    <title>Page 1</title>
    <desc>Created with Sketch.</desc>
    <defs></defs>
    <g id="Symbols" stroke="none" stroke-width="1" fill="none" fill-rule="evenodd">
        <g id="Footer-2" transform="translate(-368.000000, -78.000000)">
            <g id="Footer">
                <g id="Page-1" transform="translate(368.000000, 78.000000)">
                    <path d="M18.2767,6.7739 C18.2767,10.2389 15.4667,13.0479 12.0027,13.0479 C8.5377,13.0479 5.7277,10.2389 5.7277,6.7739 C5.7277,3.3089 8.5377,0.4999 12.0027,0.4999 C15.4667,0.4999 18.2767,3.3089 18.2767,6.7739 Z" id="Stroke-1" stroke="#2B41C6"></path>
                    <path d="M23.1937,23.7886 C22.0827,19.2786 18.0227,15.9316 13.1707,15.9316 L10.8347,15.9316 C5.1277,15.9316 0.5007,20.5586 0.5007,26.2656 L0.5007,41.0276 L10.2917,41.0276" id="Stroke-3" stroke="#2B41C6" stroke-linecap="round"></path>
                    <path d="M15.2269,26.3062 C16.3739,25.6012 17.8589,25.1642 19.3509,25.1642 C23.4209,25.1642 26.6569,28.2342 26.6569,31.9832 L26.6569,33.4442" id="Stroke-5" stroke="#51B793" stroke-linecap="round"></path>
                    <path d="M26.6566,40.1929 L26.6566,41.6539 C26.6566,45.4029 23.4216,48.4719 19.3506,48.4719 C17.8586,48.4719 16.3746,48.0359 15.2266,47.3309" id="Stroke-7" stroke="#51B793" stroke-linecap="round"></path>
                    <path d="M12.0463,40.2622 L12.0463,31.9832 C12.0463,30.4162 12.4833,29.0312 13.4003,27.9042" id="Stroke-9" stroke="#51B793" stroke-linecap="round"></path>
                    <path d="M13.6908,46.0327 C12.7448,44.9927 12.2148,43.4257 12.1338,42.0987" id="Stroke-11" stroke="#51B793" stroke-linecap="round"></path>
                    <path d="M14.4808,33.9312 L14.4808,32.4702 C14.4808,30.0832 16.7198,28.0862 19.3508,28.0862 C21.9828,28.0862 24.2208,30.0832 24.2208,32.4702 L24.2208,41.1242" id="Stroke-13" stroke="#51B793" stroke-linecap="round"></path>
                    <path d="M23.4701,43.7964 C22.5981,45.0364 21.0571,45.8754 19.3511,45.8754 C17.3061,45.8754 15.4971,44.6694 14.7931,43.0114 C14.5921,42.5354 14.4811,42.0244 14.4811,41.4924 L14.4811,40.0314" id="Stroke-15" stroke="#51B793" stroke-linecap="round"></path>
                    <path d="M23.264,44.0669 C22.367,45.1569 20.93,45.8759 19.351,45.8759 C19.022,45.8759 18.7,45.8439 18.386,45.7849" id="Stroke-17" stroke="#51B793" stroke-linecap="round"></path>
                    <path d="M17.1595,42.3648 L17.1595,32.9568 C17.1595,31.9138 18.1585,31.0098 19.3505,31.0098 C20.5435,31.0098 21.5425,31.9138 21.5425,32.9568 L21.5425,36.1228" id="Stroke-19" stroke="#51B793" stroke-linecap="round"></path>
                    <path d="M14.4808,41.1783 L14.4808,36.3663" id="Stroke-24" stroke="#51B793" stroke-linecap="round"></path>
                    <path d="M21.5424,38.5572 L21.5424,42.0992" id="Stroke-26" stroke="#51B793" stroke-linecap="round"></path>
                    <path d="M26.5424,35.5572 L26.5424,38.0972" id="Stroke-26" stroke="#51B793" stroke-linecap="round"></path>
                    <path d="M19.351,34.0093 L19.351,42.9533" id="Stroke-28" stroke="#51B793" stroke-linecap="round"></path>
                </g>
            </g>
        </g>
    </g>
</svg>