<?xml version="1.0" encoding="UTF-8"?>
<svg width="29px" height="25px" viewBox="0 0 29 25" version="1.1" xmlns="http://www.w3.org/2000/svg" xmlns:xlink="http://www.w3.org/1999/xlink">
    <!-- Generator: Sketch 43.1 (39012) - http://www.bohemiancoding.com/sketch -->
    <title>Hearing Icon</title>
    <desc>Created with Sketch.</desc>
    <defs></defs>
    <g id="Desktop" stroke="none" stroke-width="1" fill="none" fill-rule="evenodd">
        <g id="5.0_Manifesto-Nathan's-Bio" transform="translate(-331.000000, -5158.000000)" stroke="#2C41C6">
            <g id="5-Senses" transform="translate(43.000000, 4688.000000)">
                <g id="Hearing-Icon" transform="translate(288.000000, 471.000000)">
                    <path d="M29,22.8340928 C24.1748494,22.8755139 24.1274656,16.9582098 19.3028859,17.0002227 C14.4771645,17.0416438 14.5245482,22.9583562 9.69825584,22.9997773 C4.87310524,23.0417902 4.82572149,17.1244861 1.77635684e-15,17.1659072" id="Stroke-1"></path>
                    <path d="M29,13.8340928 C24.1748494,13.8749222 24.1274656,7.95820983 19.3028859,8.00022269 C14.4771645,8.04105209 14.5245482,13.9583562 9.69825584,13.9997773 C4.87310524,14.0417902 4.82572149,8.12448607 1.77635684e-15,8.1659072" id="Stroke-3"></path>
                    <path d="M29,5.8340928 C24.1748494,5.87551393 24.1274656,-0.0417901932 19.3028859,0.000222666054 C14.4771645,0.0416437949 14.5245482,5.95894791 9.69825584,5.99977731 C4.87310524,6.04179017 4.82572149,0.125077783 1.77635684e-15,0.165907181" id="Stroke-5"></path>
                </g>
            </g>
        </g>
    </g>
</svg>