<svg id="illustrations" xmlns="http://www.w3.org/2000/svg" viewBox="0 0 25 40"><defs><style>.cls-1{fill:#9b9b9b;}.cls-2,.cls-3{fill:none;stroke-linecap:round;stroke-miterlimit:10;}.cls-2{stroke:#9b9b9b;}.cls-3{stroke:#2c41c6;}</style></defs><title>contact-icon-personal-data</title><path class="cls-1" d="M11.5,3a4,4,0,1,1-4,4,4,4,0,0,1,4-4m0-1a5,5,0,1,0,5,5,5,5,0,0,0-5-5Z"/><path class="cls-2" d="M20,19a7.9,7.9,0,0,0-7.52-5.5H10.71a7.9,7.9,0,0,0-7.9,7.9V32.72H9.29"/><path class="cls-3" d="M14.06,21.47a6.16,6.16,0,0,1,3.15-.87,5.4,5.4,0,0,1,5.59,5.21v1.12"/><path class="cls-3" d="M22.8,32.09V33.2a5.4,5.4,0,0,1-5.59,5.21,6.16,6.16,0,0,1-3.15-.87"/><path class="cls-3" d="M11.63,32.14V25.81a4.81,4.81,0,0,1,1-3.12"/><path class="cls-3" d="M12.82,36.48a5.13,5.13,0,0,1-1.1-2.63"/><path class="cls-3" d="M13.68,27.42V26.36a3.41,3.41,0,0,1,3.53-3.18,3.41,3.41,0,0,1,3.53,3.18v6.28"/><path class="cls-3" d="M20.21,34.57a3.67,3.67,0,0,1-3,1.51A3.59,3.59,0,0,1,13.91,34a2.81,2.81,0,0,1-.23-1.1V31.84"/><path class="cls-3" d="M20.06,34.77a3.69,3.69,0,0,1-2.84,1.31,3.76,3.76,0,0,1-.7-.07"/><path class="cls-3" d="M15.84,33V27.06a1.39,1.39,0,0,1,2.76,0v2"/><line class="cls-3" x1="22.8" y1="28.79" x2="22.8" y2="32.14"/><line class="cls-3" x1="13.68" y1="32.68" x2="13.68" y2="29.18"/><line class="cls-3" x1="18.6" y1="31.18" x2="18.6" y2="32.98"/></svg>