<svg id="Layer" xmlns="http://www.w3.org/2000/svg" viewBox="0 0 725.96 256.49"><defs><style>.cls-1,.cls-4{fill:none;stroke-miterlimit:10;}.cls-1{stroke:#51b793;}.cls-2{fill:#f2f2f2;}.cls-3{fill:#2c41c6;}.cls-4{stroke:#2c41c6;stroke-width:0.5px;}</style></defs><title>manifesto-header</title><path class="cls-1" d="M118.26,211.88a44.13,44.13,0,0,0,4.66-18.63c0-10-2.6-17.57-6.32-22.63-6.12-8.31-8.28-17.84-7-29.95,1.27-11.91,13.31-39.26,42.59-39.26s42.59,12,47.92,23.29S204.77,154,204.77,154a16.36,16.36,0,0,0,3.33,8.65c3.33,4.66,7.32,12,8,14s.67,5.32-2.66,6-6,0-6,2.66a25.18,25.18,0,0,0,.67,5.32s-1.33,2.66-4,2.66c0,0,3.33,2,3.33,3.33a6,6,0,0,1-2.66,4.66v6.65s1.33,8-8.65,8-13.31-2-16.64-2-6,2.66-6,10.65v12"/><path class="cls-2" d="M131,197.81h8s3-33,27-33c9,0,13,2,19,2s13-5,13-19-4-27-24-34c-21.21-7.42-38-3-46,6s-15.22,26.55-8,41c7,14,11,21,11,30Z"/><path class="cls-1" d="M542.94,211.88a44.13,44.13,0,0,0,4.66-18.63c0-10-2.6-17.57-6.32-22.63-6.12-8.31-8.28-17.84-7-29.95,1.27-11.91,13.31-39.26,42.59-39.26s42.59,12,47.92,23.29S629.45,154,629.45,154a16.36,16.36,0,0,0,3.33,8.65c3.33,4.66,7.32,12,8,14s.67,5.32-2.66,6-6,0-6,2.66a25.18,25.18,0,0,0,.67,5.32s-1.33,2.66-4,2.66c0,0,3.33,2,3.33,3.33a6,6,0,0,1-2.66,4.66v6.65s1.33,8-8.65,8-13.31-2-16.64-2-6,2.66-6,10.65v12"/><path class="cls-2" d="M555.65,197.81h8s3-33,27-33c9,0,13,2,19,2s13-5,13-19-4-27-24-34c-21.21-7.42-38-3-46,6s-15.22,26.55-8,41c7,14,11,21,11,30Z"/><path class="cls-1" d="M330.61,211.88a44.13,44.13,0,0,0,4.66-18.63c0-10-2.6-17.57-6.32-22.63-6.12-8.31-8.28-17.84-7-29.95,1.27-11.91,13.31-39.26,42.59-39.26s42.59,12,47.92,23.29S417.12,154,417.12,154a16.36,16.36,0,0,0,3.33,8.65c3.33,4.66,7.32,12,8,14s.67,5.32-2.66,6-6,0-6,2.66a25.18,25.18,0,0,0,.67,5.32s-1.33,2.66-4,2.66c0,0,3.33,2,3.33,3.33a6,6,0,0,1-2.66,4.66v6.65s1.33,8-8.65,8-13.31-2-16.64-2-6,2.66-6,10.65v12"/><path class="cls-2" d="M343.32,197.81h8s3-33,27-33c9,0,13,2,19,2s13-5,13-19-4-27-24-34c-21.21-7.42-38-3-46,6s-15.22,26.55-8,41c7,14,11,21,11,30Z"/><circle class="cls-3" cx="142.97" cy="52.81" r="1"/><circle class="cls-3" cx="166.97" cy="88.81" r="1"/><circle class="cls-3" cx="201.97" cy="100.81" r="1"/><circle class="cls-3" cx="185.97" cy="80.81" r="1"/><circle class="cls-3" cx="194.97" cy="68.81" r="1"/><circle class="cls-3" cx="158.97" cy="75.81" r="1"/><circle class="cls-3" cx="158.97" cy="142.81" r="1"/><circle class="cls-3" cx="116.97" cy="115.81" r="1"/><circle class="cls-3" cx="170.18" cy="98.63" r="1" transform="translate(-11.68 23.68) rotate(-7.7)"/><circle class="cls-3" cx="162.79" cy="141" r="1" transform="translate(-17.42 23.07) rotate(-7.7)"/><circle class="cls-3" cx="155.59" cy="177.29" r="1" transform="matrix(0.99, -0.13, 0.13, 0.99, -22.34, 22.43)"/><circle class="cls-3" cx="76.97" cy="162.81" r="1" transform="translate(-21.11 11.77) rotate(-7.7)"/><circle class="cls-3" cx="173.26" cy="158.76" r="1" transform="translate(-19.7 24.63) rotate(-7.7)"/><circle class="cls-3" cx="173.48" cy="130.47" r="1" transform="matrix(0.99, -0.13, 0.13, 0.99, -15.91, 24.41)"/><circle class="cls-3" cx="108.21" cy="140.3" r="1" transform="translate(-17.81 15.75) rotate(-7.7)"/><circle class="cls-3" cx="134.97" cy="93.81" r="1" transform="translate(-11.35 18.92) rotate(-7.7)"/><circle class="cls-3" cx="129.84" cy="196.72" r="1" transform="translate(-68.16 68.83) rotate(-23.72)"/><circle class="cls-3" cx="162.15" cy="168.32" r="1" transform="translate(-54.01 79.43) rotate(-23.72)"/><circle class="cls-3" cx="144.97" cy="160.81" r="1" transform="translate(-52.44 71.89) rotate(-23.72)"/><circle class="cls-3" cx="189.37" cy="143.26" r="1" transform="translate(-41.63 88.26) rotate(-23.72)"/><circle class="cls-3" cx="241.97" cy="125.81" r="1" transform="translate(-30.17 107.95) rotate(-23.72)"/><circle class="cls-3" cx="182.76" cy="168.01" r="1" transform="translate(-52.14 87.7) rotate(-23.72)"/><circle class="cls-3" cx="158.73" cy="182.93" r="1" transform="translate(-60.17 79.29) rotate(-23.72)"/><circle class="cls-3" cx="178.97" cy="196.81" r="1" transform="translate(-64.04 88.6) rotate(-23.72)"/><circle class="cls-3" cx="128.97" cy="133.81" r="1" transform="translate(-42.93 63.17) rotate(-23.72)"/><circle class="cls-3" cx="87.97" cy="117.81" r="1" transform="translate(-39.96 45.33) rotate(-23.72)"/><circle class="cls-3" cx="105.51" cy="163.72" r="1" transform="translate(-56.94 56.26) rotate(-23.72)"/><circle class="cls-3" cx="161.14" cy="158.05" r="1" transform="translate(-37.36 50.61) rotate(-16.02)"/><circle class="cls-3" cx="137.33" cy="122.23" r="1" transform="translate(-28.4 42.65) rotate(-16.02)"/><circle class="cls-3" cx="116.14" cy="91.9" r="1" transform="translate(-20.85 35.62) rotate(-16.02)"/><circle class="cls-3" cx="92.19" cy="41.81" r="1" transform="translate(-7.96 27.07) rotate(-16.02)"/><circle class="cls-3" cx="143.97" cy="97.81" r="1" transform="translate(-21.4 43.53) rotate(-16.02)"/><circle class="cls-3" cx="151.35" cy="127.56" r="1" transform="translate(-29.33 46.72) rotate(-16.02)"/><circle class="cls-3" cx="87.64" cy="144.82" r="1" transform="translate(-36.56 29.81) rotate(-16.02)"/><circle class="cls-3" cx="125.18" cy="177.74" r="1" transform="translate(-44.19 41.45) rotate(-16.02)"/><circle class="cls-3" cx="65.97" cy="191.81" r="1" transform="translate(-50.37 25.66) rotate(-16.02)"/><circle class="cls-3" cx="138.59" cy="50.23" r="1"/><circle class="cls-3" cx="113.59" cy="77.23" r="1"/><circle class="cls-3" cx="79.59" cy="98.23" r="1"/><circle class="cls-3" cx="95.59" cy="78.23" r="1"/><circle class="cls-3" cx="86.59" cy="66.23" r="1"/><circle class="cls-3" cx="122.59" cy="73.23" r="1"/><circle class="cls-3" cx="122.59" cy="140.23" r="1"/><circle class="cls-3" cx="164.59" cy="113.23" r="1"/><circle class="cls-3" cx="96.59" cy="105.34" r="1" transform="translate(-20.74 186.94) rotate(-82.3)"/><circle class="cls-3" cx="118.77" cy="138.41" r="1" transform="translate(-34.3 237.57) rotate(-82.3)"/><circle class="cls-3" cx="125.97" cy="174.7" r="1" transform="translate(-64.03 276.14) rotate(-82.3)"/><circle class="cls-3" cx="204.59" cy="160.23" r="1" transform="translate(18.41 341.51) rotate(-82.3)"/><circle class="cls-3" cx="108.29" cy="156.17" r="1" transform="translate(-60.97 242.57) rotate(-82.3)"/><circle class="cls-3" cx="108.08" cy="127.89" r="1" transform="translate(-33.13 217.87) rotate(-82.3)"/><circle class="cls-3" cx="173.35" cy="137.72" r="1" transform="translate(13.66 291.06) rotate(-82.3)"/><circle class="cls-3" cx="146.59" cy="91.23" r="1" transform="translate(36.55 224.27) rotate(-82.3)"/><circle class="cls-3" cx="141.97" cy="211.06" r="1" transform="translate(-108.37 256.15) rotate(-66.28)"/><circle class="cls-3" cx="119.41" cy="165.74" r="1" transform="translate(-80.36 208.4) rotate(-66.28)"/><circle class="cls-3" cx="136.59" cy="158.23" r="1" transform="translate(-63.21 219.64) rotate(-66.28)"/><circle class="cls-3" cx="92.19" cy="140.67" r="1" transform="translate(-73.68 168.5) rotate(-66.28)"/><circle class="cls-3" cx="39.59" cy="123.23" r="1" transform="translate(-89.16 109.91) rotate(-66.28)"/><circle class="cls-3" cx="98.8" cy="165.42" r="1" transform="translate(-92.39 189.34) rotate(-66.28)"/><circle class="cls-3" cx="122.82" cy="180.34" r="1" transform="translate(-91.69 220.26) rotate(-66.28)"/><circle class="cls-3" cx="102.59" cy="194.23" r="1" transform="translate(-116.5 210.03) rotate(-66.28)"/><circle class="cls-3" cx="152.59" cy="131.23" r="1" transform="translate(-28.93 218.15) rotate(-66.28)"/><circle class="cls-3" cx="193.59" cy="115.23" r="1" transform="translate(10.23 246.12) rotate(-66.28)"/><circle class="cls-3" cx="176.05" cy="161.13" r="1" transform="translate(-42.28 257.5) rotate(-66.28)"/><circle class="cls-3" cx="120.42" cy="155.46" r="1" transform="translate(-62.24 228.3) rotate(-73.98)"/><circle class="cls-3" cx="144.23" cy="119.64" r="1" transform="translate(-10.57 225.25) rotate(-73.98)"/><circle class="cls-3" cx="165.42" cy="89.31" r="1" transform="translate(33.93 223.66) rotate(-73.98)"/><circle class="cls-3" cx="221.59" cy="70.23" r="1" transform="translate(92.94 263.83) rotate(-73.98)"/><circle class="cls-3" cx="130.21" cy="124.98" r="1" transform="translate(-25.85 215.64) rotate(-73.98)"/><circle class="cls-3" cx="193.92" cy="142.23" r="1" transform="translate(3.7 289.37) rotate(-73.98)"/><circle class="cls-3" cx="156.38" cy="175.15" r="1" transform="translate(-55.12 277.12) rotate(-73.98)"/><circle class="cls-3" cx="216.43" cy="125.98" r="1" transform="translate(35.62 299.24) rotate(-73.98)"/><polygon class="cls-4" points="169.97 98.81 136.97 121.81 150.97 127.81 173.97 130.81 201.97 100.81 128.97 133.81 116.97 115.81 143.97 97.81 145.38 161.73 105.51 163.72 87.64 144.82 189.37 143.26 157.97 75.81 92.19 41.81 134.97 93.81 142.97 53.81 116.14 91.9 124.22 178.01 241.97 125.81 194.97 68.81 166.97 88.81 87.97 117.81 162.79 141 161.14 158.05 108.21 140.3 76.97 162.81 129.84 196.72 182.76 168.01 158.97 142.81 162.15 168.32 155.59 177.29 178.97 196.81 185.97 80.81 169.97 98.81"/><line class="cls-4" x1="88.89" y1="117.41" x2="116.97" y2="115.81"/><polyline class="cls-4" points="135.96 93.68 143.97 97.81 159.97 75.81"/><polyline class="cls-4" points="194.97 68.81 201.97 100.81 241.97 125.81"/><polyline class="cls-4" points="241.06 126.22 189.77 144.18 173.26 130.47 173.26 158.76 159.65 182.53"/><polyline class="cls-4" points="125.18 178.29 65.01 192.09 106.43 163.31 108.34 141.29 116.97 116.81 136.97 121.81"/><circle class="cls-3" cx="694.19" cy="117.41" r="1"/><circle class="cls-3" cx="658.17" cy="158.23" r="1"/><circle class="cls-3" cx="586.83" cy="124.98" r="1"/><circle class="cls-3" cx="626.65" cy="100.81" r="1"/><circle class="cls-3" cx="564.27" cy="114.81" r="1"/><circle class="cls-3" cx="617.6" cy="124.81" r="1"/><circle class="cls-3" cx="583.65" cy="75.81" r="1"/><circle class="cls-3" cx="585.83" cy="150.48" r="1"/><circle class="cls-3" cx="541.65" cy="115.81" r="1"/><circle class="cls-3" cx="599.16" cy="87.81" r="1" transform="matrix(0.99, -0.13, 0.13, 0.99, -6.36, 81.03)"/><circle class="cls-3" cx="607.44" cy="20.32" r="1" transform="translate(2.75 81.53) rotate(-7.7)"/><circle class="cls-3" cx="587.47" cy="141" r="1" transform="translate(-13.59 79.94) rotate(-7.7)"/><circle class="cls-3" cx="568.91" cy="173.7" r="1" transform="translate(-18.14 77.75) rotate(-7.7)"/><circle class="cls-3" cx="506.84" cy="161.89" r="1" transform="translate(-17.11 69.33) rotate(-7.7)"/><circle class="cls-3" cx="595.86" cy="152.94" r="1" transform="translate(-15.11 81.18) rotate(-7.7)"/><circle class="cls-3" cx="598.16" cy="130.47" r="1" transform="translate(-12.08 81.28) rotate(-7.7)"/><circle class="cls-3" cx="608.44" cy="132.23" r="1" transform="translate(-12.23 82.67) rotate(-7.7)"/><circle class="cls-3" cx="555.89" cy="196.72" r="1" transform="translate(-32.18 240.2) rotate(-23.72)"/><circle class="cls-3" cx="586.83" cy="168.32" r="1" transform="translate(-18.14 250.24) rotate(-23.72)"/><circle class="cls-3" cx="569.65" cy="160.81" r="1" transform="translate(-16.57 242.7) rotate(-23.72)"/><circle class="cls-3" cx="614.05" cy="143.26" r="1" transform="translate(-5.76 259.07) rotate(-23.72)"/><circle class="cls-3" cx="607.44" cy="168.01" r="1" transform="translate(-16.27 258.51) rotate(-23.72)"/><circle class="cls-3" cx="583.41" cy="182.93" r="1" transform="translate(-24.31 250.1) rotate(-23.72)"/><circle class="cls-3" cx="552.65" cy="148.48" r="1" transform="translate(-13.05 234.82) rotate(-23.72)"/><circle class="cls-3" cx="553.65" cy="133.81" r="1" transform="translate(-7.06 233.98) rotate(-23.72)"/><circle class="cls-3" cx="501.32" cy="121.23" r="1" transform="translate(-6.42 211.87) rotate(-23.72)"/><circle class="cls-3" cx="258.07" cy="169.32" r="1" transform="translate(-46.31 118.1) rotate(-23.72)"/><circle class="cls-3" cx="530.19" cy="163.72" r="1" transform="translate(-21.07 227.07) rotate(-23.72)"/><circle class="cls-3" cx="583.65" cy="161.81" r="1" transform="translate(-21.99 167.36) rotate(-16.02)"/><circle class="cls-3" cx="566.65" cy="136.72" r="1" transform="translate(-15.72 161.69) rotate(-16.02)"/><circle class="cls-3" cx="540.82" cy="91.9" r="1" transform="translate(-4.36 152.82) rotate(-16.02)"/><circle class="cls-3" cx="507.84" cy="67.81" r="1" transform="translate(1.01 142.78) rotate(-16.02)"/><circle class="cls-3" cx="568.65" cy="97.81" r="1" transform="translate(-4.91 160.73) rotate(-16.02)"/><circle class="cls-3" cx="576.03" cy="127.56" r="1" transform="translate(-12.83 163.92) rotate(-16.02)"/><circle class="cls-3" cx="454.07" cy="136.02" r="1" transform="translate(115.09 467.34) rotate(-61.02)"/><circle class="cls-3" cx="490.65" cy="191.81" r="1" transform="translate(-33.88 142.86) rotate(-16.02)"/><circle class="cls-3" cx="563.27" cy="50.23" r="1"/><circle class="cls-3" cx="566.65" cy="149.48" r="1"/><circle class="cls-3" cx="504.27" cy="98.23" r="1"/><circle class="cls-3" cx="449.56" cy="86.81" r="1"/><circle class="cls-3" cx="476.82" cy="73.23" r="1"/><circle class="cls-3" cx="515.87" cy="81.81" r="1"/><circle class="cls-3" cx="254.43" cy="42.81" r="1"/><circle class="cls-3" cx="225.09" cy="62.93" r="1"/><circle class="cls-3" cx="183.76" cy="27.57" r="1"/><circle class="cls-3" cx="240.67" cy="182.53" r="1"/><circle class="cls-3" cx="607.44" cy="153.94" r="1"/><circle class="cls-3" cx="555.89" cy="117.81" r="1"/><circle class="cls-3" cx="547.27" cy="73.23" r="1"/><circle class="cls-3" cx="554.65" cy="74.52" r="1"/><circle class="cls-3" cx="547.27" cy="140.23" r="1"/><circle class="cls-3" cx="589.27" cy="113.23" r="1"/><circle class="cls-3" cx="521.27" cy="105.34" r="1" transform="translate(347.07 607.8) rotate(-82.3)"/><circle class="cls-3" cx="543.45" cy="138.41" r="1" transform="translate(333.5 658.43) rotate(-82.3)"/><circle class="cls-3" cx="550.65" cy="174.7" r="1" transform="translate(303.78 697) rotate(-82.3)"/><circle class="cls-3" cx="620.65" cy="160.81" r="1" transform="translate(378.17 754.34) rotate(-82.3)"/><circle class="cls-3" cx="559.65" cy="141.81" r="1" transform="translate(344.17 677.43) rotate(-82.3)"/><circle class="cls-3" cx="532.76" cy="127.89" r="1" transform="translate(334.68 638.72) rotate(-82.3)"/><circle class="cls-3" cx="598.03" cy="137.72" r="1" transform="translate(381.47 711.92) rotate(-82.3)"/><circle class="cls-3" cx="562.27" cy="130.23" r="1" transform="translate(357.92 669.99) rotate(-82.3)"/><circle class="cls-3" cx="566.65" cy="211.06" r="1" transform="translate(145.51 644.97) rotate(-66.28)"/><circle class="cls-3" cx="544.09" cy="165.74" r="1" transform="translate(173.51 597.22) rotate(-66.28)"/><circle class="cls-3" cx="561.27" cy="158.23" r="1" transform="translate(190.66 608.45) rotate(-66.28)"/><circle class="cls-3" cx="516.87" cy="140.67" r="1" transform="translate(180.19 557.32) rotate(-66.28)"/><circle class="cls-3" cx="522.27" cy="172.71" r="1" transform="translate(154.08 581.41) rotate(-66.28)"/><circle class="cls-3" cx="558.65" cy="187.29" r="1" transform="translate(162.48 623.44) rotate(-66.28)"/><circle class="cls-3" cx="563.27" cy="192.54" r="1" transform="translate(160.44 630.8) rotate(-66.28)"/><circle class="cls-3" cx="527.27" cy="194.23" r="1" transform="translate(137.37 598.85) rotate(-66.28)"/><circle class="cls-3" cx="44.36" cy="116.08" r="1" transform="translate(-15.15 6.99) rotate(-7.7)"/><circle class="cls-3" cx="54.39" cy="94.86" r="1" transform="translate(-54.34 106.51) rotate(-66.28)"/><circle class="cls-3" cx="59.79" cy="126.9" r="1" transform="translate(-80.45 130.6) rotate(-66.28)"/><circle class="cls-3" cx="54.39" cy="172.71" r="1" transform="translate(-125.61 153.05) rotate(-66.28)"/><circle class="cls-3" cx="25.94" cy="158.53" r="1" transform="translate(-129.64 118.52) rotate(-66.28)"/><circle class="cls-3" cx="64.79" cy="148.42" r="1" transform="translate(-97.15 148.04) rotate(-66.28)"/><circle class="cls-3" cx="506.84" cy="120.64" r="1"/><circle class="cls-3" cx="223.55" cy="152.95" r="1" transform="translate(-42.64 102.83) rotate(-23.72)"/><circle class="cls-3" cx="239.11" cy="172.39" r="1" transform="translate(-14.9 321.97) rotate(-66.28)"/><circle class="cls-3" cx="234.87" cy="144.26" r="1"/><circle class="cls-3" cx="570.14" cy="180.24" r="1" transform="translate(-19 77.98) rotate(-7.7)"/><circle class="cls-3" cx="663.69" cy="151.64" r="1" transform="translate(35.36 413.71) rotate(-35.51)"/><circle class="cls-3" cx="625.2" cy="110.06" r="1" transform="translate(8.53 260.75) rotate(-23.72)"/><circle class="cls-3" cx="617.74" cy="205.65" r="1"/><circle class="cls-3" cx="648.14" cy="138.2" r="1" transform="translate(260.93 676.01) rotate(-66.28)"/><circle class="cls-3" cx="662.69" cy="97.31" r="1" transform="translate(307.06 664.9) rotate(-66.28)"/><circle class="cls-3" cx="637.74" cy="84.64" r="1" transform="translate(303.74 634.49) rotate(-66.28)"/><circle class="cls-3" cx="264.78" cy="99.94" r="1"/><circle class="cls-3" cx="328.09" cy="159.53" r="1" transform="translate(-18.41 45.37) rotate(-7.7)"/><circle class="cls-3" cx="421.64" cy="136.94" r="1" transform="translate(-19.47 181.15) rotate(-23.72)"/><circle class="cls-3" cx="392.76" cy="94.45" r="1" transform="translate(-4.82 165.95) rotate(-23.72)"/><circle class="cls-3" cx="375.69" cy="184.94" r="1"/><circle class="cls-3" cx="406.08" cy="117.49" r="1" transform="translate(135.19 442.02) rotate(-66.28)"/><circle class="cls-3" cx="399.47" cy="92.74" r="1" transform="translate(153.89 421.18) rotate(-66.28)"/><circle class="cls-3" cx="395.69" cy="63.94" r="1" transform="translate(178 400.49) rotate(-66.28)"/><circle class="cls-3" cx="21.51" cy="111.52" r="1"/><circle class="cls-3" cx="84.81" cy="171.12" r="1" transform="translate(-22.15 12.9) rotate(-7.7)"/><circle class="cls-3" cx="178.36" cy="148.52" r="1" transform="translate(-44.67 84.28) rotate(-23.72)"/><circle class="cls-3" cx="149.49" cy="106.03" r="1" transform="translate(-30.02 69.08) rotate(-23.72)"/><circle class="cls-3" cx="132.41" cy="196.52" r="1"/><circle class="cls-3" cx="162.81" cy="129.07" r="1" transform="matrix(0.4, -0.92, 0.92, 0.4, -20.85, 226.21)"/><circle class="cls-3" cx="156.2" cy="104.32" r="1" transform="translate(-2.14 205.37) rotate(-66.28)"/><circle class="cls-3" cx="152.41" cy="75.52" r="1" transform="translate(21.97 184.69) rotate(-66.28)"/><circle class="cls-3" cx="577.27" cy="131.23" r="1" transform="translate(224.94 606.96) rotate(-66.28)"/><circle class="cls-3" cx="601.73" cy="121.64" r="1" transform="translate(248.34 623.63) rotate(-66.28)"/><circle class="cls-3" cx="599.03" cy="157.23" r="1" transform="translate(214.15 642.43) rotate(-66.28)"/><circle class="cls-3" cx="545.1" cy="155.46" r="1" transform="translate(245.24 636.49) rotate(-73.98)"/><circle class="cls-3" cx="568.91" cy="119.64" r="1" transform="translate(296.91 633.44) rotate(-73.98)"/><circle class="cls-3" cx="578.56" cy="117.81" r="1" transform="translate(305.66 641.4) rotate(-73.98)"/><circle class="cls-3" cx="646.27" cy="70.23" r="1" transform="translate(400.42 672.01) rotate(-73.98)"/><circle class="cls-3" cx="368.24" cy="175.77" r="1"/><circle class="cls-3" cx="325.24" cy="150.77" r="1"/><circle class="cls-3" cx="340.75" cy="162.77" r="1" transform="translate(-18.73 47.1) rotate(-7.7)"/><circle class="cls-3" cx="282.41" cy="166.86" r="1" transform="translate(-35.08 84.42) rotate(-16.02)"/><circle class="cls-3" cx="249.43" cy="142.77" r="1" transform="translate(-29.71 74.38) rotate(-16.02)"/><circle class="cls-3" cx="310.24" cy="172.77" r="1" transform="translate(-35.63 92.33) rotate(-16.02)"/><circle class="cls-3" cx="304.86" cy="125.19" r="1"/><circle class="cls-3" cx="245.86" cy="173.19" r="1"/><circle class="cls-3" cx="257.47" cy="156.77" r="1"/><circle class="cls-3" cx="288.86" cy="148.19" r="1"/><circle class="cls-3" cx="296.25" cy="149.48" r="1"/><circle class="cls-3" cx="379.33" cy="159.6" r="1" transform="translate(80.64 442.71) rotate(-66.28)"/><circle class="cls-3" cx="387.86" cy="145.19" r="1" transform="translate(141.27 477.91) rotate(-73.98)"/><circle class="cls-3" cx="438.73" cy="123.68" r="1" transform="translate(50.11 361.91) rotate(-47.25)"/><circle class="cls-3" cx="424.12" cy="76.13" r="1" transform="translate(80.33 335.91) rotate(-47.25)"/><circle class="cls-3" cx="427.36" cy="95.47" r="1" transform="translate(103.76 390.49) rotate(-54.95)"/><circle class="cls-3" cx="381.75" cy="58.87" r="1" transform="translate(157.47 373.35) rotate(-63.27)"/><path class="cls-3" d="M374.33,18.17a1,1,0,0,0-1.34.44,1,1,0,0,0,.44,1.32,1,1,0,0,0,1.34-.44A1,1,0,0,0,374.33,18.17Z"/><circle class="cls-3" cx="398.17" cy="82.11" r="1" transform="translate(145.76 400.81) rotate(-63.27)"/><path class="cls-3" d="M425.78,42.75a1,1,0,0,0,.06,1.39,1,1,0,0,0,1.41-.05,1,1,0,0,0-.06-1.39A1,1,0,0,0,425.78,42.75Z"/><circle class="cls-3" cx="350.61" cy="38.71" r="1" transform="translate(84.2 269.9) rotate(-47.25)"/><path class="cls-3" d="M369.54,33.9a1,1,0,0,0,.06,1.39,1,1,0,0,0,1.41-.05,1,1,0,0,0-.06-1.39A1,1,0,0,0,369.54,33.9Z"/><path class="cls-3" d="M398.42,48.7a1,1,0,0,0,.06,1.39,1,1,0,0,0,1.41-.05,1,1,0,0,0-.06-1.39A1,1,0,0,0,398.42,48.7Z"/><path class="cls-3" d="M403,54.58A1,1,0,0,0,403,56a1,1,0,0,0,1.41-.05,1,1,0,0,0-.06-1.39A1,1,0,0,0,403,54.58Z"/><circle class="cls-3" cx="457.85" cy="119.34" r="1" transform="translate(-9.57 192.75) rotate(-23.54)"/><circle class="cls-3" cx="473.89" cy="114.53" r="1" transform="translate(9.29 262.31) rotate(-31.23)"/><circle class="cls-3" cx="554.89" cy="124.98" r="1" transform="translate(281.63 623.83) rotate(-73.98)"/><circle class="cls-3" cx="618.6" cy="142.23" r="1" transform="translate(311.18 697.56) rotate(-73.98)"/><circle class="cls-3" cx="709.91" cy="140" r="1" transform="translate(379.43 783.7) rotate(-73.98)"/><circle class="cls-3" cx="448.56" cy="70.23" r="1" transform="translate(257.27 481.99) rotate(-73.98)"/><circle class="cls-3" cx="443.41" cy="125.98" r="1" transform="translate(199.95 517.4) rotate(-73.98)"/><polygon class="cls-4" points="589.27 113.23 564.27 114.45 555.89 117.81 543.45 138.41 545.1 155.46 544.09 165.74 550.65 174.71 556.81 196.31 558.65 187.29 568.77 172.71 583.38 160.85 607.04 167.09 620.65 160.81 618.6 142.23 617.66 125.81 617.6 124.81 589.27 113.23"/><polygon class="cls-4" points="589.27 113.23 586.83 124.98 598.16 130.47 601.73 121.64 598.03 137.72 608.44 132.23 601.73 121.64 589.27 113.23"/><polyline class="cls-4" points="576.03 127.56 568.91 119.64 578.57 117.81 577.27 131.23 566.65 136.72 576.03 127.56 566.65 149.48 587.47 141 577.27 131.23 586.83 124.98 601.73 121.64 617.6 124.81"/><polyline class="cls-4" points="566.65 136.72 559.65 141.81 553.65 133.81 562.27 130.23"/><polygon class="cls-4" points="566.15 149.48 561.27 158.23 569.65 160.81 566.15 149.48"/><polyline class="cls-4" points="550.65 174.71 561.27 158.23 558.65 142.81 552.65 148.48 550.65 174.71 568.91 173.71 566.15 149.48"/><line class="cls-4" x1="586.83" y1="168.32" x2="583.65" y2="161.81"/><line class="cls-4" x1="583.41" y1="161.64" x2="585.83" y2="151.48"/><line class="cls-4" x1="569.65" y1="160.81" x2="585.83" y2="150.48"/><line class="cls-4" x1="577.27" y1="131.23" x2="583.65" y2="161.81"/><polyline class="cls-4" points="583.41 161.81 550.65 174.71 558.65 187.29"/><line class="cls-4" x1="620.65" y1="160.81" x2="607.44" y2="153.94"/><polyline class="cls-4" points="607.44 168.01 607.44 153.94 599.03 157.23 607.44 168.01 586.83 168.32 568.91 173.71 563.27 192.31 555.89 196.72"/><polyline class="cls-4" points="561.27 158.23 545.1 155.46 552.65 148.48 547.27 140.23 553.65 133.81 554.89 124.98"/><polyline class="cls-4" points="543.45 138.41 547.27 140.23 559.65 141.81 566.65 149.48 585.83 150.48 597.9 138.71 599.03 157.23 595.87 152.94 607.44 153.94 614.05 143.26 618.6 142.23"/><line class="cls-4" x1="554.97" y1="124.44" x2="568.91" y2="119.64"/><polyline class="cls-4" points="586.83 125.98 587.47 141 595.87 152.94 617.6 124.81"/><polyline class="cls-4" points="587.47 141 598.03 137.72 614.05 143.26 617.6 124.81 608.44 132.23 618.6 142.23 607.44 153.94 598.03 137.72 598.16 130.47 587.47 141 585.83 150.48 595.87 152.94 583.65 161.81 566.65 149.48 562.27 130.23 554.89 124.98 555.89 117.81 568.91 119.64 564.27 114.81"/><line class="cls-4" x1="599.03" y1="157.23" x2="586.83" y2="168.32"/><polyline class="cls-4" points="544.09 165.74 569.65 160.81 577.27 131.23"/><polyline class="cls-4" points="563.27 192.31 558.65 187.29 569.65 160.81"/><polyline class="cls-4" points="568.91 119.64 562.27 130.23 576.03 127.56 586.83 124.98 578.57 117.81 589.27 113.23"/><circle class="cls-3" cx="493.03" cy="117.41" r="1"/><circle class="cls-3" cx="301.91" cy="56" r="1" transform="translate(2.97 126.16) rotate(-23.72)"/><circle class="cls-3" cx="307.43" cy="55.42" r="1"/><circle class="cls-3" cx="293.62" cy="52.18" r="1"/><circle class="cls-3" cx="439.23" cy="200.07" r="1" transform="translate(-43.37 193.56) rotate(-23.72)"/><circle class="cls-3" cx="473.41" cy="161.38" r="1" transform="translate(250.09 608.91) rotate(-82.3)"/><circle class="cls-3" cx="458.98" cy="176.69" r="1"/><circle class="cls-3" cx="445.18" cy="173.45" r="1"/><circle class="cls-3" cx="445.84" cy="158.23" r="1"/><circle class="cls-3" cx="374.5" cy="124.98" r="1"/><circle class="cls-3" cx="414.32" cy="100.81" r="1"/><circle class="cls-3" cx="351.93" cy="114.81" r="1"/><circle class="cls-3" cx="405.27" cy="124.81" r="1"/><circle class="cls-3" cx="371.32" cy="75.81" r="1"/><circle class="cls-3" cx="373.5" cy="150.48" r="1"/><circle class="cls-3" cx="329.32" cy="115.81" r="1"/><circle class="cls-3" cx="382.53" cy="98.63" r="1" transform="translate(-9.76 52.12) rotate(-7.7)"/><circle class="cls-3" cx="375.14" cy="141" r="1" transform="translate(-15.5 51.51) rotate(-7.7)"/><circle class="cls-3" cx="356.58" cy="173.7" r="1" transform="translate(-20.05 49.32) rotate(-7.7)"/><circle class="cls-3" cx="289.32" cy="162.81" r="1" transform="translate(-19.2 40.21) rotate(-7.7)"/><circle class="cls-3" cx="383.53" cy="152.94" r="1" transform="matrix(0.99, -0.13, 0.13, 0.99, -17.03, 52.74)"/><circle class="cls-3" cx="385.83" cy="130.47" r="1" transform="translate(-14 52.85) rotate(-7.7)"/><circle class="cls-3" cx="396.11" cy="132.23" r="1" transform="translate(-14.14 54.24) rotate(-7.7)"/><circle class="cls-3" cx="343.56" cy="196.72" r="1" transform="translate(-50.11 154.79) rotate(-23.72)"/><circle class="cls-3" cx="374.5" cy="168.32" r="1" transform="translate(-36.07 164.84) rotate(-23.72)"/><circle class="cls-3" cx="357.32" cy="160.81" r="1" transform="translate(-34.5 157.3) rotate(-23.72)"/><circle class="cls-3" cx="401.71" cy="143.26" r="1" transform="translate(-23.7 173.67) rotate(-23.72)"/><circle class="cls-3" cx="395.11" cy="168.01" r="1" transform="translate(-34.21 173.1) rotate(-23.72)"/><circle class="cls-3" cx="371.08" cy="182.93" r="1" transform="translate(-42.24 164.7) rotate(-23.72)"/><circle class="cls-3" cx="340.32" cy="148.48" r="1" transform="translate(-30.98 149.42) rotate(-23.72)"/><circle class="cls-3" cx="341.32" cy="133.81" r="1" transform="translate(-25 148.58) rotate(-23.72)"/><circle class="cls-3" cx="288.98" cy="121.23" r="1" transform="translate(-24.35 126.47) rotate(-23.72)"/><circle class="cls-3" cx="317.86" cy="163.72" r="1" transform="translate(-39 141.67) rotate(-23.72)"/><circle class="cls-3" cx="371.32" cy="161.81" r="1" transform="translate(-30.24 108.76) rotate(-16.02)"/><circle class="cls-3" cx="354.32" cy="136.72" r="1" transform="translate(-23.97 103.09) rotate(-16.02)"/><circle class="cls-3" cx="328.49" cy="91.9" r="1" transform="translate(-12.6 94.22) rotate(-16.02)"/><circle class="cls-3" cx="304.54" cy="33.65" r="1" transform="translate(2.54 85.35) rotate(-16.02)"/><circle class="cls-3" cx="356.32" cy="97.81" r="1" transform="translate(-13.16 102.13) rotate(-16.02)"/><circle class="cls-3" cx="363.7" cy="127.56" r="1" transform="translate(-21.08 105.32) rotate(-16.02)"/><circle class="cls-3" cx="252.92" cy="136.02" r="1" transform="translate(11.39 291.37) rotate(-61.02)"/><circle class="cls-3" cx="278.32" cy="191.81" r="1" transform="translate(-42.13 84.26) rotate(-16.02)"/><circle class="cls-3" cx="350.93" cy="50.23" r="1"/><circle class="cls-3" cx="354.32" cy="149.48" r="1"/><circle class="cls-3" cx="291.93" cy="98.23" r="1"/><circle class="cls-3" cx="395.11" cy="153.94" r="1"/><circle class="cls-3" cx="343.56" cy="117.81" r="1"/><circle class="cls-3" cx="334.93" cy="73.23" r="1"/><circle class="cls-3" cx="334.93" cy="140.23" r="1"/><circle class="cls-3" cx="376.93" cy="113.23" r="1"/><circle class="cls-3" cx="308.93" cy="105.34" r="1" transform="translate(163.18 397.38) rotate(-82.3)"/><circle class="cls-3" cx="331.11" cy="138.41" r="1" transform="translate(149.61 448.01) rotate(-82.3)"/><circle class="cls-3" cx="338.32" cy="174.7" r="1" transform="translate(119.88 486.58) rotate(-82.3)"/><circle class="cls-3" cx="408.32" cy="160.81" r="1" transform="translate(194.27 543.92) rotate(-82.3)"/><circle class="cls-3" cx="347.32" cy="141.81" r="1" transform="translate(160.27 467.01) rotate(-82.3)"/><circle class="cls-3" cx="320.43" cy="127.89" r="1" transform="translate(150.78 428.3) rotate(-82.3)"/><circle class="cls-3" cx="385.7" cy="137.72" r="1" transform="translate(197.57 501.5) rotate(-82.3)"/><circle class="cls-3" cx="349.93" cy="130.23" r="1" transform="translate(174.02 459.57) rotate(-82.3)"/><circle class="cls-3" cx="354.32" cy="211.06" r="1" transform="translate(18.58 450.57) rotate(-66.28)"/><circle class="cls-3" cx="331.76" cy="165.74" r="1" transform="translate(46.58 402.82) rotate(-66.28)"/><circle class="cls-3" cx="348.93" cy="158.23" r="1" transform="translate(63.73 414.05) rotate(-66.28)"/><circle class="cls-3" cx="304.54" cy="140.67" r="1" transform="translate(53.26 362.92) rotate(-66.28)"/><circle class="cls-3" cx="311.15" cy="165.42" r="1" transform="translate(34.55 383.76) rotate(-66.28)"/><circle class="cls-3" cx="346.32" cy="187.29" r="1" transform="translate(35.55 429.03) rotate(-66.28)"/><circle class="cls-3" cx="350.93" cy="192.54" r="1" transform="translate(33.51 436.4) rotate(-66.28)"/><circle class="cls-3" cx="314.93" cy="194.23" r="1" transform="translate(10.44 404.44) rotate(-66.28)"/><circle class="cls-3" cx="364.93" cy="131.23" r="1" transform="translate(98.01 412.56) rotate(-66.28)"/><circle class="cls-3" cx="389.4" cy="121.64" r="1" transform="translate(121.41 429.23) rotate(-66.28)"/><circle class="cls-3" cx="386.7" cy="157.23" r="1" transform="translate(87.22 448.03) rotate(-66.28)"/><circle class="cls-3" cx="332.77" cy="155.46" r="1" transform="translate(91.51 432.4) rotate(-73.98)"/><circle class="cls-3" cx="356.58" cy="119.64" r="1" transform="translate(143.18 429.35) rotate(-73.98)"/><circle class="cls-3" cx="366.23" cy="117.81" r="1" transform="translate(151.92 437.31) rotate(-73.98)"/><circle class="cls-3" cx="433.93" cy="70.23" r="1" transform="translate(246.68 467.93) rotate(-73.98)"/><circle class="cls-3" cx="342.56" cy="124.98" r="1" transform="translate(127.9 419.74) rotate(-73.98)"/><circle class="cls-3" cx="406.27" cy="142.23" r="1" transform="translate(157.44 493.47) rotate(-73.98)"/><circle class="cls-3" cx="428.78" cy="125.98" r="1" transform="translate(189.36 503.34) rotate(-73.98)"/><circle class="cls-3" cx="258.58" cy="70.23" r="1" transform="translate(119.72 299.39) rotate(-73.98)"/><circle class="cls-3" cx="253.43" cy="125.98" r="1" transform="translate(62.4 334.8) rotate(-73.98)"/><line class="cls-4" x1="344.47" y1="196.32" x2="346.32" y2="187.29"/><line class="cls-4" x1="351.93" y1="114.45" x2="343.56" y2="117.81"/><polyline class="cls-4" points="406.27 142.23 405.33 125.81 405.27 124.81 376.93 113.23"/><polyline class="cls-4" points="356.44 172.71 371.04 160.85 394.71 167.09 408.32 160.81 443.41 125.98 429.74 126.25 453.59 136.89"/><line class="cls-4" x1="341.32" y1="133.81" x2="349.93" y2="130.23"/><line class="cls-4" x1="354.32" y1="136.72" x2="347.32" y2="141.81"/><polygon class="cls-4" points="353.82 149.48 348.93 158.23 357.32 160.81 353.82 149.48"/><line class="cls-4" x1="356.58" y1="173.7" x2="353.82" y2="149.48"/><polyline class="cls-4" points="338.32 174.71 348.93 158.23 346.32 142.81 340.32 148.48"/><line class="cls-4" x1="374.5" y1="168.32" x2="371.32" y2="161.81"/><line class="cls-4" x1="371.08" y1="161.64" x2="373.5" y2="151.48"/><line class="cls-4" x1="357.32" y1="160.81" x2="373.5" y2="150.48"/><line class="cls-4" x1="364.93" y1="131.23" x2="371.32" y2="161.81"/><line class="cls-4" x1="338.32" y1="174.7" x2="346.32" y2="187.29"/><line class="cls-4" x1="395.11" y1="153.94" x2="386.7" y2="157.23"/><polyline class="cls-4" points="348.93 158.23 332.77 155.46 340.32 148.48 334.93 140.23 341.32 133.81 342.56 124.98"/><polyline class="cls-4" points="374.5 125.98 375.14 141 383.53 152.94"/><polyline class="cls-4" points="375.14 141 385.7 137.72 401.71 143.26 405.27 124.81 396.11 132.23 406.27 142.23 395.11 153.94 385.7 137.72 385.83 130.47 375.14 141 373.5 150.48 383.53 152.94 371.32 161.81 354.32 149.48 349.93 130.23 342.56 124.98 343.56 117.81 356.58 119.64 351.93 114.81"/><line class="cls-4" x1="386.7" y1="157.23" x2="374.5" y2="168.32"/><polyline class="cls-4" points="350.93 192.31 346.32 187.29 357.32 160.81"/><polyline class="cls-4" points="356.58 119.64 349.93 130.23 363.7 127.56 374.5 124.98 366.23 117.81 376.93 113.23"/><polyline class="cls-4" points="331.76 165.74 332.77 155.46 331.12 138.41 328.32 115.81 349.93 50.23 356.32 97.81 333.93 73.23 371.32 75.81 389.8 120.72"/><polyline class="cls-4" points="448.56 70.23 434.89 70.5 413.32 100.81 384.84 130.61"/><polyline class="cls-4" points="291.93 99.23 289.39 122.14 321.42 128.02 330.12 138.28"/><line class="cls-4" x1="355.36" y1="98.09" x2="433.66" y2="71.19"/><polyline class="cls-4" points="290.31 162.68 304.94 139.76 310.74 166.34"/><polyline class="cls-4" points="314.93 194.23 353.92 211.97 371.49 183.85 356.58 173.71 350.93 192.31 343.56 196.72"/></svg>