<svg id="Layer" xmlns="http://www.w3.org/2000/svg" xmlns:xlink="http://www.w3.org/1999/xlink" viewBox="0 0 570 190"><defs><style>.cls-1,.cls-12,.cls-13,.cls-14,.cls-15,.cls-16,.cls-18,.cls-2,.cls-20,.cls-21,.cls-22,.cls-3,.cls-4,.cls-5,.cls-7{fill:none;}.cls-1,.cls-11,.cls-7{stroke:#51b793;}.cls-1,.cls-10,.cls-11,.cls-12,.cls-13,.cls-14,.cls-15,.cls-16,.cls-17,.cls-18,.cls-19,.cls-2,.cls-20,.cls-21,.cls-22,.cls-3,.cls-4,.cls-5,.cls-7,.cls-8,.cls-9{stroke-miterlimit:10;}.cls-10,.cls-14,.cls-2,.cls-9{stroke:#2c41c6;}.cls-20,.cls-3,.cls-4,.cls-5,.cls-8{stroke:#dadada;}.cls-13,.cls-14,.cls-15,.cls-16,.cls-3,.cls-4,.cls-5,.cls-7,.cls-8{stroke-linecap:round;}.cls-3,.cls-4,.cls-5{stroke-width:2px;}.cls-4{stroke-dasharray:0 8.17;}.cls-5{stroke-dasharray:0 8;}.cls-6{clip-path:url(#clip-path);}.cls-10,.cls-19,.cls-8{fill:#fff;}.cls-9{fill:#abb3e8;}.cls-11{fill:#b9e2d4;}.cls-12,.cls-16{stroke:#fa7822;}.cls-13,.cls-17{stroke:#de2a50;}.cls-15{stroke:#fac02f;}.cls-17{fill:#ee94a7;}.cls-18{stroke:#ccc;}.cls-19,.cls-22{stroke:#3c3c3b;}.cls-21{stroke:gray;}</style><clipPath id="clip-path"><path class="cls-1" d="M438.92,28.11l.16-16.74a20.6,20.6,0,0,0-8.82,2.06,9.95,9.95,0,0,0,8.66,14.67Z"/></clipPath></defs><title>manifesto-illustration-1</title><path class="cls-2" d="M250.47,111.25s6.05,6.92,6.1,43.53"/><path class="cls-2" d="M299.86,104.69a137.61,137.61,0,0,1,13.58,4.81c5,2.25,11.09,7.66,13.07,21.07a143.93,143.93,0,0,1,1.69,24.1l-40.86.06h-6.63l-41.83.06a143.93,143.93,0,0,1,1.62-24.11c1.94-13.41,8-18.85,13-21.11A135.15,135.15,0,0,1,267,104.77"/><path class="cls-2" d="M316.47,111.15s-6,6.94-6,43.55"/><path class="cls-2" d="M293.94,96.7l12.46,1.06a121.11,121.11,0,0,0,4.68-26.9c1-18.78-11.9-30-28-30a29.73,29.73,0,0,0-22,10.16c-3.34,3.9-5.93,9.4-5.05,19.38,1.66,12.47,2.37,21.67,4.87,28.34l12.6-1.48"/><path class="cls-2" d="M302.49,69.2A136.53,136.53,0,0,1,277,70.64c-.43,0-1.61-9.19-2-9.21-.69,0-.62,9.11-1.27,9.08-4-.19-7.22-.49-9.16-.73-.34,0-2.11-8.78-1.92-7.39,0,16.93,5.15,27.13,9.21,31.52h0L273,95c.5.48,1,.9,1.48,1.3.33.28.67.53,1,.78l.69.5c.32.22.63.42.94.62l.66.4.88.49.59.31.82.38.5.21.74.29.4.14.64.2.29.08.5.13.19,0,.26.05a19.91,19.91,0,0,0,2.22-.71l.34-.13c.66-.27,1.31-.56,1.93-.89l.51-.27c.61-.33,1.2-.68,1.77-1.06l.45-.32c.47-.32.92-.66,1.37-1l.48-.38c.58-.48,1.15-1,1.69-1.5h0c6.53-6.28,10-22.56,10-31.35,0,0,.13-2.1-.41.36A33.18,33.18,0,0,1,302.49,69.2Z"/><path class="cls-2" d="M293.2,95.66l1.6,8,5.06,1c-1,7.29-4.75,26.92-16.22,26.92-12.59,0-15.49-19.15-16.63-26.84l5.47-1.1,1.59-7.73"/><path class="cls-2" d="M298.4,104.69c-.93,5.74-4.33,21.17-14.78,21.17-11.47,0-14.12-15.06-15.15-21.11"/><line class="cls-3" x1="324.08" y1="48.27" x2="324.08" y2="48.27"/><path class="cls-4" d="M330.36,43.06C341.24,35,366,20.38,403.17,19.94"/><line class="cls-3" x1="407.26" y1="19.95" x2="407.26" y2="19.95"/><path class="cls-5" d="M238,60.63S209.11,29.9,156.8,43.24"/><path class="cls-5" d="M337.53,115.45s65,37.05,149,16.38"/><path class="cls-5" d="M212.67,106.5S134,102.1,74.76,143.7"/><path class="cls-1" d="M447.86,13.61a10,10,0,1,1-17.6-.17,34.71,34.71,0,0,0-10.12,7.39s8.35,9.72,18.75,9.82,18.94-9.45,18.94-9.45A34.71,34.71,0,0,0,447.86,13.61Z"/><path class="cls-1" d="M438.92,28.11a9.95,9.95,0,0,0,8.94-14.5,19.09,19.09,0,0,0-17.6-.17,9.95,9.95,0,0,0,8.66,14.67Z"/><g class="cls-6"><line class="cls-1" x1="449.47" y1="18.83" x2="422.75" y2="45.04"/><line class="cls-1" x1="449.31" y1="14.88" x2="422.59" y2="41.08"/><line class="cls-1" x1="449.15" y1="10.92" x2="422.43" y2="37.13"/><line class="cls-1" x1="448.99" y1="6.97" x2="422.28" y2="33.18"/><line class="cls-1" x1="448.83" y1="3.02" x2="422.12" y2="29.22"/><line class="cls-1" x1="448.68" y1="-0.94" x2="421.96" y2="25.27"/></g><path class="cls-1" d="M438.92,28.11l.16-16.74a20.6,20.6,0,0,0-8.82,2.06,9.95,9.95,0,0,0,8.66,14.67Z"/><line class="cls-7" x1="438.98" y1="28.11" x2="438.98" y2="11.37"/><polyline class="cls-8" points="331.92 49.81 323.34 49.83 323.32 41.25"/><polyline class="cls-8" points="243.12 57.13 243.15 65.71 234.57 65.73"/><polyline class="cls-8" points="337.87 123.3 336.22 114.88 344.64 113.23"/><polyline class="cls-8" points="216.38 113.1 223.17 107.86 217.94 101.06"/><rect class="cls-9" x="82.79" y="15.65" width="69.04" height="47.24" rx="1.19" ry="1.19"/><rect class="cls-9" x="76.84" y="60.04" width="80.94" height="4.09" rx="0.6" ry="0.6"/><rect class="cls-10" x="85.68" y="18.28" width="63.25" height="38.36" rx="1.16" ry="1.16"/><rect class="cls-11" x="102.49" y="41.86" width="29.63" height="6.78"/><polyline class="cls-12" points="111.88 31.28 115.51 34.91 124.85 25.56"/><path class="cls-9" d="M509.06,158.27l-21.47-6.09a.47.47,0,0,1-.32-.57l11.89-42.41a.46.46,0,0,1,.57-.32L521.21,115a.47.47,0,0,1,.32.57l-11.89,42.41A.46.46,0,0,1,509.06,158.27Z"/><path class="cls-10" d="M508.89,148.65l-16.15-4.58a.47.47,0,0,1-.32-.57l8.33-29.72a.46.46,0,0,1,.57-.32L517.47,118a.47.47,0,0,1,.32.57l-8.33,29.72A.46.46,0,0,1,508.89,148.65Z"/><path class="cls-2" d="M501.7,151.41a2.21,2.21,0,1,1-1.53-2.75A2.21,2.21,0,0,1,501.7,151.41Z"/><path class="cls-13" d="M504.73,122.78a5.4,5.4,0,0,1,2.59.05,4.75,4.75,0,0,1,3.53,5.71l-.25.95"/><path class="cls-13" d="M509.42,133.88l-.25.95a4.72,4.72,0,0,1-5.91,3.15,5.44,5.44,0,0,1-2.19-1.2"/><path class="cls-13" d="M500.26,130.3l1.16-4.32a4.24,4.24,0,0,1,1.59-2.41"/><path class="cls-13" d="M500,135.4a4.55,4.55,0,0,1-.32-2.83"/><line class="cls-13" x1="509.99" y1="131.72" x2="509.41" y2="133.92"/><path class="cls-13" d="M502.36,132.76l1.61-6a2.18,2.18,0,0,1,4.18,1.13l-.81,3"/><line class="cls-13" x1="506.9" y1="132.76" x2="506.34" y2="134.86"/><line class="cls-13" x1="505.79" y1="128.54" x2="504.2" y2="134.47"/><line class="cls-14" x1="31.82" y1="160.59" x2="20.23" y2="160.59"/><line class="cls-14" x1="60.11" y1="160.59" x2="56.99" y2="160.59"/><polyline class="cls-14" points="23.38 156.99 19.78 160.59 23.38 164.19"/><line class="cls-14" x1="66.11" y1="160.59" x2="63" y2="160.59"/><line class="cls-15" x1="56.95" y1="152.09" x2="65.94" y2="152.09"/><polyline class="cls-15" points="62.79 148.49 66.39 152.09 62.79 155.69"/><line class="cls-16" x1="61.22" y1="169.09" x2="70.21" y2="169.09"/><polyline class="cls-16" points="67.06 165.48 70.66 169.09 67.06 172.69"/><line class="cls-16" x1="58.55" y1="169.09" x2="56.99" y2="169.09"/><line class="cls-16" x1="32.6" y1="169.09" x2="28.37" y2="169.09"/><line class="cls-15" x1="36.61" y1="152.09" x2="28.37" y2="152.09"/><line class="cls-15" x1="54.82" y1="152.09" x2="52.89" y2="152.09"/><line class="cls-16" x1="25.86" y1="169.09" x2="23.38" y2="169.09"/><circle class="cls-17" cx="44.27" cy="148.74" r="4.78" transform="translate(-0.62 0.19) rotate(-0.24)"/><path class="cls-17" d="M35.58,155.72H53.1a0,0,0,0,1,0,0v11.39a7.73,7.73,0,0,1-7.73,7.73H43.3a7.73,7.73,0,0,1-7.73-7.73V155.72a0,0,0,0,1,0,0Z" transform="translate(89.38 330.37) rotate(179.76)"/><circle class="cls-18" cx="36.5" cy="24.5" r="3"/><circle class="cls-19" cx="89.21" cy="111.51" r="3"/><circle class="cls-20" cx="157.06" cy="135.42" r="4" transform="translate(-27.38 230.23) rotate(-67.97)"/><circle class="cls-19" cx="439.14" cy="66.64" r="3"/><circle class="cls-20" cx="542.98" cy="167.26" r="3"/><line class="cls-21" x1="376.31" y1="172.57" x2="405.21" y2="172.57"/><line class="cls-18" x1="392.61" y1="168.82" x2="414.47" y2="168.82"/><line class="cls-22" x1="409.65" y1="172.57" x2="414.47" y2="172.57"/><ellipse class="cls-20" cx="386.68" cy="168.82" rx="2.22"/><ellipse class="cls-22" cx="378.53" cy="168.82" rx="2.22"/><line class="cls-21" x1="504.01" y1="45.98" x2="516.01" y2="45.98"/><line class="cls-18" x1="510.97" y1="42.22" x2="520.97" y2="42.22"/><line class="cls-22" x1="518.97" y1="45.98" x2="520.97" y2="45.98"/><ellipse class="cls-20" cx="508.44" cy="42.22" rx="1"/><ellipse class="cls-22" cx="505.01" cy="42.22" rx="1"/><line class="cls-21" x1="238.78" y1="28.92" x2="252.29" y2="28.92"/><line class="cls-22" x1="246.4" y1="25.16" x2="256.62" y2="25.16"/><line class="cls-20" x1="254.37" y1="28.92" x2="256.62" y2="28.92"/><ellipse class="cls-21" cx="243.63" cy="25.16" rx="1.04"/><ellipse class="cls-20" cx="239.82" cy="25.16" rx="1.04"/><line class="cls-21" x1="15.44" y1="116.39" x2="28.96" y2="116.39"/><line class="cls-20" x1="23.07" y1="120.14" x2="33.29" y2="120.14"/><line class="cls-22" x1="31.04" y1="116.39" x2="33.29" y2="116.39"/><ellipse class="cls-21" cx="20.29" cy="120.14" rx="1.04"/><ellipse class="cls-20" cx="16.48" cy="120.14" rx="1.04"/></svg>