<svg id="Layer" xmlns="http://www.w3.org/2000/svg" xmlns:xlink="http://www.w3.org/1999/xlink" viewBox="0 0 320 297.82"><defs><style>.cls-1,.cls-12,.cls-13,.cls-14,.cls-15,.cls-16,.cls-18,.cls-19,.cls-2,.cls-21,.cls-22,.cls-3,.cls-5,.cls-6,.cls-7{fill:none;}.cls-1,.cls-11,.cls-5{stroke:#51b793;}.cls-1,.cls-10,.cls-11,.cls-12,.cls-13,.cls-14,.cls-15,.cls-16,.cls-17,.cls-18,.cls-19,.cls-2,.cls-20,.cls-21,.cls-22,.cls-3,.cls-5,.cls-6,.cls-7,.cls-8,.cls-9{stroke-miterlimit:10;}.cls-10,.cls-14,.cls-2,.cls-9{stroke:#2c41c6;}.cls-19,.cls-3,.cls-6,.cls-7,.cls-8{stroke:#dadada;}.cls-13,.cls-14,.cls-15,.cls-16,.cls-3,.cls-5,.cls-6,.cls-7,.cls-8{stroke-linecap:round;}.cls-3,.cls-6,.cls-7{stroke-width:2px;}.cls-3{stroke-dasharray:0 8;}.cls-4{clip-path:url(#clip-path);}.cls-7{stroke-dasharray:0 8.17;}.cls-10,.cls-20,.cls-8{fill:#fff;}.cls-9{fill:#abb3e8;}.cls-11{fill:#b9e2d4;}.cls-12,.cls-16{stroke:#fa7822;}.cls-13,.cls-17{stroke:#de2a50;}.cls-15{stroke:#fac02f;}.cls-17{fill:#ee94a7;}.cls-18{stroke:#ccc;}.cls-20,.cls-22{stroke:#3c3c3b;}.cls-21{stroke:gray;}</style><clipPath id="clip-path"><path class="cls-1" d="M278.4,39.67l.16-16.74A20.6,20.6,0,0,0,269.74,25a9.95,9.95,0,0,0,8.66,14.67Z"/></clipPath></defs><title>manifesto-illustration-mobile-1</title><path class="cls-2" d="M125.47,151.52s6.05,6.92,6.1,43.53"/><path class="cls-2" d="M174.86,145a137.61,137.61,0,0,1,13.58,4.81c5,2.25,11.09,7.66,13.07,21.07a143.93,143.93,0,0,1,1.69,24.1l-40.86.06h-6.63l-41.83.06A143.93,143.93,0,0,1,115.5,171c1.94-13.41,8-18.85,13-21.11A135.15,135.15,0,0,1,142,145"/><path class="cls-2" d="M191.47,151.42s-6,6.94-6,43.55"/><path class="cls-2" d="M168.94,137,181.39,138a121.11,121.11,0,0,0,4.68-26.9c1-18.78-11.9-30-28-30a29.73,29.73,0,0,0-22,10.16c-3.34,3.9-5.93,9.4-5.05,19.38,1.66,12.47,2.37,21.67,4.87,28.34l12.6-1.48"/><path class="cls-2" d="M177.49,109.47A136.53,136.53,0,0,1,152,110.9c-.43,0-1.61-9.19-2-9.21-.69,0-.62,9.11-1.27,9.08-4-.19-7.22-.49-9.16-.73-.34,0-2.11-8.78-1.92-7.39,0,16.93,5.15,27.13,9.21,31.52h0l1.13,1.08c.5.48,1,.9,1.48,1.3.33.28.67.53,1,.78l.69.5c.32.22.63.42.94.62l.66.4.88.49.59.31.82.38.5.21.74.29.4.14.64.2.29.08.5.13.19,0,.26.05a19.91,19.91,0,0,0,2.22-.71l.34-.13c.66-.27,1.31-.56,1.93-.89l.51-.27c.61-.33,1.2-.68,1.77-1.06l.45-.32c.47-.32.92-.66,1.37-1l.48-.38c.58-.48,1.15-1,1.69-1.5h0c6.53-6.28,10-22.56,10-31.35,0,0,.13-2.1-.41.36A33.18,33.18,0,0,1,177.49,109.47Z"/><path class="cls-2" d="M168.2,135.92l1.6,8,5.06,1c-1,7.29-4.75,26.92-16.22,26.92-12.59,0-15.49-19.15-16.63-26.84l5.47-1.1,1.59-7.73"/><path class="cls-2" d="M173.4,145c-.93,5.74-4.33,21.17-14.78,21.17-11.47,0-14.12-15.06-15.15-21.11"/><path class="cls-3" d="M178.91,202.17s21.92,36.63,64.2,52.85"/><path class="cls-1" d="M287.34,25.17a10,10,0,1,1-17.6-.17,34.71,34.71,0,0,0-10.12,7.39S268,42.1,278.38,42.2s18.94-9.45,18.94-9.45A34.71,34.71,0,0,0,287.34,25.17Z"/><path class="cls-1" d="M278.4,39.67a9.95,9.95,0,0,0,8.94-14.5,19.09,19.09,0,0,0-17.6-.17,9.95,9.95,0,0,0,8.66,14.67Z"/><g class="cls-4"><line class="cls-1" x1="288.95" y1="30.4" x2="262.23" y2="56.6"/><line class="cls-1" x1="288.79" y1="26.44" x2="262.08" y2="52.65"/><line class="cls-1" x1="288.64" y1="22.49" x2="261.92" y2="48.69"/><line class="cls-1" x1="288.48" y1="18.53" x2="261.76" y2="44.74"/><line class="cls-1" x1="288.32" y1="14.58" x2="261.6" y2="40.78"/><line class="cls-1" x1="288.16" y1="10.62" x2="261.44" y2="36.83"/></g><path class="cls-1" d="M278.4,39.67l.16-16.74A20.6,20.6,0,0,0,269.74,25a9.95,9.95,0,0,0,8.66,14.67Z"/><line class="cls-5" x1="278.47" y1="39.67" x2="278.47" y2="22.93"/><line class="cls-6" x1="204.99" y1="100.27" x2="204.99" y2="100.27"/><path class="cls-7" d="M212.91,98.33c13-3.93,39.46-15.13,61.94-44.7"/><line class="cls-6" x1="277.29" y1="50.33" x2="277.29" y2="50.33"/><polyline class="cls-8" points="208.42 93.06 203.29 99.94 210.17 105.06"/><path class="cls-3" d="M109.44,104.42s-28.15-3.76-49.07-32.93"/><polyline class="cls-8" points="109.59 110.66 116.58 105.69 111.61 98.7"/><polyline class="cls-8" points="176.01 209.47 177.95 201.12 186.31 203.05"/><path class="cls-3" d="M122.09,210.77s-15.92,21.71-41.81,34.48"/><polyline class="cls-8" points="120.17 203.45 128.7 202.5 129.65 211.03"/><rect class="cls-9" x="28.39" y="17.96" width="69.04" height="47.24" rx="1.19" ry="1.19"/><rect class="cls-9" x="22.44" y="62.35" width="80.94" height="4.09" rx="0.6" ry="0.6"/><rect class="cls-10" x="31.28" y="20.59" width="63.25" height="38.36" rx="1.16" ry="1.16"/><rect class="cls-11" x="48.09" y="44.17" width="29.63" height="6.78"/><polyline class="cls-12" points="57.49 33.6 61.12 37.22 70.46 27.88"/><path class="cls-9" d="M262.87,286.23l-21.47-6.09a.47.47,0,0,1-.32-.57L253,237.14a.46.46,0,0,1,.57-.32L275,242.92a.47.47,0,0,1,.32.57L263.44,285.9A.46.46,0,0,1,262.87,286.23Z"/><path class="cls-10" d="M262.7,276.6,246.55,272a.47.47,0,0,1-.32-.57l8.33-29.72a.46.46,0,0,1,.57-.32L271.28,246a.47.47,0,0,1,.32.57l-8.33,29.72A.46.46,0,0,1,262.7,276.6Z"/><path class="cls-2" d="M255.5,279.37a2.21,2.21,0,1,1-1.53-2.75A2.21,2.21,0,0,1,255.5,279.37Z"/><path class="cls-13" d="M258.53,250.74a5.4,5.4,0,0,1,2.59.05,4.75,4.75,0,0,1,3.53,5.71l-.25.95"/><path class="cls-13" d="M263.22,261.84l-.25.95a4.72,4.72,0,0,1-5.91,3.15,5.44,5.44,0,0,1-2.19-1.2"/><path class="cls-13" d="M254.06,258.26l1.16-4.32a4.24,4.24,0,0,1,1.59-2.41"/><path class="cls-13" d="M253.83,263.36a4.55,4.55,0,0,1-.32-2.83"/><line class="cls-13" x1="263.8" y1="259.68" x2="263.21" y2="261.88"/><path class="cls-13" d="M256.17,260.72l1.61-6a2.18,2.18,0,0,1,4.18,1.13l-.81,3"/><line class="cls-13" x1="260.71" y1="260.72" x2="260.15" y2="262.81"/><line class="cls-13" x1="259.59" y1="256.5" x2="258" y2="262.43"/><line class="cls-14" x1="45.43" y1="259.8" x2="33.84" y2="259.8"/><line class="cls-14" x1="73.71" y1="259.8" x2="70.6" y2="259.8"/><polyline class="cls-14" points="36.99 256.19 33.38 259.8 36.99 263.4"/><line class="cls-14" x1="79.72" y1="259.8" x2="76.61" y2="259.8"/><line class="cls-15" x1="70.56" y1="251.3" x2="79.55" y2="251.3"/><polyline class="cls-15" points="76.4 247.7 80 251.3 76.4 254.9"/><line class="cls-16" x1="74.83" y1="268.3" x2="83.81" y2="268.3"/><polyline class="cls-16" points="80.66 264.69 84.27 268.3 80.66 271.9"/><line class="cls-16" x1="72.16" y1="268.3" x2="70.6" y2="268.3"/><line class="cls-16" x1="46.21" y1="268.3" x2="41.98" y2="268.3"/><line class="cls-15" x1="50.22" y1="251.3" x2="41.98" y2="251.3"/><line class="cls-15" x1="68.43" y1="251.3" x2="66.5" y2="251.3"/><line class="cls-16" x1="39.47" y1="268.3" x2="36.99" y2="268.3"/><circle class="cls-17" cx="57.88" cy="247.95" r="4.78" transform="translate(-1.04 0.25) rotate(-0.24)"/><path class="cls-17" d="M49.19,254.93H66.71a0,0,0,0,1,0,0v11.39A7.73,7.73,0,0,1,59,274H56.91a7.73,7.73,0,0,1-7.73-7.73V254.93A0,0,0,0,1,49.19,254.93Z" transform="translate(117.01 528.73) rotate(179.76)"/><circle class="cls-18" cx="117.17" cy="34.22" r="3"/><circle class="cls-19" cx="29.76" cy="170.02" r="4" transform="translate(-139.01 133.84) rotate(-67.97)"/><circle class="cls-20" cx="292.56" cy="118.72" r="3"/><circle class="cls-19" cx="113.86" cy="251.3" r="3"/><line class="cls-21" x1="239.08" y1="198.83" x2="267.98" y2="198.83"/><line class="cls-18" x1="255.38" y1="195.08" x2="277.24" y2="195.08"/><line class="cls-22" x1="272.43" y1="198.83" x2="277.24" y2="198.83"/><ellipse class="cls-19" cx="249.46" cy="195.08" rx="2.22"/><ellipse class="cls-22" cx="241.3" cy="195.08" rx="2.22"/><line class="cls-21" x1="167.53" y1="282.64" x2="179.53" y2="282.64"/><line class="cls-18" x1="174.5" y1="278.89" x2="184.5" y2="278.89"/><line class="cls-22" x1="182.5" y1="282.64" x2="184.5" y2="282.64"/><ellipse class="cls-19" cx="171.96" cy="278.89" rx="1"/><ellipse class="cls-22" cx="168.53" cy="278.89" rx="1"/><line class="cls-21" x1="194.29" y1="52.21" x2="207.8" y2="52.21"/><line class="cls-22" x1="201.91" y1="48.46" x2="212.13" y2="48.46"/><line class="cls-19" x1="209.88" y1="52.21" x2="212.13" y2="52.21"/><ellipse class="cls-21" cx="199.14" cy="48.46" rx="1.04"/><ellipse class="cls-19" cx="195.33" cy="48.46" rx="1.04"/><line class="cls-21" x1="66.79" y1="119.84" x2="80.31" y2="119.84"/><line class="cls-19" x1="74.41" y1="123.59" x2="84.64" y2="123.59"/><line class="cls-22" x1="82.38" y1="119.84" x2="84.64" y2="119.84"/><ellipse class="cls-21" cx="71.64" cy="123.59" rx="1.04"/><ellipse class="cls-19" cx="67.83" cy="123.59" rx="1.04"/></svg>