<svg id="Layer" xmlns="http://www.w3.org/2000/svg" viewBox="0 0 452 450"><defs><style>.cls-1{fill:none;stroke:#dadada;stroke-miterlimit:10;}</style></defs><title>manifesto-senses-circle-bg</title><path class="cls-1" d="M349.58,64.6a202.53,202.53,0,0,1,69,99.17"/><path class="cls-1" d="M353.79,355.14a182.58,182.58,0,0,1-168.26,47.34"/><path class="cls-1" d="M388.75,307.93a181.5,181.5,0,0,1-12.36,20.56"/><path class="cls-1" d="M304.4,58.75A182.87,182.87,0,0,1,404.48,264.7"/><path class="cls-1" d="M218.13,41.33a183.12,183.12,0,0,1,48.57,4.43"/><path class="cls-1" d="M53.81,162.68A182.11,182.11,0,0,1,114.69,79,183.24,183.24,0,0,1,203.13,42.6"/><path class="cls-1" d="M96.1,352.81A182.64,182.64,0,0,1,47.76,183.54"/><path class="cls-1" d="M143.44,17.71A222.54,222.54,0,0,1,375.31,59.22"/><path class="cls-1" d="M23.18,133.2A222.06,222.06,0,0,1,117.25,30.26"/><path class="cls-1" d="M62.28,374.44A223.25,223.25,0,0,1,8.68,270.77c-6.61-30.71-7.25-65.74.18-98.39"/><path class="cls-1" d="M266.58,442.8a221.6,221.6,0,0,1-89.79-1.88,224.8,224.8,0,0,1-23.55-6.72"/><path class="cls-1" d="M418.19,112.14A222.39,222.39,0,0,1,376.45,388"/><path class="cls-1" d="M107.74,412.33q-8.08-5.09-15.84-11-3-2.3-6-4.68"/><path class="cls-1" d="M68.25,349.62a202.68,202.68,0,0,1-34.16-63.81"/><path class="cls-1" d="M144.53,408.59a200.47,200.47,0,0,1-62.11-42.93"/><path class="cls-1" d="M176.82,419.67q-6.2-1.56-12.21-3.48"/><path class="cls-1" d="M390.22,341.43a202.38,202.38,0,0,1-127.39,81"/><path class="cls-1" d="M427.63,215.13a201.88,201.88,0,0,1-4.88,53.73q-.79,3.46-1.68,6.85"/><path class="cls-1" d="M173.58,29.38a200.78,200.78,0,0,1,97.28-1.9"/><path class="cls-1" d="M29.48,179.38A200.78,200.78,0,0,1,95.13,70.76"/><path class="cls-1" d="M40.95,304.06a202.7,202.7,0,0,1-16.17-91.92"/><path class="cls-1" d="M336.65,392.86a202.38,202.38,0,0,1-148.09,29.45"/><path class="cls-1" d="M417.23,288.66a201.88,201.88,0,0,1-24,48.32q-2,2.94-4.05,5.78"/><path class="cls-1" d="M320.08,45.66A203.92,203.92,0,0,1,339,57"/></svg>