<?xml version="1.0" encoding="UTF-8"?>
<svg width="63px" height="50px" viewBox="0 0 63 50" version="1.1" xmlns="http://www.w3.org/2000/svg" xmlns:xlink="http://www.w3.org/1999/xlink">
    <!-- Generator: Sketch 44.1 (41455) - http://www.bohemiancoding.com/sketch -->
    <title>logotype</title>
    <desc>Created with Sketch.</desc>
    <defs></defs>
    <g id="Homepage" stroke="none" stroke-width="1" fill="none" fill-rule="evenodd">
        <g id="Menu-overlay" transform="translate(-69.000000, -48.000000)" fill="#FFFFFF">
            <g id="logotype" transform="translate(69.000000, 48.000000)">
                <path d="M0.912007273,36.488499 C0.405111818,36.488499 0.0110845455,36.0938047 0.0110845455,35.5586397 L0.0110845455,14.4576736 L1.84124818,14.4576736 L1.84124818,35.5586397 C1.84124818,36.0938047 1.41849818,36.488499 0.912007273,36.488499 Z" id="Fill-1"></path>
                <path d="M23.0687595,36.488499 C22.7871959,36.488499 22.5056323,36.3759605 22.3369368,36.1221417 L8.31620045,17.8435437 L8.31620045,35.5590445 C8.31620045,36.0662773 7.893855,36.488499 7.38736409,36.488499 C6.88046864,36.488499 6.48644136,36.0662773 6.48644136,35.5590445 L6.48644136,15.1397863 C6.48644136,14.8863723 6.598905,14.6046213 6.85215045,14.4358136 C7.24658227,14.1261303 7.83762318,14.1823996 8.11918682,14.6046213 L22.1678368,32.8836241 L22.1678368,14.4637458 L23.9980005,14.4637458 L23.9980005,35.5590445 C23.9980005,36.0662773 23.575655,36.488499 23.0687595,36.488499" id="Fill-3"></path>
                <path d="M26.6999191,31.6145301 L26.6999191,19.1061607 C26.6999191,16.6550077 29.6280191,14.2321918 34.4987464,14.2321918 C37.6234555,14.2321918 39.8759645,14.823626 41.1709145,15.5000714 L41.1709145,17.4439916 C40.4390918,17.1339035 37.8208736,16.0631686 34.4987464,16.0631686 C30.9512873,16.0631686 29.2339918,17.8666181 28.5300827,18.9086111 L28.5300827,31.8116748 C29.2339918,32.8540727 30.9512873,34.6575221 34.4987464,34.6575221 C36.9761827,34.6575221 38.9750418,34.0936153 40.12921,33.6430565 L40.12921,26.2616653 L35.7374645,26.2616653 C35.2305691,26.2616653 34.8082236,25.8673758 34.8082236,25.360143 C34.8082236,24.853315 35.2305691,24.4306884 35.7374645,24.4306884 L41.9593736,24.4306884 L41.9593736,34.8542621 C40.6361055,35.7841214 37.6234555,36.488499 34.4987464,36.488499 C29.6280191,36.488499 26.6999191,34.0656831 26.6999191,31.6145301 Z" id="Fill-5"></path>
                <path d="M61.2724545,36.488499 C60.7655591,36.488499 60.3715318,36.0938047 60.3715318,35.5586397 L60.3715318,26.2616653 L47.7302955,26.2616653 L47.7302955,36.2630172 L45.9001318,36.2630172 L45.9001318,15.1616463 C45.9001318,14.6548183 46.3228818,14.2321918 46.8293727,14.2321918 C47.3362682,14.2321918 47.7302955,14.6548183 47.7302955,15.1616463 L47.7302955,24.4306884 L60.3715318,24.4306884 L60.3715318,14.4009995 L62.2012909,14.4009995 L62.2012909,35.5586397 C62.2012909,36.0938047 61.7789455,36.488499 61.2724545,36.488499" id="Fill-7"></path>
                <path d="M41.3849971,42.525342 C41.4718362,42.5423399 41.5615677,42.5512468 41.6533755,42.5512468 C42.4216073,42.5512468 43.0442027,41.928237 43.0442027,41.1594939 C43.0442027,40.3911556 42.4216073,39.767741 41.6533755,39.767741 C40.8855482,39.767741 40.2629527,40.3911556 40.2629527,41.1594939 C40.2629527,41.377297 40.3129299,41.5834017 40.4020275,41.7669533 C36.1380567,46.0968453 30.3084813,48.5544464 24.2001923,48.5544464 C17.7569687,48.5544464 11.627911,45.8145472 7.31450043,41.0320994 C7.19676761,40.8908403 7.01955992,40.800909 6.82124318,40.800909 C6.46686136,40.800909 6.17922955,41.0887323 6.17922955,41.44335 C6.17922955,41.5992904 6.23484991,41.7422363 6.32730806,41.8534615 C6.32652125,41.8536262 6.32573417,41.8537902 6.32494682,41.8539535 C10.7292332,46.5194429 16.267865,49.7875119 24.2001923,49.7875119 C30.6899219,49.7875119 36.8812798,47.1561835 41.3849971,42.525342 Z" id="Combined-Shape"></path>
                <path d="M6.81955302,7.45869794 C6.73265156,7.44168033 6.64285065,7.43276218 6.55096636,7.43276218 C5.78273455,7.43276218 5.16013909,8.05617681 5.16013909,8.82451511 C5.16013909,9.59325822 5.78273455,10.216268 6.55096636,10.216268 C7.31919818,10.216268 7.94179364,9.59325822 7.94179364,8.82451511 C7.94179364,8.60673677 7.89177517,8.4006014 7.80259919,8.21700483 C12.0665041,3.88724513 17.8956654,1.42972455 24.0042305,1.42972455 C30.4472217,1.42972455 36.5760697,4.16902304 40.8894556,8.95155139 C41.0071865,9.09313311 41.1846006,9.18330238 41.3831795,9.18330238 C41.7375614,9.18330238 42.0251932,8.89547913 42.0251932,8.54086145 C42.0251932,8.38497091 41.9696084,8.24198837 41.8772035,8.13069087 C41.8779607,8.13053237 41.8787182,8.13037456 41.8794759,8.13021742 C37.4751895,3.46472803 31.9365577,0.19665898 24.0042305,0.19665898 C17.514562,0.19665898 11.3232597,2.82793779 6.81955302,7.45869794 Z" id="Combined-Shape"></path>
            </g>
        </g>
    </g>
</svg>