<svg id="Layer" xmlns="http://www.w3.org/2000/svg" viewBox="0 0 260 175"><defs><style>.cls-1{fill:none;stroke:#2c41c6;stroke-miterlimit:10;}.cls-2{fill:#2c41c6;}</style></defs><title>manifesto-illustration-oxytocin</title><polygon class="cls-1" points="202.72 20.01 202.72 33.36 214.28 40.03 225.83 33.36 225.83 20.01 214.28 13.34 202.72 20.01"/><polyline class="cls-1" points="232.96 15.9 225.83 20.01 225.83 33.36"/><line class="cls-1" x1="209.81" y1="53.39" x2="200.59" y2="58.71"/><line class="cls-1" x1="210.79" y1="55.57" x2="202.72" y2="60.23"/><polyline class="cls-1" points="214.28 40.03 202.72 33.36 191.17 40.03 191.17 53.38 202.72 60.05 202.72 60.06 202.72 67.9"/><polyline class="cls-1" points="175.18 56.95 167.98 52.8 156.42 59.47 156.42 72.81 148.74 77.26"/><line class="cls-1" x1="191.17" y1="53.39" x2="184.62" y2="57.17"/><polyline class="cls-1" points="237.39 80.08 225.83 73.41 214.28 80.08 214.28 93.42 214.28 93.44 208 97.06"/><line class="cls-1" x1="220.84" y1="97.25" x2="214.23" y2="93.43"/><line class="cls-1" x1="221.82" y1="94.66" x2="214.28" y2="90.31"/><line class="cls-1" x1="155.39" y1="114.29" x2="155.39" y2="104.71"/><line class="cls-1" x1="158.15" y1="114.29" x2="158.15" y2="104.71"/><polyline class="cls-1" points="140.35 96.31 133.66 100.17 133.66 113.52 140.86 117.67"/><path class="cls-1" d="M156.77,140.32l11.55-6.67V120.3l-11.55-6.67-7.2,4.08"/><polyline class="cls-1" points="202.72 105.02 202.72 113.45 214.28 120.12 214.28 120.31 214.28 133.65 225.83 140.32 225.89 148.36"/><line class="cls-1" x1="225.83" y1="140.36" x2="233.1" y2="136.17"/><line class="cls-1" x1="225.84" y1="143.1" x2="233.97" y2="138.41"/><polyline class="cls-1" points="237.39 53.39 225.83 60.06 225.83 73.4 214.28 80.07 207.85 76.36"/><line class="cls-1" x1="206.13" y1="32.41" x2="214.78" y2="37.4"/><line class="cls-1" x1="214.79" y1="16.1" x2="206.11" y2="21.03"/><line class="cls-1" x1="222.85" y1="31.68" x2="222.81" y2="21.69"/><polyline class="cls-1" points="184.56 115.67 191.17 120.06 202.72 113.39"/><line class="cls-1" x1="174.92" y1="115.67" x2="168.32" y2="120.06"/><line class="cls-1" x1="156.77" y1="140.32" x2="156.77" y2="150.38"/><line class="cls-1" x1="151.95" y1="137.53" x2="156.77" y2="140.32"/><line class="cls-1" x1="151.95" y1="140.32" x2="156.77" y2="143.1"/><line class="cls-1" x1="189.79" y1="119.3" x2="189.79" y2="128.1"/><line class="cls-1" x1="192.56" y1="119.3" x2="192.56" y2="128.1"/><line class="cls-1" x1="166.59" y1="53.39" x2="166.59" y2="44.84"/><line class="cls-1" x1="169.37" y1="53.39" x2="169.37" y2="44.84"/><line class="cls-1" x1="167.98" y1="52.8" x2="156.42" y2="59.47"/><line class="cls-1" x1="150.22" y1="55.89" x2="156.42" y2="59.47"/><polyline class="cls-1" points="75.88 133.49 64.33 140.05 58.2 136.51"/><polyline class="cls-1" points="105.44 137.21 98.99 133.49 98.99 120.15"/><polyline class="cls-1" points="133.66 113.53 122.1 120.2 122.1 120.2 115.4 116.33"/><line class="cls-1" x1="120.72" y1="119.5" x2="120.72" y2="127.37"/><line class="cls-1" x1="123.48" y1="119.5" x2="123.48" y2="127.37"/><line class="cls-1" x1="92.55" y1="137.21" x2="98.99" y2="133.49"/><line class="cls-1" x1="62.95" y1="139.5" x2="62.95" y2="147.53"/><line class="cls-1" x1="65.71" y1="139.5" x2="65.71" y2="147.53"/><polyline class="cls-1" points="23.47 136.95 29.66 133.38 41.22 140.05 47.92 136.25"/><line class="cls-1" x1="28.28" y1="134.07" x2="28.28" y2="124.34"/><line class="cls-1" x1="31.05" y1="134.07" x2="31.05" y2="124.34"/><polyline class="cls-1" points="108.37 107.69 106.13 100.08 92.96 99.7 88.54 112.11 98.97 120.15 104.77 116.19"/><polyline class="cls-1" points="69.87 99.7 65.44 112.11 75.88 120.15 75.88 120.15 75.88 133.49 82.46 137.29"/><line class="cls-1" x1="65.44" y1="112.11" x2="54.12" y2="114.98"/><line class="cls-1" x1="106.77" y1="135.22" x2="98.99" y2="130.73"/><path d="M241.67,14.71a4.51,4.51,0,0,1-.37,1.9,2.85,2.85,0,0,1-1.07,1.26,2.92,2.92,0,0,1-1.6.44,2.78,2.78,0,0,1-2.21-1,3.92,3.92,0,0,1-.84-2.64v-.81A4.5,4.5,0,0,1,236,12a3,3,0,0,1,4.26-1.28,2.84,2.84,0,0,1,1.07,1.23,4.42,4.42,0,0,1,.39,1.84Zm-.66-.85a3.46,3.46,0,0,0-.64-2.21,2.3,2.3,0,0,0-3.49,0,3.48,3.48,0,0,0-.65,2.24v.82a3.46,3.46,0,0,0,.64,2.21,2.3,2.3,0,0,0,3.5,0,3.55,3.55,0,0,0,.63-2.24Z"/><path d="M249.13,18.2h-.67V14.45H244V18.2h-.66V10.38H244v3.51h4.47V10.38h.67Z"/><path class="cls-2" d="M241.2,30.14h-2.68V37.4h-.66V30.14h-2.67v-.56h6Z"/><path class="cls-2" d="M243.77,36.48l1.7-4.89h.69l-2.48,6.8-.13.3a1.56,1.56,0,0,1-1.48,1.06,1.79,1.79,0,0,1-.49-.08v-.53l.33,0a1.19,1.19,0,0,0,.77-.23,1.77,1.77,0,0,0,.5-.8l.29-.79-2.19-5.76h.7Z"/><path class="cls-2" d="M249.84,32.14a2.37,2.37,0,0,0-.44,0,1.57,1.57,0,0,0-1,.33,1.84,1.84,0,0,0-.59,1v4h-.64V31.59h.63v.92a1.71,1.71,0,0,1,1.64-1,1.07,1.07,0,0,1,.42.07Z"/><path class="cls-2" d="M236.7,93.48H236V85.66h.66Z"/><path class="cls-2" d="M239.39,93.48h-.64V85.23h.64Z"/><path class="cls-2" d="M243.39,93.59a2.53,2.53,0,0,1-1.34-.37,2.49,2.49,0,0,1-.93-1,3.18,3.18,0,0,1-.33-1.46v-.23a3.41,3.41,0,0,1,.33-1.51,2.59,2.59,0,0,1,.9-1.06,2.24,2.24,0,0,1,1.26-.38,2.1,2.1,0,0,1,1.68.72,2.93,2.93,0,0,1,.62,2v.36h-4.15v.12a2.43,2.43,0,0,0,.57,1.65,1.8,1.8,0,0,0,1.43.66,2.1,2.1,0,0,0,.91-.19,2,2,0,0,0,.72-.6l.4.31A2.35,2.35,0,0,1,243.39,93.59Zm-.12-5.48a1.61,1.61,0,0,0-1.22.53,2.46,2.46,0,0,0-.6,1.43h3.49V90a2.13,2.13,0,0,0-.48-1.36A1.48,1.48,0,0,0,243.27,88.11Z"/><path class="cls-2" d="M228.45,122.51a2.22,2.22,0,0,1-1.08.76,4.69,4.69,0,0,1-1.64.27,3,3,0,0,1-1.63-.44,2.94,2.94,0,0,1-1.11-1.25,4.22,4.22,0,0,1-.4-1.85v-1a3.78,3.78,0,0,1,.82-2.57,2.78,2.78,0,0,1,2.21-.94,2.93,2.93,0,0,1,1.94.62,2.53,2.53,0,0,1,.88,1.69h-.66a2,2,0,0,0-.7-1.31,2.26,2.26,0,0,0-1.45-.44,2.13,2.13,0,0,0-1.74.78,3.38,3.38,0,0,0-.64,2.2V120a3.87,3.87,0,0,0,.3,1.58,2.41,2.41,0,0,0,.87,1.06,2.3,2.3,0,0,0,1.3.38,3.64,3.64,0,0,0,1.47-.27,1.59,1.59,0,0,0,.59-.41v-2h-2.1v-.56h2.76Z"/><path class="cls-2" d="M230.14,115.95a.43.43,0,0,1,.12-.31.42.42,0,0,1,.32-.12.42.42,0,0,1,.45.43.42.42,0,0,1-.12.3.43.43,0,0,1-.33.12.41.41,0,0,1-.44-.43Zm.76,7.49h-.64v-5.81h.64Z"/><path class="cls-2" d="M233.25,117.62l0,1a2.31,2.31,0,0,1,.82-.82,2.12,2.12,0,0,1,1.08-.28,1.75,1.75,0,0,1,1.39.53,2.37,2.37,0,0,1,.46,1.58v3.81h-.64v-3.82a1.78,1.78,0,0,0-.33-1.16,1.29,1.29,0,0,0-1-.38,1.63,1.63,0,0,0-1.06.37,2.2,2.2,0,0,0-.68,1v4h-.64v-5.81Z"/><path class="cls-2" d="M179.26,148.18h-3.55l-.81,2.2h-.69l3-7.82h.63l3,7.82h-.69Zm-3.35-.56h3.14l-1.57-4.26Z"/><path class="cls-2" d="M185.24,148.9a.92.92,0,0,0-.38-.77,3,3,0,0,0-1.16-.45,5.24,5.24,0,0,1-1.2-.38,1.6,1.6,0,0,1-.63-.52,1.3,1.3,0,0,1-.21-.74,1.38,1.38,0,0,1,.57-1.14,2.32,2.32,0,0,1,1.47-.45,2.39,2.39,0,0,1,1.56.48,1.54,1.54,0,0,1,.59,1.25h-.64a1,1,0,0,0-.43-.85,1.93,1.93,0,0,0-2.1-.06.87.87,0,0,0-.38.73.79.79,0,0,0,.32.67,3.39,3.39,0,0,0,1.17.44,5.49,5.49,0,0,1,1.27.42,1.63,1.63,0,0,1,.63.54,1.38,1.38,0,0,1,.21.77,1.4,1.4,0,0,1-.59,1.18,2.53,2.53,0,0,1-1.55.44,2.6,2.6,0,0,1-1.65-.49,1.51,1.51,0,0,1-.63-1.24h.64a1.11,1.11,0,0,0,.47.88,2,2,0,0,0,1.16.31,1.82,1.82,0,0,0,1.08-.29A.89.89,0,0,0,185.24,148.9Z"/><path class="cls-2" d="M187.94,144.57l0,1a2.31,2.31,0,0,1,.82-.82,2.12,2.12,0,0,1,1.08-.28,1.74,1.74,0,0,1,1.39.53,2.37,2.37,0,0,1,.46,1.58v3.81h-.64v-3.82a1.78,1.78,0,0,0-.33-1.16,1.29,1.29,0,0,0-1-.38,1.63,1.63,0,0,0-1.05.37,2.18,2.18,0,0,0-.68,1v4h-.64v-5.81Z"/><path class="cls-2" d="M33.68,160.73a2.22,2.22,0,0,1-1.08.76,4.69,4.69,0,0,1-1.64.27,3,3,0,0,1-1.63-.44,2.94,2.94,0,0,1-1.11-1.25,4.22,4.22,0,0,1-.4-1.85v-1a3.78,3.78,0,0,1,.82-2.57,2.78,2.78,0,0,1,2.21-.94,2.93,2.93,0,0,1,1.94.62,2.53,2.53,0,0,1,.88,1.69H33a2,2,0,0,0-.7-1.31,2.26,2.26,0,0,0-1.45-.44,2.13,2.13,0,0,0-1.74.78,3.38,3.38,0,0,0-.64,2.2v.92a3.87,3.87,0,0,0,.3,1.58,2.41,2.41,0,0,0,.87,1.06,2.3,2.3,0,0,0,1.3.38,3.64,3.64,0,0,0,1.47-.27,1.59,1.59,0,0,0,.59-.41v-2h-2.1v-.56h2.76Z"/><path class="cls-2" d="M36.12,161.66h-.64v-8.25h.64Z"/><path class="cls-2" d="M39.71,160.73l1.7-4.89h.69l-2.48,6.8-.13.3A1.56,1.56,0,0,1,38,164a1.79,1.79,0,0,1-.49-.08v-.53l.33,0a1.19,1.19,0,0,0,.77-.23,1.77,1.77,0,0,0,.5-.8l.29-.79-2.19-5.76h.7Z"/><path class="cls-2" d="M44.29,99.14h3.86v.56H43.62V91.88h.67Z"/><path class="cls-2" d="M51.52,99.81a2.53,2.53,0,0,1-1.34-.37,2.49,2.49,0,0,1-.93-1A3.18,3.18,0,0,1,48.91,97v-.23a3.41,3.41,0,0,1,.33-1.51,2.59,2.59,0,0,1,.9-1.06,2.24,2.24,0,0,1,1.26-.38,2.1,2.1,0,0,1,1.68.72,2.93,2.93,0,0,1,.62,2v.36H49.55V97a2.43,2.43,0,0,0,.57,1.65,1.8,1.8,0,0,0,1.43.66,2.1,2.1,0,0,0,.91-.19,2,2,0,0,0,.72-.6l.4.31A2.35,2.35,0,0,1,51.52,99.81Zm-.12-5.48a1.61,1.61,0,0,0-1.22.53,2.46,2.46,0,0,0-.6,1.43h3.49v-.07a2.13,2.13,0,0,0-.48-1.36A1.48,1.48,0,0,0,51.4,94.33Z"/><path class="cls-2" d="M58.69,99a2.09,2.09,0,0,1-1.85.84,1.8,1.8,0,0,1-1.41-.54,2.36,2.36,0,0,1-.49-1.6V93.89h.64v3.7q0,1.66,1.34,1.66a1.65,1.65,0,0,0,1.77-1.15V93.89h.64V99.7H58.7Z"/><path class="cls-2" d="M91.84,87.52V90.7h-.66V82.88h2.66a2.81,2.81,0,0,1,1.93.62,2.45,2.45,0,0,1,0,3.41,2.89,2.89,0,0,1-2,.6Zm0-.56h2a2.12,2.12,0,0,0,1.47-.46,1.63,1.63,0,0,0,.5-1.27,1.71,1.71,0,0,0-.5-1.29,2,2,0,0,0-1.43-.49h-2Z"/><path class="cls-2" d="M100.49,85.44a2.37,2.37,0,0,0-.44,0,1.57,1.57,0,0,0-1,.33,1.84,1.84,0,0,0-.59,1v4H97.8V84.89h.63v.92a1.71,1.71,0,0,1,1.64-1,1.07,1.07,0,0,1,.42.07Z"/><path class="cls-2" d="M101,87.71a3.41,3.41,0,0,1,.33-1.51,2.44,2.44,0,0,1,2.26-1.42,2.39,2.39,0,0,1,1.88.81,3.14,3.14,0,0,1,.72,2.16v.13a3.45,3.45,0,0,1-.33,1.52,2.43,2.43,0,0,1-.92,1,2.52,2.52,0,0,1-1.35.37,2.39,2.39,0,0,1-1.88-.81,3.13,3.13,0,0,1-.72-2.16Zm.64.18a2.64,2.64,0,0,0,.54,1.71,1.83,1.83,0,0,0,2.83,0,2.73,2.73,0,0,0,.54-1.76v-.12a3,3,0,0,0-.25-1.22,2,2,0,0,0-.69-.86,1.77,1.77,0,0,0-1-.3,1.72,1.72,0,0,0-1.4.67,2.73,2.73,0,0,0-.54,1.76Z"/><path class="cls-2" d="M123.69,88.26a2.8,2.8,0,0,1-.88,1.89,2.93,2.93,0,0,1-2,.66,2.75,2.75,0,0,1-1.54-.44,2.82,2.82,0,0,1-1-1.23,4.4,4.4,0,0,1-.37-1.82v-1a4.43,4.43,0,0,1,.37-1.85,2.81,2.81,0,0,1,1.05-1.24,2.86,2.86,0,0,1,1.58-.44,2.8,2.8,0,0,1,2,.68,2.83,2.83,0,0,1,.85,1.87H123a2,2,0,0,0-2.16-2,2.05,2.05,0,0,0-1.69.8,3.45,3.45,0,0,0-.63,2.2v1a3.47,3.47,0,0,0,.62,2.16,2,2,0,0,0,1.66.81,2.2,2.2,0,0,0,1.56-.5,2.38,2.38,0,0,0,.65-1.49Z"/><path class="cls-2" d="M127,89.78l1.7-4.89h.69l-2.48,6.8-.13.3A1.56,1.56,0,0,1,125.29,93a1.79,1.79,0,0,1-.49-.08v-.53l.33,0a1.19,1.19,0,0,0,.77-.23,1.77,1.77,0,0,0,.5-.8l.29-.79-2.19-5.76h.7Z"/><path class="cls-2" d="M133.85,89.23a.92.92,0,0,0-.38-.77,3,3,0,0,0-1.16-.45,5.24,5.24,0,0,1-1.2-.38,1.6,1.6,0,0,1-.63-.52,1.29,1.29,0,0,1-.21-.74,1.38,1.38,0,0,1,.57-1.14,2.32,2.32,0,0,1,1.47-.45,2.39,2.39,0,0,1,1.56.48,1.55,1.55,0,0,1,.59,1.25h-.64a1,1,0,0,0-.43-.85,1.93,1.93,0,0,0-2.09-.06.87.87,0,0,0-.38.73.79.79,0,0,0,.32.67,3.39,3.39,0,0,0,1.17.44,5.49,5.49,0,0,1,1.27.42,1.64,1.64,0,0,1,.63.54,1.49,1.49,0,0,1-.39,1.94,2.53,2.53,0,0,1-1.55.44,2.61,2.61,0,0,1-1.65-.49,1.51,1.51,0,0,1-.63-1.24h.64a1.12,1.12,0,0,0,.47.88,2,2,0,0,0,1.16.31,1.82,1.82,0,0,0,1.08-.29A.89.89,0,0,0,133.85,89.23Z"/><path class="cls-2" d="M128.2,69a2.8,2.8,0,0,1-.88,1.89,2.93,2.93,0,0,1-2,.66,2.75,2.75,0,0,1-1.54-.44,2.82,2.82,0,0,1-1-1.23,4.4,4.4,0,0,1-.37-1.82V67a4.43,4.43,0,0,1,.37-1.85,2.81,2.81,0,0,1,1.05-1.24,2.86,2.86,0,0,1,1.58-.44,2.8,2.8,0,0,1,2,.68A2.83,2.83,0,0,1,128.2,66h-.67a2,2,0,0,0-2.16-2,2.05,2.05,0,0,0-1.69.8A3.45,3.45,0,0,0,123,67v1a3.47,3.47,0,0,0,.62,2.16,2,2,0,0,0,1.66.81,2.2,2.2,0,0,0,1.56-.5,2.38,2.38,0,0,0,.65-1.49Z"/><path class="cls-2" d="M131.49,70.49l1.7-4.89h.69l-2.48,6.8-.13.3a1.56,1.56,0,0,1-1.48,1.06,1.79,1.79,0,0,1-.49-.08v-.53l.33,0a1.19,1.19,0,0,0,.77-.23,1.77,1.77,0,0,0,.5-.8l.29-.79L129,65.6h.7Z"/><path class="cls-2" d="M138.36,69.93a.92.92,0,0,0-.38-.77,3,3,0,0,0-1.16-.45,5.24,5.24,0,0,1-1.2-.38,1.6,1.6,0,0,1-.63-.52,1.29,1.29,0,0,1-.21-.74,1.38,1.38,0,0,1,.57-1.14,2.32,2.32,0,0,1,1.47-.45,2.39,2.39,0,0,1,1.56.48,1.55,1.55,0,0,1,.59,1.25h-.64a1,1,0,0,0-.43-.85,1.93,1.93,0,0,0-2.09-.06.87.87,0,0,0-.38.73.79.79,0,0,0,.32.67,3.39,3.39,0,0,0,1.17.44,5.49,5.49,0,0,1,1.27.42,1.64,1.64,0,0,1,.63.54,1.49,1.49,0,0,1-.39,1.94,2.53,2.53,0,0,1-1.55.44,2.61,2.61,0,0,1-1.65-.49,1.51,1.51,0,0,1-.63-1.24h.64a1.12,1.12,0,0,0,.47.88,2,2,0,0,0,1.16.31,1.82,1.82,0,0,0,1.08-.29A.89.89,0,0,0,138.36,69.93Z"/><path d="M196.68,79.07H196V75.33h-4.47v3.75h-.66V71.25h.66v3.51H196V71.25h.67Z"/><path d="M204.49,79.07h-.66l-4.5-6.69v6.69h-.67V71.25h.67l4.5,6.7v-6.7h.66Z"/><path d="M196.68,102.41H196V98.66h-4.47v3.75h-.66V94.59h.66V98.1H196V94.59h.67Z"/><path d="M204.49,102.41h-.66l-4.5-6.69v6.69h-.67V94.59h.67l4.5,6.7v-6.7h.66Z"/><path d="M183,66.9h-.66l-4.5-6.69V66.9h-.67V59.08h.67l4.5,6.7v-6.7H183Z"/><path d="M183,77.9h-.67V74.15h-4.47V77.9h-.66V70.08h.66v3.51h4.47V70.08H183Z"/><path d="M147.78,119.17h-.66l-4.5-6.69v6.69H142v-7.82h.67l4.5,6.7v-6.7h.66Z"/><path d="M147.76,130.17h-.67v-3.75h-4.47v3.75H142v-7.82h.66v3.51h4.47v-3.51h.67Z"/><path d="M89.73,143.51h-.66l-4.5-6.69v6.69h-.67v-7.82h.67l4.5,6.7v-6.7h.66Z"/><path d="M89.71,154.51H89v-3.75H84.58v3.75h-.66v-7.82h.66v3.51H89v-3.51h.67Z"/><path d="M183,105h-.67v-3.75h-4.47V105h-.66V97.2h.66v3.51h4.47V97.2H183Z"/><path d="M183,116h-.66l-4.5-6.69V116h-.67V108.2h.67l4.5,6.7v-6.7H183Z"/><path d="M112.58,118h-.66l-4.5-6.69V118h-.67V110.2h.67l4.5,6.7v-6.7h.66Z"/><path d="M55.71,129.2H55v-3.75H50.58v3.75h-.66v-7.82h.66v3.51H55v-3.51h.67Z"/><path d="M55.73,140.2h-.66l-4.5-6.69v6.69h-.67v-7.82h.67l4.5,6.7v-6.7h.66Z"/><path d="M10.94,146.94h-.67v-3.75H5.8v3.75H5.14v-7.82H5.8v3.51h4.47v-3.51h.67Z"/><path d="M15.22,150.6H12.37v-.29l1.56-1.77a4.13,4.13,0,0,0,.54-.74,1.24,1.24,0,0,0,.15-.57.92.92,0,0,0-.25-.68,1,1,0,0,0-.7-.25,1,1,0,0,0-.74.29,1.06,1.06,0,0,0-.28.76h-.37a1.43,1.43,0,0,1,.17-.7,1.24,1.24,0,0,1,.49-.5,1.47,1.47,0,0,1,.73-.18,1.37,1.37,0,0,1,1,.33,1.16,1.16,0,0,1,.35.9,1.52,1.52,0,0,1-.2.7,5.2,5.2,0,0,1-.7.95l-1.27,1.44h2.4Z"/><path d="M22.3,146.94h-.66l-4.5-6.69v6.69h-.67v-7.82h.67l4.5,6.7v-6.7h.66Z"/><path d="M134.94,56.13h-.67V52.38H129.8v3.75h-.66V48.31h.66v3.51h4.47V48.31h.67Z"/><path d="M139.22,59.79h-2.86v-.29l1.56-1.77a4.13,4.13,0,0,0,.54-.74,1.24,1.24,0,0,0,.15-.57.92.92,0,0,0-.25-.68,1,1,0,0,0-.7-.25,1,1,0,0,0-.74.29,1.06,1.06,0,0,0-.28.76h-.37a1.43,1.43,0,0,1,.17-.7,1.24,1.24,0,0,1,.49-.5,1.47,1.47,0,0,1,.73-.18,1.37,1.37,0,0,1,1,.33,1.16,1.16,0,0,1,.35.9,1.52,1.52,0,0,1-.2.7,5.2,5.2,0,0,1-.7.95l-1.27,1.44h2.4Z"/><path d="M146.3,56.13h-.66l-4.5-6.69v6.69h-.67V48.31h.67l4.5,6.7v-6.7h.66Z"/><path d="M161.2,161.66h-.66L156,155v6.69h-.67v-7.82H156l4.5,6.7v-6.7h.66Z"/><path d="M169,161.66h-.67v-3.75h-4.47v3.75h-.66v-7.82h.66v3.51h4.47v-3.51H169Z"/><path d="M173.26,165.32h-2.86V165l1.56-1.77a4.13,4.13,0,0,0,.54-.74,1.24,1.24,0,0,0,.15-.57.92.92,0,0,0-.25-.68,1,1,0,0,0-.7-.25,1,1,0,0,0-.74.29,1.06,1.06,0,0,0-.28.76h-.37a1.43,1.43,0,0,1,.17-.7,1.24,1.24,0,0,1,.49-.5,1.47,1.47,0,0,1,.73-.18,1.37,1.37,0,0,1,1,.33,1.16,1.16,0,0,1,.35.9,1.52,1.52,0,0,1-.2.7,5.2,5.2,0,0,1-.7.95L170.87,165h2.4Z"/><path d="M217.56,51.79a4.51,4.51,0,0,1-.37,1.9,2.85,2.85,0,0,1-1.07,1.26,2.92,2.92,0,0,1-1.6.44,2.78,2.78,0,0,1-2.21-1,3.92,3.92,0,0,1-.84-2.64V51a4.5,4.5,0,0,1,.38-1.89,3,3,0,0,1,4.26-1.28A2.84,2.84,0,0,1,217.17,49a4.42,4.42,0,0,1,.39,1.84Zm-.66-.85a3.46,3.46,0,0,0-.64-2.21,2.3,2.3,0,0,0-3.49,0,3.48,3.48,0,0,0-.65,2.24v.82a3.46,3.46,0,0,0,.64,2.21,2.3,2.3,0,0,0,3.5,0,3.55,3.55,0,0,0,.63-2.24Z"/><path d="M229.58,100.17a4.51,4.51,0,0,1-.37,1.9,2.85,2.85,0,0,1-1.07,1.26,2.92,2.92,0,0,1-1.6.44,2.78,2.78,0,0,1-2.21-1,3.92,3.92,0,0,1-.84-2.64v-.81a4.5,4.5,0,0,1,.38-1.89,3,3,0,0,1,4.26-1.28,2.84,2.84,0,0,1,1.07,1.23,4.42,4.42,0,0,1,.39,1.84Zm-.66-.85a3.46,3.46,0,0,0-.64-2.21,2.3,2.3,0,0,0-3.49,0,3.48,3.48,0,0,0-.65,2.24v.82a3.46,3.46,0,0,0,.64,2.21,2.3,2.3,0,0,0,3.5,0,3.55,3.55,0,0,0,.63-2.24Z"/><path d="M159.09,99.17a4.51,4.51,0,0,1-.37,1.9,2.85,2.85,0,0,1-1.07,1.26,2.92,2.92,0,0,1-1.6.44,2.78,2.78,0,0,1-2.21-1,3.92,3.92,0,0,1-.84-2.64v-.81a4.5,4.5,0,0,1,.38-1.89,3,3,0,0,1,4.26-1.28,2.84,2.84,0,0,1,1.07,1.23,4.42,4.42,0,0,1,.39,1.84Zm-.66-.85a3.46,3.46,0,0,0-.64-2.21,2.3,2.3,0,0,0-3.49,0,3.48,3.48,0,0,0-.65,2.24v.82a3.46,3.46,0,0,0,.64,2.21,2.3,2.3,0,0,0,3.5,0,3.55,3.55,0,0,0,.63-2.24Z"/><path d="M113.2,140.86a4.51,4.51,0,0,1-.37,1.9,2.85,2.85,0,0,1-1.07,1.26,2.92,2.92,0,0,1-1.6.44,2.78,2.78,0,0,1-2.21-1,3.92,3.92,0,0,1-.84-2.64V140a4.5,4.5,0,0,1,.38-1.89,3,3,0,0,1,4.26-1.28,2.84,2.84,0,0,1,1.07,1.23,4.42,4.42,0,0,1,.39,1.84Zm-.66-.85a3.46,3.46,0,0,0-.64-2.21,2.3,2.3,0,0,0-3.49,0,3.48,3.48,0,0,0-.65,2.24v.82a3.46,3.46,0,0,0,.64,2.21,2.3,2.3,0,0,0,3.5,0,3.55,3.55,0,0,0,.63-2.24Z"/><path d="M148.94,139.86a4.51,4.51,0,0,1-.37,1.9A2.85,2.85,0,0,1,147.5,143a2.92,2.92,0,0,1-1.6.44,2.78,2.78,0,0,1-2.21-1,3.92,3.92,0,0,1-.84-2.64V139a4.5,4.5,0,0,1,.38-1.89,3,3,0,0,1,4.26-1.28,2.84,2.84,0,0,1,1.07,1.23,4.42,4.42,0,0,1,.39,1.84Zm-.66-.85a3.46,3.46,0,0,0-.64-2.21,2.3,2.3,0,0,0-3.49,0,3.48,3.48,0,0,0-.65,2.24v.82a3.46,3.46,0,0,0,.64,2.21,2.3,2.3,0,0,0,3.5,0,3.55,3.55,0,0,0,.63-2.24Z"/><path d="M125,134a4.51,4.51,0,0,1-.37,1.9,2.85,2.85,0,0,1-1.07,1.26,2.92,2.92,0,0,1-1.6.44,2.78,2.78,0,0,1-2.21-1,3.92,3.92,0,0,1-.84-2.64v-.81a4.5,4.5,0,0,1,.38-1.89A3,3,0,0,1,123.5,130a2.84,2.84,0,0,1,1.07,1.23,4.42,4.42,0,0,1,.39,1.84Zm-.66-.85a3.46,3.46,0,0,0-.64-2.21,2.3,2.3,0,0,0-3.49,0,3.48,3.48,0,0,0-.65,2.24V134a3.46,3.46,0,0,0,.64,2.21,2.3,2.3,0,0,0,3.5,0,3.55,3.55,0,0,0,.63-2.24Z"/><path d="M67.55,155.17a4.51,4.51,0,0,1-.37,1.9,2.85,2.85,0,0,1-1.07,1.26,2.92,2.92,0,0,1-1.6.44,2.78,2.78,0,0,1-2.21-1,3.92,3.92,0,0,1-.84-2.64v-.81a4.5,4.5,0,0,1,.38-1.89,3,3,0,0,1,4.26-1.28,2.84,2.84,0,0,1,1.07,1.23,4.42,4.42,0,0,1,.39,1.84Zm-.66-.85a3.46,3.46,0,0,0-.64-2.21,2.3,2.3,0,0,0-3.49,0,3.48,3.48,0,0,0-.65,2.24v.82a3.46,3.46,0,0,0,.64,2.21,2.3,2.3,0,0,0,3.5,0,3.55,3.55,0,0,0,.63-2.24Z"/><path d="M33.06,118.69a4.51,4.51,0,0,1-.37,1.9,2.85,2.85,0,0,1-1.07,1.26,2.92,2.92,0,0,1-1.6.44,2.78,2.78,0,0,1-2.21-1,3.92,3.92,0,0,1-.84-2.64v-.81a4.5,4.5,0,0,1,.38-1.89,3,3,0,0,1,4.26-1.28,2.84,2.84,0,0,1,1.07,1.23,4.42,4.42,0,0,1,.39,1.84Zm-.66-.85a3.46,3.46,0,0,0-.64-2.21,2.3,2.3,0,0,0-3.49,0,3.48,3.48,0,0,0-.65,2.24v.82a3.46,3.46,0,0,0,.64,2.21,2.3,2.3,0,0,0,3.5,0,3.55,3.55,0,0,0,.63-2.24Z"/><path d="M146.74,95.73a1.26,1.26,0,0,0-.46-1,4.8,4.8,0,0,0-1.67-.72,5.85,5.85,0,0,1-1.77-.74,1.8,1.8,0,0,1-.06-3,3,3,0,0,1,1.89-.56,3.14,3.14,0,0,1,1.39.3,2.27,2.27,0,0,1,1,.84,2.2,2.2,0,0,1,.34,1.2h-.67a1.64,1.64,0,0,0-.55-1.29,2.13,2.13,0,0,0-1.47-.49,2.32,2.32,0,0,0-1.43.4,1.25,1.25,0,0,0-.53,1,1.18,1.18,0,0,0,.48,1,4.43,4.43,0,0,0,1.53.66,7.22,7.22,0,0,1,1.6.6,2.29,2.29,0,0,1,.82.74,1.86,1.86,0,0,1,.27,1,1.77,1.77,0,0,1-.74,1.48,3.15,3.15,0,0,1-1.95.56,3.83,3.83,0,0,1-1.52-.29,2.32,2.32,0,0,1-1-.83,2.13,2.13,0,0,1-.36-1.22h.66a1.56,1.56,0,0,0,.62,1.3,2.61,2.61,0,0,0,1.64.48,2.45,2.45,0,0,0,1.47-.4A1.26,1.26,0,0,0,146.74,95.73Z"/><path d="M146.74,80.31a1.26,1.26,0,0,0-.46-1,4.8,4.8,0,0,0-1.67-.72,5.85,5.85,0,0,1-1.77-.74,1.8,1.8,0,0,1-.06-3,3,3,0,0,1,1.89-.56,3.14,3.14,0,0,1,1.39.3,2.27,2.27,0,0,1,1,.84,2.2,2.2,0,0,1,.34,1.2h-.67a1.64,1.64,0,0,0-.55-1.29,2.13,2.13,0,0,0-1.47-.49,2.32,2.32,0,0,0-1.43.4,1.25,1.25,0,0,0-.53,1,1.18,1.18,0,0,0,.48,1,4.43,4.43,0,0,0,1.53.66,7.22,7.22,0,0,1,1.6.6,2.29,2.29,0,0,1,.82.74,1.86,1.86,0,0,1,.27,1,1.77,1.77,0,0,1-.74,1.48,3.15,3.15,0,0,1-1.95.56A3.83,3.83,0,0,1,143.2,82a2.32,2.32,0,0,1-1-.83A2.13,2.13,0,0,1,141.8,80h.66a1.56,1.56,0,0,0,.62,1.3,2.61,2.61,0,0,0,1.64.48,2.45,2.45,0,0,0,1.47-.4A1.26,1.26,0,0,0,146.74,80.31Z"/><path d="M241.67,136a4.51,4.51,0,0,1-.37,1.9,2.85,2.85,0,0,1-1.07,1.26,2.92,2.92,0,0,1-1.6.44,2.78,2.78,0,0,1-2.21-1,3.92,3.92,0,0,1-.84-2.64v-.81a4.5,4.5,0,0,1,.38-1.89,3,3,0,0,1,4.26-1.28,2.84,2.84,0,0,1,1.07,1.23,4.42,4.42,0,0,1,.39,1.84Zm-.66-.85a3.46,3.46,0,0,0-.64-2.21,2.3,2.3,0,0,0-3.49,0,3.48,3.48,0,0,0-.65,2.24V136a3.46,3.46,0,0,0,.64,2.21,2.3,2.3,0,0,0,3.5,0A3.55,3.55,0,0,0,241,136Z"/><path d="M194.21,134.92a4.51,4.51,0,0,1-.37,1.9,2.85,2.85,0,0,1-1.07,1.26,2.92,2.92,0,0,1-1.6.44,2.78,2.78,0,0,1-2.21-1,3.92,3.92,0,0,1-.84-2.64v-.81a4.5,4.5,0,0,1,.38-1.89,3,3,0,0,1,4.26-1.28,2.84,2.84,0,0,1,1.07,1.23,4.42,4.42,0,0,1,.39,1.84Zm-.66-.85a3.46,3.46,0,0,0-.64-2.21,2.3,2.3,0,0,0-3.49,0,3.48,3.48,0,0,0-.65,2.24v.82a3.46,3.46,0,0,0,.64,2.21,2.3,2.3,0,0,0,3.5,0,3.55,3.55,0,0,0,.63-2.24Z"/><path d="M171,38.92a4.51,4.51,0,0,1-.37,1.9,2.85,2.85,0,0,1-1.07,1.26,2.92,2.92,0,0,1-1.6.44,2.78,2.78,0,0,1-2.21-1,3.92,3.92,0,0,1-.84-2.64v-.81a4.5,4.5,0,0,1,.38-1.89,3,3,0,0,1,4.26-1.28,2.84,2.84,0,0,1,1.07,1.23A4.42,4.42,0,0,1,171,38Zm-.66-.85a3.46,3.46,0,0,0-.64-2.21,2.3,2.3,0,0,0-3.49,0,3.48,3.48,0,0,0-.65,2.24v.82a3.46,3.46,0,0,0,.64,2.21,2.3,2.3,0,0,0,3.5,0,3.55,3.55,0,0,0,.63-2.24Z"/><line class="cls-1" x1="144.91" y1="84.23" x2="144.91" y2="87.72"/></svg>