<?xml version="1.0" encoding="UTF-8"?>
<svg width="33px" height="33px" viewBox="0 0 33 33" version="1.1" xmlns="http://www.w3.org/2000/svg" xmlns:xlink="http://www.w3.org/1999/xlink">
    <!-- Generator: Sketch 43.1 (39012) - http://www.bohemiancoding.com/sketch -->
    <title>Brain Icon</title>
    <desc>Created with Sketch.</desc>
    <defs></defs>
    <g id="Desktop" stroke="none" stroke-width="1" fill="none" fill-rule="evenodd" stroke-linecap="round" stroke-linejoin="round">
        <g id="5.0_Manifesto-Nathan's-Bio" transform="translate(-602.000000, -2486.000000)" stroke="#9B9B9B">
            <g id="Pillar-1" transform="translate(202.000000, 2383.000000)">
                <g id="Brain-Icon" transform="translate(400.000000, 103.000000)">
                    <path d="M17.622,2.3232 L17.622,29.6772 C17.622,29.6772 18,31.5002 21.635,31.5002 C26.317,31.5002 31.988,25.8292 31.988,16.0002 C31.988,5.9702 24.253,0.5002 20.937,0.5002 C18.175,0.5002 17.622,2.3232 17.622,2.3232 Z" id="Stroke-1"></path>
                    <path d="M28.7256,5.751 C28.7256,5.751 29.2256,8.25 25.9106,8.25" id="Stroke-3"></path>
                    <path d="M17.622,12.1699 C17.622,12.1699 18.175,10.9849 20.385,10.9849 C22.595,10.9849 23.293,12.9759 23.293,12.9759" id="Stroke-5"></path>
                    <path d="M17.622,5.2588 C17.622,5.2588 17.958,4.5378 19.303,4.5378 C20.646,4.5378 21.024,5.4148 21.024,5.4148" id="Stroke-7"></path>
                    <path d="M23.08,9.0459 C23.08,9.0459 23.386,9.7599 22.568,10.5769 C21.751,11.3949 20.901,11.0049 20.901,11.0049" id="Stroke-9"></path>
                    <path d="M17.622,21.1289 C17.622,21.1289 18.175,22.8379 21.49,22.8379 C24.805,22.8379 25.91,20.1029 25.91,20.1029" id="Stroke-11"></path>
                    <path d="M31.9883,16.3418 C31.9883,16.3418 31.3983,14.6328 27.8623,14.6328 C24.3263,14.6328 23.1473,17.3678 23.1473,17.3678" id="Stroke-13"></path>
                    <path d="M20.6465,26.207 C22.4665,26.207 23.1955,28.027 22.8185,29.109" id="Stroke-15"></path>
                    <path d="M14.8662,2.3232 L14.8662,29.6772 C14.8662,29.6772 14.4882,31.5002 10.8522,31.5002 C6.1712,31.5002 0.5002,25.8292 0.5002,16.0002 C0.5002,5.9702 8.2352,0.5002 11.5512,0.5002 C14.3132,0.5002 14.8662,2.3232 14.8662,2.3232 Z" id="Stroke-17"></path>
                    <path d="M3.7627,5.751 C3.7627,5.751 3.2627,8.25 6.5777,8.25" id="Stroke-19"></path>
                    <path d="M14.8662,12.1699 C14.8662,12.1699 14.3132,10.9849 12.1032,10.9849 C9.8932,10.9849 9.1952,12.9759 9.1952,12.9759" id="Stroke-21"></path>
                    <path d="M14.8662,5.2588 C14.8662,5.2588 14.5302,4.5378 13.1852,4.5378 C11.8422,4.5378 11.4642,5.4148 11.4642,5.4148" id="Stroke-23"></path>
                    <path d="M9.4072,9.0459 C9.4072,9.0459 9.1022,9.7599 9.9202,10.5769 C10.7372,11.3949 11.5872,11.0049 11.5872,11.0049" id="Stroke-25"></path>
                    <path d="M14.8662,21.1289 C14.8662,21.1289 14.3132,22.8379 10.9982,22.8379 C7.6822,22.8379 6.5782,20.1029 6.5782,20.1029" id="Stroke-27"></path>
                    <path d="M0.5,16.3418 C0.5,16.3418 1.09,14.6328 4.626,14.6328 C8.162,14.6328 9.341,17.3678 9.341,17.3678" id="Stroke-29"></path>
                    <path d="M11.8418,26.207 C10.0218,26.207 9.2928,28.027 9.6698,29.109" id="Stroke-31"></path>
                </g>
            </g>
        </g>
    </g>
</svg>