<?xml version="1.0" encoding="UTF-8"?>
<svg width="33px" height="32px" viewBox="0 0 33 32" version="1.1" xmlns="http://www.w3.org/2000/svg" xmlns:xlink="http://www.w3.org/1999/xlink">
    <!-- Generator: Sketch 43.1 (39012) - http://www.bohemiancoding.com/sketch -->
    <title>Page 1</title>
    <desc>Created with Sketch.</desc>
    <defs></defs>
    <g id="Desktop" stroke="none" stroke-width="1" fill="none" fill-rule="evenodd" stroke-linecap="round" stroke-linejoin="round">
        <g id="5.0_Manifesto-Nathan's-Bio" transform="translate(-203.000000, -2486.000000)" stroke="#9B9B9B">
            <g id="Pillar-1" transform="translate(202.000000, 2383.000000)">
                <g id="Page-1" transform="translate(1.000000, 103.000000)">
                    <path d="M16.25,8.375 C16.25,4.025 12.725,0.5 8.375,0.5 C4.025,0.5 0.5,4.025 0.5,8.375 C0.5,22.5 16.25,31.5 16.25,31.5" id="Stroke-1"></path>
                    <path d="M16.25,8.375 C16.25,4.025 19.775,0.5 24.125,0.5 C28.475,0.5 32,4.025 32,8.375 C32,22.333 16.25,31.5 16.25,31.5" id="Stroke-3"></path>
                    <path d="M12.4834,5.0332 C11.5104,3.9872 10.1224,3.3342 8.5814,3.3342 C5.6364,3.3342 3.2504,5.7202 3.2504,8.6652 C3.2504,9.7152 3.3794,10.7232 3.6074,11.6872" id="Stroke-5"></path>
                </g>
            </g>
        </g>
    </g>
</svg>