<svg id="icons" xmlns="http://www.w3.org/2000/svg" viewBox="0 0 56 56"><defs><style>.cls-1{fill:#2c41c6;}.cls-2{fill:none;stroke:#51b793;stroke-linecap:round;stroke-miterlimit:10;}</style></defs><title>privacy-policy-7</title><path class="cls-1" d="M28,15a3,3,0,1,1-3,3,3,3,0,0,1,3-3m0-1a4,4,0,1,0,4,4,4,4,0,0,0-4-4Z"/><path class="cls-1" d="M28.4,25A5.61,5.61,0,0,1,34,30.6V39H22V30.6A5.61,5.61,0,0,1,27.6,25h.8m0-1h-.8A6.6,6.6,0,0,0,21,30.6V40H35V30.6A6.6,6.6,0,0,0,28.4,24Z"/><line class="cls-2" x1="28.04" y1="9.27" x2="28.04" y2="3.81"/><line class="cls-2" x1="41.31" y1="14.39" x2="45.17" y2="10.53"/><line class="cls-2" x1="46.37" y1="27.68" x2="51.82" y2="27.68"/><line class="cls-2" x1="41.25" y1="40.95" x2="45.11" y2="44.81"/><line class="cls-2" x1="28.04" y1="46" x2="28.04" y2="51.46"/><line class="cls-2" x1="14.69" y1="40.88" x2="10.83" y2="44.74"/><line class="cls-2" x1="9.63" y1="27.59" x2="4.18" y2="27.59"/><line class="cls-2" x1="14.75" y1="14.32" x2="10.89" y2="10.46"/><polyline class="cls-2" points="30.56 6.75 28.05 9.27 25.53 6.75"/><polyline class="cls-2" points="30.47 48.51 27.95 46 25.44 48.51"/><polyline class="cls-2" points="14.75 10.77 14.75 14.32 11.2 14.32"/><polyline class="cls-2" points="44.8 40.95 41.25 40.95 41.25 44.5"/><polyline class="cls-2" points="7.12 25.08 9.63 27.59 7.12 30.1"/><polyline class="cls-2" points="48.88 25.17 46.37 27.68 48.88 30.19"/><polyline class="cls-2" points="11.13 40.88 14.69 40.88 14.69 44.44"/><polyline class="cls-2" points="41.31 10.83 41.31 14.39 44.87 14.39"/></svg>