<svg id="icons" xmlns="http://www.w3.org/2000/svg" xmlns:xlink="http://www.w3.org/1999/xlink" viewBox="0 0 56 56"><defs><style>.cls-1,.cls-2,.cls-4{fill:none;stroke-miterlimit:10;}.cls-1,.cls-4{stroke:#51b793;}.cls-2{stroke:#2c41c6;}.cls-3{clip-path:url(#clip-path);}.cls-4{stroke-linecap:round;}</style><clipPath id="clip-path"><path class="cls-1" d="M28,35.85V15a26.71,26.71,0,0,0-11.21,2.68,12.12,12.12,0,0,0-1.46,5.78A12.54,12.54,0,0,0,28,35.85Z"/></clipPath></defs><title>privacy-policy-6</title><path class="cls-2" d="M39.21,17.68a12.12,12.12,0,0,1,1.46,5.78,12.67,12.67,0,0,1-25.34,0,12.12,12.12,0,0,1,1.46-5.78A44.07,44.07,0,0,0,4,27S14.75,39,28,39,52,27,52,27A44.07,44.07,0,0,0,39.21,17.68Z"/><g class="cls-3"><line class="cls-1" x1="41.32" y1="24.17" x2="7.63" y2="57.13"/><line class="cls-1" x1="41.07" y1="19.24" x2="7.38" y2="52.2"/><line class="cls-1" x1="40.82" y1="14.32" x2="7.13" y2="47.28"/><line class="cls-1" x1="40.57" y1="9.4" x2="6.88" y2="42.36"/><line class="cls-1" x1="40.32" y1="4.48" x2="6.63" y2="37.43"/><line class="cls-1" x1="40.07" y1="-0.45" x2="6.38" y2="32.51"/></g><path class="cls-1" d="M28,35.85V15a26.71,26.71,0,0,0-11.21,2.68,12.12,12.12,0,0,0-1.46,5.78A12.54,12.54,0,0,0,28,35.85Z"/><line class="cls-4" x1="28" y1="35.85" x2="28" y2="15"/><path class="cls-2" d="M28,35.85a12.54,12.54,0,0,0,12.67-12.4,12.12,12.12,0,0,0-1.46-5.78A26.71,26.71,0,0,0,28,15a26.71,26.71,0,0,0-11.21,2.68,12.12,12.12,0,0,0-1.46,5.78A12.54,12.54,0,0,0,28,35.85Z"/></svg>