<svg id="icons" xmlns="http://www.w3.org/2000/svg" viewBox="0 0 56 56"><defs><style>.cls-1,.cls-2{fill:none;stroke-linecap:round;stroke-miterlimit:10;}.cls-1{stroke:#fceb3e;}.cls-2{stroke:#de2a50;}.cls-3{fill:#2c41c6;}</style></defs><title>privacy-policy-5</title><line class="cls-1" x1="15.48" y1="27.67" x2="4.83" y2="27.67"/><line class="cls-1" x1="41.77" y1="27.67" x2="38.11" y2="27.67"/><polyline class="cls-1" points="8.54 23.43 4.3 27.67 8.54 31.91"/><line class="cls-1" x1="47.85" y1="27.67" x2="44.18" y2="27.67"/><line class="cls-2" x1="39.06" y1="17.66" x2="47.64" y2="17.66"/><polyline class="cls-2" points="43.93 13.42 48.17 17.66 43.93 21.91"/><line class="cls-2" x1="42.08" y1="37.67" x2="50.66" y2="37.67"/><polyline class="cls-2" points="46.95 33.43 51.2 37.67 46.95 41.91"/><line class="cls-2" x1="39.95" y1="37.67" x2="38.11" y2="37.67"/><line class="cls-2" x1="16.4" y1="37.67" x2="11.41" y2="37.67"/><line class="cls-2" x1="19.11" y1="17.66" x2="9.41" y2="17.66"/><line class="cls-2" x1="36.56" y1="17.66" x2="34.28" y2="17.66"/><line class="cls-2" x1="8.46" y1="37.67" x2="5.54" y2="37.67"/><path class="cls-3" d="M35.89,24l-3.34,0-.07-7.53A5.56,5.56,0,0,0,26.9,11h0a5.55,5.55,0,0,0-5.55,5.56L21.38,24,18,24l.11,17H36ZM24.55,16.72a2.43,2.43,0,0,1,2.33-2.51h0a2.43,2.43,0,0,1,2.34,2.48l.06,7.3-4.68,0Zm-.92-3.38A4.58,4.58,0,0,1,26.87,12h0a4.57,4.57,0,0,1,4.58,4.5l.07,7.5H30.29l-.06-7.32a3.42,3.42,0,0,0-3.34-3.47h0a3.42,3.42,0,0,0-3.32,3.51L23.61,24H22.38l-.07-7.46A4.47,4.47,0,0,1,23.63,13.35ZM19,40l-.1-15L35,24.9,35.1,40Z"/><circle class="cls-3" cx="26.99" cy="30.02" r="2.25" transform="translate(-0.18 0.16) rotate(-0.34)"/><rect class="cls-3" x="25.91" y="30.71" width="2.22" height="5.61" transform="translate(-0.2 0.17) rotate(-0.35)"/></svg>