<svg id="icons" xmlns="http://www.w3.org/2000/svg" viewBox="0 0 150 150"><defs><style>.cls-1,.cls-2{fill:none;stroke:#2c41c6;stroke-miterlimit:10;}.cls-2{stroke-linecap:round;stroke-width:2px;stroke-dasharray:0 9.97;}.cls-3{fill:#fceb3e;}</style></defs><title>privacy-policy-header-icon-2</title><line class="cls-1" x1="59.5" y1="52.5" x2="106.5" y2="52.5"/><circle class="cls-2" cx="75" cy="74.5" r="73"/><line class="cls-1" x1="43.5" y1="52.5" x2="48.57" y2="52.5"/><line class="cls-1" x1="43.5" y1="73.5" x2="81.53" y2="73.5"/><line class="cls-1" x1="91.89" y1="73.5" x2="106.5" y2="73.5"/><line class="cls-1" x1="71.72" y1="94.5" x2="106.5" y2="94.5"/><line class="cls-1" x1="43.5" y1="94.5" x2="61.93" y2="94.5"/><path class="cls-3" d="M54,48a4.5,4.5,0,1,1-4.5,4.5A4.51,4.51,0,0,1,54,48m0-1a5.5,5.5,0,1,0,5.5,5.5A5.5,5.5,0,0,0,54,47Z"/><path class="cls-3" d="M86.67,69a4.5,4.5,0,1,1-4.5,4.5,4.51,4.51,0,0,1,4.5-4.5m0-1a5.5,5.5,0,1,0,5.5,5.5,5.5,5.5,0,0,0-5.5-5.5Z"/><path class="cls-3" d="M66.73,90a4.5,4.5,0,1,1-4.5,4.5,4.51,4.51,0,0,1,4.5-4.5m0-1a5.5,5.5,0,1,0,5.5,5.5,5.5,5.5,0,0,0-5.5-5.5Z"/></svg>