<svg id="icons" xmlns="http://www.w3.org/2000/svg" viewBox="0 0 56 56"><defs><style>.cls-1{fill:#2c41c6;}.cls-2,.cls-3{fill:none;stroke-linecap:round;stroke-miterlimit:10;}.cls-2{stroke:#dadada;}.cls-3{stroke:#2c41c6;}.cls-4{fill:#de2a50;}</style></defs><title>privacy-policy-1</title><path class="cls-1" d="M8,43a5,5,0,1,1-3.54,1.46A5,5,0,0,1,8,43m0-1a6,6,0,1,0,4.24,1.76A6,6,0,0,0,8,42Z"/><path class="cls-1" d="M28,23a5,5,0,1,1-3.54,1.46A5,5,0,0,1,28,23m0-1a6,6,0,1,0,4.24,1.76A6,6,0,0,0,28,22Z"/><line class="cls-2" x1="15.14" y1="40.86" x2="20.62" y2="35.38"/><polyline class="cls-2" points="15 35 21 35 21 41"/><line class="cls-2" x1="34.14" y1="21.86" x2="39.62" y2="16.38"/><polyline class="cls-2" points="34 16 40 16 40 22"/><polyline class="cls-3" points="34.53 2.94 38.76 7.2 34.5 11.43"/><path class="cls-3" d="M37.66,7.11A31.5,31.5,0,0,0,16.31,17.56c-5.48,5.9-7.39,13.59-7.79,21.69"/><path class="cls-4" d="M48.27,13.5Zm-.5-.5a.49.49,0,0,1,.49-.5h0a.5.5,0,0,1,.5.5h0a.51.51,0,0,1-.5.5h0A.5.5,0,0,1,47.77,13Zm-2.62-.33A.49.49,0,0,1,45,12h0a.49.49,0,0,1,.68-.18h0a.5.5,0,0,1,.19.68h0a.5.5,0,0,1-.44.25h0A.42.42,0,0,1,45.15,12.67Zm5.55-.19a.51.51,0,0,1,.18-.69h0a.5.5,0,0,1,.69.18h0a.52.52,0,0,1-.18.69h0a.57.57,0,0,1-.25.06h0A.51.51,0,0,1,50.7,12.48ZM42.85,10.4A.49.49,0,0,1,43,9.72h0a.51.51,0,0,1,.69.18h0a.5.5,0,0,1-.18.68h0a.49.49,0,0,1-.26.07h0A.51.51,0,0,1,42.85,10.4ZM53,10.55a.49.49,0,0,1-.18-.68h0a.49.49,0,0,1,.68-.18h0a.5.5,0,0,1,.19.68h0a.52.52,0,0,1-.44.25h0A.48.48,0,0,1,53,10.55ZM42,7.29a.5.5,0,0,1,.5-.51h0a.5.5,0,0,1,.5.5h0a.5.5,0,0,1-.5.5h0A.5.5,0,0,1,42,7.29Zm11.5,0h0V7.19h0A.5.5,0,0,1,54,6.68h0a.5.5,0,0,1,.51.5h0v0h0v0h0a.51.51,0,0,1-.5.5h0A.5.5,0,0,1,53.5,7.25ZM43,4.84a.5.5,0,0,1-.19-.68h0A.52.52,0,0,1,43.5,4h0a.52.52,0,0,1,.19.69h0a.51.51,0,0,1-.44.26h0A.45.45,0,0,1,43,4.84Zm9.77-.26h0A.49.49,0,0,1,53,3.89h0a.5.5,0,0,1,.68.17h0a.51.51,0,0,1-.18.69h0a.45.45,0,0,1-.25.07h0A.51.51,0,0,1,52.77,4.58Zm-7.86-2a.49.49,0,0,1,.17-.69h0a.5.5,0,0,1,.69.18h0a.49.49,0,0,1-.18.68h0a.48.48,0,0,1-.25.07h0A.49.49,0,0,1,44.91,2.55Zm5.92.12A.49.49,0,0,1,50.64,2h0a.49.49,0,0,1,.68-.18h0a.51.51,0,0,1,.19.69h0a.5.5,0,0,1-.43.25h0A.45.45,0,0,1,50.83,2.67ZM47.7,1.5a.5.5,0,0,1,.49-.5h0a.5.5,0,0,1,.51.5h0a.5.5,0,0,1-.5.5h0A.49.49,0,0,1,47.7,1.5Z"/></svg>