<svg id="icons" xmlns="http://www.w3.org/2000/svg" viewBox="0 0 56 56"><defs><style>.cls-1,.cls-3{fill:none;stroke-linecap:round;stroke-miterlimit:10;}.cls-1{stroke:#51b793;}.cls-2{fill:#2c41c6;}.cls-3{stroke:#2c41c6;}</style></defs><title>privacy-policy-4</title><path class="cls-1" d="M7.27,18.18A8.25,8.25,0,0,1,11.5,17,7.26,7.26,0,0,1,19,24v1.5"/><path class="cls-1" d="M19,32.47V34a7.26,7.26,0,0,1-7.5,7,8.25,8.25,0,0,1-4.23-1.18"/><path class="cls-1" d="M4,32.55V24a6.49,6.49,0,0,1,1.39-4.2"/><path class="cls-1" d="M5.69,38.49a6.93,6.93,0,0,1-1.6-4.05"/><path class="cls-1" d="M6.5,26v-1.5a4.84,4.84,0,0,1,5-4.51,4.84,4.84,0,0,1,5,4.51v8.91"/><path class="cls-1" d="M15.73,36.19a5.19,5.19,0,0,1-4.23,2.14,5.08,5.08,0,0,1-4.68-2.95,4,4,0,0,1-.32-1.56v-1.5"/><path class="cls-1" d="M15.52,36.46a5.22,5.22,0,0,1-4,1.86,5.31,5.31,0,0,1-1-.09"/><path class="cls-1" d="M9.25,34.71V25a2.17,2.17,0,0,1,2.25-2,2.17,2.17,0,0,1,2.25,2v3.26"/><line class="cls-1" x1="19" y1="28.03" x2="19" y2="32.55"/><line class="cls-1" x1="6.5" y1="33.49" x2="6.5" y2="28.53"/><line class="cls-1" x1="13.75" y1="30.79" x2="13.75" y2="34.44"/><line class="cls-1" x1="11.5" y1="26.11" x2="11.5" y2="35.32"/><path class="cls-2" d="M52.9,25l-3,0-.06-6.14a4.94,4.94,0,0,0-5-4.88h0a4.94,4.94,0,0,0-4.93,4.94L40,25.08l-3,0L37.1,41,53,40.9ZM42.08,16.17A4,4,0,0,1,44.88,15h0a4,4,0,0,1,4,3.89L48.93,25h-1l-.05-5.95a3,3,0,0,0-3-3.09h0a3,3,0,0,0-3,3.12L42,25H41l-.06-6.11A3.86,3.86,0,0,1,42.08,16.17Zm.85,2.92a2,2,0,0,1,2-2.12h0a2,2,0,0,1,2,2.1L46.93,25,43,25ZM38,40.08,37.92,26,52,25.91,52.08,40Z"/><circle class="cls-2" cx="45" cy="31" r="2" transform="translate(-0.19 0.27) rotate(-0.34)"/><rect class="cls-2" x="44.03" y="31.41" width="1.97" height="4.99" transform="matrix(1, -0.01, 0.01, 1, -0.21, 0.27)"/><line class="cls-1" x1="28.49" y1="25.39" x2="33.4" y2="25.39"/><line class="cls-1" x1="21.84" y1="25.39" x2="25.84" y2="25.39"/><polyline class="cls-1" points="29.69 21.15 33.93 25.39 29.69 29.63"/><line class="cls-3" x1="28.81" y1="32.57" x2="22.23" y2="32.57"/><line class="cls-3" x1="34.4" y1="32.57" x2="31.4" y2="32.57"/><polyline class="cls-3" points="25.93 28.33 21.69 32.57 25.93 36.81"/></svg>