<svg id="icons" xmlns="http://www.w3.org/2000/svg" viewBox="0 0 150 150"><defs><style>.cls-1,.cls-3,.cls-4{fill:none;stroke-miterlimit:10;}.cls-1,.cls-3{stroke:#2c41c6;}.cls-1{stroke-linecap:round;stroke-width:2px;stroke-dasharray:0 10;}.cls-2{fill:#2c41c6;}.cls-4{stroke:#51b793;}</style></defs><title>privacy-policy-header-icon-3</title><circle class="cls-1" cx="75" cy="74.5" r="73"/><path class="cls-2" d="M64,53.26h.28a3.5,3.5,0,0,1-.27,7h-.28a3.5,3.5,0,0,1,.27-7m0-1a4.5,4.5,0,0,0-.35,9H64a4.5,4.5,0,0,0,.35-9Z"/><path class="cls-2" d="M86,91h.28A3.5,3.5,0,0,1,86,98h-.28A3.5,3.5,0,0,1,86,91m0-1a4.5,4.5,0,0,0-.35,9H86a4.5,4.5,0,0,0,.35-9Z"/><line class="cls-3" x1="60.68" y1="99.35" x2="89.03" y2="50.65"/><path class="cls-4" d="M75,31a43.46,43.46,0,1,1-13.59,2.17"/><polyline class="cls-4" points="51.58 28.92 61.37 33.18 57.11 42.98"/></svg>