<svg id="icons" xmlns="http://www.w3.org/2000/svg" viewBox="0 0 56 56"><defs><style>.cls-1{fill:#2c41c6;}.cls-2,.cls-3{fill:none;stroke-linecap:round;stroke-miterlimit:10;}.cls-2{stroke:#de2a50;}.cls-3{stroke:#2c41c6;}</style></defs><title>privacy-policy-3</title><path class="cls-1" d="M51,13V45H5V13H51m1-1H4V46H52V12Z"/><path class="cls-1" d="M51,10v2H5V10H51m1-1H4v4H52V9Z"/><path class="cls-2" d="M25.18,20.78A5.5,5.5,0,0,1,28,20a4.84,4.84,0,0,1,5,4.68v1"/><path class="cls-2" d="M33,30.32v1A4.84,4.84,0,0,1,28,36a5.5,5.5,0,0,1-2.82-.78"/><path class="cls-2" d="M23,30.36V24.68a4.33,4.33,0,0,1,.93-2.8"/><path class="cls-2" d="M24.13,34.33a4.62,4.62,0,0,1-1.07-2.7"/><path class="cls-2" d="M24.83,26.12v-1a3.19,3.19,0,0,1,6.35,0v5.66"/><path class="cls-2" d="M30.69,32.57A3.3,3.3,0,0,1,28,33.93a3.23,3.23,0,0,1-3-1.87,2.54,2.54,0,0,1-.2-1v-1"/><path class="cls-2" d="M26.85,30.91v-5a1.16,1.16,0,0,1,2.31,0v1.67"/><line class="cls-2" x1="33" y1="27.35" x2="33" y2="30.36"/><line class="cls-2" x1="24.83" y1="30.86" x2="24.83" y2="27.71"/><line class="cls-2" x1="29.15" y1="28.9" x2="29.15" y2="30.77"/><polyline class="cls-3" points="35.34 27.9 42.03 27.9 42.03 19.55 45.92 19.55"/><polyline class="cls-3" points="39.66 28.19 39.66 33.15 47.22 33.15"/><polyline class="cls-3" points="20.23 27.92 13.1 27.92 13.1 19.46 10.91 19.46"/><polyline class="cls-3" points="17.42 28.42 17.42 34.52 11.38 34.52"/><polyline class="cls-3" points="13.1 23.22 17.42 23.22 17.42 16.75"/><line class="cls-3" x1="14.4" y1="34.52" x2="14.4" y2="39.42"/><line class="cls-3" x1="43.26" y1="33.14" x2="43.26" y2="41.14"/><circle class="cls-1" cx="45.92" cy="19.55" r="1"/><circle class="cls-1" cx="47.65" cy="33.14" r="1"/><circle class="cls-1" cx="43.26" cy="41.38" r="1"/><circle class="cls-1" cx="14.4" cy="39.42" r="1"/><circle class="cls-1" cx="11.38" cy="34.52" r="1"/><circle class="cls-1" cx="10.7" cy="19.46" r="1"/><circle class="cls-1" cx="17.42" cy="16.75" r="1"/></svg>