<svg id="icons" xmlns="http://www.w3.org/2000/svg" viewBox="0 0 150 150"><defs><style>.cls-1,.cls-3,.cls-4{fill:none;stroke-miterlimit:10;}.cls-1{stroke:#2c41c6;stroke-width:2px;stroke-dasharray:0 9.97;}.cls-1,.cls-3{stroke-linecap:round;}.cls-2{fill:#2c41c6;}.cls-3,.cls-4{stroke:#de2a50;}.cls-5{fill:#de2a50;}</style></defs><title>privacy-policy-header-icon-1</title><circle class="cls-1" cx="75.5" cy="74.5" r="73"/><path class="cls-2" d="M75.5,47.5a8,8,0,1,1-8,8,8,8,0,0,1,8-8m0-1a9,9,0,1,0,9,9,9,9,0,0,0-9-9Z"/><path class="cls-2" d="M77.5,67.5a13,13,0,0,1,13,13v21h-30v-21a13,13,0,0,1,13-13h4m0-1h-4a14,14,0,0,0-14,14v22h32v-22a14,14,0,0,0-14-14Z"/><polyline class="cls-3" points="94 81.13 107 81.13 107 59 115.03 59"/><polyline class="cls-3" points="103 81.66 103 91 123.09 91"/><line class="cls-4" x1="111" y1="91" x2="111" y2="110.96"/><circle class="cls-5" cx="115" cy="59" r="1.5"/><circle class="cls-5" cx="124" cy="91" r="1.5"/><circle class="cls-5" cx="111" cy="111" r="1.5"/><polyline class="cls-3" points="57 81.16 43 81.16 43 65.5 35 65.5"/><polyline class="cls-4" points="50 81 50 93 26.68 93"/><polyline class="cls-3" points="43 73 51 73 51 39.44"/><line class="cls-3" x1="45" y1="93.2" x2="45" y2="102.12"/><path class="cls-5" d="M46.49,102.12a1.5,1.5,0,0,1-3,0A1.55,1.55,0,0,1,45,100.63,1.48,1.48,0,0,1,46.49,102.12Z"/><circle class="cls-5" cx="27" cy="93" r="1.5"/><circle class="cls-5" cx="33.5" cy="65.5" r="1.5"/><path class="cls-5" d="M52.5,39.54A1.45,1.45,0,0,1,51,41a1.52,1.52,0,1,1,1.48-1.48Z"/></svg>