<svg id="icons" xmlns="http://www.w3.org/2000/svg" viewBox="0 0 56 56"><defs><style>.cls-1{fill:#2c41c6;}.cls-2,.cls-3{fill:none;stroke-linecap:round;stroke-miterlimit:10;}.cls-2{stroke:#2c41c6;}.cls-3{stroke:#51b793;}</style></defs><title>privacy-policy-2</title><path class="cls-1" d="M29,4a6,6,0,1,1-6,6,6,6,0,0,1,6-6m0-1a7,7,0,1,0,7,7,7,7,0,0,0-7-7Z"/><path class="cls-2" d="M40.34,26.73A10.94,10.94,0,0,0,30.05,19.5h-2.1A11,11,0,0,0,17,30.45V46.5H27"/><path class="cls-3" d="M33.27,30.18A8.25,8.25,0,0,1,37.5,29,7.26,7.26,0,0,1,45,36v1.5"/><path class="cls-3" d="M45,44.47V46a7.26,7.26,0,0,1-7.5,7,8.25,8.25,0,0,1-4.23-1.18"/><path class="cls-3" d="M30,44.55V36a6.49,6.49,0,0,1,1.39-4.2"/><path class="cls-3" d="M31.69,50.49a6.93,6.93,0,0,1-1.6-4.05"/><path class="cls-3" d="M32.5,38v-1.5a5,5,0,0,1,10,0v8.91"/><path class="cls-3" d="M41.73,48.19a5.19,5.19,0,0,1-4.23,2.14,5.08,5.08,0,0,1-4.68-2.95,4,4,0,0,1-.32-1.56v-1.5"/><path class="cls-3" d="M41.52,48.46a5.22,5.22,0,0,1-4,1.86,5.31,5.31,0,0,1-1-.09"/><path class="cls-3" d="M35.25,46.71V37a2.26,2.26,0,0,1,4.5,0v3.26"/><line class="cls-3" x1="45" y1="40.03" x2="45" y2="44.55"/><line class="cls-3" x1="32.5" y1="45.49" x2="32.5" y2="40.53"/><line class="cls-3" x1="39.75" y1="42.79" x2="39.75" y2="46.44"/><line class="cls-3" x1="37.5" y1="38.11" x2="37.5" y2="47.32"/></svg>