<svg id="Layer_2" data-name="Layer 2" xmlns="http://www.w3.org/2000/svg" viewBox="0 0 342 405"><defs><style>.cls-1,.cls-2,.cls-4,.cls-7{fill:none;stroke-miterlimit:10;}.cls-1,.cls-4{stroke:#51b793;}.cls-1,.cls-2{stroke-linecap:round;}.cls-2,.cls-7{stroke:#2c41c6;}.cls-2{stroke-width:3px;stroke-dasharray:0 14.86;}.cls-3{font-size:12px;font-family:RobotoMono-Light, Roboto Mono;}.cls-3,.cls-5{fill:#2c41c6;}.cls-6{fill:#51b793;}</style></defs><title>manifesto-chart-methodology</title><path class="cls-1" d="M109.78,333a119,119,0,0,1-37.89-36.28"/><path class="cls-1" d="M270.48,295.16a119,119,0,0,1-34.69,35.21"/><path class="cls-1" d="M232.8,130.74a119,119,0,0,1,37.44,36.76"/><path class="cls-1" d="M70.27,168.76a119,119,0,0,1,35.1-36"/><circle class="cls-2" cx="170.66" cy="125.24" r="56.78"/><circle class="cls-2" cx="170.66" cy="337.39" r="56.78"/><circle class="cls-2" cx="276.54" cy="231.51" r="56.78"/><circle class="cls-2" cx="64.77" cy="231.51" r="56.78"/><text class="cls-3" transform="translate(145.45 119.14)">Insight<tspan x="-10.8" y="16">validation</tspan></text><text class="cls-3" transform="translate(247.74 217.6)">Discover<tspan x="10.8" y="16">human</tspan><tspan x="-7.2" y="32">motivation</tspan></text><text class="cls-3" transform="translate(149.05 324.96)">Design<tspan x="-10.8" y="16">the right</tspan><tspan x="3.6" y="32">thing</tspan></text><text class="cls-3" transform="translate(53.97 217.6)">Get<tspan x="-21.6" y="16">the thing</tspan><tspan x="-7.2" y="32">right</tspan></text><text class="cls-3" transform="translate(71.45 21.73)">Human<tspan x="0" y="16">Insights</tspan></text><text class="cls-3" transform="translate(211.04 21.73)">Business<tspan x="-14.4" y="16">Objectives</tspan></text><polyline class="cls-4" points="162.07 7.42 174.43 27.74 162.07 48.06 70.42 48.06"/><polyline class="cls-4" points="179.06 7.42 166.7 27.74 179.06 48.06 269.68 48.06"/><polyline class="cls-4" points="237.96 319.28 235.79 330.36 246.88 332.54"/><polyline class="cls-4" points="259.36 164.48 270.25 167.5 273.27 156.61"/><polyline class="cls-4" points="83.02 298.63 71.88 296.77 70.02 307.91"/><polyline class="cls-4" points="103.2 143.86 105.37 132.77 94.28 130.6"/><circle class="cls-5" cx="170.66" cy="68.45" r="3.57"/><path class="cls-6" d="M170.66,65.88a2.57,2.57,0,1,1-2.57,2.57,2.57,2.57,0,0,1,2.57-2.57m0-2a4.57,4.57,0,1,0,4.57,4.57,4.58,4.58,0,0,0-4.57-4.57Z"/><line class="cls-7" x1="170.66" y1="58.69" x2="170.66" y2="68.99"/></svg>