<?xml version="1.0" encoding="UTF-8"?>
<svg width="13px" height="11px" viewBox="0 0 13 11" version="1.1" xmlns="http://www.w3.org/2000/svg" xmlns:xlink="http://www.w3.org/1999/xlink">
    <!-- Generator: Sketch 43.1 (39012) - http://www.bohemiancoding.com/sketch -->
    <title>“</title>
    <desc>Created with Sketch.</desc>
    <defs></defs>
    <g id="Desktop" stroke="none" stroke-width="1" fill="none" fill-rule="evenodd">
        <g id="5.0_Manifesto-Nathan's-Bio" transform="translate(-507.000000, -7193.000000)" fill="#2C41C6">
            <g id="Promise" transform="translate(42.000000, 7127.000000)">
                <path d="M465,73.9467681 C465,73.291505 465.080164,72.6013978 465.240494,71.8764259 C465.400825,71.1514539 465.637831,70.436949 465.951521,69.7328897 C466.265211,69.0288304 466.645118,68.3561502 467.091255,67.7148289 C467.537391,67.0735076 468.053229,66.5019037 468.638783,66 L470.750951,67.5057034 C470.095687,68.495569 469.604248,69.506332 469.276616,70.5380228 C468.948984,71.5697137 468.785171,72.6850384 468.785171,73.8840304 L468.785171,77 L465,77 L465,73.9467681 Z M471.796578,73.9467681 C471.796578,73.291505 471.876742,72.6013978 472.037072,71.8764259 C472.197403,71.1514539 472.434409,70.436949 472.748099,69.7328897 C473.061789,69.0288304 473.441696,68.3561502 473.887833,67.7148289 C474.333969,67.0735076 474.849807,66.5019037 475.435361,66 L477.547529,67.5057034 C476.892265,68.495569 476.400825,69.506332 476.073194,70.5380228 C475.745562,71.5697137 475.581749,72.6850384 475.581749,73.8840304 L475.581749,77 L471.796578,77 L471.796578,73.9467681 Z" id="“"></path>
            </g>
        </g>
    </g>
</svg>