<?xml version="1.0" encoding="UTF-8"?>
<svg width="13px" height="11px" viewBox="0 0 13 11" version="1.1" xmlns="http://www.w3.org/2000/svg" xmlns:xlink="http://www.w3.org/1999/xlink">
    <!-- Generator: Sketch 43.1 (39012) - http://www.bohemiancoding.com/sketch -->
    <title>”</title>
    <desc>Created with Sketch.</desc>
    <defs></defs>
    <g id="Desktop" stroke="none" stroke-width="1" fill="none" fill-rule="evenodd">
        <g id="5.0_Manifesto-Nathan's-Bio" transform="translate(-506.000000, -7334.000000)" fill="#2C41C6">
            <g id="Promise" transform="translate(42.000000, 7127.000000)">
                <path d="M469.748047,210.441406 C469.748047,211.053388 469.673178,211.697913 469.523438,212.375 C469.373697,213.052087 469.152345,213.719398 468.859375,214.376953 C468.566405,215.034508 468.211591,215.662757 467.794922,216.261719 C467.378253,216.86068 466.896487,217.394529 466.349609,217.863281 L464.376953,216.457031 C464.988935,215.532547 465.447915,214.588546 465.753906,213.625 C466.059897,212.661454 466.212891,211.619797 466.212891,210.5 L466.212891,207.570312 L469.748047,207.570312 L469.748047,210.441406 Z M476.232422,210.441406 C476.232422,211.053388 476.157553,211.697913 476.007812,212.375 C475.858072,213.052087 475.63672,213.719398 475.34375,214.376953 C475.05078,215.034508 474.695966,215.662757 474.279297,216.261719 C473.862628,216.86068 473.380862,217.394529 472.833984,217.863281 L470.861328,216.457031 C471.47331,215.532547 471.93229,214.588546 472.238281,213.625 C472.544272,212.661454 472.697266,211.619797 472.697266,210.5 L472.697266,207.570312 L476.232422,207.570312 L476.232422,210.441406 Z" id="”"></path>
            </g>
        </g>
    </g>
</svg>