<svg id="Layer" xmlns="http://www.w3.org/2000/svg" viewBox="0 0 111.75 75"><defs><style>.cls-1{fill:none;stroke:#2c41c6;stroke-miterlimit:10;}</style></defs><title>manifesto-illustration-serotonin</title><polygon class="cls-1" points="54.13 54.94 54.13 41.42 42.42 34.66 30.71 41.42 30.71 54.94 42.42 61.7 54.13 54.94"/><polyline class="cls-1" points="71.34 53.32 75.08 48.18 67.08 37.17 54.13 41.38 54.13 54.99 61.03 57.23"/><line class="cls-1" x1="30.71" y1="41.42" x2="19.53" y2="36"/><polyline class="cls-1" points="67.08 37.17 70.94 23.83 84.93 21.21 86.91 13.16"/><line class="cls-1" x1="50.68" y1="42.38" x2="41.91" y2="37.32"/><line class="cls-1" x1="41.9" y1="58.91" x2="50.7" y2="53.91"/><line class="cls-1" x1="33.23" y1="43.12" x2="33.27" y2="53.24"/><line class="cls-1" x1="72.28" y1="48.88" x2="65.72" y2="39.85"/><path d="M9,37.71H8.29V34H3.83v3.75H3.17V29.89h.66V33.4H8.29V29.89H9Z"/><path d="M16.73,34.22a4.51,4.51,0,0,1-.37,1.9,2.85,2.85,0,0,1-1.07,1.26,2.92,2.92,0,0,1-1.6.44,2.78,2.78,0,0,1-2.21-1,3.92,3.92,0,0,1-.84-2.64v-.81A4.5,4.5,0,0,1,11,31.49a3,3,0,0,1,4.26-1.28,2.84,2.84,0,0,1,1.07,1.23,4.42,4.42,0,0,1,.39,1.84Zm-.66-.85a3.46,3.46,0,0,0-.64-2.21,2.12,2.12,0,0,0-1.75-.8,2.12,2.12,0,0,0-1.74.8,3.48,3.48,0,0,0-.65,2.24v.82a3.46,3.46,0,0,0,.64,2.21,2.11,2.11,0,0,0,1.75.81,2.1,2.1,0,0,0,1.75-.8,3.55,3.55,0,0,0,.63-2.24Z"/><path d="M89,10.48h-.66l-4.5-6.69v6.69h-.67V2.66h.67l4.5,6.7V2.66H89Z"/><path d="M96.79,10.48h-.67V6.73H91.65v3.75H91V2.66h.66V6.17h4.47V2.66h.67Z"/><path d="M101.07,14.14H98.21v-.29l1.56-1.77a4.13,4.13,0,0,0,.54-.74,1.24,1.24,0,0,0,.15-.57.92.92,0,0,0-.25-.68,1,1,0,0,0-.7-.25,1,1,0,0,0-.74.29,1.06,1.06,0,0,0-.28.76h-.37a1.43,1.43,0,0,1,.17-.7,1.24,1.24,0,0,1,.49-.5,1.47,1.47,0,0,1,.73-.18,1.37,1.37,0,0,1,1,.33,1.16,1.16,0,0,1,.35.9,1.52,1.52,0,0,1-.2.7,5.2,5.2,0,0,1-.7.95l-1.27,1.44h2.4Z"/><path d="M69,61.8h-.66l-4.5-6.69V61.8h-.67V54h.67l4.5,6.7V54H69Z"/><path d="M69,71.5H68.3V67.75H63.83V71.5h-.66V63.68h.66v3.51H68.3V63.68H69Z"/></svg>