<?xml version="1.0" encoding="UTF-8"?>
<svg width="198px" height="197px" viewBox="0 0 198 197" version="1.1" xmlns="http://www.w3.org/2000/svg" xmlns:xlink="http://www.w3.org/1999/xlink">
    <!-- Generator: Sketch 43.2 (39069) - http://www.bohemiancoding.com/sketch -->
    <title>Fill 5</title>
    <desc>Created with Sketch.</desc>
    <defs></defs>
    <g id="Desktop" stroke="none" stroke-width="1" fill="none" fill-rule="evenodd">
        <g id="2.2.1_Services_Final" transform="translate(-174.000000, -3405.000000)" fill="#DADADA">
            <g id="Blue-Panel-1" transform="translate(0.000000, 3073.000000)">
                <g id="Chart-1" transform="translate(159.000000, 254.000000)">
                    <path d="M139.3398,81.266 C138.5398,81.056 138.0598,80.236 138.2698,79.436 C138.4798,78.636 139.2998,78.156 140.1098,78.366 C140.9098,78.576 141.3798,79.396 141.1698,80.206 C140.9898,80.876 140.3898,81.316 139.7198,81.316 C139.5998,81.316 139.4698,81.296 139.3398,81.266 M86.5198,80.296 C86.2998,79.486 86.7798,78.666 87.5798,78.456 C88.3798,78.236 89.1998,78.716 89.4098,79.516 C89.6298,80.306 89.1598,81.136 88.3598,81.346 C88.2298,81.386 88.0898,81.406 87.9698,81.406 C87.2998,81.406 86.6998,80.956 86.5198,80.296 M163.0998,91.066 C162.3898,90.656 162.1398,89.736 162.5498,89.026 C162.9698,88.306 163.8898,88.056 164.5998,88.466 L164.5998,88.476 C165.3198,88.886 165.5698,89.806 165.1498,90.516 C164.8798,91.006 164.3698,91.276 163.8498,91.276 C163.5998,91.276 163.3398,91.206 163.0998,91.066 M62.5698,90.686 C62.1598,89.966 62.3998,89.046 63.1198,88.636 C63.8398,88.216 64.7498,88.466 65.1698,89.176 C65.5898,89.896 65.3398,90.816 64.6198,91.226 L64.6298,91.226 C64.3898,91.366 64.1298,91.436 63.8698,91.436 C63.3598,91.436 62.8498,91.166 62.5698,90.686 M183.5198,106.696 C182.9398,106.116 182.9298,105.166 183.5198,104.576 C184.0998,103.996 185.0498,103.986 185.6398,104.576 C186.2298,105.156 186.2298,106.106 185.6398,106.696 C185.3498,106.986 184.9698,107.136 184.5798,107.136 C184.1998,107.136 183.8198,106.996 183.5198,106.696 M42.1398,106.926 C41.5498,106.336 41.5498,105.386 42.1398,104.806 L42.1398,104.796 C42.7198,104.216 43.6698,104.216 44.2598,104.796 C44.8498,105.386 44.8498,106.336 44.2598,106.916 C43.9698,107.216 43.5798,107.356 43.1998,107.356 C42.8198,107.356 42.4298,107.216 42.1398,106.926 M199.2198,127.056 C198.8098,126.336 199.0498,125.426 199.7698,125.006 C200.4798,124.586 201.3998,124.836 201.8198,125.546 C202.2298,126.266 201.9898,127.186 201.2798,127.596 C201.0398,127.736 200.7798,127.806 200.5198,127.806 C200.0098,127.806 199.4998,127.536 199.2198,127.056 M26.5698,127.876 C25.8498,127.466 25.6098,126.546 26.0198,125.826 C26.4398,125.116 27.3498,124.866 28.0698,125.276 C28.7898,125.696 29.0298,126.616 28.6198,127.326 C28.3398,127.806 27.8398,128.076 27.3198,128.076 C27.0598,128.076 26.8098,128.016 26.5698,127.876 M209.1198,150.786 C208.8998,149.986 209.3698,149.156 210.1698,148.946 C210.9698,148.726 211.7998,149.206 212.0098,149.996 C212.2298,150.796 211.7498,151.626 210.9598,151.836 C210.8198,151.876 210.6898,151.886 210.5598,151.886 C209.8998,151.886 209.2998,151.446 209.1198,150.786 M16.9698,152.156 C16.1698,151.946 15.6898,151.126 15.8998,150.316 C16.1198,149.516 16.9398,149.046 17.7398,149.256 C18.5398,149.466 19.0198,150.286 18.7998,151.096 C18.6198,151.766 18.0198,152.206 17.3498,152.206 C17.2298,152.206 17.0998,152.186 16.9698,152.156 M210.2298,203.806 C209.4298,203.586 208.9598,202.766 209.1698,201.966 C209.3898,201.166 210.2098,200.696 211.0098,200.906 C211.8098,201.116 212.2798,201.946 212.0698,202.746 C211.8898,203.416 211.2898,203.856 210.6198,203.856 C210.4898,203.856 210.3598,203.836 210.2298,203.806 M15.9598,202.846 C15.7498,202.046 16.2198,201.226 17.0198,201.016 C17.8198,200.796 18.6398,201.276 18.8598,202.076 C19.0698,202.866 18.5998,203.696 17.7998,203.906 C17.6698,203.946 17.5398,203.966 17.4098,203.966 C16.7498,203.966 16.1398,203.516 15.9598,202.846 M199.8798,227.766 C199.1598,227.356 198.9098,226.436 199.3298,225.716 C199.7398,225.006 200.6598,224.756 201.3798,225.176 C202.0998,225.586 202.3398,226.506 201.9298,227.226 C201.6498,227.706 201.1398,227.976 200.6298,227.976 C200.3698,227.976 200.1098,227.906 199.8798,227.766 M26.1298,227.316 C25.7098,226.596 25.9598,225.676 26.6698,225.266 C27.3898,224.846 28.3098,225.096 28.7298,225.806 C29.1398,226.526 28.8998,227.446 28.1798,227.856 C27.9398,227.996 27.6798,228.066 27.4298,228.066 C26.9098,228.066 26.4098,227.796 26.1298,227.316 M183.6698,248.236 C183.0798,247.646 183.0798,246.696 183.6698,246.116 C184.2498,245.526 185.1998,245.526 185.7898,246.116 C186.3698,246.696 186.3698,247.646 185.7898,248.236 C185.4998,248.526 185.1098,248.676 184.7298,248.676 C184.3398,248.676 183.9598,248.526 183.6698,248.236 M42.2898,248.306 C41.6998,247.716 41.6998,246.766 42.2798,246.186 C42.8698,245.596 43.8198,245.596 44.3998,246.186 L44.4098,246.186 C44.9898,246.766 44.9898,247.716 44.4098,248.306 C44.1098,248.596 43.7298,248.746 43.3498,248.746 C42.9598,248.746 42.5798,248.596 42.2898,248.306 M162.7398,263.826 C162.3198,263.116 162.5698,262.196 163.2898,261.786 L163.2898,261.776 C163.9998,261.366 164.9198,261.606 165.3398,262.326 C165.7498,263.046 165.4998,263.966 164.7898,264.376 C164.5498,264.516 164.2898,264.576 164.0398,264.576 C163.5198,264.576 163.0198,264.306 162.7398,263.826 M63.3098,264.426 C62.5898,264.016 62.3398,263.096 62.7598,262.386 C63.1698,261.666 64.0898,261.416 64.8098,261.836 C65.5198,262.246 65.7698,263.166 65.3498,263.886 C65.0798,264.366 64.5698,264.636 64.0598,264.636 C63.7998,264.636 63.5398,264.566 63.3098,264.426 M138.4798,273.466 C138.2698,272.666 138.7398,271.846 139.5398,271.636 C140.3398,271.416 141.1698,271.896 141.3798,272.696 C141.5998,273.496 141.1198,274.316 140.3198,274.536 C140.1898,274.566 140.0598,274.586 139.9298,274.586 C139.2698,274.586 138.6598,274.146 138.4798,273.466 M87.7898,274.566 C86.9898,274.346 86.5098,273.526 86.7298,272.726 C86.9398,271.926 87.7598,271.446 88.5598,271.666 C89.3598,271.876 89.8398,272.696 89.6298,273.496 C89.4498,274.166 88.8398,274.616 88.1798,274.616 C88.0498,274.616 87.9198,274.596 87.7898,274.566" id="Fill-5"></path>
                </g>
            </g>
        </g>
    </g>
</svg>