<svg id="Layer_1" data-name="Layer 1" xmlns="http://www.w3.org/2000/svg" viewBox="0 0 260 240"><defs><style>.cls-1,.cls-13,.cls-2,.cls-4,.cls-5,.cls-6,.cls-9{fill:none;}.cls-1{stroke:#dadada;}.cls-1,.cls-13,.cls-2,.cls-4,.cls-5,.cls-6,.cls-7{stroke-miterlimit:10;}.cls-2{stroke:#de2a50;}.cls-3{fill:#de2a50;}.cls-4{stroke:#fa7822;}.cls-5{stroke:#fceb3e;}.cls-6,.cls-7{stroke:#2c41c6;}.cls-7{fill:#abb3e8;}.cls-8{fill:#fff;}.cls-9{stroke:#51b793;stroke-linejoin:round;}.cls-10{fill:#fac02f;}.cls-11{fill:#2c41c6;}.cls-12{fill:#51b793;}.cls-13{stroke:#3c3c3b;}</style></defs><title>strategy</title><polyline class="cls-1" points="95 208.5 95 202.5 34 202.5 34 208.5"/><line class="cls-1" x1="64.5" y1="209" x2="64.5" y2="195"/><line class="cls-2" x1="196" y1="199.08" x2="213" y2="184.17"/><line class="cls-2" x1="180.67" y1="192" x2="189" y2="198.92"/><path class="cls-3" d="M178.05,186.65h0a3,3,0,1,1-2.75,1.8,3,3,0,0,1,2.75-1.8m0-1a4,4,0,1,0,1.6.34,4,4,0,0,0-1.6-.34Z"/><path class="cls-3" d="M215.76,178.95h0a3,3,0,1,1-2.75,1.8,3,3,0,0,1,2.75-1.8m0-1a4,4,0,1,0,1.6.34,4,4,0,0,0-1.6-.34Z"/><path class="cls-3" d="M192.5,197.82h0a3.5,3.5,0,1,1-3.21,2.1,3.47,3.47,0,0,1,3.21-2.1m0-1a4.5,4.5,0,1,0,1.8.38,4.5,4.5,0,0,0-1.8-.38Z"/><line class="cls-2" x1="36.5" y1="42" x2="71.5" y2="42"/><line class="cls-4" x1="57.5" y1="47" x2="82.5" y2="47"/><line class="cls-4" x1="77.5" y1="42" x2="82.5" y2="42"/><ellipse class="cls-5" cx="49.42" cy="47" rx="2.68"/><ellipse class="cls-2" cx="39.6" cy="47" rx="2.68"/><rect class="cls-6" x="73.65" y="81.31" width="110" height="79"/><rect class="cls-7" x="73.65" y="74.53" width="110" height="6.78"/><circle class="cls-8" cx="78.19" cy="77.74" r="1.27"/><circle class="cls-8" cx="82.96" cy="77.74" r="1.27"/><circle class="cls-8" cx="87.72" cy="77.74" r="1.27"/><rect class="cls-9" x="87.98" y="92.28" width="81.34" height="33.05"/><rect class="cls-10" x="87.89" y="133.27" width="55.65" height="2.54"/><rect class="cls-10" x="87.89" y="139.87" width="55.65" height="2.54"/><rect class="cls-10" x="87.89" y="146.48" width="47.63" height="2.54"/><path class="cls-11" d="M41.5,209v10h-15V209h15m1-1h-17v12h17V208Z"/><path class="cls-11" d="M72,209v10H57V209H72m1-1H56v12H73V208Z"/><path class="cls-12" d="M72,185v10H57V185H72m1-1H56v12H73V184Z"/><path class="cls-11" d="M102.5,209v10h-15V209h15m1-1h-17v12h17V208Z"/><line class="cls-6" x1="206.24" y1="20.16" x2="215.85" y2="29.77"/><line class="cls-6" x1="215.85" y1="20.16" x2="206.24" y2="29.77"/><line class="cls-6" x1="186.88" y1="32.7" x2="196.49" y2="42.31"/><line class="cls-6" x1="196.49" y1="32.7" x2="186.88" y2="42.31"/><line class="cls-6" x1="214.46" y1="57.77" x2="224.07" y2="67.38"/><line class="cls-6" x1="224.07" y1="57.77" x2="214.46" y2="67.38"/><path class="cls-12" d="M229.9,20.74a4,4,0,1,1-4,4,4,4,0,0,1,4-4m0-1a5,5,0,1,0,5,5,5,5,0,0,0-5-5Z"/><path class="cls-13" d="M196.49,63.38V59s0-10,10.86-10H223c5.24,0,7-2,7-7V36"/><polyline class="cls-13" points="225.29 39.45 229.9 35.61 234.52 39.45"/></svg>