<svg id="Layer_1" data-name="Layer 1" xmlns="http://www.w3.org/2000/svg" viewBox="0 0 260 240"><defs><style>.cls-1{fill:#abb3e8;}.cls-1,.cls-2,.cls-6{stroke:#2c41c6;}.cls-1,.cls-2,.cls-3,.cls-5,.cls-6,.cls-7,.cls-9{stroke-miterlimit:10;}.cls-2,.cls-3,.cls-5,.cls-7,.cls-9{fill:none;}.cls-3{stroke:#3b56a3;}.cls-4{fill:#dadada;}.cls-5{stroke:#51b793;}.cls-6{fill:#fff;}.cls-7{stroke:#de2a50;}.cls-8{fill:#fceb3e;}.cls-10,.cls-8{opacity:0.4;}.cls-9{stroke:#fceb3e;}.cls-10{fill:#de2a50;}</style></defs><title>research</title><path class="cls-1" d="M212.34,111.62c0-4.68,1.5-12.42,9.17-12.42H192.19v48.37c0,9.74.53,17.63,10.27,17.63s9.87-7.9,9.87-17.63v-36Z"/><path class="cls-1" d="M152.19,163.41v6.84c0,6.25,2.81,12.75,9.68,12.75,9.74,0,10.29-7.9,10.29-17.63V82.8c0-9.74.53-17.63,10.27-17.63H152.19Z"/><path class="cls-2" d="M47,138.33V20.86H152.19v152a10,10,0,0,0,20,0V75a10,10,0,0,1,20,0v31.15"/><line class="cls-2" x1="161.88" y1="182.84" x2="85" y2="182.84"/><path class="cls-2" d="M212.2,140.35h20V109.2a10,10,0,1,0-20,0v46a10,10,0,1,1-20,0V82.63"/><line class="cls-2" x1="202.46" y1="165.2" x2="172.21" y2="165.2"/><line class="cls-3" x1="222.2" y1="99.2" x2="192.19" y2="99.2"/><line class="cls-2" x1="181.88" y1="65" x2="152.19" y2="65"/><rect class="cls-4" x="60.33" y="37.97" width="79.73" height="3"/><rect class="cls-4" x="60.33" y="53.6" width="39.87" height="3"/><rect class="cls-4" x="60.33" y="69.24" width="39.87" height="3"/><polyline class="cls-5" points="59.5 131.67 59.5 123 139.5 123 139.5 161 92 161"/><polyline class="cls-6" points="88.15 152.54 103.74 145.9 119.33 148.11 133.88 138.14"/><polyline class="cls-7" points="87.11 150.33 93.87 143.13 101.66 152.54 118.29 130.39 126.61 135.93 133.88 130.39"/><rect class="cls-4" x="60.33" y="84.87" width="39.87" height="3"/><rect class="cls-4" x="60.33" y="115.12" width="67.39" height="3"/><rect class="cls-4" x="60.33" y="45.98" width="77.98" height="3"/><rect class="cls-4" x="60.33" y="61.61" width="37.55" height="3"/><rect class="cls-4" x="60.33" y="77.25" width="37.55" height="3"/><rect class="cls-4" x="60.33" y="92.88" width="33.61" height="3"/><polyline class="cls-2" points="39.79 192.1 17.25 214.64 10.62 208.01 33.41 185.22"/><circle class="cls-2" cx="58.14" cy="167.12" r="30.88"/><circle class="cls-2" cx="58.14" cy="167.12" r="25.73"/><path class="cls-2" d="M58.14,148.79a18.33,18.33,0,0,1,18.33,18.33"/><rect class="cls-8" x="109.63" y="60.87" width="7.5" height="30.96"/><rect class="cls-8" x="130.28" y="70.99" width="7.5" height="20.84"/><rect class="cls-9" x="109.63" y="60.87" width="7.5" height="30.96"/><rect class="cls-9" x="130.28" y="70.99" width="7.5" height="20.84"/><polyline class="cls-7" points="140.65 91.83 106.43 91.83 106.43 53.6"/><rect class="cls-10" x="119.95" y="77.4" width="7.5" height="14.43"/><rect class="cls-7" x="119.95" y="77.4" width="7.5" height="14.43"/></svg>