<svg id="Layer_1" data-name="Layer 1" xmlns="http://www.w3.org/2000/svg" viewBox="0 0 260 240"><defs><style>.cls-1,.cls-2{fill:none;}.cls-1{stroke:#de2a50;}.cls-1,.cls-2,.cls-3{stroke-miterlimit:10;}.cls-2,.cls-3{stroke:#2c41c6;}.cls-3{fill:#abb3e8;}.cls-4{fill:#fff;}.cls-5{fill:#51b793;}.cls-6{fill:#fac02f;}</style></defs><title>design</title><line class="cls-1" x1="130" y1="22.45" x2="130" y2="12.5"/><line class="cls-1" x1="200.89" y1="51.41" x2="207.93" y2="44.37"/><line class="cls-1" x1="230.55" y1="122" x2="240.5" y2="122"/><line class="cls-1" x1="201.59" y1="192.89" x2="208.63" y2="199.93"/><line class="cls-1" x1="131" y1="222.55" x2="131" y2="232.5"/><line class="cls-1" x1="60.11" y1="193.59" x2="53.07" y2="200.63"/><line class="cls-1" x1="30.45" y1="123" x2="20.5" y2="123"/><line class="cls-1" x1="59.41" y1="52.11" x2="52.37" y2="45.07"/><line class="cls-1" x1="168.03" y1="29.76" x2="171.81" y2="20.55"/><line class="cls-1" x1="222.61" y1="83.46" x2="231.8" y2="79.62"/><line class="cls-1" x1="223.24" y1="160.03" x2="232.45" y2="163.81"/><line class="cls-1" x1="169.54" y1="214.61" x2="173.38" y2="223.8"/><line class="cls-1" x1="92.97" y1="215.24" x2="89.19" y2="224.45"/><line class="cls-1" x1="38.39" y1="161.54" x2="29.2" y2="165.38"/><line class="cls-1" x1="37.76" y1="84.97" x2="28.55" y2="81.19"/><line class="cls-1" x1="91.46" y1="30.39" x2="87.62" y2="21.2"/><rect class="cls-2" x="75.5" y="82.5" width="110" height="80"/><rect class="cls-3" x="75.5" y="76.5" width="110" height="6"/><circle class="cls-4" cx="79.5" cy="79.5" r="1.5"/><circle class="cls-4" cx="84.5" cy="79.5" r="1.5"/><circle class="cls-4" cx="89.5" cy="79.5" r="1.5"/><path class="cls-5" d="M170,96v32H91V96h79m1-1H90v34h81V95Z"/><rect class="cls-6" x="90" y="135" width="50" height="3"/><rect class="cls-6" x="90" y="142" width="56" height="3"/><rect class="cls-6" x="90" y="149" width="40" height="3"/></svg>