<?xml version="1.0" encoding="UTF-8"?>
<svg width="39px" height="39px" viewBox="0 0 39 39" version="1.1" xmlns="http://www.w3.org/2000/svg" xmlns:xlink="http://www.w3.org/1999/xlink">
    <!-- Generator: Sketch 43.1 (39012) - http://www.bohemiancoding.com/sketch -->
    <title>Sight Icon</title>
    <desc>Created with Sketch.</desc>
    <defs></defs>
    <g id="Desktop" stroke="none" stroke-width="1" fill="none" fill-rule="evenodd">
        <g id="5.0_Manifesto-Nathan's-Bio" transform="translate(-238.000000, -4854.000000)" stroke="#2C41C6">
            <g id="5-Senses" transform="translate(43.000000, 4688.000000)">
                <g id="Sight-Icon" transform="translate(195.000000, 166.000000)">
                    <path d="M28.3916021,9.70346772 C30.9954771,12.1370165 32.6265604,15.6254679 32.6265604,19.5002218 C32.6265604,26.8548253 26.7497271,32.8167069 19.5000396,32.8167069" id="Stroke-1"></path>
                    <path d="M19.4998854,26.8575622 C15.4946354,26.8575622 12.2471146,23.5638259 12.2471146,19.4998308 C12.2471146,15.4366177 15.4946354,12.1428814 19.4998854,12.1428814 C23.5051354,12.1428814 26.7526562,15.4366177 26.7526562,19.4998308" id="Stroke-3"></path>
                    <path d="M29.471,35.311329 C26.5934792,37.1826278 23.1709792,38.2680281 19.4995,38.2680281 C9.282875,38.2680281 0.9995,29.8655598 0.9995,19.5003 C0.9995,9.13504015 9.282875,0.732571875 19.4995,0.732571875 C29.7168958,0.732571875 37.9995,9.13504015 37.9995,19.5003 C37.9995,20.7819794 37.8730833,22.0339433 37.6318125,23.2436798" id="Stroke-5"></path>
                </g>
            </g>
        </g>
    </g>
</svg>