<?xml version="1.0" encoding="UTF-8"?>
<svg width="26px" height="25px" viewBox="0 0 26 25" version="1.1" xmlns="http://www.w3.org/2000/svg" xmlns:xlink="http://www.w3.org/1999/xlink">
    <!-- Generator: Sketch 43.2 (39069) - http://www.bohemiancoding.com/sketch -->
    <title>Instagram</title>
    <desc>Created with Sketch.</desc>
    <defs></defs>
    <g id="Symbols" stroke="none" stroke-width="1" fill="none" fill-rule="evenodd">
        <g id="Footer-2" transform="translate(-565.000000, -30.000000)" fill="#9B9B9B">
            <g id="Footer">
                <g id="Social-Links" transform="translate(434.000000, 30.000000)">
                    <path d="M147.83825,9.16375 C147.83825,9.5775 147.50075,9.91375 147.087,9.91375 C146.67325,9.91375 146.33825,9.5775 146.33825,9.16375 C146.33825,8.74875 146.67325,8.4125 147.087,8.4125 C147.50075,8.4125 147.83825,8.74875 147.83825,9.16375 M143.75075,14.5825 C142.60075,14.5825 141.667,13.65 141.667,12.5 C141.667,11.34875 142.60075,10.41625 143.75075,10.41625 C144.902,10.41625 145.8345,11.34875 145.8345,12.5 C145.8345,13.65 144.902,14.5825 143.75075,14.5825 M143.75075,9.29 C141.9795,9.29 140.542,10.7275 140.542,12.5 C140.542,14.2725 141.9795,15.70875 143.75075,15.70875 C145.52325,15.70875 146.96075,14.2725 146.96075,12.5 C146.96075,10.7275 145.52325,9.29 143.75075,9.29 M148.8395,15.025 C148.81075,15.635 148.70825,15.965 148.62325,16.185 C148.5095,16.4775 148.37575,16.68625 148.15575,16.90375 C147.937,17.1225 147.7295,17.25875 147.43825,17.37125 C147.217,17.4575 146.88575,17.56 146.277,17.58625 C145.61825,17.6175 145.4195,17.62375 143.75075,17.62375 C142.08325,17.62375 141.8845,17.6175 141.22575,17.58625 C140.617,17.56 140.28575,17.4575 140.0645,17.37125 C139.77325,17.25875 139.56575,17.1225 139.347,16.90375 C139.127,16.68625 138.99325,16.4775 138.8795,16.185 C138.7945,15.965 138.692,15.635 138.6645,15.025 C138.6345,14.36625 138.627,14.16875 138.627,12.5 C138.627,10.83125 138.6345,10.63375 138.6645,9.97375 C138.692,9.365 138.7945,9.03375 138.8795,8.81375 C138.99325,8.52125 139.127,8.31375 139.347,8.095 C139.56575,7.87625 139.77325,7.74 140.0645,7.6275 C140.28575,7.54125 140.617,7.44 141.22575,7.4125 C141.8845,7.38125 142.08325,7.375 143.75075,7.375 C145.4195,7.375 145.61825,7.38125 146.277,7.4125 C146.88575,7.44 147.217,7.54125 147.43825,7.6275 C147.7295,7.74 147.937,7.87625 148.15575,8.095 C148.37575,8.31375 148.5095,8.52125 148.62325,8.81375 C148.70825,9.03375 148.81075,9.365 148.8395,9.97375 C148.86825,10.63375 148.87575,10.83125 148.87575,12.5 C148.87575,14.16875 148.86825,14.36625 148.8395,15.025 M149.67325,8.40625 C149.51325,7.99375 149.2995,7.64625 148.95325,7.29875 C148.6045,6.95 148.25575,6.7375 147.84575,6.5775 C147.44825,6.42375 146.99325,6.3175 146.32825,6.28625 C145.662,6.2575 145.44825,6.25 143.75075,6.25 C142.0545,6.25 141.84075,6.2575 141.1745,6.28625 C140.5095,6.3175 140.0545,6.42375 139.657,6.5775 C139.247,6.7375 138.89825,6.95 138.55075,7.29875 C138.20325,7.64625 137.9895,7.99375 137.8295,8.40625 C137.6745,8.80375 137.5695,9.2575 137.5395,9.9225 C137.50825,10.59 137.50075,10.8025 137.50075,12.5 C137.50075,14.19625 137.50825,14.41 137.5395,15.07625 C137.5695,15.7425 137.6745,16.19625 137.8295,16.5925 C137.9895,17.00375 138.20325,17.35375 138.55075,17.7 C138.89825,18.0475 139.247,18.26125 139.657,18.42125 C140.0545,18.575 140.5095,18.68125 141.1745,18.7125 C141.84075,18.7425 142.0545,18.75 143.75075,18.75 C145.44825,18.75 145.662,18.7425 146.32825,18.7125 C146.99325,18.68125 147.44825,18.575 147.84575,18.42125 C148.25575,18.26125 148.6045,18.0475 148.95325,17.7 C149.2995,17.35375 149.51325,17.00375 149.67325,16.5925 C149.82825,16.19625 149.93325,15.7425 149.96325,15.07625 C149.9945,14.41 150.00075,14.19625 150.00075,12.5 C150.00075,10.8025 149.9945,10.59 149.96325,9.9225 C149.93325,9.2575 149.82825,8.80375 149.67325,8.40625 M143.75075,23.75 C137.54825,23.75 132.50075,18.7025 132.50075,12.5 C132.50075,6.29625 137.54825,1.25 143.75075,1.25 C149.9545,1.25 155.00075,6.29625 155.00075,12.5 C155.00075,18.7025 149.9545,23.75 143.75075,23.75 M143.75075,0 C136.84825,0 131.25075,5.59625 131.25075,12.5 C131.25075,19.4025 136.84825,25 143.75075,25 C150.6545,25 156.25075,19.4025 156.25075,12.5 C156.25075,5.59625 150.6545,0 143.75075,0" id="Instagram"></path>
                </g>
            </g>
        </g>
    </g>
</svg>