<?xml version="1.0" encoding="UTF-8"?>
<svg width="26px" height="25px" viewBox="0 0 26 25" version="1.1" xmlns="http://www.w3.org/2000/svg" xmlns:xlink="http://www.w3.org/1999/xlink">
    <!-- Generator: Sketch 43.2 (39069) - http://www.bohemiancoding.com/sketch -->
    <title>Facebook</title>
    <desc>Created with Sketch.</desc>
    <defs></defs>
    <g id="Symbols" stroke="none" stroke-width="1" fill="none" fill-rule="evenodd">
        <g id="Footer-2" transform="translate(-477.000000, -30.000000)" fill="#9B9B9B">
            <g id="Footer">
                <g id="Social-Links" transform="translate(434.000000, 30.000000)">
                    <path d="M57.93,5.64 C58.8225,5.64 59.58875,5.70625 59.8125,5.73625 L59.8125,7.9175 L58.52125,7.9175 C57.50875,7.9175 57.31125,8.39875 57.31125,9.105 L57.31125,10.66375 L59.72625,10.66375 L59.4125,13.1025 L57.31125,13.1025 L57.31125,19.36 L54.79375,19.36 L54.79375,13.1025 L52.6875,13.1025 L52.6875,10.66375 L54.79375,10.66375 L54.79375,8.86375 C54.79375,6.77625 56.0675,5.64 57.93,5.64 M56.25,23.75 C50.04625,23.75 45,18.7025 45,12.5 C45,6.29625 50.04625,1.25 56.25,1.25 C62.45375,1.25 67.5,6.29625 67.5,12.5 C67.5,18.7025 62.45375,23.75 56.25,23.75 M56.25,0 C49.34625,0 43.75,5.59625 43.75,12.5 C43.75,19.40375 49.34625,25 56.25,25 C63.15375,25 68.75,19.40375 68.75,12.5 C68.75,5.59625 63.15375,0 56.25,0" id="Facebook"></path>
                </g>
            </g>
        </g>
    </g>
</svg>