<?xml version="1.0" encoding="UTF-8"?>
<svg width="25px" height="25px" viewBox="0 0 25 25" version="1.1" xmlns="http://www.w3.org/2000/svg" xmlns:xlink="http://www.w3.org/1999/xlink">
    <!-- Generator: Sketch 43.2 (39069) - http://www.bohemiancoding.com/sketch -->
    <title>Twitter</title>
    <desc>Created with Sketch.</desc>
    <defs></defs>
    <g id="Symbols" stroke="none" stroke-width="1" fill="none" fill-rule="evenodd">
        <g id="Footer-2" transform="translate(-434.000000, -30.000000)" fill="#9B9B9B">
            <g id="Footer">
                <g id="Social-Links" transform="translate(434.000000, 30.000000)">
                    <path d="M17.595875,8.7955 C18.148375,8.72925 18.675875,8.58175 19.167125,8.36425 C18.799625,8.913 18.335875,9.39425 17.802125,9.7805 C17.807125,9.898 17.809625,10.01675 17.809625,10.13425 C17.809625,13.74925 15.058375,17.918 10.027125,17.918 C8.482125,17.918 7.044625,17.4655 5.833375,16.688 C6.047125,16.71425 6.265875,16.72675 6.485875,16.72675 C7.767125,16.72675 8.947125,16.28925 9.883375,15.5555 C8.685875,15.53425 7.675875,14.743 7.328375,13.65675 C7.494625,13.688 7.665875,13.7055 7.842125,13.7055 C8.092125,13.7055 8.333375,13.67175 8.563375,13.6105 C7.312125,13.358 6.369625,12.253 6.369625,10.92675 L6.369625,10.893 C6.737125,11.098 7.159625,11.2205 7.608375,11.23425 C6.873375,10.74425 6.390875,9.908 6.390875,8.958 C6.390875,8.45675 6.525875,7.98675 6.762125,7.58175 C8.110875,9.238 10.125875,10.32675 12.399625,10.4405 C12.353375,10.2405 12.329625,10.03175 12.329625,9.81675 C12.329625,8.30675 13.554625,7.08175 15.064625,7.08175 C15.850875,7.08175 16.562125,7.41425 17.060875,7.9455 C17.684625,7.82425 18.269625,7.5955 18.798375,7.28175 C18.593375,7.92175 18.160875,8.45675 17.595875,8.7955 M12.499625,23.7505 C6.295875,23.7505 1.249625,18.703 1.249625,12.5005 C1.249625,6.29675 6.295875,1.2505 12.499625,1.2505 C18.703375,1.2505 23.749625,6.29675 23.749625,12.5005 C23.749625,18.703 18.703375,23.7505 12.499625,23.7505 M12.499625,0.0005 C5.595875,0.0005 -0.000375,5.5955 -0.000375,12.5005 C-0.000375,19.403 5.595875,25.0005 12.499625,25.0005 C19.403375,25.0005 24.999625,19.403 24.999625,12.5005 C24.999625,5.5955 19.403375,0.0005 12.499625,0.0005 L8.03771481,18.5049521" id="Twitter"></path>
                </g>
            </g>
        </g>
    </g>
</svg>