<?xml version="1.0" encoding="UTF-8"?>
<svg width="26px" height="25px" viewBox="0 0 26 25" version="1.1" xmlns="http://www.w3.org/2000/svg" xmlns:xlink="http://www.w3.org/1999/xlink">
    <!-- Generator: Sketch 43.2 (39069) - http://www.bohemiancoding.com/sketch -->
    <title>LinkedIn</title>
    <desc>Created with Sketch.</desc>
    <defs></defs>
    <g id="Symbols" stroke="none" stroke-width="1" fill="none" fill-rule="evenodd">
        <g id="Footer-2" transform="translate(-521.000000, -30.000000)" fill="#9B9B9B">
            <g id="Footer">
                <g id="Social-Links" transform="translate(434.000000, 30.000000)">
                    <path d="M96.765375,7.32625 C96.765375,8.1 96.182875,8.71875 95.249125,8.71875 L95.231625,8.71875 C94.331625,8.71875 93.750375,8.1 93.750375,7.32625 C93.750375,6.535 94.350375,5.93375 95.266625,5.93375 C96.182875,5.93375 96.747875,6.535 96.765375,7.32625 L96.765375,7.32625 Z M93.909125,17.88125 L96.589125,17.88125 L96.589125,9.82 L93.909125,9.82 L93.909125,17.88125 Z M106.250375,13.25875 L106.250375,17.88125 L103.571625,17.88125 L103.571625,13.5675 C103.571625,12.485 103.184125,11.745 102.214125,11.745 C101.474125,11.745 101.034125,12.24375 100.839125,12.725 C100.769125,12.8975 100.750375,13.1375 100.750375,13.38 L100.750375,17.88125 L98.071625,17.88125 C98.071625,17.88125 98.106625,10.57625 98.071625,9.82 L100.750375,9.82 L100.750375,10.96125 C101.107875,10.4125 101.744125,9.63 103.166625,9.63 C104.929125,9.63 106.250375,10.7825 106.250375,13.25875 L106.250375,13.25875 Z M100.000375,23.75 C93.796625,23.75 88.750375,18.7025 88.750375,12.5 C88.750375,6.29625 93.796625,1.25 100.000375,1.25 C106.204125,1.25 111.250375,6.29625 111.250375,12.5 C111.250375,18.7025 106.204125,23.75 100.000375,23.75 L100.000375,23.75 Z M100.000375,0 C93.096625,0 87.500375,5.595 87.500375,12.5 C87.500375,19.4025 93.096625,25 100.000375,25 C106.904125,25 112.500375,19.4025 112.500375,12.5 C112.500375,5.595 106.904125,0 100.000375,0 L100.000375,0 Z" id="LinkedIn"></path>
                </g>
            </g>
        </g>
    </g>
</svg>