<svg id="Layer_1" data-name="Layer 1" xmlns="http://www.w3.org/2000/svg" viewBox="0 0 220 220"><defs><style>.cls-1,.cls-2,.cls-3,.cls-4{fill:none;stroke-miterlimit:10;}.cls-1{stroke:#2c41c6;}.cls-2{stroke:#de2a50;}.cls-3,.cls-4{stroke:#dadada;stroke-linecap:round;}.cls-4{stroke-width:2px;stroke-dasharray:0 6;}</style></defs><title>speciality-illustration-cta</title><circle class="cls-1" cx="157.02" cy="78.75" r="13.62"/><circle class="cls-2" cx="62.91" cy="78.75" r="13.62"/><path class="cls-1" d="M110,95.9a31.46,31.46,0,0,1,31.46,31.46v37.18H110"/><path class="cls-2" d="M110,164.54H78.5V127.36A31.46,31.46,0,0,1,110,95.9"/><path class="cls-1" d="M110,53.69A17.16,17.16,0,0,1,110,88"/><path class="cls-2" d="M110,88a17.16,17.16,0,0,1,0-34.32"/><line class="cls-3" x1="109.96" y1="181.98" x2="109.96" y2="37.24"/><circle class="cls-4" cx="109.96" cy="109.61" r="105"/><path class="cls-2" d="M78.5,153.1H37.94V123.6a25,25,0,0,1,25-25h0a25,25,0,0,1,20.91,11.31"/><path class="cls-1" d="M136.07,110A25,25,0,0,1,157,98.63h0a25,25,0,0,1,25,25V153.1H141.42"/></svg>