<svg id="Layer_1" data-name="Layer 1" xmlns="http://www.w3.org/2000/svg" viewBox="0 0 320 220"><defs><style>.cls-1{fill:#abb3e8;}.cls-1,.cls-16,.cls-2,.cls-7{stroke:#2c41c6;}.cls-1,.cls-10,.cls-11,.cls-12,.cls-13,.cls-14,.cls-15,.cls-16,.cls-2,.cls-4,.cls-7,.cls-8,.cls-9{stroke-miterlimit:10;}.cls-10,.cls-2{fill:#fff;}.cls-3{fill:#2c41c6;}.cls-11,.cls-12,.cls-13,.cls-14,.cls-15,.cls-16,.cls-4,.cls-7,.cls-8,.cls-9{fill:none;}.cls-4{stroke:#dadada;}.cls-5{fill:#dadada;}.cls-6{fill:#3c3c3b;}.cls-13,.cls-14,.cls-15,.cls-7,.cls-8{stroke-linecap:round;}.cls-11,.cls-8{stroke:#51b793;}.cls-9{stroke:#f2aab9;}.cls-10,.cls-15{stroke:#de2a50;}.cls-12{stroke:#3c3c3b;}.cls-13{stroke:#fa7822;}.cls-14{stroke:#fac02f;}</style></defs><title>speciality-illustration-privacy-by-design-mobile</title><rect class="cls-1" x="53.57" y="97.66" width="116" height="79.38" rx="2" ry="2"/><rect class="cls-1" x="43.57" y="172.24" width="136" height="6.86" rx="1" ry="1"/><rect class="cls-2" x="58.43" y="102.08" width="106.28" height="67.48" rx="2" ry="2"/><path class="cls-3" d="M277.26,129.12v48h-11v-48h11m1-1h-13v50h13v-50Z"/><path class="cls-3" d="M271.79,166.59a3,3,0,1,1-3,3,3,3,0,0,1,3-3m0-1a4,4,0,1,0,4,4,4,4,0,0,0-4-4Z"/><line class="cls-4" x1="268.29" y1="133.41" x2="275.29" y2="133.41"/><line class="cls-4" x1="268.29" y1="137.9" x2="275.29" y2="137.9"/><line class="cls-4" x1="268.29" y1="142.39" x2="275.29" y2="142.39"/><line class="cls-4" x1="268.29" y1="146.89" x2="275.29" y2="146.89"/><line class="cls-4" x1="268.29" y1="151.38" x2="275.29" y2="151.38"/><line class="cls-4" x1="268.29" y1="155.87" x2="275.29" y2="155.87"/><path class="cls-3" d="M293.47,129.12v48h-11v-48h11m1-1h-13v50h13v-50Z"/><path class="cls-3" d="M288,166.59a3,3,0,1,1-3,3,3,3,0,0,1,3-3m0-1a4,4,0,1,0,4,4,4,4,0,0,0-4-4Z"/><line class="cls-4" x1="284.51" y1="133.41" x2="291.51" y2="133.41"/><line class="cls-4" x1="284.51" y1="137.9" x2="291.51" y2="137.9"/><line class="cls-4" x1="284.51" y1="142.39" x2="291.51" y2="142.39"/><line class="cls-4" x1="284.51" y1="146.89" x2="291.51" y2="146.89"/><line class="cls-4" x1="284.51" y1="151.38" x2="291.51" y2="151.38"/><line class="cls-4" x1="284.51" y1="155.87" x2="291.51" y2="155.87"/><path class="cls-3" d="M309.69,129.12v48h-11v-48h11m1-1h-13v50h13v-50Z"/><path class="cls-3" d="M304.22,166.59a3,3,0,1,1-3,3,3,3,0,0,1,3-3m0-1a4,4,0,1,0,4,4,4,4,0,0,0-4-4Z"/><line class="cls-4" x1="300.72" y1="133.41" x2="307.72" y2="133.41"/><line class="cls-4" x1="300.72" y1="137.9" x2="307.72" y2="137.9"/><line class="cls-4" x1="300.72" y1="142.39" x2="307.72" y2="142.39"/><line class="cls-4" x1="300.72" y1="146.89" x2="307.72" y2="146.89"/><line class="cls-4" x1="300.72" y1="151.38" x2="307.72" y2="151.38"/><line class="cls-4" x1="300.72" y1="155.87" x2="307.72" y2="155.87"/><polyline class="cls-4" points="232.34 83.95 238.1 89.32 243.69 83.95"/><line class="cls-4" x1="238.02" y1="89.39" x2="238.02" y2="73.82"/><polyline class="cls-4" points="247.17 89.39 247.17 95.34 228.86 95.34 228.86 89.39"/><path class="cls-5" d="M96.07,41.11a3.5,3.5,0,1,1-3.5,3.5,3.5,3.5,0,0,1,3.5-3.5m0-1a4.5,4.5,0,1,0,4.5,4.5,4.5,4.5,0,0,0-4.5-4.5Z"/><path class="cls-6" d="M217.2,113.5a2.5,2.5,0,1,1-2.5,2.5,2.5,2.5,0,0,1,2.5-2.5m0-1a3.5,3.5,0,1,0,3.5,3.5,3.5,3.5,0,0,0-3.5-3.5Z"/><circle class="cls-4" cx="32.22" cy="163.65" r="3"/><path class="cls-5" d="M266.74,66.83a2.5,2.5,0,1,1-2.5,2.5,2.5,2.5,0,0,1,2.5-2.5m0-1a3.5,3.5,0,1,0,3.5,3.5,3.5,3.5,0,0,0-3.5-3.5Z"/><line class="cls-4" x1="235.6" y1="126.11" x2="252.09" y2="126.11"/><line class="cls-4" x1="244.9" y1="130.69" x2="257.37" y2="130.69"/><line class="cls-4" x1="254.63" y1="126.11" x2="257.37" y2="126.11"/><ellipse class="cls-4" cx="241.52" cy="130.69" rx="1.27"/><ellipse class="cls-4" cx="236.87" cy="130.69" rx="1.27"/><rect class="cls-2" x="103.57" y="172.24" width="16" height="2"/><polyline class="cls-7" points="124.52 133.37 138.57 133.37 138.57 115.85 146.73 115.85"/><polyline class="cls-7" points="133.59 133.99 133.59 144.38 149.45 144.38"/><polyline class="cls-7" points="92.78 133.41 77.82 133.41 77.82 115.65 73.22 115.65"/><polyline class="cls-7" points="86.89 133.41 86.89 147.28 74.2 147.28"/><polyline class="cls-7" points="77.82 123.55 86.89 123.55 86.89 109.95"/><line class="cls-7" x1="80.54" y1="147.28" x2="80.54" y2="157.55"/><line class="cls-7" x1="141.14" y1="144.38" x2="141.14" y2="161.18"/><circle class="cls-3" cx="146.73" cy="115.85" r="1.81"/><circle class="cls-3" cx="150.36" cy="144.38" r="1.81"/><circle class="cls-3" cx="141.14" cy="161.68" r="1.81"/><circle class="cls-3" cx="80.54" cy="157.55" r="1.81"/><circle class="cls-3" cx="74.2" cy="147.28" r="1.81"/><circle class="cls-3" cx="72.78" cy="115.65" r="1.81"/><circle class="cls-3" cx="86.89" cy="109.95" r="1.81"/><path class="cls-8" d="M102.89,119.52a12,12,0,0,1,6.15-1.7c6.07,0,10.9,4.58,10.9,10.17v2.18"/><path class="cls-8" d="M98.15,140.33V128a9.38,9.38,0,0,1,2-6.08"/><path class="cls-8" d="M100.6,148.94a10,10,0,0,1-2.32-5.87"/><path class="cls-8" d="M101.78,130.89v-2.18c0-3.56,3.34-6.54,7.26-6.54s7.26,3,7.26,6.54v12.91"/><path class="cls-8" d="M115.18,145.6a7.55,7.55,0,0,1-6.14,3.1,7.39,7.39,0,0,1-6.8-4.27,5.78,5.78,0,0,1-.47-2.26V140"/><path class="cls-8" d="M114.88,146a7.6,7.6,0,0,1-5.84,2.7,7.73,7.73,0,0,1-1.44-.13"/><path class="cls-8" d="M105.77,143.47v-14a3.29,3.29,0,0,1,6.54,0v4.72"/><path class="cls-8" d="M119.94,133.79v8.61c0,5.59-4.82,10.17-10.9,10.17a12,12,0,0,1-6.15-1.7"/><line class="cls-8" x1="101.78" y1="141.7" x2="101.78" y2="134.52"/><line class="cls-8" x1="112.31" y1="137.79" x2="112.31" y2="143.07"/><line class="cls-8" x1="109.04" y1="131.01" x2="109.04" y2="144.35"/><polygon class="cls-9" points="194.82 109.47 157.83 109.47 157.83 83.86 167.15 83.86 169.45 86.29 194.82 86.29 194.82 109.47"/><polygon class="cls-10" points="189.94 114.31 152.95 114.31 152.95 88.7 162.27 88.7 164.57 91.14 189.94 91.14 189.94 114.31"/><path class="cls-3" d="M187,38a2.5,2.5,0,1,1-2.5,2.5A2.5,2.5,0,0,1,187,38m0-1a3.5,3.5,0,1,0,3.5,3.5A3.5,3.5,0,0,0,187,37Z"/><path class="cls-3" d="M187,46a5,5,0,0,1,5,5v6H182v-6a5,5,0,0,1,5-5H187m0-1h-.08a6,6,0,0,0-6,6v7h12v-7a6,6,0,0,0-6-6Z"/><line class="cls-11" x1="186.86" y1="31.22" x2="186.86" y2="25.77"/><line class="cls-11" x1="199.13" y1="36.34" x2="202.99" y2="32.48"/><line class="cls-11" x1="204.18" y1="48.64" x2="209.64" y2="48.64"/><line class="cls-11" x1="199.07" y1="60.9" x2="202.92" y2="64.76"/><line class="cls-11" x1="186.86" y1="65.96" x2="186.86" y2="71.42"/><line class="cls-11" x1="174.5" y1="60.84" x2="170.65" y2="64.7"/><line class="cls-11" x1="169.45" y1="48.55" x2="163.99" y2="48.55"/><line class="cls-11" x1="174.57" y1="36.28" x2="170.71" y2="32.42"/><polyline class="cls-8" points="189.37 28.71 186.86 31.22 184.35 28.71"/><polyline class="cls-8" points="189.28 68.47 186.77 65.96 184.26 68.47"/><polyline class="cls-8" points="174.57 32.73 174.57 36.28 171.01 36.28"/><polyline class="cls-8" points="202.62 60.9 199.06 60.9 199.06 64.46"/><polyline class="cls-8" points="166.94 46.03 169.45 48.55 166.94 51.06"/><polyline class="cls-8" points="206.7 46.12 204.18 48.63 206.7 51.15"/><polyline class="cls-8" points="170.95 60.84 174.5 60.84 174.5 64.39"/><polyline class="cls-8" points="199.13 32.79 199.13 36.34 202.68 36.34"/><line class="cls-12" x1="21.21" y1="75.93" x2="25.84" y2="67.93"/><line class="cls-12" x1="31.21" y1="66.06" x2="59.84" y2="76.31"/><circle class="cls-12" cx="27.97" cy="64.81" r="3.5"/><circle class="cls-12" cx="63.23" cy="77.18" r="3.5"/><circle class="cls-12" cx="19.27" cy="79.01" r="3.5"/><line class="cls-13" x1="209" y1="187.76" x2="197.41" y2="187.76"/><line class="cls-13" x1="237.28" y1="187.76" x2="234.17" y2="187.76"/><polyline class="cls-13" points="200.56 184.16 196.95 187.76 200.56 191.37"/><line class="cls-13" x1="243.29" y1="187.76" x2="240.18" y2="187.76"/><line class="cls-14" x1="234.13" y1="179.26" x2="243.11" y2="179.26"/><polyline class="cls-14" points="239.96 175.66 243.57 179.26 239.96 182.87"/><line class="cls-15" x1="238.39" y1="196.26" x2="247.38" y2="196.26"/><polyline class="cls-15" points="244.23 192.66 247.84 196.26 244.23 199.87"/><line class="cls-15" x1="235.73" y1="196.26" x2="234.17" y2="196.26"/><line class="cls-15" x1="209.78" y1="196.26" x2="205.54" y2="196.26"/><line class="cls-14" x1="213.78" y1="179.26" x2="205.54" y2="179.26"/><line class="cls-14" x1="232" y1="179.26" x2="230.06" y2="179.26"/><line class="cls-15" x1="203.03" y1="196.26" x2="200.56" y2="196.26"/><path class="cls-16" d="M222,170.86h0a5.85,5.85,0,0,0-5.81,5.88l.08,6.16,11.69-.07-.08-6.16A5.85,5.85,0,0,0,222,170.86Z"/><path class="cls-16" d="M222.05,173.2h0a3.51,3.51,0,0,0-3.49,3.53l.07,6.15,7,0-.07-6.15A3.51,3.51,0,0,0,222.05,173.2Z"/><path class="cls-3" d="M231.19,183.32l.11,17.88-17.88.11-.11-17.88,17.88-.11m1-1-19.88.12.12,19.88,19.88-.12-.12-19.88Z"/><circle class="cls-3" cx="222.17" cy="190.43" r="2.34" transform="translate(-1.14 1.34) rotate(-0.34)"/><rect class="cls-3" x="221.03" y="192.19" width="2.34" height="5.85" transform="translate(-1.17 1.34) rotate(-0.34)"/></svg>