<svg id="Layer_1" data-name="Layer 1" xmlns="http://www.w3.org/2000/svg" xmlns:xlink="http://www.w3.org/1999/xlink" viewBox="0 0 290 350"><defs><style>.cls-1,.cls-10,.cls-11,.cls-13,.cls-14,.cls-15,.cls-16,.cls-17,.cls-2,.cls-5,.cls-8,.cls-9{fill:none;stroke-miterlimit:10;}.cls-1{stroke:#51b793;}.cls-2{stroke:#dadada;}.cls-3{fill:#fff;}.cls-4{fill:#de2a50;}.cls-16,.cls-5{stroke:#de2a50;}.cls-6{fill:#3c3c3b;}.cls-7{fill:#dadada;}.cls-8{stroke:gray;}.cls-9{stroke:#3c3c3b;}.cls-10{stroke:#ccc;}.cls-11{stroke:#2c41c6;}.cls-12{clip-path:url(#clip-path);}.cls-13{stroke:#fac02f;}.cls-13,.cls-14,.cls-15,.cls-16{stroke-linecap:round;}.cls-14{stroke:#fcd36e;}.cls-15{stroke:#fa7822;}.cls-17{stroke:#fceb3e;}</style><clipPath id="clip-path"><circle class="cls-1" cx="48.92" cy="174.73" r="10"/></clipPath></defs><title>speciality-illustration-consumer-trust</title><path class="cls-2" d="M167.23,105.67H84.32a15.88,15.88,0,0,0-15.88,15.88v26.25a15.88,15.88,0,0,0,15.88,15.88H207.9a15.88,15.88,0,0,1,15.88,15.88v4.91a15.88,15.88,0,0,1-15.88,15.88H163.12a15.88,15.88,0,0,0-15.88,15.88v42"/><circle class="cls-3" cx="235.16" cy="215" r="7"/><path class="cls-4" d="M235.16,208.5a6.5,6.5,0,1,1-6.5,6.5,6.51,6.51,0,0,1,6.5-6.5m0-1a7.5,7.5,0,1,0,7.5,7.5,7.5,7.5,0,0,0-7.5-7.5Z"/><line class="cls-5" x1="240.45" y1="209.71" x2="229.87" y2="220.29"/><path class="cls-6" d="M118.51,92.37a2,2,0,1,1-2,2,2,2,0,0,1,2-2m0-1a3,3,0,1,0,3,3,3,3,0,0,0-3-3Z"/><path class="cls-6" d="M195.07,185.73a1.5,1.5,0,1,1-1.5,1.5,1.5,1.5,0,0,1,1.5-1.5m0-1a2.5,2.5,0,1,0,2.5,2.5,2.5,2.5,0,0,0-2.5-2.5Z"/><path class="cls-7" d="M101.82,18a2.5,2.5,0,1,1-1.38.42,2.5,2.5,0,0,1,1.38-.42m0-1a3.5,3.5,0,1,0,2.91,1.56A3.48,3.48,0,0,0,101.82,17Z"/><line class="cls-2" x1="67.58" y1="197.82" x2="81.09" y2="197.75"/><line class="cls-2" x1="75.18" y1="194.03" x2="85.4" y2="193.97"/><line class="cls-2" x1="83.17" y1="197.74" x2="85.42" y2="197.73"/><ellipse class="cls-2" cx="72.41" cy="194.04" rx="1.04" transform="translate(-1.06 0.4) rotate(-0.31)"/><ellipse class="cls-2" cx="68.6" cy="194.06" rx="1.04" transform="translate(-1.06 0.38) rotate(-0.31)"/><line class="cls-2" x1="64.42" y1="63.35" x2="50.9" y2="63.36"/><line class="cls-8" x1="56.79" y1="67.11" x2="46.57" y2="67.12"/><line class="cls-8" x1="48.82" y1="63.36" x2="46.57" y2="63.36"/><ellipse class="cls-2" cx="59.57" cy="67.11" rx="1.04"/><ellipse class="cls-8" cx="63.38" cy="67.11" rx="1.04"/><path class="cls-3" d="M194.41,31.08a1.5,1.5,0,1,1,1.16-.54,1.5,1.5,0,0,1-1.16.54Z"/><path class="cls-6" d="M194.42,28.58a1,1,0,1,1-.77.36,1,1,0,0,1,.77-.36m0-1a2,2,0,1,0,1.27.46,2,2,0,0,0-1.27-.46Z"/><path class="cls-7" d="M96.23,125.76a1,1,0,0,1,.64.23,1,1,0,0,1-.64,1.77,1,1,0,0,1-.77-1.64,1,1,0,0,1,.77-.36m0-1a2,2,0,1,0,1.27.46,2,2,0,0,0-1.27-.46Z"/><path class="cls-7" d="M157.25,66.23a2.5,2.5,0,1,1-2.32,1.56,2.49,2.49,0,0,1,2.32-1.56m0-1a3.5,3.5,0,1,0,1.31.26,3.5,3.5,0,0,0-1.31-.26Z"/><line class="cls-9" x1="14.93" y1="112.63" x2="23.89" y2="108.96"/><line class="cls-9" x1="25.39" y1="106.04" x2="23.97" y2="96.58"/><circle class="cls-9" cx="25.59" cy="108.06" r="2.06" transform="translate(-84.18 91.26) rotate(-67.97)"/><circle class="cls-9" cx="23.6" cy="94.44" r="2.06" transform="translate(-72.8 80.9) rotate(-67.97)"/><circle class="cls-9" cx="13.09" cy="113.43" r="2.06" transform="translate(-96.97 83.02) rotate(-67.97)"/><line class="cls-9" x1="263.97" y1="49.08" x2="244.51" y2="51.83"/><line class="cls-9" x1="241.14" y1="53.54" x2="238.31" y2="56.33"/><circle class="cls-9" cx="242.59" cy="52" r="2.06" transform="translate(48.06 205.99) rotate(-50.46)"/><circle class="cls-9" cx="236.86" cy="57.66" r="2.06" transform="translate(41.62 203.63) rotate(-50.46)"/><circle class="cls-9" cx="266.15" cy="48.71" r="2.06" transform="translate(59.16 222.95) rotate(-50.46)"/><line class="cls-9" x1="108.22" y1="227.5" x2="110.89" y2="236.58"/><circle class="cls-9" cx="107.39" cy="225.66" r="2.06" transform="translate(-135.88 282.93) rotate(-77.8)"/><circle class="cls-9" cx="111.67" cy="238.75" r="2.06" transform="translate(-145.28 297.44) rotate(-77.8)"/><line class="cls-8" x1="142.16" y1="145.18" x2="167.41" y2="145.18"/><line class="cls-10" x1="156.41" y1="141.42" x2="175.51" y2="141.42"/><line class="cls-9" x1="171.3" y1="145.18" x2="175.51" y2="145.18"/><ellipse class="cls-2" cx="151.23" cy="141.42" rx="1.94"/><ellipse class="cls-9" cx="144.11" cy="141.42" rx="1.94"/><circle class="cls-4" cx="147.25" cy="261.67" r="1.5"/><circle class="cls-5" cx="147.25" cy="261.67" r="3.5"/><path class="cls-11" d="M135.82,292.45s-1.37,1.33-1.37-9c0-6.42,6.29-9.44,12.79-9.44,10.36,0,11.71,4.66,12.42,7.12,1,3.46.4,11.38-.83,10.69"/><path class="cls-11" d="M152.65,306.32l.87,3.38a7.72,7.72,0,0,1-12.55,0l.9-3.49"/><path class="cls-11" d="M126.52,314.15s-4,.61-6,8.47a66.34,66.34,0,0,0-2,14h8"/><polyline class="cls-11" points="153.52 309.7 167.98 314.15 167.98 336.66 126.52 336.66 126.52 314.15 140.97 309.7"/><path class="cls-11" d="M168,314.15s4,.61,6,8.47a66.34,66.34,0,0,1,2,14h-8"/><path class="cls-11" d="M138,287.62c4.71,0,16.6-4.41,18.07-5h.28c.44.44,2.59,7.18,2.48,9.8a28.64,28.64,0,0,1-4,11.39,8.69,8.69,0,0,1-15,0,28.64,28.64,0,0,1-4-11.39,19.84,19.84,0,0,1,1.91-7.8C138.18,284.21,135.75,287.62,138,287.62Z"/><path class="cls-11" d="M155.71,310.12s-3.13,4.82-8.46,4.82-8.46-4.82-8.46-4.82"/><circle class="cls-1" cx="48.87" cy="174.73" r="10"/><g class="cls-12"><line class="cls-1" x1="52.71" y1="156.73" x2="20.1" y2="189.35"/><line class="cls-1" x1="56.82" y1="156.73" x2="24.21" y2="189.35"/><line class="cls-1" x1="60.94" y1="156.73" x2="28.32" y2="189.35"/><line class="cls-1" x1="65.05" y1="156.73" x2="32.43" y2="189.35"/><line class="cls-1" x1="69.16" y1="156.73" x2="36.54" y2="189.35"/><line class="cls-1" x1="73.27" y1="156.73" x2="40.65" y2="189.35"/><line class="cls-1" x1="77.38" y1="156.73" x2="44.76" y2="189.35"/><line class="cls-1" x1="81.49" y1="156.73" x2="48.87" y2="189.35"/></g><circle class="cls-1" cx="48.92" cy="174.73" r="10"/><circle class="cls-11" cx="243.86" cy="92.23" r="4"/><path class="cls-11" d="M235.86,98.9h16a0,0,0,0,1,0,0v9.39a7.95,7.95,0,0,1-7.95,7.95h-.11a7.95,7.95,0,0,1-7.95-7.95V98.9A0,0,0,0,1,235.86,98.9Z" transform="translate(487.72 215.13) rotate(180)"/><line class="cls-13" x1="219.4" y1="99.23" x2="210.36" y2="99.23"/><line class="cls-14" x1="224.55" y1="99.23" x2="222.03" y2="99.23"/><line class="cls-13" x1="229.56" y1="99.23" x2="227.04" y2="99.23"/><polyline class="cls-13" points="214.6 94.37 209.75 99.22 214.6 104.08"/><line class="cls-15" x1="219.04" y1="108.58" x2="231.14" y2="108.58"/><line class="cls-15" x1="214.6" y1="108.58" x2="216.41" y2="108.58"/><line class="cls-15" x1="207.49" y1="108.58" x2="212.18" y2="108.58"/><polyline class="cls-15" points="226.9 103.73 231.75 108.58 226.9 113.43"/><path class="cls-4" d="M193.13,88.52l6.61,2.41,1.78,5.28-6.72,18.46-13.16-4.79,6.72-18.46,4.76-2.9m-.11-1.1-5.47,3.33-7.18,19.73,15,5.47,7.18-19.73-2-6.07L193,87.42Z"/><path class="cls-4" d="M195.07,92.48a1,1,0,1,1-.94.66,1,1,0,0,1,.94-.66m0-1a2,2,0,1,0,.68.12,2,2,0,0,0-.68-.12Z"/><line class="cls-16" x1="191.24" y1="98.14" x2="187.82" y2="107.54"/><line class="cls-16" x1="195" y1="99.51" x2="193.29" y2="104.21"/><circle class="cls-17" cx="99.23" cy="46.83" r="7.5"/><path class="cls-17" d="M95.9,49.68a4.71,4.71,0,0,1,6.66,0"/><circle class="cls-5" cx="38.9" cy="174.73" r="10"/></svg>