<svg xmlns="http://www.w3.org/2000/svg" viewBox="0 0 520 180"><defs><style>.cls-1{fill:#abb3e8;}.cls-1,.cls-13,.cls-2,.cls-8{stroke:#2c41c6;}.cls-1,.cls-10,.cls-11,.cls-12,.cls-13,.cls-14,.cls-15,.cls-16,.cls-17,.cls-2,.cls-4,.cls-7,.cls-8,.cls-9{stroke-miterlimit:10;}.cls-11,.cls-2{fill:#fff;}.cls-3{fill:#2c41c6;}.cls-10,.cls-12,.cls-13,.cls-14,.cls-15,.cls-16,.cls-17,.cls-4,.cls-7,.cls-8,.cls-9{fill:none;}.cls-4{stroke:#dadada;}.cls-5{fill:#dadada;}.cls-6{fill:#3c3c3b;}.cls-7{stroke:#3c3c3b;}.cls-12,.cls-14,.cls-15,.cls-17,.cls-8,.cls-9{stroke-linecap:round;}.cls-16,.cls-9{stroke:#51b793;}.cls-10{stroke:#f2aab9;}.cls-11,.cls-12{stroke:#de2a50;}.cls-14{stroke:#fceb3e;}.cls-15{stroke:#fac02f;}.cls-17{stroke:#fa7822;}.cls-18{fill:#de2a50;}</style></defs><title>speciality-illustration-privacy-by-design</title><g id="Layer_1" data-name="Layer 1"><rect class="cls-1" x="143.57" y="77.66" width="116" height="79.38" rx="2" ry="2"/><rect class="cls-1" x="133.57" y="152.24" width="136" height="6.86" rx="1" ry="1"/><rect class="cls-2" x="148.43" y="82.08" width="106.28" height="67.48" rx="2" ry="2"/><path class="cls-3" d="M387.26,109.12v48h-11v-48h11m1-1h-13v50h13v-50Z"/><path class="cls-3" d="M381.79,146.59a3,3,0,1,1-3,3,3,3,0,0,1,3-3m0-1a4,4,0,1,0,4,4,4,4,0,0,0-4-4Z"/><line class="cls-4" x1="378.29" y1="113.41" x2="385.29" y2="113.41"/><line class="cls-4" x1="378.29" y1="117.9" x2="385.29" y2="117.9"/><line class="cls-4" x1="378.29" y1="122.39" x2="385.29" y2="122.39"/><line class="cls-4" x1="378.29" y1="126.89" x2="385.29" y2="126.89"/><line class="cls-4" x1="378.29" y1="131.38" x2="385.29" y2="131.38"/><line class="cls-4" x1="378.29" y1="135.87" x2="385.29" y2="135.87"/><path class="cls-3" d="M403.47,109.12v48h-11v-48h11m1-1h-13v50h13v-50Z"/><path class="cls-3" d="M398,146.59a3,3,0,1,1-3,3,3,3,0,0,1,3-3m0-1a4,4,0,1,0,4,4,4,4,0,0,0-4-4Z"/><line class="cls-4" x1="394.51" y1="113.41" x2="401.51" y2="113.41"/><line class="cls-4" x1="394.51" y1="117.9" x2="401.51" y2="117.9"/><line class="cls-4" x1="394.51" y1="122.39" x2="401.51" y2="122.39"/><line class="cls-4" x1="394.51" y1="126.89" x2="401.51" y2="126.89"/><line class="cls-4" x1="394.51" y1="131.38" x2="401.51" y2="131.38"/><line class="cls-4" x1="394.51" y1="135.87" x2="401.51" y2="135.87"/><path class="cls-3" d="M419.69,109.12v48h-11v-48h11m1-1h-13v50h13v-50Z"/><path class="cls-3" d="M414.22,146.59a3,3,0,1,1-3,3,3,3,0,0,1,3-3m0-1a4,4,0,1,0,4,4,4,4,0,0,0-4-4Z"/><line class="cls-4" x1="410.72" y1="113.41" x2="417.72" y2="113.41"/><line class="cls-4" x1="410.72" y1="117.9" x2="417.72" y2="117.9"/><line class="cls-4" x1="410.72" y1="122.39" x2="417.72" y2="122.39"/><line class="cls-4" x1="410.72" y1="126.89" x2="417.72" y2="126.89"/><line class="cls-4" x1="410.72" y1="131.38" x2="417.72" y2="131.38"/><line class="cls-4" x1="410.72" y1="135.87" x2="417.72" y2="135.87"/><polyline class="cls-4" points="332.34 63.95 338.1 69.32 343.69 63.95"/><line class="cls-4" x1="338.02" y1="69.39" x2="338.02" y2="53.82"/><polyline class="cls-4" points="347.17 69.39 347.17 75.34 328.86 75.34 328.86 69.39"/><path class="cls-5" d="M196.07,21.11a3.5,3.5,0,1,1-3.5,3.5,3.5,3.5,0,0,1,3.5-3.5m0-1a4.5,4.5,0,1,0,4.5,4.5,4.5,4.5,0,0,0-4.5-4.5Z"/><path class="cls-6" d="M317.2,93.5a2.5,2.5,0,1,1-2.5,2.5,2.5,2.5,0,0,1,2.5-2.5m0-1a3.5,3.5,0,1,0,3.5,3.5,3.5,3.5,0,0,0-3.5-3.5Z"/><circle class="cls-4" cx="122.22" cy="143.65" r="3"/><path class="cls-5" d="M406.74,46.83a2.5,2.5,0,1,1-2.5,2.5,2.5,2.5,0,0,1,2.5-2.5m0-1a3.5,3.5,0,1,0,3.5,3.5,3.5,3.5,0,0,0-3.5-3.5Z"/><path class="cls-6" d="M462.74,72.83a2.5,2.5,0,1,1-2.5,2.5,2.5,2.5,0,0,1,2.5-2.5m0-1a3.5,3.5,0,1,0,3.5,3.5,3.5,3.5,0,0,0-3.5-3.5Z"/><path class="cls-5" d="M444.79,93.52a3.5,3.5,0,1,1-3.5,3.5,3.5,3.5,0,0,1,3.5-3.5m0-1a4.5,4.5,0,1,0,4.5,4.5,4.5,4.5,0,0,0-4.5-4.5Z"/><line class="cls-7" x1="111.47" y1="55.87" x2="116.1" y2="47.87"/><line class="cls-7" x1="121.47" y1="45.99" x2="150.1" y2="56.24"/><circle class="cls-7" cx="118.24" cy="44.75" r="3.5"/><circle class="cls-7" cx="153.49" cy="57.11" r="3.5"/><circle class="cls-7" cx="109.54" cy="58.95" r="3.5"/><line class="cls-4" x1="335.6" y1="106.11" x2="352.09" y2="106.11"/><line class="cls-4" x1="344.9" y1="110.69" x2="357.37" y2="110.69"/><line class="cls-4" x1="354.63" y1="106.11" x2="357.37" y2="106.11"/><ellipse class="cls-4" cx="341.52" cy="110.69" rx="1.27"/><ellipse class="cls-4" cx="336.87" cy="110.69" rx="1.27"/><rect class="cls-2" x="193.57" y="152.24" width="16" height="2"/><polyline class="cls-8" points="214.52 113.37 228.57 113.37 228.57 95.85 236.73 95.85"/><polyline class="cls-8" points="223.59 113.99 223.59 124.38 239.45 124.38"/><polyline class="cls-8" points="182.78 113.41 167.82 113.41 167.82 95.65 163.22 95.65"/><polyline class="cls-8" points="176.89 113.41 176.89 127.28 164.2 127.28"/><polyline class="cls-8" points="167.82 103.55 176.89 103.55 176.89 89.95"/><line class="cls-8" x1="170.54" y1="127.28" x2="170.54" y2="137.55"/><line class="cls-8" x1="231.14" y1="124.38" x2="231.14" y2="141.18"/><circle class="cls-3" cx="236.73" cy="95.85" r="1.81"/><circle class="cls-3" cx="240.36" cy="124.38" r="1.81"/><circle class="cls-3" cx="231.14" cy="141.68" r="1.81"/><circle class="cls-3" cx="170.54" cy="137.55" r="1.81"/><circle class="cls-3" cx="164.2" cy="127.28" r="1.81"/><circle class="cls-3" cx="162.78" cy="95.65" r="1.81"/><circle class="cls-3" cx="176.89" cy="89.95" r="1.81"/><path class="cls-9" d="M192.83,99.56a12,12,0,0,1,6.13-1.7c6,0,10.85,4.56,10.85,10.13v2.17"/><path class="cls-9" d="M188.1,120.3V108a9.35,9.35,0,0,1,2-6.06"/><path class="cls-9" d="M190.55,128.87a10,10,0,0,1-2.31-5.84"/><path class="cls-9" d="M191.72,110.89v-2.17c0-3.55,3.33-6.51,7.23-6.51s7.23,3,7.23,6.51v12.86"/><path class="cls-9" d="M205.08,125.55a7.52,7.52,0,0,1-6.12,3.09,7.36,7.36,0,0,1-6.77-4.26,5.76,5.76,0,0,1-.46-2.26V120"/><path class="cls-9" d="M204.77,125.95a7.57,7.57,0,0,1-5.81,2.69,7.7,7.7,0,0,1-1.43-.13"/><path class="cls-9" d="M195.7,123.42v-14a3.28,3.28,0,0,1,6.51,0v4.7"/><path class="cls-9" d="M209.81,113.78v8.58c0,5.57-4.81,10.13-10.85,10.13a12,12,0,0,1-6.13-1.7"/><line class="cls-9" x1="191.72" y1="121.66" x2="191.72" y2="114.51"/><line class="cls-9" x1="202.21" y1="117.76" x2="202.21" y2="123.03"/><line class="cls-9" x1="198.96" y1="111.01" x2="198.96" y2="124.3"/><polygon class="cls-10" points="284.82 89.47 247.83 89.47 247.83 63.85 257.15 63.85 259.45 66.29 284.82 66.29 284.82 89.47"/><polygon class="cls-11" points="279.94 94.31 242.95 94.31 242.95 68.7 252.27 68.7 254.57 71.14 279.94 71.14 279.94 94.31"/><path class="cls-3" d="M74.61,109.36a5.5,5.5,0,1,1-5.5,5.5,5.51,5.51,0,0,1,5.5-5.5m0-1a6.5,6.5,0,1,0,6.5,6.5,6.5,6.5,0,0,0-6.5-6.5Z"/><path class="cls-8" d="M85.8,131.72a10.33,10.33,0,0,0-10-7.86H73.44a10.33,10.33,0,0,0-10.33,10.33V149H72.9"/><path class="cls-9" d="M77.83,134.23A8.05,8.05,0,0,1,82,133.09a7.06,7.06,0,0,1,7.3,6.82v1.46"/><path class="cls-9" d="M89.26,148.12v1.46A7.06,7.06,0,0,1,82,156.4a8.05,8.05,0,0,1-4.12-1.14"/><path class="cls-9" d="M74.65,148.19v-8.28A6.29,6.29,0,0,1,76,135.83"/><path class="cls-9" d="M76.3,154A6.72,6.72,0,0,1,74.74,150"/><path class="cls-9" d="M77.09,141.86V140.4a4.9,4.9,0,0,1,9.74,0v8.65"/><path class="cls-9" d="M86.08,151.72A5.06,5.06,0,0,1,82,153.8a5,5,0,0,1-4.56-2.86,3.87,3.87,0,0,1-.31-1.52V148"/><path class="cls-9" d="M85.87,152A5.09,5.09,0,0,1,82,153.8a5.19,5.19,0,0,1-1-.09"/><path class="cls-9" d="M79.77,150.29v-9.41a2.21,2.21,0,0,1,4.38,0V144"/><line class="cls-9" x1="89.26" y1="143.81" x2="89.26" y2="148.19"/><line class="cls-9" x1="77.09" y1="149.11" x2="77.09" y2="144.29"/><line class="cls-9" x1="84.15" y1="146.48" x2="84.15" y2="150.03"/><line class="cls-9" x1="81.96" y1="141.94" x2="81.96" y2="150.88"/><path class="cls-12" d="M454.48,117.42a9.34,9.34,0,0,1,4.78-1.32,8.19,8.19,0,0,1,8.47,7.91v1.69"/><path class="cls-12" d="M467.74,133.53v1.69a8.19,8.19,0,0,1-8.47,7.91,9.34,9.34,0,0,1-4.78-1.32"/><path class="cls-12" d="M450.79,133.61V124a7.3,7.3,0,0,1,1.57-4.73"/><path class="cls-12" d="M452.7,140.3a7.8,7.8,0,0,1-1.81-4.56"/><path class="cls-12" d="M453.62,126.26v-1.69c0-2.77,2.6-5.08,5.65-5.08s5.65,2.32,5.65,5.08v10"/><path class="cls-12" d="M464,137.71a5.87,5.87,0,0,1-4.78,2.41A5.75,5.75,0,0,1,454,136.8a4.49,4.49,0,0,1-.36-1.76v-1.69"/><path class="cls-12" d="M463.81,138a5.91,5.91,0,0,1-4.54,2.1,6,6,0,0,1-1.12-.1"/><path class="cls-12" d="M456.73,136V125.13a2.56,2.56,0,0,1,5.08,0v3.67"/><line class="cls-12" x1="467.74" y1="128.52" x2="467.74" y2="133.61"/><line class="cls-12" x1="453.62" y1="134.67" x2="453.62" y2="129.09"/><line class="cls-12" x1="461.81" y1="131.63" x2="461.81" y2="135.74"/><line class="cls-12" x1="459.27" y1="126.36" x2="459.27" y2="136.73"/><rect class="cls-13" x="497.67" y="126.25" width="16.24" height="16.24"/><path class="cls-2" d="M505.78,116.69h0a4.78,4.78,0,0,0-4.78,4.78v4.78h9.55v-4.78A4.78,4.78,0,0,0,505.78,116.69Z"/><path class="cls-2" d="M505.78,118.6h0a2.87,2.87,0,0,1,2.87,2.87v4.78a0,0,0,0,1,0,0h-5.73a0,0,0,0,1,0,0v-4.78A2.87,2.87,0,0,1,505.78,118.6Z"/><circle class="cls-3" cx="505.79" cy="132.46" r="1.91"/><rect class="cls-3" x="504.83" y="133.89" width="1.91" height="4.78"/><line class="cls-14" x1="483.3" y1="126.15" x2="490.85" y2="126.15"/><line class="cls-14" x1="479" y1="126.15" x2="481.1" y2="126.15"/><line class="cls-14" x1="474.81" y1="126.15" x2="476.91" y2="126.15"/><polyline class="cls-14" points="487.3 122.1 491.36 126.16 487.3 130.21"/><line class="cls-15" x1="483.59" y1="133.97" x2="473.49" y2="133.97"/><line class="cls-15" x1="487.3" y1="133.97" x2="485.79" y2="133.97"/><line class="cls-15" x1="493.25" y1="133.97" x2="489.33" y2="133.97"/><polyline class="cls-15" points="477.03 129.92 472.98 133.97 477.03 138.02"/><path class="cls-3" d="M284,18a2.5,2.5,0,1,1-2.5,2.5A2.5,2.5,0,0,1,284,18m0-1a3.5,3.5,0,1,0,3.5,3.5A3.5,3.5,0,0,0,284,17Z"/><path class="cls-3" d="M284,26a5,5,0,0,1,5,5v6H279v-6a5,5,0,0,1,5-5H284m0-1h-.08a6,6,0,0,0-6,6v7h12v-7a6,6,0,0,0-6-6Z"/><line class="cls-16" x1="283.86" y1="11.22" x2="283.86" y2="5.77"/><line class="cls-16" x1="296.13" y1="16.34" x2="299.99" y2="12.48"/><line class="cls-16" x1="301.18" y1="28.64" x2="306.64" y2="28.64"/><line class="cls-16" x1="296.07" y1="40.9" x2="299.92" y2="44.76"/><line class="cls-16" x1="283.86" y1="45.96" x2="283.86" y2="51.42"/><line class="cls-16" x1="271.5" y1="40.84" x2="267.65" y2="44.7"/><line class="cls-16" x1="266.45" y1="28.55" x2="260.99" y2="28.55"/><line class="cls-16" x1="271.57" y1="16.28" x2="267.71" y2="12.42"/><polyline class="cls-9" points="286.37 8.71 283.86 11.22 281.35 8.71"/><polyline class="cls-9" points="286.28 48.47 283.77 45.96 281.26 48.47"/><polyline class="cls-9" points="271.57 12.72 271.57 16.28 268.01 16.28"/><polyline class="cls-9" points="299.62 40.9 296.06 40.9 296.06 44.46"/><polyline class="cls-9" points="263.94 26.03 266.45 28.55 263.94 31.06"/><polyline class="cls-9" points="303.7 26.12 301.18 28.64 303.7 31.15"/><polyline class="cls-9" points="267.95 40.84 271.5 40.84 271.5 44.39"/><polyline class="cls-9" points="296.13 12.79 296.13 16.34 299.68 16.34"/><line class="cls-17" x1="308.67" y1="157.57" x2="297.07" y2="157.57"/><line class="cls-17" x1="336.95" y1="157.57" x2="333.83" y2="157.57"/><polyline class="cls-17" points="300.22 153.96 296.62 157.57 300.22 161.17"/><line class="cls-17" x1="342.96" y1="157.57" x2="339.84" y2="157.57"/><line class="cls-15" x1="333.79" y1="149.07" x2="342.78" y2="149.07"/><polyline class="cls-15" points="339.63 145.47 343.24 149.07 339.63 152.67"/><line class="cls-12" x1="338.06" y1="166.07" x2="347.05" y2="166.07"/><polyline class="cls-12" points="343.9 162.46 347.5 166.06 343.9 169.67"/><line class="cls-12" x1="335.4" y1="166.07" x2="333.83" y2="166.07"/><line class="cls-12" x1="309.45" y1="166.07" x2="305.21" y2="166.07"/><line class="cls-15" x1="313.45" y1="149.07" x2="305.21" y2="149.07"/><line class="cls-15" x1="331.67" y1="149.07" x2="329.73" y2="149.07"/><line class="cls-12" x1="302.7" y1="166.07" x2="300.22" y2="166.07"/><path class="cls-13" d="M321.71,140.66h0a5.85,5.85,0,0,0-5.81,5.88l.08,6.16,11.69-.07-.08-6.16A5.85,5.85,0,0,0,321.71,140.66Z"/><path class="cls-13" d="M321.72,143h0a3.51,3.51,0,0,0-3.49,3.53l.07,6.15,7,0-.07-6.15A3.51,3.51,0,0,0,321.72,143Z"/><path class="cls-3" d="M330.86,153.12,331,171l-17.88.11L313,153.23l17.88-.11m1-1-19.88.12.12,19.88L332,172l-.12-19.88Z"/><circle class="cls-3" cx="321.84" cy="160.24" r="2.34" transform="translate(-0.96 1.94) rotate(-0.34)"/><rect class="cls-3" x="320.69" y="161.99" width="2.34" height="5.85" transform="translate(-0.99 1.94) rotate(-0.34)"/></g><g id="Isolation_Mode" data-name="Isolation Mode"><path class="cls-18" d="M44.7,76.53a35.43,35.43,0,0,0-10.06-7.92h0l-.15-.08-1.35-.67,0,.06a20,20,0,0,0-7.76-1.76H25.3a20,20,0,0,0-7.68,1.61l0-.06-1.34.64h0l-.15.07h0A35.39,35.39,0,0,0,5.94,76.14l-.28.32.27.33c.35.42,8.68,10.26,19.29,10.37h.17c10.52,0,18.95-9.57,19.3-10l.28-.32ZM25.81,67.18a19.86,19.86,0,0,1,8.06,2.17c.09.19.17.38.24.57s.13.29.18.44.14.45.2.68.09.29.12.44.09.5.13.75.05.27.07.4a10.26,10.26,0,0,1,.06,1.18A9.91,9.91,0,0,1,32,80.73a9.32,9.32,0,0,1-6.2,2.78Zm-9.92,5.26c0-.12,0-.24.06-.36s.08-.53.15-.79.09-.29.13-.44.13-.45.21-.66.14-.32.21-.48.15-.35.23-.52a22.6,22.6,0,0,1,3.69-1.36l-4.7,4.75S15.88,72.48,15.89,72.44Zm6.5-5a17.49,17.49,0,0,1,2.43-.24v.64l-8.58,8.67a10,10,0,0,1-.4-2.44Zm0,15.62a9.3,9.3,0,0,1-1.93-.89l4.33-4.37v5.73a9.28,9.28,0,0,1-1.29-.17l1.24-1.26V80.64Zm.56.16-.49-.13Zm-3.32-1.63a9.72,9.72,0,0,1-1.45-1.38l6.62-6.69v2.84Zm-2.06-2.18a9.88,9.88,0,0,1-1-1.86l8.22-8.3v2.84ZM16.39,77l-.08-.22Zm9,9.13h-.16c-9.08-.09-16.69-8-18.24-9.68a35.72,35.72,0,0,1,8.5-6.59c-.12.34-.23.69-.32,1,0,.09,0,.19-.06.28q-.1.45-.17.9c0,.11,0,.21,0,.32a11,11,0,0,0-.08,1.17A10.7,10.7,0,0,0,25.24,84.54h.1a10.32,10.32,0,0,0,7.38-3.1,10.88,10.88,0,0,0,3.09-8.8c0-.11,0-.22,0-.33q-.06-.46-.15-.91c0-.09,0-.19-.06-.28-.08-.35-.18-.7-.3-1a35.79,35.79,0,0,1,8.38,6.76C42.07,78.52,34.4,86.16,25.38,86.16Z"/></g></svg>