<svg id="illustrations" xmlns="http://www.w3.org/2000/svg" viewBox="0 0 135 85"><defs><style>.cls-1,.cls-2,.cls-3{fill:none;stroke-miterlimit:10;}.cls-1{stroke:#fceb3e;}.cls-1,.cls-2{stroke-linecap:round;}.cls-2{stroke:#de2a50;}.cls-3{stroke:#2c41c6;}.cls-4{fill:#2c41c6;}</style></defs><title>contact-icon-loading</title><line class="cls-1" x1="33.53" y1="45.83" x2="3.91" y2="45.83"/><line class="cls-1" x1="105.79" y1="45.83" x2="97.83" y2="45.83"/><polyline class="cls-1" points="11.96 36.63 2.75 45.83 11.96 55.04"/><line class="cls-1" x1="121.14" y1="45.83" x2="113.18" y2="45.83"/><line class="cls-2" x1="97.73" y1="24.12" x2="120.69" y2="24.12"/><polyline class="cls-2" points="112.64 14.91 121.85 24.12 112.64 33.33"/><line class="cls-2" x1="108.63" y1="67.55" x2="131.59" y2="67.55"/><polyline class="cls-2" points="123.55 58.34 132.75 67.55 123.55 76.75"/><line class="cls-2" x1="101.82" y1="67.55" x2="97.83" y2="67.55"/><line class="cls-2" x1="35.53" y1="67.55" x2="24.71" y2="67.55"/><line class="cls-2" x1="45.76" y1="24.12" x2="24.71" y2="24.12"/><line class="cls-2" x1="92.3" y1="24.12" x2="87.35" y2="24.12"/><line class="cls-2" x1="18.29" y1="67.55" x2="11.96" y2="67.55"/><path class="cls-3" d="M82,32.13l0-14.56a14.94,14.94,0,0,0-15-14.93h0a14.94,14.94,0,0,0-14.93,15l0,14.56"/><path class="cls-3" d="M76.06,32.4l0-14.83a9,9,0,0,0-9-9h0a9,9,0,0,0-9,9l0,14.83"/><path class="cls-4" d="M91.83,33l0,48.79-48.79,0,0-48.79,48.79,0m1-1L42,32.09l0,50.79,50.79,0,0-50.79Z"/><path class="cls-4" d="M73.1,50.73a6,6,0,1,0-9,5.18V70.16h6V55.91A6,6,0,0,0,73.1,50.73Z"/></svg>