<svg id="Layer_1" data-name="Layer 1" xmlns="http://www.w3.org/2000/svg" viewBox="0 0 94 94"><defs><style>.cls-1,.cls-2,.cls-3,.cls-4,.cls-5,.cls-6,.cls-7,.cls-8,.cls-9{fill:none;}.cls-1{stroke:#3c3c3b;stroke-miterlimit:10;stroke-width:2px;stroke-dasharray:0 7.07;}.cls-1,.cls-2,.cls-6,.cls-7,.cls-8,.cls-9{stroke-linecap:round;}.cls-2,.cls-5{stroke:#2c41c6;}.cls-2,.cls-3,.cls-4,.cls-5,.cls-6,.cls-7,.cls-8,.cls-9{stroke-linejoin:round;}.cls-3{stroke:#51b793;}.cls-4{stroke:#fac02f;}.cls-6,.cls-7,.cls-8,.cls-9{stroke:#de2a50;}.cls-7{stroke-dasharray:0 2.43;}.cls-8{stroke-dasharray:0 2.11;}.cls-9{stroke-dasharray:0 2.15;}</style></defs><title>speciality-illustration-dsaas-monday</title><circle class="cls-1" cx="46.73" cy="47.59" r="45"/><path class="cls-2" d="M69.73,33.91V61.27s.38,1.82,4,1.82c4.68,0,10.35-5.67,10.35-15.5,0-10-7.74-15.5-11.05-15.5C70.29,32.09,69.73,33.91,69.73,33.91Z"/><path class="cls-2" d="M80.84,37.34s.5,2.5-2.82,2.5"/><path class="cls-2" d="M69.73,43.76s.55-1.19,2.76-1.19a3.13,3.13,0,0,1,2.91,2"/><path class="cls-2" d="M69.73,36.85s.34-.72,1.68-.72a1.77,1.77,0,0,1,1.72.88"/><path class="cls-2" d="M75.19,40.64a1.45,1.45,0,0,1-.51,1.53A1.52,1.52,0,0,1,73,42.6"/><path class="cls-2" d="M69.73,52.72s.55,1.71,3.87,1.71A4.75,4.75,0,0,0,78,51.69"/><path class="cls-2" d="M84.1,47.93s-.59-1.71-4.13-1.71A5.06,5.06,0,0,0,75.26,49"/><path class="cls-2" d="M72.76,57.8a2.26,2.26,0,0,1,2.17,2.9"/><path class="cls-2" d="M68,33.91V61.27s-.38,1.82-4,1.82c-4.68,0-10.35-5.67-10.35-15.5,0-10,7.74-15.5,11.05-15.5C67.42,32.09,68,33.91,68,33.91Z"/><path class="cls-2" d="M56.87,37.34s-.5,2.5,2.82,2.5"/><path class="cls-2" d="M68,43.76s-.55-1.19-2.76-1.19a3.13,3.13,0,0,0-2.91,2"/><path class="cls-2" d="M68,36.85s-.34-.72-1.68-.72a1.77,1.77,0,0,0-1.72.88"/><path class="cls-2" d="M62.52,40.64A1.45,1.45,0,0,0,63,42.17a1.52,1.52,0,0,0,1.67.43"/><path class="cls-2" d="M68,52.72s-.55,1.71-3.87,1.71a4.75,4.75,0,0,1-4.42-2.74"/><path class="cls-2" d="M53.61,47.93s.59-1.71,4.13-1.71A5.06,5.06,0,0,1,62.45,49"/><path class="cls-2" d="M65,57.8a2.26,2.26,0,0,0-2.17,2.9"/><circle class="cls-3" cx="33.73" cy="28.59" r="2.5"/><circle class="cls-4" cx="44.73" cy="41.59" r="2.5"/><circle class="cls-3" cx="48.73" cy="59.59" r="2.5"/><circle class="cls-3" cx="34.73" cy="66.59" r="2.5"/><circle class="cls-4" cx="14.73" cy="50.59" r="2.5"/><line class="cls-5" x1="17.23" y1="36.59" x2="20.39" y2="36.59"/><line class="cls-3" x1="21.97" y1="36.59" x2="32.23" y2="36.59"/><line class="cls-5" x1="32.23" y1="39.59" x2="29.47" y2="39.59"/><line class="cls-5" x1="28.29" y1="39.59" x2="25.52" y2="39.59"/><line class="cls-3" x1="24.34" y1="39.59" x2="17.23" y2="39.59"/><line class="cls-6" x1="44.73" y1="50.59" x2="44.73" y2="50.59"/><line class="cls-7" x1="42.3" y1="50.59" x2="41.08" y2="50.59"/><line class="cls-6" x1="39.86" y1="50.59" x2="39.86" y2="50.59"/><line class="cls-6" x1="35.18" y1="50.59" x2="35.18" y2="50.59"/><line class="cls-8" x1="33.07" y1="50.59" x2="27.79" y2="50.59"/><line class="cls-6" x1="26.73" y1="50.59" x2="26.73" y2="50.59"/><line class="cls-6" x1="51.18" y1="27.59" x2="51.18" y2="27.59"/><line class="cls-9" x1="49.03" y1="27.59" x2="45.81" y2="27.59"/><line class="cls-6" x1="44.73" y1="27.59" x2="44.73" y2="27.59"/><line class="cls-4" x1="28.23" y1="58.59" x2="25.29" y2="58.59"/><line class="cls-4" x1="24.02" y1="58.59" x2="21.08" y2="58.59"/></svg>