<svg id="Layer_1" data-name="Layer 1" xmlns="http://www.w3.org/2000/svg" viewBox="0 0 94 94"><defs><style>.cls-1,.cls-6,.cls-8{fill:none;stroke-linecap:round;}.cls-1{stroke:#3c3c3b;stroke-miterlimit:10;stroke-width:2px;stroke-dasharray:0 7.07;}.cls-2{fill:#ee94a7;stroke:#de2a50;}.cls-2,.cls-4,.cls-6,.cls-8{stroke-linejoin:round;}.cls-3,.cls-7{fill:#2c41c6;}.cls-3,.cls-5{opacity:0.5;}.cls-4{fill:#abb3e8;}.cls-4,.cls-6{stroke:#2c41c6;}.cls-5{fill:#3b56a3;}.cls-8{stroke:#51b793;}</style></defs><title>speciality-illustration-dsaas-tuesday</title><circle class="cls-1" cx="46.97" cy="47.59" r="45"/><rect class="cls-2" x="57.11" y="12.36" width="8.5" height="9.59" transform="translate(13 -24.33) rotate(25)"/><rect class="cls-3" x="43.1" y="27.2" width="8.5" height="40.04" transform="translate(24.39 -15.59) rotate(25)"/><rect class="cls-4" x="43.1" y="27.2" width="8.5" height="40.04" transform="translate(24.39 -15.59) rotate(25)"/><rect class="cls-5" x="53.29" y="21.1" width="8.5" height="8.5" transform="translate(16.11 -21.94) rotate(25)"/><rect class="cls-4" x="52.12" y="26.46" width="8.5" height="2.81" transform="translate(17.06 -21.21) rotate(25)"/><rect class="cls-4" x="53.31" y="23.91" width="8.5" height="2.81" transform="translate(16.09 -21.95) rotate(25)"/><rect class="cls-4" x="54.49" y="21.37" width="8.5" height="2.81" transform="translate(15.13 -22.69) rotate(25)"/><polygon class="cls-6" points="35.03 63.56 33.28 77.38 42.74 67.16 35.03 63.56"/><polygon class="cls-7" points="34.21 71.84 33.28 77.38 36.93 73.11 34.21 71.84"/><line class="cls-8" x1="69.22" y1="81.09" x2="26.22" y2="81.09"/><line class="cls-8" x1="41.22" y1="76.09" x2="73.22" y2="76.09"/><line class="cls-8" x1="21.22" y1="76.09" x2="29.22" y2="76.09"/></svg>