<svg id="Layer_1" data-name="Layer 1" xmlns="http://www.w3.org/2000/svg" viewBox="0 0 94 94"><defs><style>.cls-1,.cls-3,.cls-5,.cls-7,.cls-9{fill:none;}.cls-1{stroke:#3c3c3b;stroke-linecap:round;stroke-miterlimit:10;stroke-width:2px;stroke-dasharray:0 7.07;}.cls-2{fill:#de2a50;}.cls-2,.cls-4,.cls-6{opacity:0.5;}.cls-3{stroke:#de2a50;}.cls-3,.cls-5,.cls-7,.cls-9{stroke-linejoin:round;}.cls-4{fill:#51b793;}.cls-5{stroke:#51b793;}.cls-6{fill:#fac02f;}.cls-7{stroke:#fac02f;}.cls-8{fill:#fff;}.cls-9{stroke:#2c41c6;}</style></defs><title>speciality-illustration-dsaas-wednesday</title><circle class="cls-1" cx="46.93" cy="47.59" r="45"/><rect class="cls-2" x="36.55" y="36.75" width="17.77" height="17.77"/><rect class="cls-3" x="36.55" y="36.75" width="17.77" height="17.77"/><polygon class="cls-4" points="81.93 53.57 61.2 53.84 71.33 36.25 81.93 53.57"/><polygon class="cls-5" points="81.93 53.57 61.2 53.84 71.33 36.25 81.93 53.57"/><circle class="cls-6" cx="21.31" cy="45.63" r="8.89"/><circle class="cls-7" cx="21.31" cy="45.63" r="8.89"/><polygon class="cls-8" points="58.23 60.17 45.06 51.15 46.28 67.07 50.7 64.52 54.59 71.27 57.71 69.47 53.81 62.72 58.23 60.17"/><polygon class="cls-9" points="58.23 60.17 45.06 51.15 46.28 67.07 50.7 64.52 54.59 71.27 57.71 69.47 53.81 62.72 58.23 60.17"/></svg>