<?xml version="1.0" encoding="UTF-8"?>
<svg width="33px" height="41px" viewBox="0 0 33 41" version="1.1" xmlns="http://www.w3.org/2000/svg" xmlns:xlink="http://www.w3.org/1999/xlink">
    <!-- Generator: Sketch 43.1 (39012) - http://www.bohemiancoding.com/sketch -->
    <title>Taste Icon</title>
    <desc>Created with Sketch.</desc>
    <defs></defs>
    <g id="Desktop" stroke="none" stroke-width="1" fill="none" fill-rule="evenodd">
        <g id="5.0_Manifesto-Nathan's-Bio" transform="translate(-665.000000, -5144.000000)" stroke="#2C41C6">
            <g id="5-Senses" transform="translate(43.000000, 4688.000000)">
                <g id="Taste-Icon" transform="translate(623.000000, 457.000000)">
                    <path d="M30.8000919,4.77160851 C28.8965243,2.57765106 26.9921189,0.384523404 23.2218486,0.415225532 C19.4507405,0.44592766 17.5840378,2.67058723 15.7164973,4.89524681 C13.8497946,7.12073617 11.9822541,9.34456596 8.21114595,9.37609787 C4.44003784,9.4068 2.53647027,7.21284255 0.631227027,5.01971489" id="Stroke-1"></path>
                    <path d="M30.8000919,14.4924 C28.8965243,12.2984426 26.9921189,10.1053149 23.2218486,10.136017 C19.4507405,10.1667191 17.5840378,12.3913787 15.7164973,14.6160383 C13.8497946,16.8415277 11.9822541,19.0653574 8.21114595,19.0968894 C4.44003784,19.1275915 2.53647027,16.933634 0.631227027,14.7405064" id="Stroke-3"></path>
                    <path d="M0.418583784,21.7947766 L0.418583784,23.5622234 C0.418583784,31.859266 7.2100973,38.5846915 15.5876378,38.5846915 C23.9651784,38.5846915 30.7566919,31.859266 30.7566919,23.5622234 L30.7566919,21.7947766" id="Stroke-5"></path>
                </g>
            </g>
        </g>
    </g>
</svg>